  0
SECTION
  2
HEADER
  9
$ACADVER
  1
AC1021
  9
$ACADMAINTVER
 70
    25
  9
$DWGCODEPAGE
  3
ANSI_1252
  9
$INSBASE
 10
0.0
 20
0.0
 30
0.0
  9
$EXTMIN
 10
-24.21508
 20
-9.77646
 30
0.0
  9
$EXTMAX
 10
24.35478
 20
29.37878
 30
0.0
  9
$LIMMIN
 10
0.0
 20
0.0
  9
$LIMMAX
 10
12.0
 20
9.0
  9
$ORTHOMODE
 70
     0
  9
$REGENMODE
 70
     1
  9
$FILLMODE
 70
     1
  9
$QTEXTMODE
 70
     0
  9
$MIRRTEXT
 70
     1
  9
$LTSCALE
 40
1.0
  9
$ATTMODE
 70
     1
  9
$TEXTSIZE
 40
0.2
  9
$TRACEWID
 40
0.05
  9
$TEXTSTYLE
  7
Standard
  9
$CLAYER
  8
0
  9
$CELTYPE
  6
ByLayer
  9
$CECOLOR
 62
   256
  9
$CELTSCALE
 40
1.0
  9
$DISPSILH
 70
     0
  9
$DIMSCALE
 40
1.0
  9
$DIMASZ
 40
0.18
  9
$DIMEXO
 40
0.0625
  9
$DIMDLI
 40
0.38
  9
$DIMRND
 40
0.0
  9
$DIMDLE
 40
0.0
  9
$DIMEXE
 40
0.18
  9
$DIMTP
 40
0.0
  9
$DIMTM
 40
0.0
  9
$DIMTXT
 40
0.18
  9
$DIMCEN
 40
0.09
  9
$DIMTSZ
 40
0.0
  9
$DIMTOL
 70
     0
  9
$DIMLIM
 70
     0
  9
$DIMTIH
 70
     1
  9
$DIMTOH
 70
     1
  9
$DIMSE1
 70
     0
  9
$DIMSE2
 70
     0
  9
$DIMTAD
 70
     0
  9
$DIMZIN
 70
     0
  9
$DIMBLK
  1

  9
$DIMASO
 70
     1
  9
$DIMSHO
 70
     1
  9
$DIMPOST
  1

  9
$DIMAPOST
  1

  9
$DIMALT
 70
     0
  9
$DIMALTD
 70
     2
  9
$DIMALTF
 40
25.4
  9
$DIMLFAC
 40
1.0
  9
$DIMTOFL
 70
     0
  9
$DIMTVP
 40
0.0
  9
$DIMTIX
 70
     0
  9
$DIMSOXD
 70
     0
  9
$DIMSAH
 70
     0
  9
$DIMBLK1
  1

  9
$DIMBLK2
  1

  9
$DIMSTYLE
  2
Standard
  9
$DIMCLRD
 70
     0
  9
$DIMCLRE
 70
     0
  9
$DIMCLRT
 70
     0
  9
$DIMTFAC
 40
1.0
  9
$DIMGAP
 40
0.09
  9
$DIMJUST
 70
     0
  9
$DIMSD1
 70
     0
  9
$DIMSD2
 70
     0
  9
$DIMTOLJ
 70
     1
  9
$DIMTZIN
 70
     0
  9
$DIMALTZ
 70
     0
  9
$DIMALTTZ
 70
     0
  9
$DIMUPT
 70
     0
  9
$DIMDEC
 70
     4
  9
$DIMTDEC
 70
     4
  9
$DIMALTU
 70
     2
  9
$DIMALTTD
 70
     2
  9
$DIMTXSTY
  7
Standard
  9
$DIMAUNIT
 70
     0
  9
$DIMADEC
 70
     0
  9
$DIMALTRND
 40
0.0
  9
$DIMAZIN
 70
     0
  9
$DIMDSEP
 70
    46
  9
$DIMATFIT
 70
     3
  9
$DIMFRAC
 70
     0
  9
$DIMLDRBLK
  1

  9
$DIMLUNIT
 70
     2
  9
$DIMLWD
 70
    -2
  9
$DIMLWE
 70
    -2
  9
$DIMTMOVE
 70
     0
  9
$DIMFXL
 40
1.0
  9
$DIMFXLON
 70
     0
  9
$DIMJOGANG
 40
0.7853981633974483
  9
$DIMTFILL
 70
     0
  9
$DIMTFILLCLR
 70
     0
  9
$DIMARCSYM
 70
     0
  9
$DIMLTYPE
  6

  9
$DIMLTEX1
  6

  9
$DIMLTEX2
  6

  9
$LUNITS
 70
     2
  9
$LUPREC
 70
     4
  9
$SKETCHINC
 40
0.1
  9
$FILLETRAD
 40
0.5
  9
$AUNITS
 70
     0
  9
$AUPREC
 70
     0
  9
$MENU
  1
.
  9
$ELEVATION
 40
0.0
  9
$PELEVATION
 40
0.0
  9
$THICKNESS
 40
0.0
  9
$LIMCHECK
 70
     0
  9
$CHAMFERA
 40
0.5
  9
$CHAMFERB
 40
0.5
  9
$CHAMFERC
 40
1.0
  9
$CHAMFERD
 40
0.0
  9
$SKPOLY
 70
     0
  9
$TDCREATE
 40
2460517.534158738
  9
$TDUCREATE
 40
2460517.492492072
  9
$TDUPDATE
 40
2460517.534158958
  9
$TDUUPDATE
 40
2460517.492492292
  9
$TDINDWG
 40
0.0000000116
  9
$TDUSRTIMER
 40
0.0000000116
  9
$USRTIMER
 70
     1
  9
$ANGBASE
 50
0.0
  9
$ANGDIR
 70
     0
  9
$PDMODE
 70
     0
  9
$PDSIZE
 40
0.0
  9
$PLINEWID
 40
0.0
  9
$SPLFRAME
 70
     0
  9
$SPLINETYPE
 70
     6
  9
$SPLINESEGS
 70
     8
  9
$HANDSEED
  5
AC
  9
$SURFTAB1
 70
     6
  9
$SURFTAB2
 70
     6
  9
$SURFTYPE
 70
     6
  9
$SURFU
 70
     6
  9
$SURFV
 70
     6
  9
$UCSBASE
  2

  9
$UCSNAME
  2

  9
$UCSORG
 10
0.0
 20
0.0
 30
0.0
  9
$UCSXDIR
 10
1.0
 20
0.0
 30
0.0
  9
$UCSYDIR
 10
0.0
 20
1.0
 30
0.0
  9
$UCSORTHOREF
  2

  9
$UCSORTHOVIEW
 70
     0
  9
$UCSORGTOP
 10
0.0
 20
0.0
 30
0.0
  9
$UCSORGBOTTOM
 10
0.0
 20
0.0
 30
0.0
  9
$UCSORGLEFT
 10
0.0
 20
0.0
 30
0.0
  9
$UCSORGRIGHT
 10
0.0
 20
0.0
 30
0.0
  9
$UCSORGFRONT
 10
0.0
 20
0.0
 30
0.0
  9
$UCSORGBACK
 10
0.0
 20
0.0
 30
0.0
  9
$PUCSBASE
  2

  9
$PUCSNAME
  2

  9
$PUCSORG
 10
0.0
 20
0.0
 30
0.0
  9
$PUCSXDIR
 10
1.0
 20
0.0
 30
0.0
  9
$PUCSYDIR
 10
0.0
 20
1.0
 30
0.0
  9
$PUCSORTHOREF
  2

  9
$PUCSORTHOVIEW
 70
     0
  9
$PUCSORGTOP
 10
0.0
 20
0.0
 30
0.0
  9
$PUCSORGBOTTOM
 10
0.0
 20
0.0
 30
0.0
  9
$PUCSORGLEFT
 10
0.0
 20
0.0
 30
0.0
  9
$PUCSORGRIGHT
 10
0.0
 20
0.0
 30
0.0
  9
$PUCSORGFRONT
 10
0.0
 20
0.0
 30
0.0
  9
$PUCSORGBACK
 10
0.0
 20
0.0
 30
0.0
  9
$USERI1
 70
     0
  9
$USERI2
 70
     0
  9
$USERI3
 70
     0
  9
$USERI4
 70
     0
  9
$USERI5
 70
     0
  9
$USERR1
 40
0.0
  9
$USERR2
 40
0.0
  9
$USERR3
 40
0.0
  9
$USERR4
 40
0.0
  9
$USERR5
 40
0.0
  9
$WORLDVIEW
 70
     1
  9
$SHADEDGE
 70
     3
  9
$SHADEDIF
 70
    70
  9
$TILEMODE
 70
     1
  9
$MAXACTVP
 70
    64
  9
$PINSBASE
 10
0.0
 20
0.0
 30
0.0
  9
$PLIMCHECK
 70
     0
  9
$PEXTMIN
 10
1.000000000000000E+20
 20
1.000000000000000E+20
 30
1.000000000000000E+20
  9
$PEXTMAX
 10
-1.000000000000000E+20
 20
-1.000000000000000E+20
 30
-1.000000000000000E+20
  9
$PLIMMIN
 10
0.0
 20
0.0
  9
$PLIMMAX
 10
12.0
 20
9.0
  9
$UNITMODE
 70
     0
  9
$VISRETAIN
 70
     1
  9
$PLINEGEN
 70
     0
  9
$PSLTSCALE
 70
     1
  9
$TREEDEPTH
 70
  3020
  9
$CMLSTYLE
  2
Standard
  9
$CMLJUST
 70
     0
  9
$CMLSCALE
 40
1.0
  9
$PROXYGRAPHICS
 70
     1
  9
$MEASUREMENT
 70
     0
  9
$CELWEIGHT
370
    -1
  9
$ENDCAPS
280
     0
  9
$JOINSTYLE
280
     0
  9
$LWDISPLAY
290
     0
  9
$INSUNITS
 70
     5
  9
$HYPERLINKBASE
  1

  9
$STYLESHEET
  1

  9
$XEDIT
290
     1
  9
$CEPSNTYPE
380
     0
  9
$PSTYLEMODE
290
     1
  9
$FINGERPRINTGUID
  2
{83F31BA9-45E4-4F7D-862D-F900EC9EB0FD}
  9
$VERSIONGUID
  2
{FAEB1C32-E019-11D5-929B-00C0DF256EC4}
  9
$EXTNAMES
290
     1
  9
$PSVPSCALE
 40
0.0
  9
$OLESTARTUP
290
     0
  9
$SORTENTS
280
   127
  9
$INDEXCTL
280
     0
  9
$HIDETEXT
280
     1
  9
$XCLIPFRAME
290
     0
  9
$HALOGAP
280
     0
  9
$OBSCOLOR
 70
   257
  9
$OBSLTYPE
280
     0
  9
$INTERSECTIONDISPLAY
280
     0
  9
$INTERSECTIONCOLOR
 70
   257
  9
$DIMASSOC
280
     2
  9
$PROJECTNAME
  1

  9
$CAMERADISPLAY
290
     0
  9
$LENSLENGTH
 40
50.0
  9
$CAMERAHEIGHT
 40
0.0
  9
$STEPSPERSEC
 40
2.0
  9
$STEPSIZE
 40
6.0
  9
$3DDWFPREC
 40
2.0
  9
$PSOLWIDTH
 40
0.25
  9
$PSOLHEIGHT
 40
4.0
  9
$LOFTANG1
 40
1.570796326794897
  9
$LOFTANG2
 40
1.570796326794897
  9
$LOFTMAG1
 40
0.0
  9
$LOFTMAG2
 40
0.0
  9
$LOFTPARAM
 70
     7
  9
$LOFTNORMALS
280
     1
  9
$LATITUDE
 40
37.795
  9
$LONGITUDE
 40
-122.394
  9
$NORTHDIRECTION
 40
0.0
  9
$TIMEZONE
 70
 -8000
  9
$LIGHTGLYPHDISPLAY
280
     1
  9
$TILEMODELIGHTSYNCH
280
     1
  9
$SOLIDHIST
280
     1
  9
$SHOWHIST
280
     1
  9
$DWFFRAME
280
     2
  9
$DGNFRAME
280
     2
  9
$REALWORLDSCALE
290
     1
  9
$INTERFERECOLOR
 62
   256
  9
$CSHADOW
280
     0
  9
$SHADOWPLANELOCATION
 40
0.0
  0
ENDSEC
  0
SECTION
  2
CLASSES
  0
CLASS
  1
ACDBDICTIONARYWDFLT
  2
AcDbDictionaryWithDefault
  3
ObjectDBX Classes
 90
        0
 91
        4
280
     0
281
     0
  0
CLASS
  1
VISUALSTYLE
  2
AcDbVisualStyle
  3
ObjectDBX Classes
 90
     4095
 91
        4
280
     0
281
     0
  0
CLASS
  1
MATERIAL
  2
AcDbMaterial
  3
ObjectDBX Classes
 90
     1153
 91
        4
280
     0
281
     0
  0
ENDSEC
  0
SECTION
  2
TABLES
  0
TABLE
  2
VPORT
  5
8
330
0
100
AcDbSymbolTable
 70
     1
  0
VPORT
  5
29
330
8
100
AcDbSymbolTableRecord
100
AcDbViewportTableRecord
  2
*Active
 70
     0
 10
0.0
 20
0.0
 11
1.0
 21
1.0
 12
10.42990654205607
 22
4.5
 13
0.0
 23
0.0
 14
0.5
 24
0.5
 15
0.5
 25
0.5
 16
0.0
 26
0.0
 36
1.0
 17
0.0
 27
0.0
 37
0.0
 40
9.0
 41
1.972972972850329
 42
50.0
 43
0.0
 44
0.0
 50
0.0
 51
0.0
 71
     0
 72
   100
 73
     1
 74
     3
 75
     0
 76
     0
 77
     0
 78
     0
281
     0
 65
     1
110
0.0
120
0.0
130
0.0
111
1.0
121
0.0
131
0.0
112
0.0
122
1.0
132
0.0
 79
     0
146
0.0
 60
     3
 61
     5
292
     1
282
     1
141
0.0
142
0.0
 63
   250
  0
ENDTAB
  0
TABLE
  2
LTYPE
  5
5
330
0
100
AcDbSymbolTable
 70
     1
  0
LTYPE
  5
14
330
5
100
AcDbSymbolTableRecord
100
AcDbLinetypeTableRecord
  2
ByBlock
 70
     0
  3

 72
    65
 73
     0
 40
0.0
  0
LTYPE
  5
15
330
5
100
AcDbSymbolTableRecord
100
AcDbLinetypeTableRecord
  2
ByLayer
 70
     0
  3

 72
    65
 73
     0
 40
0.0
  0
LTYPE
  5
16
330
5
100
AcDbSymbolTableRecord
100
AcDbLinetypeTableRecord
  2
Continuous
 70
     0
  3
Solid line
 72
    65
 73
     0
 40
0.0
  0
ENDTAB
  0
TABLE
  2
LAYER
  5
2
330
0
100
AcDbSymbolTable
 70
     2
  0
LAYER
  5
10
330
2
100
AcDbSymbolTableRecord
100
AcDbLayerTableRecord
  2
0
 70
     0
 62
     7
  6
Continuous
370
    -3
390
F
347
3E
  0
LAYER
  5
40
330
2
100
AcDbSymbolTableRecord
100
AcDbLayerTableRecord
  2
Layer 1
 70
     0
 62
     7
  6
Continuous
370
    -3
390
F
347
3E
  0
ENDTAB
  0
TABLE
  2
STYLE
  5
3
330
0
100
AcDbSymbolTable
 70
     1
  0
STYLE
  5
11
330
3
100
AcDbSymbolTableRecord
100
AcDbTextStyleTableRecord
  2
Standard
 70
     0
 40
0.0
 41
1.0
 50
0.0
 71
     0
 42
0.2
  3
txt
  4

  0
ENDTAB
  0
TABLE
  2
VIEW
  5
6
330
0
100
AcDbSymbolTable
 70
     0
  0
ENDTAB
  0
TABLE
  2
UCS
  5
7
330
0
100
AcDbSymbolTable
 70
     0
  0
ENDTAB
  0
TABLE
  2
APPID
  5
9
330
0
100
AcDbSymbolTable
 70
     2
  0
APPID
  5
12
330
9
100
AcDbSymbolTableRecord
100
AcDbRegAppTableRecord
  2
ACAD
 70
     0
  0
APPID
  5
3F
330
9
100
AcDbSymbolTableRecord
100
AcDbRegAppTableRecord
  2
ODA
 70
     0
  0
ENDTAB
  0
TABLE
  2
DIMSTYLE
  5
A
330
0
100
AcDbSymbolTable
 70
     1
100
AcDbDimStyleTable
  0
DIMSTYLE
105
27
330
A
100
AcDbSymbolTableRecord
100
AcDbDimStyleTableRecord
  2
Standard
 70
     0
178
     0
340
11
  0
ENDTAB
  0
TABLE
  2
BLOCK_RECORD
  5
1
330
0
100
AcDbSymbolTable
 70
     1
  0
BLOCK_RECORD
  5
1F
330
1
100
AcDbSymbolTableRecord
100
AcDbBlockTableRecord
  2
*Model_Space
340
22
 70
     0
280
     1
281
     0
  0
BLOCK_RECORD
  5
1B
330
1
100
AcDbSymbolTableRecord
100
AcDbBlockTableRecord
  2
*Paper_Space
340
1E
 70
     0
280
     1
281
     0
  0
BLOCK_RECORD
  5
23
330
1
100
AcDbSymbolTableRecord
100
AcDbBlockTableRecord
  2
*Paper_Space0
340
26
 70
     0
280
     1
281
     0
  0
ENDTAB
  0
ENDSEC
  0
SECTION
  2
BLOCKS
  0
BLOCK
  5
20
330
1F
100
AcDbEntity
  8
0
100
AcDbBlockBegin
  2
*Model_Space
 70
     0
 10
0.0
 20
0.0
 30
0.0
  3
*Model_Space
  1

  0
ENDBLK
  5
21
330
1F
100
AcDbEntity
  8
0
100
AcDbBlockEnd
  0
BLOCK
  5
1C
330
1B
100
AcDbEntity
 67
     1
  8
0
100
AcDbBlockBegin
  2
*Paper_Space
 70
     0
 10
0.0
 20
0.0
 30
0.0
  3
*Paper_Space
  1

  0
ENDBLK
  5
1D
330
1B
100
AcDbEntity
 67
     1
  8
0
100
AcDbBlockEnd
  0
BLOCK
  5
24
330
23
100
AcDbEntity
  8
0
100
AcDbBlockBegin
  2
*Paper_Space0
 70
     0
 10
0.0
 20
0.0
 30
0.0
  3
*Paper_Space0
  1

  0
ENDBLK
  5
25
330
23
100
AcDbEntity
  8
0
100
AcDbBlockEnd
  0
ENDSEC
  0
SECTION
  2
ENTITIES
  0
SPLINE
  5
41
330
1F
100
AcDbEntity
  8
Layer 1
100
AcDbSpline
210
0.0
220
0.0
230
1.0
 70
    11
 71
     3
 72
    72
 73
    68
 74
     0
 42
0.0000000001
 43
0.0000000001
 12
1.0
 22
0.0
 32
0.0
 13
1.0
 23
0.0
 33
0.0
 40
0.0
 40
0.0
 40
0.0
 40
0.0
 40
0.0555555555555556
 40
0.0555555555555556
 40
0.0555555555555556
 40
0.0555555555555556
 40
0.1111111111111111
 40
0.1111111111111111
 40
0.1111111111111111
 40
0.1111111111111111
 40
0.1666666666666667
 40
0.1666666666666667
 40
0.1666666666666667
 40
0.1666666666666667
 40
0.2222222222222222
 40
0.2222222222222222
 40
0.2222222222222222
 40
0.2222222222222222
 40
0.2777777777777778
 40
0.2777777777777778
 40
0.2777777777777778
 40
0.2777777777777778
 40
0.3333333333333333
 40
0.3333333333333333
 40
0.3333333333333333
 40
0.3333333333333333
 40
0.3888888888888889
 40
0.3888888888888889
 40
0.3888888888888889
 40
0.3888888888888889
 40
0.4444444444444444
 40
0.4444444444444444
 40
0.4444444444444444
 40
0.4444444444444444
 40
0.5
 40
0.5
 40
0.5
 40
0.5
 40
0.5555555555555556
 40
0.5555555555555556
 40
0.5555555555555556
 40
0.5555555555555556
 40
0.6111111111111112
 40
0.6111111111111112
 40
0.6111111111111112
 40
0.6111111111111112
 40
0.6666666666666666
 40
0.6666666666666666
 40
0.6666666666666666
 40
0.6666666666666666
 40
0.7222222222222222
 40
0.7222222222222222
 40
0.7222222222222222
 40
0.7222222222222222
 40
0.7777777777777778
 40
0.7777777777777778
 40
0.7777777777777778
 40
0.7777777777777778
 40
0.8333333333333334
 40
0.8333333333333334
 40
0.8333333333333334
 40
0.8333333333333334
 40
0.8888888888888888
 40
0.8888888888888888
 40
0.8888888888888888
 40
0.8888888888888888
 40
1.0
 40
1.0
 40
1.0
 40
1.0
 10
-8.61461
 20
27.42086
 30
0.0
 10
-8.68996
 20
27.40012
 30
0.0
 10
-8.75558
 20
27.38996
 30
0.0
 10
-8.81104
 20
27.38996
 30
0.0
 10
-8.81104
 20
27.38996
 30
0.0
 10
-8.9355
 20
27.38996
 30
0.0
 10
-9.03244
 20
27.42552
 30
0.0
 10
-9.10187
 20
27.49664
 30
0.0
 10
-9.10187
 20
27.49664
 30
0.0
 10
-9.17172
 20
27.56776
 30
0.0
 10
-9.20643
 20
27.6664
 30
0.0
 10
-9.20643
 20
27.79297
 30
0.0
 10
-9.20643
 20
27.79297
 30
0.0
 10
-9.20643
 20
27.79297
 30
0.0
 10
-9.20643
 20
28.58376
 30
0.0
 10
-9.20643
 20
28.58376
 30
0.0
 10
-9.20643
 20
28.58376
 30
0.0
 10
-9.20643
 20
28.58376
 30
0.0
 10
-9.37492
 20
28.58376
 30
0.0
 10
-9.37492
 20
28.58376
 30
0.0
 10
-9.37492
 20
28.58376
 30
0.0
 10
-9.37492
 20
28.58376
 30
0.0
 10
-9.37492
 20
28.76664
 30
0.0
 10
-9.37492
 20
28.76664
 30
0.0
 10
-9.37492
 20
28.76664
 30
0.0
 10
-9.37492
 20
28.76664
 30
0.0
 10
-9.20643
 20
28.76664
 30
0.0
 10
-9.20643
 20
28.76664
 30
0.0
 10
-9.20643
 20
28.76664
 30
0.0
 10
-9.20643
 20
28.76664
 30
0.0
 10
-9.20643
 20
29.01006
 30
0.0
 10
-9.20643
 20
29.01006
 30
0.0
 10
-9.20643
 20
29.01006
 30
0.0
 10
-9.20643
 20
29.01006
 30
0.0
 10
-8.96259
 20
29.03334
 30
0.0
 10
-8.96259
 20
29.03334
 30
0.0
 10
-8.96259
 20
29.03334
 30
0.0
 10
-8.96259
 20
29.03334
 30
0.0
 10
-8.96259
 20
28.76664
 30
0.0
 10
-8.96259
 20
28.76664
 30
0.0
 10
-8.96259
 20
28.76664
 30
0.0
 10
-8.96259
 20
28.76664
 30
0.0
 10
-8.60953
 20
28.76664
 30
0.0
 10
-8.60953
 20
28.76664
 30
0.0
 10
-8.60953
 20
28.76664
 30
0.0
 10
-8.60953
 20
28.76664
 30
0.0
 10
-8.60953
 20
28.58376
 30
0.0
 10
-8.60953
 20
28.58376
 30
0.0
 10
-8.60953
 20
28.58376
 30
0.0
 10
-8.60953
 20
28.58376
 30
0.0
 10
-8.96259
 20
28.58376
 30
0.0
 10
-8.96259
 20
28.58376
 30
0.0
 10
-8.96259
 20
28.58376
 30
0.0
 10
-8.96259
 20
28.58376
 30
0.0
 10
-8.96259
 20
27.837
 30
0.0
 10
-8.96259
 20
27.837
 30
0.0
 10
-8.96259
 20
27.837
 30
0.0
 10
-8.96259
 20
27.66089
 30
0.0
 10
-8.88597
 20
27.57284
 30
0.0
 10
-8.73314
 20
27.57284
 30
0.0
 10
-8.73314
 20
27.57284
 30
0.0
 10
-8.70055
 20
27.57284
 30
0.0
 10
-8.66118
 20
27.57834
 30
0.0
 10
-8.61461
 20
27.58893
 30
0.0
 10
-8.61461
 20
27.58893
 30
0.0
 10
-8.61461
 20
27.58893
 30
0.0
 10
-8.61461
 20
27.42086
 30
0.0
 10
-8.61461
 20
27.42086
 30
0.0
  0
SPLINE
  5
42
330
1F
100
AcDbEntity
  8
Layer 1
100
AcDbSpline
210
0.0
220
0.0
230
1.0
 70
    11
 71
     3
 72
    60
 73
    56
 74
     0
 42
0.0000000001
 43
0.0000000001
 12
1.0
 22
0.0
 32
0.0
 13
1.0
 23
0.0
 33
0.0
 40
0.0
 40
0.0
 40
0.0
 40
0.0
 40
0.0666666666666667
 40
0.0666666666666667
 40
0.0666666666666667
 40
0.0666666666666667
 40
0.1333333333333333
 40
0.1333333333333333
 40
0.1333333333333333
 40
0.1333333333333333
 40
0.2
 40
0.2
 40
0.2
 40
0.2
 40
0.2666666666666667
 40
0.2666666666666667
 40
0.2666666666666667
 40
0.2666666666666667
 40
0.3333333333333333
 40
0.3333333333333333
 40
0.3333333333333333
 40
0.3333333333333333
 40
0.4
 40
0.4
 40
0.4
 40
0.4
 40
0.4666666666666667
 40
0.4666666666666667
 40
0.4666666666666667
 40
0.4666666666666667
 40
0.5333333333333333
 40
0.5333333333333333
 40
0.5333333333333333
 40
0.5333333333333333
 40
0.6
 40
0.6
 40
0.6
 40
0.6
 40
0.6666666666666666
 40
0.6666666666666666
 40
0.6666666666666666
 40
0.6666666666666666
 40
0.7333333333333333
 40
0.7333333333333333
 40
0.7333333333333333
 40
0.7333333333333333
 40
0.8
 40
0.8
 40
0.8
 40
0.8
 40
0.8666666666666667
 40
0.8666666666666667
 40
0.8666666666666667
 40
0.8666666666666667
 40
1.0
 40
1.0
 40
1.0
 40
1.0
 10
-8.26663
 20
27.42044
 30
0.0
 10
-8.26663
 20
27.42044
 30
0.0
 10
-8.26663
 20
29.37878
 30
0.0
 10
-8.26663
 20
29.37878
 30
0.0
 10
-8.26663
 20
29.37878
 30
0.0
 10
-8.26663
 20
29.37878
 30
0.0
 10
-8.02279
 20
29.37878
 30
0.0
 10
-8.02279
 20
29.37878
 30
0.0
 10
-8.02279
 20
29.37878
 30
0.0
 10
-8.02279
 20
29.37878
 30
0.0
 10
-8.02279
 20
28.51222
 30
0.0
 10
-8.02279
 20
28.51222
 30
0.0
 10
-8.02279
 20
28.51222
 30
0.0
 10
-7.89367
 20
28.7006
 30
0.0
 10
-7.73535
 20
28.79458
 30
0.0
 10
-7.54823
 20
28.79458
 30
0.0
 10
-7.54823
 20
28.79458
 30
0.0
 10
-7.43055
 20
28.79458
 30
0.0
 10
-7.33699
 20
28.75775
 30
0.0
 10
-7.26799
 20
28.68367
 30
0.0
 10
-7.26799
 20
28.68367
 30
0.0
 10
-7.19898
 20
28.61001
 30
0.0
 10
-7.16427
 20
28.51052
 30
0.0
 10
-7.16427
 20
28.38606
 30
0.0
 10
-7.16427
 20
28.38606
 30
0.0
 10
-7.16427
 20
28.38606
 30
0.0
 10
-7.16427
 20
27.42044
 30
0.0
 10
-7.16427
 20
27.42044
 30
0.0
 10
-7.16427
 20
27.42044
 30
0.0
 10
-7.16427
 20
27.42044
 30
0.0
 10
-7.40811
 20
27.42044
 30
0.0
 10
-7.40811
 20
27.42044
 30
0.0
 10
-7.40811
 20
27.42044
 30
0.0
 10
-7.40811
 20
27.42044
 30
0.0
 10
-7.40811
 20
28.30648
 30
0.0
 10
-7.40811
 20
28.30648
 30
0.0
 10
-7.40811
 20
28.30648
 30
0.0
 10
-7.40811
 20
28.40638
 30
0.0
 10
-7.42293
 20
28.4775
 30
0.0
 10
-7.45214
 20
28.51984
 30
0.0
 10
-7.45214
 20
28.51984
 30
0.0
 10
-7.48177
 20
28.56259
 30
0.0
 10
-7.53045
 20
28.58376
 30
0.0
 10
-7.59861
 20
28.58376
 30
0.0
 10
-7.59861
 20
28.58376
 30
0.0
 10
-7.74847
 20
28.58376
 30
0.0
 10
-7.88986
 20
28.48597
 30
0.0
 10
-8.02279
 20
28.29039
 30
0.0
 10
-8.02279
 20
28.29039
 30
0.0
 10
-8.02279
 20
28.29039
 30
0.0
 10
-8.02279
 20
27.42044
 30
0.0
 10
-8.02279
 20
27.42044
 30
0.0
 10
-8.02279
 20
27.42044
 30
0.0
 10
-8.02279
 20
27.42044
 30
0.0
 10
-8.26663
 20
27.42044
 30
0.0
 10
-8.26663
 20
27.42044
 30
0.0
  0
SPLINE
  5
43
330
1F
100
AcDbEntity
  8
Layer 1
100
AcDbSpline
210
0.0
220
0.0
230
1.0
 70
    11
 71
     3
 72
    44
 73
    40
 74
     0
 42
0.0000000001
 43
0.0000000001
 12
1.0
 22
0.0
 32
0.0
 13
1.0
 23
0.0
 33
0.0
 40
0.0
 40
0.0
 40
0.0
 40
0.0
 40
0.0909090909090909
 40
0.0909090909090909
 40
0.0909090909090909
 40
0.0909090909090909
 40
0.1818181818181818
 40
0.1818181818181818
 40
0.1818181818181818
 40
0.1818181818181818
 40
0.2727272727272727
 40
0.2727272727272727
 40
0.2727272727272727
 40
0.2727272727272727
 40
0.3636363636363636
 40
0.3636363636363636
 40
0.3636363636363636
 40
0.3636363636363636
 40
0.4545454545454545
 40
0.4545454545454545
 40
0.4545454545454545
 40
0.4545454545454545
 40
0.5454545454545454
 40
0.5454545454545454
 40
0.5454545454545454
 40
0.5454545454545454
 40
0.6363636363636364
 40
0.6363636363636364
 40
0.6363636363636364
 40
0.6363636363636364
 40
0.7272727272727273
 40
0.7272727272727273
 40
0.7272727272727273
 40
0.7272727272727273
 40
0.8181818181818182
 40
0.8181818181818182
 40
0.8181818181818182
 40
0.8181818181818182
 40
1.0
 40
1.0
 40
1.0
 40
1.0
 10
-6.69014
 20
27.42044
 30
0.0
 10
-6.69014
 20
27.42044
 30
0.0
 10
-6.69014
 20
28.76664
 30
0.0
 10
-6.69014
 20
28.76664
 30
0.0
 10
-6.69014
 20
28.76664
 30
0.0
 10
-6.69014
 20
28.76664
 30
0.0
 10
-6.4463
 20
28.76664
 30
0.0
 10
-6.4463
 20
28.76664
 30
0.0
 10
-6.4463
 20
28.76664
 30
0.0
 10
-6.4463
 20
28.76664
 30
0.0
 10
-6.4463
 20
28.51222
 30
0.0
 10
-6.4463
 20
28.51222
 30
0.0
 10
-6.4463
 20
28.51222
 30
0.0
 10
-6.34936
 20
28.7006
 30
0.0
 10
-6.20881
 20
28.79458
 30
0.0
 10
-6.02424
 20
28.79458
 30
0.0
 10
-6.02424
 20
28.79458
 30
0.0
 10
-5.99926
 20
28.79458
 30
0.0
 10
-5.97301
 20
28.79246
 30
0.0
 10
-5.94592
 20
28.78823
 30
0.0
 10
-5.94592
 20
28.78823
 30
0.0
 10
-5.94592
 20
28.78823
 30
0.0
 10
-5.94592
 20
28.56005
 30
0.0
 10
-5.94592
 20
28.56005
 30
0.0
 10
-5.94592
 20
28.56005
 30
0.0
 10
-5.98825
 20
28.57402
 30
0.0
 10
-6.02551
 20
28.58122
 30
0.0
 10
-6.05768
 20
28.58122
 30
0.0
 10
-6.05768
 20
28.58122
 30
0.0
 10
-6.21262
 20
28.58122
 30
0.0
 10
-6.34216
 20
28.48978
 30
0.0
 10
-6.4463
 20
28.30648
 30
0.0
 10
-6.4463
 20
28.30648
 30
0.0
 10
-6.4463
 20
28.30648
 30
0.0
 10
-6.4463
 20
27.42044
 30
0.0
 10
-6.4463
 20
27.42044
 30
0.0
 10
-6.4463
 20
27.42044
 30
0.0
 10
-6.4463
 20
27.42044
 30
0.0
 10
-6.69014
 20
27.42044
 30
0.0
 10
-6.69014
 20
27.42044
 30
0.0
  0
SPLINE
  5
44
330
1F
100
AcDbEntity
  8
Layer 1
100
AcDbSpline
210
0.0
220
0.0
230
1.0
 70
    11
 71
     3
 72
    52
 73
    48
 74
     0
 42
0.0000000001
 43
0.0000000001
 12
1.0
 22
0.0
 32
0.0
 13
1.0
 23
0.0
 33
0.0
 40
0.0
 40
0.0
 40
0.0
 40
0.0
 40
0.0769230769230769
 40
0.0769230769230769
 40
0.0769230769230769
 40
0.0769230769230769
 40
0.1538461538461539
 40
0.1538461538461539
 40
0.1538461538461539
 40
0.1538461538461539
 40
0.2307692307692308
 40
0.2307692307692308
 40
0.2307692307692308
 40
0.2307692307692308
 40
0.3076923076923077
 40
0.3076923076923077
 40
0.3076923076923077
 40
0.3076923076923077
 40
0.3846153846153846
 40
0.3846153846153846
 40
0.3846153846153846
 40
0.3846153846153846
 40
0.4615384615384616
 40
0.4615384615384616
 40
0.4615384615384616
 40
0.4615384615384616
 40
0.5384615384615384
 40
0.5384615384615384
 40
0.5384615384615384
 40
0.5384615384615384
 40
0.6153846153846154
 40
0.6153846153846154
 40
0.6153846153846154
 40
0.6153846153846154
 40
0.6923076923076923
 40
0.6923076923076923
 40
0.6923076923076923
 40
0.6923076923076923
 40
0.7692307692307693
 40
0.7692307692307693
 40
0.7692307692307693
 40
0.7692307692307693
 40
0.8461538461538461
 40
0.8461538461538461
 40
0.8461538461538461
 40
0.8461538461538461
 40
1.0
 40
1.0
 40
1.0
 40
1.0
 10
-4.6628
 20
27.46362
 30
0.0
 10
-4.82663
 20
27.41451
 30
0.0
 10
-4.96675
 20
27.38996
 30
0.0
 10
-5.08359
 20
27.38996
 30
0.0
 10
-5.08359
 20
27.38996
 30
0.0
 10
-5.28298
 20
27.38996
 30
0.0
 10
-5.44512
 20
27.456
 30
0.0
 10
-5.57
 20
27.58766
 30
0.0
 10
-5.57
 20
27.58766
 30
0.0
 10
-5.69489
 20
27.71931
 30
0.0
 10
-5.75754
 20
27.88992
 30
0.0
 10
-5.75754
 20
28.09989
 30
0.0
 10
-5.75754
 20
28.09989
 30
0.0
 10
-5.75754
 20
28.30351
 30
0.0
 10
-5.70251
 20
28.47073
 30
0.0
 10
-5.59202
 20
28.60154
 30
0.0
 10
-5.59202
 20
28.60154
 30
0.0
 10
-5.48153
 20
28.73193
 30
0.0
 10
-5.34013
 20
28.79712
 30
0.0
 10
-5.16784
 20
28.79712
 30
0.0
 10
-5.16784
 20
28.79712
 30
0.0
 10
-5.00485
 20
28.79712
 30
0.0
 10
-4.8787
 20
28.73912
 30
0.0
 10
-4.7898
 20
28.62313
 30
0.0
 10
-4.7898
 20
28.62313
 30
0.0
 10
-4.7009
 20
28.50714
 30
0.0
 10
-4.65645
 20
28.34288
 30
0.0
 10
-4.65645
 20
28.12995
 30
0.0
 10
-4.65645
 20
28.12995
 30
0.0
 10
-4.65645
 20
28.12995
 30
0.0
 10
-4.65772
 20
28.05544
 30
0.0
 10
-4.65772
 20
28.05544
 30
0.0
 10
-4.65772
 20
28.05544
 30
0.0
 10
-4.65772
 20
28.05544
 30
0.0
 10
-5.50862
 20
28.05544
 30
0.0
 10
-5.50862
 20
28.05544
 30
0.0
 10
-5.50862
 20
28.05544
 30
0.0
 10
-5.47306
 20
27.73371
 30
0.0
 10
-5.316
 20
27.57284
 30
0.0
 10
-5.03787
 20
27.57284
 30
0.0
 10
-5.03787
 20
27.57284
 30
0.0
 10
-4.93585
 20
27.57284
 30
0.0
 10
-4.81097
 20
27.60163
 30
0.0
 10
-4.6628
 20
27.6592
 30
0.0
 10
-4.6628
 20
27.6592
 30
0.0
 10
-4.6628
 20
27.6592
 30
0.0
 10
-4.6628
 20
27.46362
 30
0.0
 10
-4.6628
 20
27.46362
 30
0.0
  0
SPLINE
  5
45
330
1F
100
AcDbEntity
  8
Layer 1
100
AcDbSpline
210
0.0
220
0.0
230
1.0
 70
    11
 71
     3
 72
    16
 73
    12
 74
     0
 42
0.0000000001
 43
0.0000000001
 12
1.0
 22
0.0
 32
0.0
 13
1.0
 23
0.0
 33
0.0
 40
0.0
 40
0.0
 40
0.0
 40
0.0
 40
0.25
 40
0.25
 40
0.25
 40
0.25
 40
0.5
 40
0.5
 40
0.5
 40
0.5
 40
1.0
 40
1.0
 40
1.0
 40
1.0
 10
-5.49592
 20
28.23832
 30
0.0
 10
-5.49592
 20
28.23832
 30
0.0
 10
-4.90156
 20
28.23832
 30
0.0
 10
-4.90156
 20
28.23832
 30
0.0
 10
-4.90156
 20
28.23832
 30
0.0
 10
-4.90156
 20
28.48893
 30
0.0
 10
-4.99512
 20
28.61424
 30
0.0
 10
-5.18181
 20
28.61424
 30
0.0
 10
-5.18181
 20
28.61424
 30
0.0
 10
-5.36977
 20
28.61424
 30
0.0
 10
-5.47433
 20
28.48893
 30
0.0
 10
-5.49592
 20
28.23832
 30
0.0
  0
SPLINE
  5
46
330
1F
100
AcDbEntity
  8
Layer 1
100
AcDbSpline
210
0.0
220
0.0
230
1.0
 70
    11
 71
     3
 72
    52
 73
    48
 74
     0
 42
0.0000000001
 43
0.0000000001
 12
1.0
 22
0.0
 32
0.0
 13
1.0
 23
0.0
 33
0.0
 40
0.0
 40
0.0
 40
0.0
 40
0.0
 40
0.0769230769230769
 40
0.0769230769230769
 40
0.0769230769230769
 40
0.0769230769230769
 40
0.1538461538461539
 40
0.1538461538461539
 40
0.1538461538461539
 40
0.1538461538461539
 40
0.2307692307692308
 40
0.2307692307692308
 40
0.2307692307692308
 40
0.2307692307692308
 40
0.3076923076923077
 40
0.3076923076923077
 40
0.3076923076923077
 40
0.3076923076923077
 40
0.3846153846153846
 40
0.3846153846153846
 40
0.3846153846153846
 40
0.3846153846153846
 40
0.4615384615384616
 40
0.4615384615384616
 40
0.4615384615384616
 40
0.4615384615384616
 40
0.5384615384615384
 40
0.5384615384615384
 40
0.5384615384615384
 40
0.5384615384615384
 40
0.6153846153846154
 40
0.6153846153846154
 40
0.6153846153846154
 40
0.6153846153846154
 40
0.6923076923076923
 40
0.6923076923076923
 40
0.6923076923076923
 40
0.6923076923076923
 40
0.7692307692307693
 40
0.7692307692307693
 40
0.7692307692307693
 40
0.7692307692307693
 40
0.8461538461538461
 40
0.8461538461538461
 40
0.8461538461538461
 40
0.8461538461538461
 40
1.0
 40
1.0
 40
1.0
 40
1.0
 10
-3.2476
 20
27.46362
 30
0.0
 10
-3.41143
 20
27.41451
 30
0.0
 10
-3.55155
 20
27.38996
 30
0.0
 10
-3.66839
 20
27.38996
 30
0.0
 10
-3.66839
 20
27.38996
 30
0.0
 10
-3.86778
 20
27.38996
 30
0.0
 10
-4.02992
 20
27.456
 30
0.0
 10
-4.1548
 20
27.58766
 30
0.0
 10
-4.1548
 20
27.58766
 30
0.0
 10
-4.27969
 20
27.71931
 30
0.0
 10
-4.34234
 20
27.88992
 30
0.0
 10
-4.34234
 20
28.09989
 30
0.0
 10
-4.34234
 20
28.09989
 30
0.0
 10
-4.34234
 20
28.30351
 30
0.0
 10
-4.28731
 20
28.47073
 30
0.0
 10
-4.17682
 20
28.60154
 30
0.0
 10
-4.17682
 20
28.60154
 30
0.0
 10
-4.06633
 20
28.73193
 30
0.0
 10
-3.92493
 20
28.79712
 30
0.0
 10
-3.75264
 20
28.79712
 30
0.0
 10
-3.75264
 20
28.79712
 30
0.0
 10
-3.58965
 20
28.79712
 30
0.0
 10
-3.4635
 20
28.73912
 30
0.0
 10
-3.3746
 20
28.62313
 30
0.0
 10
-3.3746
 20
28.62313
 30
0.0
 10
-3.2857
 20
28.50714
 30
0.0
 10
-3.24125
 20
28.34288
 30
0.0
 10
-3.24125
 20
28.12995
 30
0.0
 10
-3.24125
 20
28.12995
 30
0.0
 10
-3.24125
 20
28.12995
 30
0.0
 10
-3.24252
 20
28.05544
 30
0.0
 10
-3.24252
 20
28.05544
 30
0.0
 10
-3.24252
 20
28.05544
 30
0.0
 10
-3.24252
 20
28.05544
 30
0.0
 10
-4.09342
 20
28.05544
 30
0.0
 10
-4.09342
 20
28.05544
 30
0.0
 10
-4.09342
 20
28.05544
 30
0.0
 10
-4.05786
 20
27.73371
 30
0.0
 10
-3.9008
 20
27.57284
 30
0.0
 10
-3.62267
 20
27.57284
 30
0.0
 10
-3.62267
 20
27.57284
 30
0.0
 10
-3.52065
 20
27.57284
 30
0.0
 10
-3.39577
 20
27.60163
 30
0.0
 10
-3.2476
 20
27.6592
 30
0.0
 10
-3.2476
 20
27.6592
 30
0.0
 10
-3.2476
 20
27.6592
 30
0.0
 10
-3.2476
 20
27.46362
 30
0.0
 10
-3.2476
 20
27.46362
 30
0.0
  0
SPLINE
  5
47
330
1F
100
AcDbEntity
  8
Layer 1
100
AcDbSpline
210
0.0
220
0.0
230
1.0
 70
    11
 71
     3
 72
    16
 73
    12
 74
     0
 42
0.0000000001
 43
0.0000000001
 12
1.0
 22
0.0
 32
0.0
 13
1.0
 23
0.0
 33
0.0
 40
0.0
 40
0.0
 40
0.0
 40
0.0
 40
0.25
 40
0.25
 40
0.25
 40
0.25
 40
0.5
 40
0.5
 40
0.5
 40
0.5
 40
1.0
 40
1.0
 40
1.0
 40
1.0
 10
-4.08072
 20
28.23832
 30
0.0
 10
-4.08072
 20
28.23832
 30
0.0
 10
-3.48636
 20
28.23832
 30
0.0
 10
-3.48636
 20
28.23832
 30
0.0
 10
-3.48636
 20
28.23832
 30
0.0
 10
-3.48636
 20
28.48893
 30
0.0
 10
-3.57992
 20
28.61424
 30
0.0
 10
-3.76661
 20
28.61424
 30
0.0
 10
-3.76661
 20
28.61424
 30
0.0
 10
-3.95457
 20
28.61424
 30
0.0
 10
-4.05913
 20
28.48893
 30
0.0
 10
-4.08072
 20
28.23832
 30
0.0
  0
SPLINE
  5
48
330
1F
100
AcDbEntity
  8
Layer 1
100
AcDbSpline
210
0.0
220
0.0
230
1.0
 70
    11
 71
     3
 72
    20
 73
    16
 74
     0
 42
0.0000000001
 43
0.0000000001
 12
1.0
 22
0.0
 32
0.0
 13
1.0
 23
0.0
 33
0.0
 40
0.0
 40
0.0
 40
0.0
 40
0.0
 40
0.2
 40
0.2
 40
0.2
 40
0.2
 40
0.4
 40
0.4
 40
0.4
 40
0.4
 40
0.6
 40
0.6
 40
0.6
 40
0.6
 40
1.0
 40
1.0
 40
1.0
 40
1.0
 10
-2.95762
 20
27.23756
 30
0.0
 10
-2.95762
 20
27.23756
 30
0.0
 10
-2.95762
 20
27.42044
 30
0.0
 10
-2.95762
 20
27.42044
 30
0.0
 10
-2.95762
 20
27.42044
 30
0.0
 10
-2.95762
 20
27.42044
 30
0.0
 10
-1.90098
 20
27.42044
 30
0.0
 10
-1.90098
 20
27.42044
 30
0.0
 10
-1.90098
 20
27.42044
 30
0.0
 10
-1.90098
 20
27.42044
 30
0.0
 10
-1.90098
 20
27.23756
 30
0.0
 10
-1.90098
 20
27.23756
 30
0.0
 10
-1.90098
 20
27.23756
 30
0.0
 10
-1.90098
 20
27.23756
 30
0.0
 10
-2.95762
 20
27.23756
 30
0.0
 10
-2.95762
 20
27.23756
 30
0.0
  0
SPLINE
  5
49
330
1F
100
AcDbEntity
  8
Layer 1
100
AcDbSpline
210
0.0
220
0.0
230
1.0
 70
    11
 71
     3
 72
    48
 73
    44
 74
     0
 42
0.0000000001
 43
0.0000000001
 12
1.0
 22
0.0
 32
0.0
 13
1.0
 23
0.0
 33
0.0
 40
0.0
 40
0.0
 40
0.0
 40
0.0
 40
0.0833333333333333
 40
0.0833333333333333
 40
0.0833333333333333
 40
0.0833333333333333
 40
0.1666666666666667
 40
0.1666666666666667
 40
0.1666666666666667
 40
0.1666666666666667
 40
0.25
 40
0.25
 40
0.25
 40
0.25
 40
0.3333333333333333
 40
0.3333333333333333
 40
0.3333333333333333
 40
0.3333333333333333
 40
0.4166666666666667
 40
0.4166666666666667
 40
0.4166666666666667
 40
0.4166666666666667
 40
0.5
 40
0.5
 40
0.5
 40
0.5
 40
0.5833333333333334
 40
0.5833333333333334
 40
0.5833333333333334
 40
0.5833333333333334
 40
0.6666666666666666
 40
0.6666666666666666
 40
0.6666666666666666
 40
0.6666666666666666
 40
0.75
 40
0.75
 40
0.75
 40
0.75
 40
0.8333333333333334
 40
0.8333333333333334
 40
0.8333333333333334
 40
0.8333333333333334
 40
1.0
 40
1.0
 40
1.0
 40
1.0
 10
-0.68432
 20
27.42044
 30
0.0
 10
-0.68432
 20
27.42044
 30
0.0
 10
-0.68432
 20
27.67317
 30
0.0
 10
-0.68432
 20
27.67317
 30
0.0
 10
-0.68432
 20
27.67317
 30
0.0
 10
-0.7838
 20
27.48436
 30
0.0
 10
-0.93366
 20
27.38996
 30
0.0
 10
-1.1339
 20
27.38996
 30
0.0
 10
-1.1339
 20
27.38996
 30
0.0
 10
-1.29646
 20
27.38996
 30
0.0
 10
-1.42431
 20
27.4488
 30
0.0
 10
-1.51744
 20
27.56691
 30
0.0
 10
-1.51744
 20
27.56691
 30
0.0
 10
-1.61057
 20
27.68502
 30
0.0
 10
-1.65714
 20
27.84631
 30
0.0
 10
-1.65714
 20
28.05078
 30
0.0
 10
-1.65714
 20
28.05078
 30
0.0
 10
-1.65714
 20
28.2743
 30
0.0
 10
-1.60422
 20
28.45422
 30
0.0
 10
-1.49881
 20
28.59053
 30
0.0
 10
-1.49881
 20
28.59053
 30
0.0
 10
-1.39298
 20
28.72642
 30
0.0
 10
-1.25413
 20
28.79458
 30
0.0
 10
-1.08183
 20
28.79458
 30
0.0
 10
-1.08183
 20
28.79458
 30
0.0
 10
-0.92223
 20
28.79458
 30
0.0
 10
-0.78931
 20
28.73362
 30
0.0
 10
-0.68432
 20
28.61128
 30
0.0
 10
-0.68432
 20
28.61128
 30
0.0
 10
-0.68432
 20
28.61128
 30
0.0
 10
-0.68432
 20
29.37878
 30
0.0
 10
-0.68432
 20
29.37878
 30
0.0
 10
-0.68432
 20
29.37878
 30
0.0
 10
-0.68432
 20
29.37878
 30
0.0
 10
-0.44048
 20
29.37878
 30
0.0
 10
-0.44048
 20
29.37878
 30
0.0
 10
-0.44048
 20
29.37878
 30
0.0
 10
-0.44048
 20
29.37878
 30
0.0
 10
-0.44048
 20
27.42044
 30
0.0
 10
-0.44048
 20
27.42044
 30
0.0
 10
-0.44048
 20
27.42044
 30
0.0
 10
-0.44048
 20
27.42044
 30
0.0
 10
-0.68432
 20
27.42044
 30
0.0
 10
-0.68432
 20
27.42044
 30
0.0
  0
SPLINE
  5
4A
330
1F
100
AcDbEntity
  8
Layer 1
100
AcDbSpline
210
0.0
220
0.0
230
1.0
 70
    11
 71
     3
 72
    28
 73
    24
 74
     0
 42
0.0000000001
 43
0.0000000001
 12
1.0
 22
0.0
 32
0.0
 13
1.0
 23
0.0
 33
0.0
 40
0.0
 40
0.0
 40
0.0
 40
0.0
 40
0.1428571428571428
 40
0.1428571428571428
 40
0.1428571428571428
 40
0.1428571428571428
 40
0.2857142857142857
 40
0.2857142857142857
 40
0.2857142857142857
 40
0.2857142857142857
 40
0.4285714285714285
 40
0.4285714285714285
 40
0.4285714285714285
 40
0.4285714285714285
 40
0.5714285714285714
 40
0.5714285714285714
 40
0.5714285714285714
 40
0.5714285714285714
 40
0.7142857142857143
 40
0.7142857142857143
 40
0.7142857142857143
 40
0.7142857142857143
 40
1.0
 40
1.0
 40
1.0
 40
1.0
 10
-0.68432
 20
28.44448
 30
0.0
 10
-0.8109
 20
28.55582
 30
0.0
 10
-0.9307
 20
28.6117
 30
0.0
 10
-1.04415
 20
28.6117
 30
0.0
 10
-1.04415
 20
28.6117
 30
0.0
 10
-1.15591
 20
28.6117
 30
0.0
 10
-1.24227
 20
28.56513
 30
0.0
 10
-1.30366
 20
28.47158
 30
0.0
 10
-1.30366
 20
28.47158
 30
0.0
 10
-1.36504
 20
28.37844
 30
0.0
 10
-1.39552
 20
28.24636
 30
0.0
 10
-1.39552
 20
28.07534
 30
0.0
 10
-1.39552
 20
28.07534
 30
0.0
 10
-1.39552
 20
27.7608
 30
0.0
 10
-1.29138
 20
27.60332
 30
0.0
 10
-1.08268
 20
27.60332
 30
0.0
 10
-1.08268
 20
27.60332
 30
0.0
 10
-0.94721
 20
27.60332
 30
0.0
 10
-0.81428
 20
27.6774
 30
0.0
 10
-0.68432
 20
27.82515
 30
0.0
 10
-0.68432
 20
27.82515
 30
0.0
 10
-0.68432
 20
27.82515
 30
0.0
 10
-0.68432
 20
28.44448
 30
0.0
 10
-0.68432
 20
28.44448
 30
0.0
  0
SPLINE
  5
4B
330
1F
100
AcDbEntity
  8
Layer 1
100
AcDbSpline
210
0.0
220
0.0
230
1.0
 70
    11
 71
     3
 72
    20
 73
    16
 74
     0
 42
0.0000000001
 43
0.0000000001
 12
1.0
 22
0.0
 32
0.0
 13
1.0
 23
0.0
 33
0.0
 40
0.0
 40
0.0
 40
0.0
 40
0.0
 40
0.2
 40
0.2
 40
0.2
 40
0.2
 40
0.4
 40
0.4
 40
0.4
 40
0.4
 40
0.6
 40
0.6
 40
0.6
 40
0.6
 40
1.0
 40
1.0
 40
1.0
 40
1.0
 10
-0.08911
 20
27.23756
 30
0.0
 10
-0.08911
 20
27.23756
 30
0.0
 10
-0.08911
 20
27.42044
 30
0.0
 10
-0.08911
 20
27.42044
 30
0.0
 10
-0.08911
 20
27.42044
 30
0.0
 10
-0.08911
 20
27.42044
 30
0.0
 10
0.96753
 20
27.42044
 30
0.0
 10
0.96753
 20
27.42044
 30
0.0
 10
0.96753
 20
27.42044
 30
0.0
 10
0.96753
 20
27.42044
 30
0.0
 10
0.96753
 20
27.23756
 30
0.0
 10
0.96753
 20
27.23756
 30
0.0
 10
0.96753
 20
27.23756
 30
0.0
 10
0.96753
 20
27.23756
 30
0.0
 10
-0.08911
 20
27.23756
 30
0.0
 10
-0.08911
 20
27.23756
 30
0.0
  0
SPLINE
  5
4C
330
1F
100
AcDbEntity
  8
Layer 1
100
AcDbSpline
210
0.0
220
0.0
230
1.0
 70
    11
 71
     3
 72
    48
 73
    44
 74
     0
 42
0.0000000001
 43
0.0000000001
 12
1.0
 22
0.0
 32
0.0
 13
1.0
 23
0.0
 33
0.0
 40
0.0
 40
0.0
 40
0.0
 40
0.0
 40
0.0833333333333333
 40
0.0833333333333333
 40
0.0833333333333333
 40
0.0833333333333333
 40
0.1666666666666667
 40
0.1666666666666667
 40
0.1666666666666667
 40
0.1666666666666667
 40
0.25
 40
0.25
 40
0.25
 40
0.25
 40
0.3333333333333333
 40
0.3333333333333333
 40
0.3333333333333333
 40
0.3333333333333333
 40
0.4166666666666667
 40
0.4166666666666667
 40
0.4166666666666667
 40
0.4166666666666667
 40
0.5
 40
0.5
 40
0.5
 40
0.5
 40
0.5833333333333334
 40
0.5833333333333334
 40
0.5833333333333334
 40
0.5833333333333334
 40
0.6666666666666666
 40
0.6666666666666666
 40
0.6666666666666666
 40
0.6666666666666666
 40
0.75
 40
0.75
 40
0.75
 40
0.75
 40
0.8333333333333334
 40
0.8333333333333334
 40
0.8333333333333334
 40
0.8333333333333334
 40
1.0
 40
1.0
 40
1.0
 40
1.0
 10
1.31805
 20
26.93022
 30
0.0
 10
1.31805
 20
26.93022
 30
0.0
 10
1.31805
 20
28.76664
 30
0.0
 10
1.31805
 20
28.76664
 30
0.0
 10
1.31805
 20
28.76664
 30
0.0
 10
1.31805
 20
28.76664
 30
0.0
 10
1.56189
 20
28.76664
 30
0.0
 10
1.56189
 20
28.76664
 30
0.0
 10
1.56189
 20
28.76664
 30
0.0
 10
1.56189
 20
28.76664
 30
0.0
 10
1.56189
 20
28.51222
 30
0.0
 10
1.56189
 20
28.51222
 30
0.0
 10
1.56189
 20
28.51222
 30
0.0
 10
1.6618
 20
28.7006
 30
0.0
 10
1.81208
 20
28.79458
 30
0.0
 10
2.01232
 20
28.79458
 30
0.0
 10
2.01232
 20
28.79458
 30
0.0
 10
2.17445
 20
28.79458
 30
0.0
 10
2.30188
 20
28.73574
 30
0.0
 10
2.39501
 20
28.61763
 30
0.0
 10
2.39501
 20
28.61763
 30
0.0
 10
2.48814
 20
28.49952
 30
0.0
 10
2.53471
 20
28.33823
 30
0.0
 10
2.53471
 20
28.13376
 30
0.0
 10
2.53471
 20
28.13376
 30
0.0
 10
2.53471
 20
27.91108
 30
0.0
 10
2.48179
 20
27.73117
 30
0.0
 10
2.37638
 20
27.59485
 30
0.0
 10
2.37638
 20
27.59485
 30
0.0
 10
2.27097
 20
27.45812
 30
0.0
 10
2.13212
 20
27.38996
 30
0.0
 10
1.96025
 20
27.38996
 30
0.0
 10
1.96025
 20
27.38996
 30
0.0
 10
1.80065
 20
27.38996
 30
0.0
 10
1.66772
 20
27.45092
 30
0.0
 10
1.56189
 20
27.57326
 30
0.0
 10
1.56189
 20
27.57326
 30
0.0
 10
1.56189
 20
27.57326
 30
0.0
 10
1.56189
 20
26.93022
 30
0.0
 10
1.56189
 20
26.93022
 30
0.0
 10
1.56189
 20
26.93022
 30
0.0
 10
1.56189
 20
26.93022
 30
0.0
 10
1.31805
 20
26.93022
 30
0.0
 10
1.31805
 20
26.93022
 30
0.0
  0
SPLINE
  5
4D
330
1F
100
AcDbEntity
  8
Layer 1
100
AcDbSpline
210
0.0
220
0.0
230
1.0
 70
    11
 71
     3
 72
    28
 73
    24
 74
     0
 42
0.0000000001
 43
0.0000000001
 12
1.0
 22
0.0
 32
0.0
 13
1.0
 23
0.0
 33
0.0
 40
0.0
 40
0.0
 40
0.0
 40
0.0
 40
0.1428571428571428
 40
0.1428571428571428
 40
0.1428571428571428
 40
0.1428571428571428
 40
0.2857142857142857
 40
0.2857142857142857
 40
0.2857142857142857
 40
0.2857142857142857
 40
0.4285714285714285
 40
0.4285714285714285
 40
0.4285714285714285
 40
0.4285714285714285
 40
0.5714285714285714
 40
0.5714285714285714
 40
0.5714285714285714
 40
0.5714285714285714
 40
0.7142857142857143
 40
0.7142857142857143
 40
0.7142857142857143
 40
0.7142857142857143
 40
1.0
 40
1.0
 40
1.0
 40
1.0
 10
1.56189
 20
27.74133
 30
0.0
 10
1.68762
 20
27.62914
 30
0.0
 10
1.80742
 20
27.57284
 30
0.0
 10
1.9213
 20
27.57284
 30
0.0
 10
1.9213
 20
27.57284
 30
0.0
 10
2.03348
 20
27.57284
 30
0.0
 10
2.12027
 20
27.61983
 30
0.0
 10
2.18123
 20
27.71339
 30
0.0
 10
2.18123
 20
27.71339
 30
0.0
 10
2.24261
 20
27.80694
 30
0.0
 10
2.27309
 20
27.9386
 30
0.0
 10
2.27309
 20
28.10878
 30
0.0
 10
2.27309
 20
28.10878
 30
0.0
 10
2.27309
 20
28.42374
 30
0.0
 10
2.16895
 20
28.58122
 30
0.0
 10
1.96067
 20
28.58122
 30
0.0
 10
1.96067
 20
28.58122
 30
0.0
 10
1.82436
 20
28.58122
 30
0.0
 10
1.69143
 20
28.50756
 30
0.0
 10
1.56189
 20
28.35982
 30
0.0
 10
1.56189
 20
28.35982
 30
0.0
 10
1.56189
 20
28.35982
 30
0.0
 10
1.56189
 20
27.74133
 30
0.0
 10
1.56189
 20
27.74133
 30
0.0
  0
SPLINE
  5
4E
330
1F
100
AcDbEntity
  8
Layer 1
100
AcDbSpline
210
0.0
220
0.0
230
1.0
 70
    11
 71
     3
 72
    44
 73
    40
 74
     0
 42
0.0000000001
 43
0.0000000001
 12
1.0
 22
0.0
 32
0.0
 13
1.0
 23
0.0
 33
0.0
 40
0.0
 40
0.0
 40
0.0
 40
0.0
 40
0.0909090909090909
 40
0.0909090909090909
 40
0.0909090909090909
 40
0.0909090909090909
 40
0.1818181818181818
 40
0.1818181818181818
 40
0.1818181818181818
 40
0.1818181818181818
 40
0.2727272727272727
 40
0.2727272727272727
 40
0.2727272727272727
 40
0.2727272727272727
 40
0.3636363636363636
 40
0.3636363636363636
 40
0.3636363636363636
 40
0.3636363636363636
 40
0.4545454545454545
 40
0.4545454545454545
 40
0.4545454545454545
 40
0.4545454545454545
 40
0.5454545454545454
 40
0.5454545454545454
 40
0.5454545454545454
 40
0.5454545454545454
 40
0.6363636363636364
 40
0.6363636363636364
 40
0.6363636363636364
 40
0.6363636363636364
 40
0.7272727272727273
 40
0.7272727272727273
 40
0.7272727272727273
 40
0.7272727272727273
 40
0.8181818181818182
 40
0.8181818181818182
 40
0.8181818181818182
 40
0.8181818181818182
 40
1.0
 40
1.0
 40
1.0
 40
1.0
 10
2.91656
 20
27.42044
 30
0.0
 10
2.91656
 20
27.42044
 30
0.0
 10
2.91656
 20
28.76664
 30
0.0
 10
2.91656
 20
28.76664
 30
0.0
 10
2.91656
 20
28.76664
 30
0.0
 10
2.91656
 20
28.76664
 30
0.0
 10
3.1604
 20
28.76664
 30
0.0
 10
3.1604
 20
28.76664
 30
0.0
 10
3.1604
 20
28.76664
 30
0.0
 10
3.1604
 20
28.76664
 30
0.0
 10
3.1604
 20
28.51222
 30
0.0
 10
3.1604
 20
28.51222
 30
0.0
 10
3.1604
 20
28.51222
 30
0.0
 10
3.25734
 20
28.7006
 30
0.0
 10
3.39789
 20
28.79458
 30
0.0
 10
3.58246
 20
28.79458
 30
0.0
 10
3.58246
 20
28.79458
 30
0.0
 10
3.60744
 20
28.79458
 30
0.0
 10
3.63369
 20
28.79246
 30
0.0
 10
3.66078
 20
28.78823
 30
0.0
 10
3.66078
 20
28.78823
 30
0.0
 10
3.66078
 20
28.78823
 30
0.0
 10
3.66078
 20
28.56005
 30
0.0
 10
3.66078
 20
28.56005
 30
0.0
 10
3.66078
 20
28.56005
 30
0.0
 10
3.61845
 20
28.57402
 30
0.0
 10
3.58119
 20
28.58122
 30
0.0
 10
3.54902
 20
28.58122
 30
0.0
 10
3.54902
 20
28.58122
 30
0.0
 10
3.39408
 20
28.58122
 30
0.0
 10
3.26454
 20
28.48978
 30
0.0
 10
3.1604
 20
28.30648
 30
0.0
 10
3.1604
 20
28.30648
 30
0.0
 10
3.1604
 20
28.30648
 30
0.0
 10
3.1604
 20
27.42044
 30
0.0
 10
3.1604
 20
27.42044
 30
0.0
 10
3.1604
 20
27.42044
 30
0.0
 10
3.1604
 20
27.42044
 30
0.0
 10
2.91656
 20
27.42044
 30
0.0
 10
2.91656
 20
27.42044
 30
0.0
  0
SPLINE
  5
4F
330
1F
100
AcDbEntity
  8
Layer 1
100
AcDbSpline
210
0.0
220
0.0
230
1.0
 70
    11
 71
     3
 72
    20
 73
    16
 74
     0
 42
0.0000000001
 43
0.0000000001
 12
1.0
 22
0.0
 32
0.0
 13
1.0
 23
0.0
 33
0.0
 40
0.0
 40
0.0
 40
0.0
 40
0.0
 40
0.2
 40
0.2
 40
0.2
 40
0.2
 40
0.4
 40
0.4
 40
0.4
 40
0.4
 40
0.6
 40
0.6
 40
0.6
 40
0.6
 40
1.0
 40
1.0
 40
1.0
 40
1.0
 10
3.95584
 20
27.42044
 30
0.0
 10
3.95584
 20
27.42044
 30
0.0
 10
3.95584
 20
28.76664
 30
0.0
 10
3.95584
 20
28.76664
 30
0.0
 10
3.95584
 20
28.76664
 30
0.0
 10
3.95584
 20
28.76664
 30
0.0
 10
4.19968
 20
28.76664
 30
0.0
 10
4.19968
 20
28.76664
 30
0.0
 10
4.19968
 20
28.76664
 30
0.0
 10
4.19968
 20
28.76664
 30
0.0
 10
4.19968
 20
27.42044
 30
0.0
 10
4.19968
 20
27.42044
 30
0.0
 10
4.19968
 20
27.42044
 30
0.0
 10
4.19968
 20
27.42044
 30
0.0
 10
3.95584
 20
27.42044
 30
0.0
 10
3.95584
 20
27.42044
 30
0.0
  0
SPLINE
  5
50
330
1F
100
AcDbEntity
  8
Layer 1
100
AcDbSpline
210
0.0
220
0.0
230
1.0
 70
    11
 71
     3
 72
    20
 73
    16
 74
     0
 42
0.0000000001
 43
0.0000000001
 12
1.0
 22
0.0
 32
0.0
 13
1.0
 23
0.0
 33
0.0
 40
0.0
 40
0.0
 40
0.0
 40
0.0
 40
0.2
 40
0.2
 40
0.2
 40
0.2
 40
0.4
 40
0.4
 40
0.4
 40
0.4
 40
0.6
 40
0.6
 40
0.6
 40
0.6
 40
1.0
 40
1.0
 40
1.0
 40
1.0
 10
3.95584
 20
29.01302
 30
0.0
 10
3.95584
 20
29.01302
 30
0.0
 10
3.95584
 20
29.25686
 30
0.0
 10
3.95584
 20
29.25686
 30
0.0
 10
3.95584
 20
29.25686
 30
0.0
 10
3.95584
 20
29.25686
 30
0.0
 10
4.19968
 20
29.25686
 30
0.0
 10
4.19968
 20
29.25686
 30
0.0
 10
4.19968
 20
29.25686
 30
0.0
 10
4.19968
 20
29.25686
 30
0.0
 10
4.19968
 20
29.01302
 30
0.0
 10
4.19968
 20
29.01302
 30
0.0
 10
4.19968
 20
29.01302
 30
0.0
 10
4.19968
 20
29.01302
 30
0.0
 10
3.95584
 20
29.01302
 30
0.0
 10
3.95584
 20
29.01302
 30
0.0
  0
SPLINE
  5
51
330
1F
100
AcDbEntity
  8
Layer 1
100
AcDbSpline
210
0.0
220
0.0
230
1.0
 70
    11
 71
     3
 72
    60
 73
    56
 74
     0
 42
0.0000000001
 43
0.0000000001
 12
1.0
 22
0.0
 32
0.0
 13
1.0
 23
0.0
 33
0.0
 40
0.0
 40
0.0
 40
0.0
 40
0.0
 40
0.0666666666666667
 40
0.0666666666666667
 40
0.0666666666666667
 40
0.0666666666666667
 40
0.1333333333333333
 40
0.1333333333333333
 40
0.1333333333333333
 40
0.1333333333333333
 40
0.2
 40
0.2
 40
0.2
 40
0.2
 40
0.2666666666666667
 40
0.2666666666666667
 40
0.2666666666666667
 40
0.2666666666666667
 40
0.3333333333333333
 40
0.3333333333333333
 40
0.3333333333333333
 40
0.3333333333333333
 40
0.4
 40
0.4
 40
0.4
 40
0.4
 40
0.4666666666666667
 40
0.4666666666666667
 40
0.4666666666666667
 40
0.4666666666666667
 40
0.5333333333333333
 40
0.5333333333333333
 40
0.5333333333333333
 40
0.5333333333333333
 40
0.6
 40
0.6
 40
0.6
 40
0.6
 40
0.6666666666666666
 40
0.6666666666666666
 40
0.6666666666666666
 40
0.6666666666666666
 40
0.7333333333333333
 40
0.7333333333333333
 40
0.7333333333333333
 40
0.7333333333333333
 40
0.8
 40
0.8
 40
0.8
 40
0.8
 40
0.8666666666666667
 40
0.8666666666666667
 40
0.8666666666666667
 40
0.8666666666666667
 40
1.0
 40
1.0
 40
1.0
 40
1.0
 10
4.6899
 20
27.42044
 30
0.0
 10
4.6899
 20
27.42044
 30
0.0
 10
4.6899
 20
28.76664
 30
0.0
 10
4.6899
 20
28.76664
 30
0.0
 10
4.6899
 20
28.76664
 30
0.0
 10
4.6899
 20
28.76664
 30
0.0
 10
4.93374
 20
28.76664
 30
0.0
 10
4.93374
 20
28.76664
 30
0.0
 10
4.93374
 20
28.76664
 30
0.0
 10
4.93374
 20
28.76664
 30
0.0
 10
4.93374
 20
28.51222
 30
0.0
 10
4.93374
 20
28.51222
 30
0.0
 10
4.93374
 20
28.51222
 30
0.0
 10
5.06286
 20
28.7006
 30
0.0
 10
5.22118
 20
28.79458
 30
0.0
 10
5.4083
 20
28.79458
 30
0.0
 10
5.4083
 20
28.79458
 30
0.0
 10
5.52598
 20
28.79458
 30
0.0
 10
5.61954
 20
28.75775
 30
0.0
 10
5.68854
 20
28.68367
 30
0.0
 10
5.68854
 20
28.68367
 30
0.0
 10
5.75755
 20
28.61001
 30
0.0
 10
5.79226
 20
28.51052
 30
0.0
 10
5.79226
 20
28.38606
 30
0.0
 10
5.79226
 20
28.38606
 30
0.0
 10
5.79226
 20
28.38606
 30
0.0
 10
5.79226
 20
27.42044
 30
0.0
 10
5.79226
 20
27.42044
 30
0.0
 10
5.79226
 20
27.42044
 30
0.0
 10
5.79226
 20
27.42044
 30
0.0
 10
5.54842
 20
27.42044
 30
0.0
 10
5.54842
 20
27.42044
 30
0.0
 10
5.54842
 20
27.42044
 30
0.0
 10
5.54842
 20
27.42044
 30
0.0
 10
5.54842
 20
28.30648
 30
0.0
 10
5.54842
 20
28.30648
 30
0.0
 10
5.54842
 20
28.30648
 30
0.0
 10
5.54842
 20
28.40638
 30
0.0
 10
5.5336
 20
28.4775
 30
0.0
 10
5.50439
 20
28.51984
 30
0.0
 10
5.50439
 20
28.51984
 30
0.0
 10
5.47476
 20
28.56259
 30
0.0
 10
5.42608
 20
28.58376
 30
0.0
 10
5.35792
 20
28.58376
 30
0.0
 10
5.35792
 20
28.58376
 30
0.0
 10
5.20806
 20
28.58376
 30
0.0
 10
5.06667
 20
28.48597
 30
0.0
 10
4.93374
 20
28.29039
 30
0.0
 10
4.93374
 20
28.29039
 30
0.0
 10
4.93374
 20
28.29039
 30
0.0
 10
4.93374
 20
27.42044
 30
0.0
 10
4.93374
 20
27.42044
 30
0.0
 10
4.93374
 20
27.42044
 30
0.0
 10
4.93374
 20
27.42044
 30
0.0
 10
4.6899
 20
27.42044
 30
0.0
 10
4.6899
 20
27.42044
 30
0.0
  0
SPLINE
  5
52
330
1F
100
AcDbEntity
  8
Layer 1
100
AcDbSpline
210
0.0
220
0.0
230
1.0
 70
    11
 71
     3
 72
    72
 73
    68
 74
     0
 42
0.0000000001
 43
0.0000000001
 12
1.0
 22
0.0
 32
0.0
 13
1.0
 23
0.0
 33
0.0
 40
0.0
 40
0.0
 40
0.0
 40
0.0
 40
0.0555555555555556
 40
0.0555555555555556
 40
0.0555555555555556
 40
0.0555555555555556
 40
0.1111111111111111
 40
0.1111111111111111
 40
0.1111111111111111
 40
0.1111111111111111
 40
0.1666666666666667
 40
0.1666666666666667
 40
0.1666666666666667
 40
0.1666666666666667
 40
0.2222222222222222
 40
0.2222222222222222
 40
0.2222222222222222
 40
0.2222222222222222
 40
0.2777777777777778
 40
0.2777777777777778
 40
0.2777777777777778
 40
0.2777777777777778
 40
0.3333333333333333
 40
0.3333333333333333
 40
0.3333333333333333
 40
0.3333333333333333
 40
0.3888888888888889
 40
0.3888888888888889
 40
0.3888888888888889
 40
0.3888888888888889
 40
0.4444444444444444
 40
0.4444444444444444
 40
0.4444444444444444
 40
0.4444444444444444
 40
0.5
 40
0.5
 40
0.5
 40
0.5
 40
0.5555555555555556
 40
0.5555555555555556
 40
0.5555555555555556
 40
0.5555555555555556
 40
0.6111111111111112
 40
0.6111111111111112
 40
0.6111111111111112
 40
0.6111111111111112
 40
0.6666666666666666
 40
0.6666666666666666
 40
0.6666666666666666
 40
0.6666666666666666
 40
0.7222222222222222
 40
0.7222222222222222
 40
0.7222222222222222
 40
0.7222222222222222
 40
0.7777777777777778
 40
0.7777777777777778
 40
0.7777777777777778
 40
0.7777777777777778
 40
0.8333333333333334
 40
0.8333333333333334
 40
0.8333333333333334
 40
0.8333333333333334
 40
0.8888888888888888
 40
0.8888888888888888
 40
0.8888888888888888
 40
0.8888888888888888
 40
1.0
 40
1.0
 40
1.0
 40
1.0
 10
6.86837
 20
27.42086
 30
0.0
 10
6.79302
 20
27.40012
 30
0.0
 10
6.7274
 20
27.38996
 30
0.0
 10
6.67194
 20
27.38996
 30
0.0
 10
6.67194
 20
27.38996
 30
0.0
 10
6.54748
 20
27.38996
 30
0.0
 10
6.45054
 20
27.42552
 30
0.0
 10
6.38111
 20
27.49664
 30
0.0
 10
6.38111
 20
27.49664
 30
0.0
 10
6.31126
 20
27.56776
 30
0.0
 10
6.27655
 20
27.6664
 30
0.0
 10
6.27655
 20
27.79297
 30
0.0
 10
6.27655
 20
27.79297
 30
0.0
 10
6.27655
 20
27.79297
 30
0.0
 10
6.27655
 20
28.58376
 30
0.0
 10
6.27655
 20
28.58376
 30
0.0
 10
6.27655
 20
28.58376
 30
0.0
 10
6.27655
 20
28.58376
 30
0.0
 10
6.10806
 20
28.58376
 30
0.0
 10
6.10806
 20
28.58376
 30
0.0
 10
6.10806
 20
28.58376
 30
0.0
 10
6.10806
 20
28.58376
 30
0.0
 10
6.10806
 20
28.76664
 30
0.0
 10
6.10806
 20
28.76664
 30
0.0
 10
6.10806
 20
28.76664
 30
0.0
 10
6.10806
 20
28.76664
 30
0.0
 10
6.27655
 20
28.76664
 30
0.0
 10
6.27655
 20
28.76664
 30
0.0
 10
6.27655
 20
28.76664
 30
0.0
 10
6.27655
 20
28.76664
 30
0.0
 10
6.27655
 20
29.01006
 30
0.0
 10
6.27655
 20
29.01006
 30
0.0
 10
6.27655
 20
29.01006
 30
0.0
 10
6.27655
 20
29.01006
 30
0.0
 10
6.52039
 20
29.03334
 30
0.0
 10
6.52039
 20
29.03334
 30
0.0
 10
6.52039
 20
29.03334
 30
0.0
 10
6.52039
 20
29.03334
 30
0.0
 10
6.52039
 20
28.76664
 30
0.0
 10
6.52039
 20
28.76664
 30
0.0
 10
6.52039
 20
28.76664
 30
0.0
 10
6.52039
 20
28.76664
 30
0.0
 10
6.87345
 20
28.76664
 30
0.0
 10
6.87345
 20
28.76664
 30
0.0
 10
6.87345
 20
28.76664
 30
0.0
 10
6.87345
 20
28.76664
 30
0.0
 10
6.87345
 20
28.58376
 30
0.0
 10
6.87345
 20
28.58376
 30
0.0
 10
6.87345
 20
28.58376
 30
0.0
 10
6.87345
 20
28.58376
 30
0.0
 10
6.52039
 20
28.58376
 30
0.0
 10
6.52039
 20
28.58376
 30
0.0
 10
6.52039
 20
28.58376
 30
0.0
 10
6.52039
 20
28.58376
 30
0.0
 10
6.52039
 20
27.837
 30
0.0
 10
6.52039
 20
27.837
 30
0.0
 10
6.52039
 20
27.837
 30
0.0
 10
6.52039
 20
27.66089
 30
0.0
 10
6.59701
 20
27.57284
 30
0.0
 10
6.74984
 20
27.57284
 30
0.0
 10
6.74984
 20
27.57284
 30
0.0
 10
6.78243
 20
27.57284
 30
0.0
 10
6.8218
 20
27.57834
 30
0.0
 10
6.86837
 20
27.58893
 30
0.0
 10
6.86837
 20
27.58893
 30
0.0
 10
6.86837
 20
27.58893
 30
0.0
 10
6.86837
 20
27.42086
 30
0.0
 10
6.86837
 20
27.42086
 30
0.0
  0
SPLINE
  5
53
330
1F
100
AcDbEntity
  8
Layer 1
100
AcDbSpline
210
0.0
220
0.0
230
1.0
 70
    11
 71
     3
 72
    52
 73
    48
 74
     0
 42
0.0000000001
 43
0.0000000001
 12
1.0
 22
0.0
 32
0.0
 13
1.0
 23
0.0
 33
0.0
 40
0.0
 40
0.0
 40
0.0
 40
0.0
 40
0.0769230769230769
 40
0.0769230769230769
 40
0.0769230769230769
 40
0.0769230769230769
 40
0.1538461538461539
 40
0.1538461538461539
 40
0.1538461538461539
 40
0.1538461538461539
 40
0.2307692307692308
 40
0.2307692307692308
 40
0.2307692307692308
 40
0.2307692307692308
 40
0.3076923076923077
 40
0.3076923076923077
 40
0.3076923076923077
 40
0.3076923076923077
 40
0.3846153846153846
 40
0.3846153846153846
 40
0.3846153846153846
 40
0.3846153846153846
 40
0.4615384615384616
 40
0.4615384615384616
 40
0.4615384615384616
 40
0.4615384615384616
 40
0.5384615384615384
 40
0.5384615384615384
 40
0.5384615384615384
 40
0.5384615384615384
 40
0.6153846153846154
 40
0.6153846153846154
 40
0.6153846153846154
 40
0.6153846153846154
 40
0.6923076923076923
 40
0.6923076923076923
 40
0.6923076923076923
 40
0.6923076923076923
 40
0.7692307692307693
 40
0.7692307692307693
 40
0.7692307692307693
 40
0.7692307692307693
 40
0.8461538461538461
 40
0.8461538461538461
 40
0.8461538461538461
 40
0.8461538461538461
 40
1.0
 40
1.0
 40
1.0
 40
1.0
 10
8.20441
 20
27.46362
 30
0.0
 10
8.04058
 20
27.41451
 30
0.0
 10
7.90046
 20
27.38996
 30
0.0
 10
7.78362
 20
27.38996
 30
0.0
 10
7.78362
 20
27.38996
 30
0.0
 10
7.58423
 20
27.38996
 30
0.0
 10
7.42209
 20
27.456
 30
0.0
 10
7.29721
 20
27.58766
 30
0.0
 10
7.29721
 20
27.58766
 30
0.0
 10
7.17232
 20
27.71931
 30
0.0
 10
7.10967
 20
27.88992
 30
0.0
 10
7.10967
 20
28.09989
 30
0.0
 10
7.10967
 20
28.09989
 30
0.0
 10
7.10967
 20
28.30351
 30
0.0
 10
7.1647
 20
28.47073
 30
0.0
 10
7.27519
 20
28.60154
 30
0.0
 10
7.27519
 20
28.60154
 30
0.0
 10
7.38568
 20
28.73193
 30
0.0
 10
7.52708
 20
28.79712
 30
0.0
 10
7.69937
 20
28.79712
 30
0.0
 10
7.69937
 20
28.79712
 30
0.0
 10
7.86236
 20
28.79712
 30
0.0
 10
7.98851
 20
28.73912
 30
0.0
 10
8.07741
 20
28.62313
 30
0.0
 10
8.07741
 20
28.62313
 30
0.0
 10
8.16631
 20
28.50714
 30
0.0
 10
8.21076
 20
28.34288
 30
0.0
 10
8.21076
 20
28.12995
 30
0.0
 10
8.21076
 20
28.12995
 30
0.0
 10
8.21076
 20
28.12995
 30
0.0
 10
8.20949
 20
28.05544
 30
0.0
 10
8.20949
 20
28.05544
 30
0.0
 10
8.20949
 20
28.05544
 30
0.0
 10
8.20949
 20
28.05544
 30
0.0
 10
7.35859
 20
28.05544
 30
0.0
 10
7.35859
 20
28.05544
 30
0.0
 10
7.35859
 20
28.05544
 30
0.0
 10
7.39415
 20
27.73371
 30
0.0
 10
7.55121
 20
27.57284
 30
0.0
 10
7.82934
 20
27.57284
 30
0.0
 10
7.82934
 20
27.57284
 30
0.0
 10
7.93136
 20
27.57284
 30
0.0
 10
8.05624
 20
27.60163
 30
0.0
 10
8.20441
 20
27.6592
 30
0.0
 10
8.20441
 20
27.6592
 30
0.0
 10
8.20441
 20
27.6592
 30
0.0
 10
8.20441
 20
27.46362
 30
0.0
 10
8.20441
 20
27.46362
 30
0.0
  0
SPLINE
  5
54
330
1F
100
AcDbEntity
  8
Layer 1
100
AcDbSpline
210
0.0
220
0.0
230
1.0
 70
    11
 71
     3
 72
    16
 73
    12
 74
     0
 42
0.0000000001
 43
0.0000000001
 12
1.0
 22
0.0
 32
0.0
 13
1.0
 23
0.0
 33
0.0
 40
0.0
 40
0.0
 40
0.0
 40
0.0
 40
0.25
 40
0.25
 40
0.25
 40
0.25
 40
0.5
 40
0.5
 40
0.5
 40
0.5
 40
1.0
 40
1.0
 40
1.0
 40
1.0
 10
7.37129
 20
28.23832
 30
0.0
 10
7.37129
 20
28.23832
 30
0.0
 10
7.96565
 20
28.23832
 30
0.0
 10
7.96565
 20
28.23832
 30
0.0
 10
7.96565
 20
28.23832
 30
0.0
 10
7.96565
 20
28.48893
 30
0.0
 10
7.87209
 20
28.61424
 30
0.0
 10
7.6854
 20
28.61424
 30
0.0
 10
7.6854
 20
28.61424
 30
0.0
 10
7.49744
 20
28.61424
 30
0.0
 10
7.39288
 20
28.48893
 30
0.0
 10
7.37129
 20
28.23832
 30
0.0
  0
SPLINE
  5
55
330
1F
100
AcDbEntity
  8
Layer 1
100
AcDbSpline
210
0.0
220
0.0
230
1.0
 70
    11
 71
     3
 72
    44
 73
    40
 74
     0
 42
0.0000000001
 43
0.0000000001
 12
1.0
 22
0.0
 32
0.0
 13
1.0
 23
0.0
 33
0.0
 40
0.0
 40
0.0
 40
0.0
 40
0.0
 40
0.0909090909090909
 40
0.0909090909090909
 40
0.0909090909090909
 40
0.0909090909090909
 40
0.1818181818181818
 40
0.1818181818181818
 40
0.1818181818181818
 40
0.1818181818181818
 40
0.2727272727272727
 40
0.2727272727272727
 40
0.2727272727272727
 40
0.2727272727272727
 40
0.3636363636363636
 40
0.3636363636363636
 40
0.3636363636363636
 40
0.3636363636363636
 40
0.4545454545454545
 40
0.4545454545454545
 40
0.4545454545454545
 40
0.4545454545454545
 40
0.5454545454545454
 40
0.5454545454545454
 40
0.5454545454545454
 40
0.5454545454545454
 40
0.6363636363636364
 40
0.6363636363636364
 40
0.6363636363636364
 40
0.6363636363636364
 40
0.7272727272727273
 40
0.7272727272727273
 40
0.7272727272727273
 40
0.7272727272727273
 40
0.8181818181818182
 40
0.8181818181818182
 40
0.8181818181818182
 40
0.8181818181818182
 40
1.0
 40
1.0
 40
1.0
 40
1.0
 10
8.63155
 20
27.42044
 30
0.0
 10
8.63155
 20
27.42044
 30
0.0
 10
8.63155
 20
28.76664
 30
0.0
 10
8.63155
 20
28.76664
 30
0.0
 10
8.63155
 20
28.76664
 30
0.0
 10
8.63155
 20
28.76664
 30
0.0
 10
8.87539
 20
28.76664
 30
0.0
 10
8.87539
 20
28.76664
 30
0.0
 10
8.87539
 20
28.76664
 30
0.0
 10
8.87539
 20
28.76664
 30
0.0
 10
8.87539
 20
28.51222
 30
0.0
 10
8.87539
 20
28.51222
 30
0.0
 10
8.87539
 20
28.51222
 30
0.0
 10
8.97233
 20
28.7006
 30
0.0
 10
9.11288
 20
28.79458
 30
0.0
 10
9.29745
 20
28.79458
 30
0.0
 10
9.29745
 20
28.79458
 30
0.0
 10
9.32243
 20
28.79458
 30
0.0
 10
9.34868
 20
28.79246
 30
0.0
 10
9.37577
 20
28.78823
 30
0.0
 10
9.37577
 20
28.78823
 30
0.0
 10
9.37577
 20
28.78823
 30
0.0
 10
9.37577
 20
28.56005
 30
0.0
 10
9.37577
 20
28.56005
 30
0.0
 10
9.37577
 20
28.56005
 30
0.0
 10
9.33344
 20
28.57402
 30
0.0
 10
9.29618
 20
28.58122
 30
0.0
 10
9.26401
 20
28.58122
 30
0.0
 10
9.26401
 20
28.58122
 30
0.0
 10
9.10907
 20
28.58122
 30
0.0
 10
8.97953
 20
28.48978
 30
0.0
 10
8.87539
 20
28.30648
 30
0.0
 10
8.87539
 20
28.30648
 30
0.0
 10
8.87539
 20
28.30648
 30
0.0
 10
8.87539
 20
27.42044
 30
0.0
 10
8.87539
 20
27.42044
 30
0.0
 10
8.87539
 20
27.42044
 30
0.0
 10
8.87539
 20
27.42044
 30
0.0
 10
8.63155
 20
27.42044
 30
0.0
 10
8.63155
 20
27.42044
 30
0.0
  0
SPLINE
  5
56
330
1F
100
AcDbEntity
  8
Layer 1
100
AcDbSpline
210
0.0
220
0.0
230
1.0
 70
    11
 71
     3
 72
    80
 73
    76
 74
     0
 42
0.0000000001
 43
0.0000000001
 12
1.0
 22
0.0
 32
0.0
 13
1.0
 23
0.0
 33
0.0
 40
0.0
 40
0.0
 40
0.0
 40
0.0
 40
0.05
 40
0.05
 40
0.05
 40
0.05
 40
0.1
 40
0.1
 40
0.1
 40
0.1
 40
0.15
 40
0.15
 40
0.15
 40
0.15
 40
0.2
 40
0.2
 40
0.2
 40
0.2
 40
0.25
 40
0.25
 40
0.25
 40
0.25
 40
0.3
 40
0.3
 40
0.3
 40
0.3
 40
0.35
 40
0.35
 40
0.35
 40
0.35
 40
0.4
 40
0.4
 40
0.4
 40
0.4
 40
0.45
 40
0.45
 40
0.45
 40
0.45
 40
0.5
 40
0.5
 40
0.5
 40
0.5
 40
0.55
 40
0.55
 40
0.55
 40
0.55
 40
0.6
 40
0.6
 40
0.6
 40
0.6
 40
0.65
 40
0.65
 40
0.65
 40
0.65
 40
0.7
 40
0.7
 40
0.7
 40
0.7
 40
0.75
 40
0.75
 40
0.75
 40
0.75
 40
0.8
 40
0.8
 40
0.8
 40
0.8
 40
0.85
 40
0.85
 40
0.85
 40
0.85
 40
0.9
 40
0.9
 40
0.9
 40
0.9
 40
1.0
 40
1.0
 40
1.0
 40
1.0
 10
-24.02416
 20
23.51731
 30
0.0
 10
-24.02416
 20
23.51731
 30
0.0
 10
-24.02416
 20
24.68063
 30
0.0
 10
-24.02416
 20
24.68063
 30
0.0
 10
-24.02416
 20
24.68063
 30
0.0
 10
-24.02416
 20
24.68063
 30
0.0
 10
-24.21508
 20
24.68063
 30
0.0
 10
-24.21508
 20
24.68063
 30
0.0
 10
-24.21508
 20
24.68063
 30
0.0
 10
-24.21508
 20
24.68063
 30
0.0
 10
-24.21508
 20
24.86351
 30
0.0
 10
-24.21508
 20
24.86351
 30
0.0
 10
-24.21508
 20
24.86351
 30
0.0
 10
-24.21508
 20
24.86351
 30
0.0
 10
-24.02416
 20
24.86351
 30
0.0
 10
-24.02416
 20
24.86351
 30
0.0
 10
-24.02416
 20
24.86351
 30
0.0
 10
-24.02416
 20
24.86351
 30
0.0
 10
-24.02416
 20
25.0248
 30
0.0
 10
-24.02416
 20
25.0248
 30
0.0
 10
-24.02416
 20
25.0248
 30
0.0
 10
-24.02416
 20
25.34569
 30
0.0
 10
-23.87769
 20
25.50613
 30
0.0
 10
-23.58474
 20
25.50613
 30
0.0
 10
-23.58474
 20
25.50613
 30
0.0
 10
-23.50261
 20
25.50613
 30
0.0
 10
-23.40948
 20
25.49258
 30
0.0
 10
-23.30534
 20
25.46549
 30
0.0
 10
-23.30534
 20
25.46549
 30
0.0
 10
-23.30534
 20
25.46549
 30
0.0
 10
-23.30534
 20
25.26991
 30
0.0
 10
-23.30534
 20
25.26991
 30
0.0
 10
-23.30534
 20
25.26991
 30
0.0
 10
-23.41583
 20
25.30547
 30
0.0
 10
-23.50431
 20
25.32325
 30
0.0
 10
-23.57077
 20
25.32325
 30
0.0
 10
-23.57077
 20
25.32325
 30
0.0
 10
-23.65163
 20
25.32325
 30
0.0
 10
-23.70666
 20
25.3042
 30
0.0
 10
-23.73587
 20
25.26568
 30
0.0
 10
-23.73587
 20
25.26568
 30
0.0
 10
-23.7655
 20
25.22715
 30
0.0
 10
-23.78032
 20
25.15561
 30
0.0
 10
-23.78032
 20
25.05105
 30
0.0
 10
-23.78032
 20
25.05105
 30
0.0
 10
-23.78032
 20
25.05105
 30
0.0
 10
-23.78032
 20
24.86351
 30
0.0
 10
-23.78032
 20
24.86351
 30
0.0
 10
-23.78032
 20
24.86351
 30
0.0
 10
-23.78032
 20
24.86351
 30
0.0
 10
-22.9218
 20
24.86351
 30
0.0
 10
-22.9218
 20
24.86351
 30
0.0
 10
-22.9218
 20
24.86351
 30
0.0
 10
-22.9218
 20
24.86351
 30
0.0
 10
-22.9218
 20
23.51731
 30
0.0
 10
-22.9218
 20
23.51731
 30
0.0
 10
-22.9218
 20
23.51731
 30
0.0
 10
-22.9218
 20
23.51731
 30
0.0
 10
-23.16564
 20
23.51731
 30
0.0
 10
-23.16564
 20
23.51731
 30
0.0
 10
-23.16564
 20
23.51731
 30
0.0
 10
-23.16564
 20
23.51731
 30
0.0
 10
-23.16564
 20
24.68063
 30
0.0
 10
-23.16564
 20
24.68063
 30
0.0
 10
-23.16564
 20
24.68063
 30
0.0
 10
-23.16564
 20
24.68063
 30
0.0
 10
-23.78032
 20
24.68063
 30
0.0
 10
-23.78032
 20
24.68063
 30
0.0
 10
-23.78032
 20
24.68063
 30
0.0
 10
-23.78032
 20
24.68063
 30
0.0
 10
-23.78032
 20
23.51731
 30
0.0
 10
-23.78032
 20
23.51731
 30
0.0
 10
-23.78032
 20
23.51731
 30
0.0
 10
-23.78032
 20
23.51731
 30
0.0
 10
-24.02416
 20
23.51731
 30
0.0
 10
-24.02416
 20
23.51731
 30
0.0
  0
SPLINE
  5
57
330
1F
100
AcDbEntity
  8
Layer 1
100
AcDbSpline
210
0.0
220
0.0
230
1.0
 70
    11
 71
     3
 72
    20
 73
    16
 74
     0
 42
0.0000000001
 43
0.0000000001
 12
1.0
 22
0.0
 32
0.0
 13
1.0
 23
0.0
 33
0.0
 40
0.0
 40
0.0
 40
0.0
 40
0.0
 40
0.2
 40
0.2
 40
0.2
 40
0.2
 40
0.4
 40
0.4
 40
0.4
 40
0.4
 40
0.6
 40
0.6
 40
0.6
 40
0.6
 40
1.0
 40
1.0
 40
1.0
 40
1.0
 10
-23.16564
 20
25.10989
 30
0.0
 10
-23.16564
 20
25.10989
 30
0.0
 10
-23.16564
 20
25.35373
 30
0.0
 10
-23.16564
 20
25.35373
 30
0.0
 10
-23.16564
 20
25.35373
 30
0.0
 10
-23.16564
 20
25.35373
 30
0.0
 10
-22.9218
 20
25.35373
 30
0.0
 10
-22.9218
 20
25.35373
 30
0.0
 10
-22.9218
 20
25.35373
 30
0.0
 10
-22.9218
 20
25.35373
 30
0.0
 10
-22.9218
 20
25.10989
 30
0.0
 10
-22.9218
 20
25.10989
 30
0.0
 10
-22.9218
 20
25.10989
 30
0.0
 10
-22.9218
 20
25.10989
 30
0.0
 10
-23.16564
 20
25.10989
 30
0.0
 10
-23.16564
 20
25.10989
 30
0.0
  0
SPLINE
  5
58
330
1F
100
AcDbEntity
  8
Layer 1
100
AcDbSpline
210
0.0
220
0.0
230
1.0
 70
    11
 71
     3
 72
    20
 73
    16
 74
     0
 42
0.0000000001
 43
0.0000000001
 12
1.0
 22
0.0
 32
0.0
 13
1.0
 23
0.0
 33
0.0
 40
0.0
 40
0.0
 40
0.0
 40
0.0
 40
0.2
 40
0.2
 40
0.2
 40
0.2
 40
0.4
 40
0.4
 40
0.4
 40
0.4
 40
0.6
 40
0.6
 40
0.6
 40
0.6
 40
1.0
 40
1.0
 40
1.0
 40
1.0
 10
-22.43285
 20
23.51731
 30
0.0
 10
-22.43285
 20
23.51731
 30
0.0
 10
-22.43285
 20
25.47565
 30
0.0
 10
-22.43285
 20
25.47565
 30
0.0
 10
-22.43285
 20
25.47565
 30
0.0
 10
-22.43285
 20
25.47565
 30
0.0
 10
-22.18901
 20
25.47565
 30
0.0
 10
-22.18901
 20
25.47565
 30
0.0
 10
-22.18901
 20
25.47565
 30
0.0
 10
-22.18901
 20
25.47565
 30
0.0
 10
-22.18901
 20
23.51731
 30
0.0
 10
-22.18901
 20
23.51731
 30
0.0
 10
-22.18901
 20
23.51731
 30
0.0
 10
-22.18901
 20
23.51731
 30
0.0
 10
-22.43285
 20
23.51731
 30
0.0
 10
-22.43285
 20
23.51731
 30
0.0
  0
SPLINE
  5
59
330
1F
100
AcDbEntity
  8
Layer 1
100
AcDbSpline
210
0.0
220
0.0
230
1.0
 70
    11
 71
     3
 72
    80
 73
    76
 74
     0
 42
0.0000000001
 43
0.0000000001
 12
1.0
 22
0.0
 32
0.0
 13
1.0
 23
0.0
 33
0.0
 40
0.0
 40
0.0
 40
0.0
 40
0.0
 40
0.05
 40
0.05
 40
0.05
 40
0.05
 40
0.1
 40
0.1
 40
0.1
 40
0.1
 40
0.15
 40
0.15
 40
0.15
 40
0.15
 40
0.2
 40
0.2
 40
0.2
 40
0.2
 40
0.25
 40
0.25
 40
0.25
 40
0.25
 40
0.3
 40
0.3
 40
0.3
 40
0.3
 40
0.35
 40
0.35
 40
0.35
 40
0.35
 40
0.4
 40
0.4
 40
0.4
 40
0.4
 40
0.45
 40
0.45
 40
0.45
 40
0.45
 40
0.5
 40
0.5
 40
0.5
 40
0.5
 40
0.55
 40
0.55
 40
0.55
 40
0.55
 40
0.6
 40
0.6
 40
0.6
 40
0.6
 40
0.65
 40
0.65
 40
0.65
 40
0.65
 40
0.7
 40
0.7
 40
0.7
 40
0.7
 40
0.75
 40
0.75
 40
0.75
 40
0.75
 40
0.8
 40
0.8
 40
0.8
 40
0.8
 40
0.85
 40
0.85
 40
0.85
 40
0.85
 40
0.9
 40
0.9
 40
0.9
 40
0.9
 40
1.0
 40
1.0
 40
1.0
 40
1.0
 10
-21.00495
 20
23.68876
 30
0.0
 10
-21.15142
 20
23.55414
 30
0.0
 10
-21.29239
 20
23.48683
 30
0.0
 10
-21.42786
 20
23.48683
 30
0.0
 10
-21.42786
 20
23.48683
 30
0.0
 10
-21.53919
 20
23.48683
 30
0.0
 10
-21.6319
 20
23.52154
 30
0.0
 10
-21.70514
 20
23.59139
 30
0.0
 10
-21.70514
 20
23.59139
 30
0.0
 10
-21.7788
 20
23.66124
 30
0.0
 10
-21.81563
 20
23.7493
 30
0.0
 10
-21.81563
 20
23.85555
 30
0.0
 10
-21.81563
 20
23.85555
 30
0.0
 10
-21.81563
 20
24.00245
 30
0.0
 10
-21.75382
 20
24.11548
 30
0.0
 10
-21.63021
 20
24.19422
 30
0.0
 10
-21.63021
 20
24.19422
 30
0.0
 10
-21.5066
 20
24.27296
 30
0.0
 10
-21.32922
 20
24.31233
 30
0.0
 10
-21.09808
 20
24.31233
 30
0.0
 10
-21.09808
 20
24.31233
 30
0.0
 10
-21.09808
 20
24.31233
 30
0.0
 10
-21.04093
 20
24.31233
 30
0.0
 10
-21.04093
 20
24.31233
 30
0.0
 10
-21.04093
 20
24.31233
 30
0.0
 10
-21.04093
 20
24.31233
 30
0.0
 10
-21.04093
 20
24.47447
 30
0.0
 10
-21.04093
 20
24.47447
 30
0.0
 10
-21.04093
 20
24.47447
 30
0.0
 10
-21.04093
 20
24.63068
 30
0.0
 10
-21.12221
 20
24.70857
 30
0.0
 10
-21.28519
 20
24.70857
 30
0.0
 10
-21.28519
 20
24.70857
 30
0.0
 10
-21.41135
 20
24.70857
 30
0.0
 10
-21.54935
 20
24.66878
 30
0.0
 10
-21.69879
 20
24.58919
 30
0.0
 10
-21.69879
 20
24.58919
 30
0.0
 10
-21.69879
 20
24.58919
 30
0.0
 10
-21.69879
 20
24.78985
 30
0.0
 10
-21.69879
 20
24.78985
 30
0.0
 10
-21.69879
 20
24.78985
 30
0.0
 10
-21.53454
 20
24.85758
 30
0.0
 10
-21.3796
 20
24.89145
 30
0.0
 10
-21.23439
 20
24.89145
 30
0.0
 10
-21.23439
 20
24.89145
 30
0.0
 10
-21.08496
 20
24.89145
 30
0.0
 10
-20.97447
 20
24.85758
 30
0.0
 10
-20.90377
 20
24.78943
 30
0.0
 10
-20.90377
 20
24.78943
 30
0.0
 10
-20.83265
 20
24.72127
 30
0.0
 10
-20.79709
 20
24.61628
 30
0.0
 10
-20.79709
 20
24.47447
 30
0.0
 10
-20.79709
 20
24.47447
 30
0.0
 10
-20.79709
 20
24.47447
 30
0.0
 10
-20.79709
 20
23.86614
 30
0.0
 10
-20.79709
 20
23.86614
 30
0.0
 10
-20.79709
 20
23.86614
 30
0.0
 10
-20.79709
 20
23.72686
 30
0.0
 10
-20.75433
 20
23.65701
 30
0.0
 10
-20.6684
 20
23.65701
 30
0.0
 10
-20.6684
 20
23.65701
 30
0.0
 10
-20.65781
 20
23.65701
 30
0.0
 10
-20.64215
 20
23.6587
 30
0.0
 10
-20.62141
 20
23.66209
 30
0.0
 10
-20.62141
 20
23.66209
 30
0.0
 10
-20.62141
 20
23.66209
 30
0.0
 10
-20.60405
 20
23.52662
 30
0.0
 10
-20.60405
 20
23.52662
 30
0.0
 10
-20.60405
 20
23.52662
 30
0.0
 10
-20.65951
 20
23.49995
 30
0.0
 10
-20.72047
 20
23.48683
 30
0.0
 10
-20.78735
 20
23.48683
 30
0.0
 10
-20.78735
 20
23.48683
 30
0.0
 10
-20.90123
 20
23.48683
 30
0.0
 10
-20.97362
 20
23.55414
 30
0.0
 10
-21.00495
 20
23.68876
 30
0.0
  0
SPLINE
  5
5A
330
1F
100
AcDbEntity
  8
Layer 1
100
AcDbSpline
210
0.0
220
0.0
230
1.0
 70
    11
 71
     3
 72
    32
 73
    28
 74
     0
 42
0.0000000001
 43
0.0000000001
 12
1.0
 22
0.0
 32
0.0
 13
1.0
 23
0.0
 33
0.0
 40
0.0
 40
0.0
 40
0.0
 40
0.0
 40
0.125
 40
0.125
 40
0.125
 40
0.125
 40
0.25
 40
0.25
 40
0.25
 40
0.25
 40
0.375
 40
0.375
 40
0.375
 40
0.375
 40
0.5
 40
0.5
 40
0.5
 40
0.5
 40
0.625
 40
0.625
 40
0.625
 40
0.625
 40
0.75
 40
0.75
 40
0.75
 40
0.75
 40
1.0
 40
1.0
 40
1.0
 40
1.0
 10
-21.04093
 20
23.82169
 30
0.0
 10
-21.04093
 20
23.82169
 30
0.0
 10
-21.04093
 20
24.16755
 30
0.0
 10
-21.04093
 20
24.16755
 30
0.0
 10
-21.04093
 20
24.16755
 30
0.0
 10
-21.04093
 20
24.16755
 30
0.0
 10
-21.11925
 20
24.17009
 30
0.0
 10
-21.11925
 20
24.17009
 30
0.0
 10
-21.11925
 20
24.17009
 30
0.0
 10
-21.25471
 20
24.17009
 30
0.0
 10
-21.36393
 20
24.14511
 30
0.0
 10
-21.44733
 20
24.09516
 30
0.0
 10
-21.44733
 20
24.09516
 30
0.0
 10
-21.5303
 20
24.04478
 30
0.0
 10
-21.57179
 20
23.97832
 30
0.0
 10
-21.57179
 20
23.89535
 30
0.0
 10
-21.57179
 20
23.89535
 30
0.0
 10
-21.57179
 20
23.83735
 30
0.0
 10
-21.55105
 20
23.78824
 30
0.0
 10
-21.50998
 20
23.74803
 30
0.0
 10
-21.50998
 20
23.74803
 30
0.0
 10
-21.4685
 20
23.70781
 30
0.0
 10
-21.41812
 20
23.68749
 30
0.0
 10
-21.35843
 20
23.68749
 30
0.0
 10
-21.35843
 20
23.68749
 30
0.0
 10
-21.25683
 20
23.68749
 30
0.0
 10
-21.151
 20
23.73236
 30
0.0
 10
-21.04093
 20
23.82169
 30
0.0
  0
SPLINE
  5
5B
330
1F
100
AcDbEntity
  8
Layer 1
100
AcDbSpline
210
0.0
220
0.0
230
1.0
 70
    11
 71
     3
 72
    84
 73
    80
 74
     0
 42
0.0000000001
 43
0.0000000001
 12
1.0
 22
0.0
 32
0.0
 13
1.0
 23
0.0
 33
0.0
 40
0.0
 40
0.0
 40
0.0
 40
0.0
 40
0.0476190476190476
 40
0.0476190476190476
 40
0.0476190476190476
 40
0.0476190476190476
 40
0.0952380952380952
 40
0.0952380952380952
 40
0.0952380952380952
 40
0.0952380952380952
 40
0.1428571428571428
 40
0.1428571428571428
 40
0.1428571428571428
 40
0.1428571428571428
 40
0.1904761904761905
 40
0.1904761904761905
 40
0.1904761904761905
 40
0.1904761904761905
 40
0.2380952380952381
 40
0.2380952380952381
 40
0.2380952380952381
 40
0.2380952380952381
 40
0.2857142857142857
 40
0.2857142857142857
 40
0.2857142857142857
 40
0.2857142857142857
 40
0.3333333333333333
 40
0.3333333333333333
 40
0.3333333333333333
 40
0.3333333333333333
 40
0.3809523809523809
 40
0.3809523809523809
 40
0.3809523809523809
 40
0.3809523809523809
 40
0.4285714285714285
 40
0.4285714285714285
 40
0.4285714285714285
 40
0.4285714285714285
 40
0.4761904761904762
 40
0.4761904761904762
 40
0.4761904761904762
 40
0.4761904761904762
 40
0.5238095238095238
 40
0.5238095238095238
 40
0.5238095238095238
 40
0.5238095238095238
 40
0.5714285714285714
 40
0.5714285714285714
 40
0.5714285714285714
 40
0.5714285714285714
 40
0.6190476190476191
 40
0.6190476190476191
 40
0.6190476190476191
 40
0.6190476190476191
 40
0.6666666666666666
 40
0.6666666666666666
 40
0.6666666666666666
 40
0.6666666666666666
 40
0.7142857142857143
 40
0.7142857142857143
 40
0.7142857142857143
 40
0.7142857142857143
 40
0.7619047619047619
 40
0.7619047619047619
 40
0.7619047619047619
 40
0.7619047619047619
 40
0.8095238095238095
 40
0.8095238095238095
 40
0.8095238095238095
 40
0.8095238095238095
 40
0.8571428571428571
 40
0.8571428571428571
 40
0.8571428571428571
 40
0.8571428571428571
 40
0.9047619047619048
 40
0.9047619047619048
 40
0.9047619047619048
 40
0.9047619047619048
 40
1.0
 40
1.0
 40
1.0
 40
1.0
 10
-20.29629
 20
23.51731
 30
0.0
 10
-20.29629
 20
23.51731
 30
0.0
 10
-20.29629
 20
24.86351
 30
0.0
 10
-20.29629
 20
24.86351
 30
0.0
 10
-20.29629
 20
24.86351
 30
0.0
 10
-20.29629
 20
24.86351
 30
0.0
 10
-20.05245
 20
24.86351
 30
0.0
 10
-20.05245
 20
24.86351
 30
0.0
 10
-20.05245
 20
24.86351
 30
0.0
 10
-20.05245
 20
24.86351
 30
0.0
 10
-20.05245
 20
24.60909
 30
0.0
 10
-20.05245
 20
24.60909
 30
0.0
 10
-20.05245
 20
24.60909
 30
0.0
 10
-19.93349
 20
24.79747
 30
0.0
 10
-19.78109
 20
24.89145
 30
0.0
 10
-19.5944
 20
24.89145
 30
0.0
 10
-19.5944
 20
24.89145
 30
0.0
 10
-19.41449
 20
24.89145
 30
0.0
 10
-19.29214
 20
24.79747
 30
0.0
 10
-19.22695
 20
24.60909
 30
0.0
 10
-19.22695
 20
24.60909
 30
0.0
 10
-19.11138
 20
24.79916
 30
0.0
 10
-18.96067
 20
24.89399
 30
0.0
 10
-18.77568
 20
24.89399
 30
0.0
 10
-18.77568
 20
24.89399
 30
0.0
 10
-18.65757
 20
24.89399
 30
0.0
 10
-18.5657
 20
24.85928
 30
0.0
 10
-18.50009
 20
24.78943
 30
0.0
 10
-18.50009
 20
24.78943
 30
0.0
 10
-18.43447
 20
24.71958
 30
0.0
 10
-18.40145
 20
24.62179
 30
0.0
 10
-18.40145
 20
24.49606
 30
0.0
 10
-18.40145
 20
24.49606
 30
0.0
 10
-18.40145
 20
24.49606
 30
0.0
 10
-18.40145
 20
23.51731
 30
0.0
 10
-18.40145
 20
23.51731
 30
0.0
 10
-18.40145
 20
23.51731
 30
0.0
 10
-18.40145
 20
23.51731
 30
0.0
 10
-18.64529
 20
23.51731
 30
0.0
 10
-18.64529
 20
23.51731
 30
0.0
 10
-18.64529
 20
23.51731
 30
0.0
 10
-18.64529
 20
23.51731
 30
0.0
 10
-18.64529
 20
24.45584
 30
0.0
 10
-18.64529
 20
24.45584
 30
0.0
 10
-18.64529
 20
24.45584
 30
0.0
 10
-18.64529
 20
24.60909
 30
0.0
 10
-18.70625
 20
24.68571
 30
0.0
 10
-18.82817
 20
24.68571
 30
0.0
 10
-18.82817
 20
24.68571
 30
0.0
 10
-18.95475
 20
24.68571
 30
0.0
 10
-19.08767
 20
24.59639
 30
0.0
 10
-19.22695
 20
24.41732
 30
0.0
 10
-19.22695
 20
24.41732
 30
0.0
 10
-19.22695
 20
24.41732
 30
0.0
 10
-19.22695
 20
23.51731
 30
0.0
 10
-19.22695
 20
23.51731
 30
0.0
 10
-19.22695
 20
23.51731
 30
0.0
 10
-19.22695
 20
23.51731
 30
0.0
 10
-19.47079
 20
23.51731
 30
0.0
 10
-19.47079
 20
23.51731
 30
0.0
 10
-19.47079
 20
23.51731
 30
0.0
 10
-19.47079
 20
23.51731
 30
0.0
 10
-19.47079
 20
24.45669
 30
0.0
 10
-19.47079
 20
24.45669
 30
0.0
 10
-19.47079
 20
24.45669
 30
0.0
 10
-19.47079
 20
24.6112
 30
0.0
 10
-19.5326
 20
24.68825
 30
0.0
 10
-19.65663
 20
24.68825
 30
0.0
 10
-19.65663
 20
24.68825
 30
0.0
 10
-19.77982
 20
24.68825
 30
0.0
 10
-19.9119
 20
24.5985
 30
0.0
 10
-20.05245
 20
24.41859
 30
0.0
 10
-20.05245
 20
24.41859
 30
0.0
 10
-20.05245
 20
24.41859
 30
0.0
 10
-20.05245
 20
23.51731
 30
0.0
 10
-20.05245
 20
23.51731
 30
0.0
 10
-20.05245
 20
23.51731
 30
0.0
 10
-20.05245
 20
23.51731
 30
0.0
 10
-20.29629
 20
23.51731
 30
0.0
 10
-20.29629
 20
23.51731
 30
0.0
  0
SPLINE
  5
5C
330
1F
100
AcDbEntity
  8
Layer 1
100
AcDbSpline
210
0.0
220
0.0
230
1.0
 70
    11
 71
     3
 72
    52
 73
    48
 74
     0
 42
0.0000000001
 43
0.0000000001
 12
1.0
 22
0.0
 32
0.0
 13
1.0
 23
0.0
 33
0.0
 40
0.0
 40
0.0
 40
0.0
 40
0.0
 40
0.0769230769230769
 40
0.0769230769230769
 40
0.0769230769230769
 40
0.0769230769230769
 40
0.1538461538461539
 40
0.1538461538461539
 40
0.1538461538461539
 40
0.1538461538461539
 40
0.2307692307692308
 40
0.2307692307692308
 40
0.2307692307692308
 40
0.2307692307692308
 40
0.3076923076923077
 40
0.3076923076923077
 40
0.3076923076923077
 40
0.3076923076923077
 40
0.3846153846153846
 40
0.3846153846153846
 40
0.3846153846153846
 40
0.3846153846153846
 40
0.4615384615384616
 40
0.4615384615384616
 40
0.4615384615384616
 40
0.4615384615384616
 40
0.5384615384615384
 40
0.5384615384615384
 40
0.5384615384615384
 40
0.5384615384615384
 40
0.6153846153846154
 40
0.6153846153846154
 40
0.6153846153846154
 40
0.6153846153846154
 40
0.6923076923076923
 40
0.6923076923076923
 40
0.6923076923076923
 40
0.6923076923076923
 40
0.7692307692307693
 40
0.7692307692307693
 40
0.7692307692307693
 40
0.7692307692307693
 40
0.8461538461538461
 40
0.8461538461538461
 40
0.8461538461538461
 40
0.8461538461538461
 40
1.0
 40
1.0
 40
1.0
 40
1.0
 10
-16.93672
 20
23.56049
 30
0.0
 10
-17.10055
 20
23.51138
 30
0.0
 10
-17.24067
 20
23.48683
 30
0.0
 10
-17.35751
 20
23.48683
 30
0.0
 10
-17.35751
 20
23.48683
 30
0.0
 10
-17.5569
 20
23.48683
 30
0.0
 10
-17.71904
 20
23.55287
 30
0.0
 10
-17.84392
 20
23.68453
 30
0.0
 10
-17.84392
 20
23.68453
 30
0.0
 10
-17.96881
 20
23.81618
 30
0.0
 10
-18.03146
 20
23.98679
 30
0.0
 10
-18.03146
 20
24.19676
 30
0.0
 10
-18.03146
 20
24.19676
 30
0.0
 10
-18.03146
 20
24.40038
 30
0.0
 10
-17.97643
 20
24.5676
 30
0.0
 10
-17.86594
 20
24.69841
 30
0.0
 10
-17.86594
 20
24.69841
 30
0.0
 10
-17.75545
 20
24.8288
 30
0.0
 10
-17.61405
 20
24.89399
 30
0.0
 10
-17.44176
 20
24.89399
 30
0.0
 10
-17.44176
 20
24.89399
 30
0.0
 10
-17.27877
 20
24.89399
 30
0.0
 10
-17.15262
 20
24.83599
 30
0.0
 10
-17.06372
 20
24.72
 30
0.0
 10
-17.06372
 20
24.72
 30
0.0
 10
-16.97482
 20
24.60401
 30
0.0
 10
-16.93037
 20
24.43975
 30
0.0
 10
-16.93037
 20
24.22682
 30
0.0
 10
-16.93037
 20
24.22682
 30
0.0
 10
-16.93037
 20
24.22682
 30
0.0
 10
-16.93164
 20
24.15231
 30
0.0
 10
-16.93164
 20
24.15231
 30
0.0
 10
-16.93164
 20
24.15231
 30
0.0
 10
-16.93164
 20
24.15231
 30
0.0
 10
-17.78254
 20
24.15231
 30
0.0
 10
-17.78254
 20
24.15231
 30
0.0
 10
-17.78254
 20
24.15231
 30
0.0
 10
-17.74698
 20
23.83058
 30
0.0
 10
-17.58992
 20
23.66971
 30
0.0
 10
-17.31179
 20
23.66971
 30
0.0
 10
-17.31179
 20
23.66971
 30
0.0
 10
-17.20977
 20
23.66971
 30
0.0
 10
-17.08489
 20
23.6985
 30
0.0
 10
-16.93672
 20
23.75607
 30
0.0
 10
-16.93672
 20
23.75607
 30
0.0
 10
-16.93672
 20
23.75607
 30
0.0
 10
-16.93672
 20
23.56049
 30
0.0
 10
-16.93672
 20
23.56049
 30
0.0
  0
SPLINE
  5
5D
330
1F
100
AcDbEntity
  8
Layer 1
100
AcDbSpline
210
0.0
220
0.0
230
1.0
 70
    11
 71
     3
 72
    16
 73
    12
 74
     0
 42
0.0000000001
 43
0.0000000001
 12
1.0
 22
0.0
 32
0.0
 13
1.0
 23
0.0
 33
0.0
 40
0.0
 40
0.0
 40
0.0
 40
0.0
 40
0.25
 40
0.25
 40
0.25
 40
0.25
 40
0.5
 40
0.5
 40
0.5
 40
0.5
 40
1.0
 40
1.0
 40
1.0
 40
1.0
 10
-17.76984
 20
24.33519
 30
0.0
 10
-17.76984
 20
24.33519
 30
0.0
 10
-17.17548
 20
24.33519
 30
0.0
 10
-17.17548
 20
24.33519
 30
0.0
 10
-17.17548
 20
24.33519
 30
0.0
 10
-17.17548
 20
24.5858
 30
0.0
 10
-17.26904
 20
24.71111
 30
0.0
 10
-17.45573
 20
24.71111
 30
0.0
 10
-17.45573
 20
24.71111
 30
0.0
 10
-17.64369
 20
24.71111
 30
0.0
 10
-17.74825
 20
24.5858
 30
0.0
 10
-17.76984
 20
24.33519
 30
0.0
  0
SPLINE
  5
5E
330
1F
100
AcDbEntity
  8
Layer 1
100
AcDbSpline
210
0.0
220
0.0
230
1.0
 70
    11
 71
     3
 72
    60
 73
    56
 74
     0
 42
0.0000000001
 43
0.0000000001
 12
1.0
 22
0.0
 32
0.0
 13
1.0
 23
0.0
 33
0.0
 40
0.0
 40
0.0
 40
0.0
 40
0.0
 40
0.0666666666666667
 40
0.0666666666666667
 40
0.0666666666666667
 40
0.0666666666666667
 40
0.1333333333333333
 40
0.1333333333333333
 40
0.1333333333333333
 40
0.1333333333333333
 40
0.2
 40
0.2
 40
0.2
 40
0.2
 40
0.2666666666666667
 40
0.2666666666666667
 40
0.2666666666666667
 40
0.2666666666666667
 40
0.3333333333333333
 40
0.3333333333333333
 40
0.3333333333333333
 40
0.3333333333333333
 40
0.4
 40
0.4
 40
0.4
 40
0.4
 40
0.4666666666666667
 40
0.4666666666666667
 40
0.4666666666666667
 40
0.4666666666666667
 40
0.5333333333333333
 40
0.5333333333333333
 40
0.5333333333333333
 40
0.5333333333333333
 40
0.6
 40
0.6
 40
0.6
 40
0.6
 40
0.6666666666666666
 40
0.6666666666666666
 40
0.6666666666666666
 40
0.6666666666666666
 40
0.7333333333333333
 40
0.7333333333333333
 40
0.7333333333333333
 40
0.7333333333333333
 40
0.8
 40
0.8
 40
0.8
 40
0.8
 40
0.8666666666666667
 40
0.8666666666666667
 40
0.8666666666666667
 40
0.8666666666666667
 40
1.0
 40
1.0
 40
1.0
 40
1.0
 10
-16.50958
 20
23.51731
 30
0.0
 10
-16.50958
 20
23.51731
 30
0.0
 10
-16.50958
 20
24.86351
 30
0.0
 10
-16.50958
 20
24.86351
 30
0.0
 10
-16.50958
 20
24.86351
 30
0.0
 10
-16.50958
 20
24.86351
 30
0.0
 10
-16.26574
 20
24.86351
 30
0.0
 10
-16.26574
 20
24.86351
 30
0.0
 10
-16.26574
 20
24.86351
 30
0.0
 10
-16.26574
 20
24.86351
 30
0.0
 10
-16.26574
 20
24.60909
 30
0.0
 10
-16.26574
 20
24.60909
 30
0.0
 10
-16.26574
 20
24.60909
 30
0.0
 10
-16.13662
 20
24.79747
 30
0.0
 10
-15.9783
 20
24.89145
 30
0.0
 10
-15.79118
 20
24.89145
 30
0.0
 10
-15.79118
 20
24.89145
 30
0.0
 10
-15.6735
 20
24.89145
 30
0.0
 10
-15.57994
 20
24.85462
 30
0.0
 10
-15.51094
 20
24.78054
 30
0.0
 10
-15.51094
 20
24.78054
 30
0.0
 10
-15.44193
 20
24.70688
 30
0.0
 10
-15.40722
 20
24.60739
 30
0.0
 10
-15.40722
 20
24.48293
 30
0.0
 10
-15.40722
 20
24.48293
 30
0.0
 10
-15.40722
 20
24.48293
 30
0.0
 10
-15.40722
 20
23.51731
 30
0.0
 10
-15.40722
 20
23.51731
 30
0.0
 10
-15.40722
 20
23.51731
 30
0.0
 10
-15.40722
 20
23.51731
 30
0.0
 10
-15.65106
 20
23.51731
 30
0.0
 10
-15.65106
 20
23.51731
 30
0.0
 10
-15.65106
 20
23.51731
 30
0.0
 10
-15.65106
 20
23.51731
 30
0.0
 10
-15.65106
 20
24.40335
 30
0.0
 10
-15.65106
 20
24.40335
 30
0.0
 10
-15.65106
 20
24.40335
 30
0.0
 10
-15.65106
 20
24.50325
 30
0.0
 10
-15.66588
 20
24.57437
 30
0.0
 10
-15.69509
 20
24.61671
 30
0.0
 10
-15.69509
 20
24.61671
 30
0.0
 10
-15.72472
 20
24.65946
 30
0.0
 10
-15.7734
 20
24.68063
 30
0.0
 10
-15.84156
 20
24.68063
 30
0.0
 10
-15.84156
 20
24.68063
 30
0.0
 10
-15.99142
 20
24.68063
 30
0.0
 10
-16.13281
 20
24.58284
 30
0.0
 10
-16.26574
 20
24.38726
 30
0.0
 10
-16.26574
 20
24.38726
 30
0.0
 10
-16.26574
 20
24.38726
 30
0.0
 10
-16.26574
 20
23.51731
 30
0.0
 10
-16.26574
 20
23.51731
 30
0.0
 10
-16.26574
 20
23.51731
 30
0.0
 10
-16.26574
 20
23.51731
 30
0.0
 10
-16.50958
 20
23.51731
 30
0.0
 10
-16.50958
 20
23.51731
 30
0.0
  0
SPLINE
  5
5F
330
1F
100
AcDbEntity
  8
Layer 1
100
AcDbSpline
210
0.0
220
0.0
230
1.0
 70
    11
 71
     3
 72
    72
 73
    68
 74
     0
 42
0.0000000001
 43
0.0000000001
 12
1.0
 22
0.0
 32
0.0
 13
1.0
 23
0.0
 33
0.0
 40
0.0
 40
0.0
 40
0.0
 40
0.0
 40
0.0555555555555556
 40
0.0555555555555556
 40
0.0555555555555556
 40
0.0555555555555556
 40
0.1111111111111111
 40
0.1111111111111111
 40
0.1111111111111111
 40
0.1111111111111111
 40
0.1666666666666667
 40
0.1666666666666667
 40
0.1666666666666667
 40
0.1666666666666667
 40
0.2222222222222222
 40
0.2222222222222222
 40
0.2222222222222222
 40
0.2222222222222222
 40
0.2777777777777778
 40
0.2777777777777778
 40
0.2777777777777778
 40
0.2777777777777778
 40
0.3333333333333333
 40
0.3333333333333333
 40
0.3333333333333333
 40
0.3333333333333333
 40
0.3888888888888889
 40
0.3888888888888889
 40
0.3888888888888889
 40
0.3888888888888889
 40
0.4444444444444444
 40
0.4444444444444444
 40
0.4444444444444444
 40
0.4444444444444444
 40
0.5
 40
0.5
 40
0.5
 40
0.5
 40
0.5555555555555556
 40
0.5555555555555556
 40
0.5555555555555556
 40
0.5555555555555556
 40
0.6111111111111112
 40
0.6111111111111112
 40
0.6111111111111112
 40
0.6111111111111112
 40
0.6666666666666666
 40
0.6666666666666666
 40
0.6666666666666666
 40
0.6666666666666666
 40
0.7222222222222222
 40
0.7222222222222222
 40
0.7222222222222222
 40
0.7222222222222222
 40
0.7777777777777778
 40
0.7777777777777778
 40
0.7777777777777778
 40
0.7777777777777778
 40
0.8333333333333334
 40
0.8333333333333334
 40
0.8333333333333334
 40
0.8333333333333334
 40
0.8888888888888888
 40
0.8888888888888888
 40
0.8888888888888888
 40
0.8888888888888888
 40
1.0
 40
1.0
 40
1.0
 40
1.0
 10
-14.33111
 20
23.51773
 30
0.0
 10
-14.40646
 20
23.49699
 30
0.0
 10
-14.47208
 20
23.48683
 30
0.0
 10
-14.52754
 20
23.48683
 30
0.0
 10
-14.52754
 20
23.48683
 30
0.0
 10
-14.652
 20
23.48683
 30
0.0
 10
-14.74894
 20
23.52239
 30
0.0
 10
-14.81837
 20
23.59351
 30
0.0
 10
-14.81837
 20
23.59351
 30
0.0
 10
-14.88822
 20
23.66463
 30
0.0
 10
-14.92293
 20
23.76327
 30
0.0
 10
-14.92293
 20
23.88984
 30
0.0
 10
-14.92293
 20
23.88984
 30
0.0
 10
-14.92293
 20
23.88984
 30
0.0
 10
-14.92293
 20
24.68063
 30
0.0
 10
-14.92293
 20
24.68063
 30
0.0
 10
-14.92293
 20
24.68063
 30
0.0
 10
-14.92293
 20
24.68063
 30
0.0
 10
-15.09142
 20
24.68063
 30
0.0
 10
-15.09142
 20
24.68063
 30
0.0
 10
-15.09142
 20
24.68063
 30
0.0
 10
-15.09142
 20
24.68063
 30
0.0
 10
-15.09142
 20
24.86351
 30
0.0
 10
-15.09142
 20
24.86351
 30
0.0
 10
-15.09142
 20
24.86351
 30
0.0
 10
-15.09142
 20
24.86351
 30
0.0
 10
-14.92293
 20
24.86351
 30
0.0
 10
-14.92293
 20
24.86351
 30
0.0
 10
-14.92293
 20
24.86351
 30
0.0
 10
-14.92293
 20
24.86351
 30
0.0
 10
-14.92293
 20
25.10693
 30
0.0
 10
-14.92293
 20
25.10693
 30
0.0
 10
-14.92293
 20
25.10693
 30
0.0
 10
-14.92293
 20
25.10693
 30
0.0
 10
-14.67909
 20
25.13021
 30
0.0
 10
-14.67909
 20
25.13021
 30
0.0
 10
-14.67909
 20
25.13021
 30
0.0
 10
-14.67909
 20
25.13021
 30
0.0
 10
-14.67909
 20
24.86351
 30
0.0
 10
-14.67909
 20
24.86351
 30
0.0
 10
-14.67909
 20
24.86351
 30
0.0
 10
-14.67909
 20
24.86351
 30
0.0
 10
-14.32603
 20
24.86351
 30
0.0
 10
-14.32603
 20
24.86351
 30
0.0
 10
-14.32603
 20
24.86351
 30
0.0
 10
-14.32603
 20
24.86351
 30
0.0
 10
-14.32603
 20
24.68063
 30
0.0
 10
-14.32603
 20
24.68063
 30
0.0
 10
-14.32603
 20
24.68063
 30
0.0
 10
-14.32603
 20
24.68063
 30
0.0
 10
-14.67909
 20
24.68063
 30
0.0
 10
-14.67909
 20
24.68063
 30
0.0
 10
-14.67909
 20
24.68063
 30
0.0
 10
-14.67909
 20
24.68063
 30
0.0
 10
-14.67909
 20
23.93387
 30
0.0
 10
-14.67909
 20
23.93387
 30
0.0
 10
-14.67909
 20
23.93387
 30
0.0
 10
-14.67909
 20
23.75776
 30
0.0
 10
-14.60247
 20
23.66971
 30
0.0
 10
-14.44964
 20
23.66971
 30
0.0
 10
-14.44964
 20
23.66971
 30
0.0
 10
-14.41705
 20
23.66971
 30
0.0
 10
-14.37768
 20
23.67521
 30
0.0
 10
-14.33111
 20
23.6858
 30
0.0
 10
-14.33111
 20
23.6858
 30
0.0
 10
-14.33111
 20
23.6858
 30
0.0
 10
-14.33111
 20
23.51773
 30
0.0
 10
-14.33111
 20
23.51773
 30
0.0
  0
SPLINE
  5
60
330
1F
100
AcDbEntity
  8
Layer 1
100
AcDbSpline
210
0.0
220
0.0
230
1.0
 70
    11
 71
     3
 72
    20
 73
    16
 74
     0
 42
0.0000000001
 43
0.0000000001
 12
1.0
 22
0.0
 32
0.0
 13
1.0
 23
0.0
 33
0.0
 40
0.0
 40
0.0
 40
0.0
 40
0.0
 40
0.2
 40
0.2
 40
0.2
 40
0.2
 40
0.4
 40
0.4
 40
0.4
 40
0.4
 40
0.6
 40
0.6
 40
0.6
 40
0.6
 40
1.0
 40
1.0
 40
1.0
 40
1.0
 10
-14.12029
 20
23.33443
 30
0.0
 10
-14.12029
 20
23.33443
 30
0.0
 10
-14.12029
 20
23.51731
 30
0.0
 10
-14.12029
 20
23.51731
 30
0.0
 10
-14.12029
 20
23.51731
 30
0.0
 10
-14.12029
 20
23.51731
 30
0.0
 10
-13.06365
 20
23.51731
 30
0.0
 10
-13.06365
 20
23.51731
 30
0.0
 10
-13.06365
 20
23.51731
 30
0.0
 10
-13.06365
 20
23.51731
 30
0.0
 10
-13.06365
 20
23.33443
 30
0.0
 10
-13.06365
 20
23.33443
 30
0.0
 10
-13.06365
 20
23.33443
 30
0.0
 10
-13.06365
 20
23.33443
 30
0.0
 10
-14.12029
 20
23.33443
 30
0.0
 10
-14.12029
 20
23.33443
 30
0.0
  0
SPLINE
  5
61
330
1F
100
AcDbEntity
  8
Layer 1
100
AcDbSpline
210
0.0
220
0.0
230
1.0
 70
    11
 71
     3
 72
    28
 73
    24
 74
     0
 42
0.0000000001
 43
0.0000000001
 12
1.0
 22
0.0
 32
0.0
 13
1.0
 23
0.0
 33
0.0
 40
0.0
 40
0.0
 40
0.0
 40
0.0
 40
0.1428571428571428
 40
0.1428571428571428
 40
0.1428571428571428
 40
0.1428571428571428
 40
0.2857142857142857
 40
0.2857142857142857
 40
0.2857142857142857
 40
0.2857142857142857
 40
0.4285714285714285
 40
0.4285714285714285
 40
0.4285714285714285
 40
0.4285714285714285
 40
0.5714285714285714
 40
0.5714285714285714
 40
0.5714285714285714
 40
0.5714285714285714
 40
0.7142857142857143
 40
0.7142857142857143
 40
0.7142857142857143
 40
0.7142857142857143
 40
1.0
 40
1.0
 40
1.0
 40
1.0
 10
-12.29149
 20
23.51731
 30
0.0
 10
-12.29149
 20
23.51731
 30
0.0
 10
-12.29149
 20
25.17085
 30
0.0
 10
-12.29149
 20
25.17085
 30
0.0
 10
-12.29149
 20
25.17085
 30
0.0
 10
-12.29149
 20
25.17085
 30
0.0
 10
-12.58359
 20
25.17085
 30
0.0
 10
-12.58359
 20
25.17085
 30
0.0
 10
-12.58359
 20
25.17085
 30
0.0
 10
-12.58359
 20
25.17085
 30
0.0
 10
-12.58359
 20
25.32325
 30
0.0
 10
-12.58359
 20
25.32325
 30
0.0
 10
-12.58359
 20
25.32325
 30
0.0
 10
-12.58359
 20
25.32325
 30
0.0
 10
-12.04765
 20
25.36897
 30
0.0
 10
-12.04765
 20
25.36897
 30
0.0
 10
-12.04765
 20
25.36897
 30
0.0
 10
-12.04765
 20
25.36897
 30
0.0
 10
-12.04765
 20
23.51731
 30
0.0
 10
-12.04765
 20
23.51731
 30
0.0
 10
-12.04765
 20
23.51731
 30
0.0
 10
-12.04765
 20
23.51731
 30
0.0
 10
-12.29149
 20
23.51731
 30
0.0
 10
-12.29149
 20
23.51731
 30
0.0
  0
SPLINE
  5
62
330
1F
100
AcDbEntity
  8
Layer 1
100
AcDbSpline
210
0.0
220
0.0
230
1.0
 70
    11
 71
     3
 72
    20
 73
    16
 74
     0
 42
0.0000000001
 43
0.0000000001
 12
1.0
 22
0.0
 32
0.0
 13
1.0
 23
0.0
 33
0.0
 40
0.0
 40
0.0
 40
0.0
 40
0.0
 40
0.2
 40
0.2
 40
0.2
 40
0.2
 40
0.4
 40
0.4
 40
0.4
 40
0.4
 40
0.6
 40
0.6
 40
0.6
 40
0.6
 40
1.0
 40
1.0
 40
1.0
 40
1.0
 10
-11.24416
 20
23.33443
 30
0.0
 10
-11.24416
 20
23.33443
 30
0.0
 10
-11.24416
 20
23.51731
 30
0.0
 10
-11.24416
 20
23.51731
 30
0.0
 10
-11.24416
 20
23.51731
 30
0.0
 10
-11.24416
 20
23.51731
 30
0.0
 10
-10.18752
 20
23.51731
 30
0.0
 10
-10.18752
 20
23.51731
 30
0.0
 10
-10.18752
 20
23.51731
 30
0.0
 10
-10.18752
 20
23.51731
 30
0.0
 10
-10.18752
 20
23.33443
 30
0.0
 10
-10.18752
 20
23.33443
 30
0.0
 10
-10.18752
 20
23.33443
 30
0.0
 10
-10.18752
 20
23.33443
 30
0.0
 10
-11.24416
 20
23.33443
 30
0.0
 10
-11.24416
 20
23.33443
 30
0.0
  0
SPLINE
  5
63
330
1F
100
AcDbEntity
  8
Layer 1
100
AcDbSpline
210
0.0
220
0.0
230
1.0
 70
    11
 71
     3
 72
    40
 73
    36
 74
     0
 42
0.0000000001
 43
0.0000000001
 12
1.0
 22
0.0
 32
0.0
 13
1.0
 23
0.0
 33
0.0
 40
0.0
 40
0.0
 40
0.0
 40
0.0
 40
0.1
 40
0.1
 40
0.1
 40
0.1
 40
0.2
 40
0.2
 40
0.2
 40
0.2
 40
0.3
 40
0.3
 40
0.3
 40
0.3
 40
0.4
 40
0.4
 40
0.4
 40
0.4
 40
0.5
 40
0.5
 40
0.5
 40
0.5
 40
0.6
 40
0.6
 40
0.6
 40
0.6
 40
0.7
 40
0.7
 40
0.7
 40
0.7
 40
0.8
 40
0.8
 40
0.8
 40
0.8
 40
1.0
 40
1.0
 40
1.0
 40
1.0
 10
-9.69984
 20
23.51731
 30
0.0
 10
-9.67613
 20
23.6604
 30
0.0
 10
-9.64184
 20
23.78443
 30
0.0
 10
-9.59782
 20
23.88857
 30
0.0
 10
-9.59782
 20
23.88857
 30
0.0
 10
-9.55379
 20
23.99271
 30
0.0
 10
-9.47547
 20
24.13622
 30
0.0
 10
-9.36371
 20
24.31826
 30
0.0
 10
-9.36371
 20
24.31826
 30
0.0
 10
-9.36371
 20
24.31826
 30
0.0
 10
-8.86418
 20
25.12513
 30
0.0
 10
-8.86418
 20
25.12513
 30
0.0
 10
-8.86418
 20
25.12513
 30
0.0
 10
-8.86418
 20
25.12513
 30
0.0
 10
-9.80652
 20
25.12513
 30
0.0
 10
-9.80652
 20
25.12513
 30
0.0
 10
-9.80652
 20
25.12513
 30
0.0
 10
-9.80652
 20
25.12513
 30
0.0
 10
-9.80652
 20
25.35373
 30
0.0
 10
-9.80652
 20
25.35373
 30
0.0
 10
-9.80652
 20
25.35373
 30
0.0
 10
-9.80652
 20
25.35373
 30
0.0
 10
-8.62796
 20
25.35373
 30
0.0
 10
-8.62796
 20
25.35373
 30
0.0
 10
-8.62796
 20
25.35373
 30
0.0
 10
-8.62796
 20
25.35373
 30
0.0
 10
-8.62796
 20
25.12513
 30
0.0
 10
-8.62796
 20
25.12513
 30
0.0
 10
-8.62796
 20
25.12513
 30
0.0
 10
-9.09828
 20
24.43086
 30
0.0
 10
-9.3616
 20
23.89492
 30
0.0
 10
-9.4179
 20
23.51731
 30
0.0
 10
-9.4179
 20
23.51731
 30
0.0
 10
-9.4179
 20
23.51731
 30
0.0
 10
-9.69984
 20
23.51731
 30
0.0
 10
-9.69984
 20
23.51731
 30
0.0
  0
SPLINE
  5
64
330
1F
100
AcDbEntity
  8
Layer 1
100
AcDbSpline
210
0.0
220
0.0
230
1.0
 70
    11
 71
     3
 72
    72
 73
    68
 74
     0
 42
0.0000000001
 43
0.0000000001
 12
1.0
 22
0.0
 32
0.0
 13
1.0
 23
0.0
 33
0.0
 40
0.0
 40
0.0
 40
0.0
 40
0.0
 40
0.0555555555555556
 40
0.0555555555555556
 40
0.0555555555555556
 40
0.0555555555555556
 40
0.1111111111111111
 40
0.1111111111111111
 40
0.1111111111111111
 40
0.1111111111111111
 40
0.1666666666666667
 40
0.1666666666666667
 40
0.1666666666666667
 40
0.1666666666666667
 40
0.2222222222222222
 40
0.2222222222222222
 40
0.2222222222222222
 40
0.2222222222222222
 40
0.2777777777777778
 40
0.2777777777777778
 40
0.2777777777777778
 40
0.2777777777777778
 40
0.3333333333333333
 40
0.3333333333333333
 40
0.3333333333333333
 40
0.3333333333333333
 40
0.3888888888888889
 40
0.3888888888888889
 40
0.3888888888888889
 40
0.3888888888888889
 40
0.4444444444444444
 40
0.4444444444444444
 40
0.4444444444444444
 40
0.4444444444444444
 40
0.5
 40
0.5
 40
0.5
 40
0.5
 40
0.5555555555555556
 40
0.5555555555555556
 40
0.5555555555555556
 40
0.5555555555555556
 40
0.6111111111111112
 40
0.6111111111111112
 40
0.6111111111111112
 40
0.6111111111111112
 40
0.6666666666666666
 40
0.6666666666666666
 40
0.6666666666666666
 40
0.6666666666666666
 40
0.7222222222222222
 40
0.7222222222222222
 40
0.7222222222222222
 40
0.7222222222222222
 40
0.7777777777777778
 40
0.7777777777777778
 40
0.7777777777777778
 40
0.7777777777777778
 40
0.8333333333333334
 40
0.8333333333333334
 40
0.8333333333333334
 40
0.8333333333333334
 40
0.8888888888888888
 40
0.8888888888888888
 40
0.8888888888888888
 40
0.8888888888888888
 40
1.0
 40
1.0
 40
1.0
 40
1.0
 10
-8.16483
 20
23.50969
 30
0.0
 10
-8.16483
 20
23.50969
 30
0.0
 10
-8.16483
 20
23.72813
 30
0.0
 10
-8.16483
 20
23.72813
 30
0.0
 10
-8.16483
 20
23.72813
 30
0.0
 10
-8.04333
 20
23.67902
 30
0.0
 10
-7.92819
 20
23.65447
 30
0.0
 10
-7.81812
 20
23.65447
 30
0.0
 10
-7.81812
 20
23.65447
 30
0.0
 10
-7.69789
 20
23.65447
 30
0.0
 10
-7.60307
 20
23.69003
 30
0.0
 10
-7.53406
 20
23.76115
 30
0.0
 10
-7.53406
 20
23.76115
 30
0.0
 10
-7.46506
 20
23.83227
 30
0.0
 10
-7.43077
 20
23.93006
 30
0.0
 10
-7.43077
 20
24.05452
 30
0.0
 10
-7.43077
 20
24.05452
 30
0.0
 10
-7.43077
 20
24.18829
 30
0.0
 10
-7.47945
 20
24.29074
 30
0.0
 10
-7.57682
 20
24.36144
 30
0.0
 10
-7.57682
 20
24.36144
 30
0.0
 10
-7.67419
 20
24.43213
 30
0.0
 10
-7.81516
 20
24.46727
 30
0.0
 10
-7.99931
 20
24.46727
 30
0.0
 10
-7.99931
 20
24.46727
 30
0.0
 10
-8.04206
 20
24.46727
 30
0.0
 10
-8.08736
 20
24.46431
 30
0.0
 10
-8.13435
 20
24.45838
 30
0.0
 10
-8.13435
 20
24.45838
 30
0.0
 10
-8.13435
 20
24.45838
 30
0.0
 10
-8.13435
 20
25.35373
 30
0.0
 10
-8.13435
 20
25.35373
 30
0.0
 10
-8.13435
 20
25.35373
 30
0.0
 10
-8.13435
 20
25.35373
 30
0.0
 10
-7.20471
 20
25.35373
 30
0.0
 10
-7.20471
 20
25.35373
 30
0.0
 10
-7.20471
 20
25.35373
 30
0.0
 10
-7.20471
 20
25.35373
 30
0.0
 10
-7.20471
 20
25.14037
 30
0.0
 10
-7.20471
 20
25.14037
 30
0.0
 10
-7.20471
 20
25.14037
 30
0.0
 10
-7.20471
 20
25.14037
 30
0.0
 10
-7.92099
 20
25.14037
 30
0.0
 10
-7.92099
 20
25.14037
 30
0.0
 10
-7.92099
 20
25.14037
 30
0.0
 10
-7.92099
 20
25.14037
 30
0.0
 10
-7.92099
 20
24.65523
 30
0.0
 10
-7.92099
 20
24.65523
 30
0.0
 10
-7.92099
 20
24.65523
 30
0.0
 10
-7.68477
 20
24.65523
 30
0.0
 10
-7.50062
 20
24.60104
 30
0.0
 10
-7.36812
 20
24.49267
 30
0.0
 10
-7.36812
 20
24.49267
 30
0.0
 10
-7.23561
 20
24.38472
 30
0.0
 10
-7.16915
 20
24.23486
 30
0.0
 10
-7.16915
 20
24.04309
 30
0.0
 10
-7.16915
 20
24.04309
 30
0.0
 10
-7.16915
 20
23.86444
 30
0.0
 10
-7.22926
 20
23.72474
 30
0.0
 10
-7.34949
 20
23.62357
 30
0.0
 10
-7.34949
 20
23.62357
 30
0.0
 10
-7.46972
 20
23.52239
 30
0.0
 10
-7.63566
 20
23.47159
 30
0.0
 10
-7.84733
 20
23.47159
 30
0.0
 10
-7.84733
 20
23.47159
 30
0.0
 10
-7.94173
 20
23.47159
 30
0.0
 10
-8.04757
 20
23.48429
 30
0.0
 10
-8.16483
 20
23.50969
 30
0.0
  0
SPLINE
  5
65
330
1F
100
AcDbEntity
  8
Layer 1
100
AcDbSpline
210
0.0
220
0.0
230
1.0
 70
    11
 71
     3
 72
    20
 73
    16
 74
     0
 42
0.0000000001
 43
0.0000000001
 12
1.0
 22
0.0
 32
0.0
 13
1.0
 23
0.0
 33
0.0
 40
0.0
 40
0.0
 40
0.0
 40
0.0
 40
0.2
 40
0.2
 40
0.2
 40
0.2
 40
0.4
 40
0.4
 40
0.4
 40
0.4
 40
0.6
 40
0.6
 40
0.6
 40
0.6
 40
1.0
 40
1.0
 40
1.0
 40
1.0
 10
-6.7619
 20
23.33443
 30
0.0
 10
-6.7619
 20
23.33443
 30
0.0
 10
-6.7619
 20
23.51731
 30
0.0
 10
-6.7619
 20
23.51731
 30
0.0
 10
-6.7619
 20
23.51731
 30
0.0
 10
-6.7619
 20
23.51731
 30
0.0
 10
-5.70526
 20
23.51731
 30
0.0
 10
-5.70526
 20
23.51731
 30
0.0
 10
-5.70526
 20
23.51731
 30
0.0
 10
-5.70526
 20
23.51731
 30
0.0
 10
-5.70526
 20
23.33443
 30
0.0
 10
-5.70526
 20
23.33443
 30
0.0
 10
-5.70526
 20
23.33443
 30
0.0
 10
-5.70526
 20
23.33443
 30
0.0
 10
-6.7619
 20
23.33443
 30
0.0
 10
-6.7619
 20
23.33443
 30
0.0
  0
SPLINE
  5
66
330
1F
100
AcDbEntity
  8
Layer 1
100
AcDbSpline
210
0.0
220
0.0
230
1.0
 70
    11
 71
     3
 72
    84
 73
    80
 74
     0
 42
0.0000000001
 43
0.0000000001
 12
1.0
 22
0.0
 32
0.0
 13
1.0
 23
0.0
 33
0.0
 40
0.0
 40
0.0
 40
0.0
 40
0.0
 40
0.0476190476190476
 40
0.0476190476190476
 40
0.0476190476190476
 40
0.0476190476190476
 40
0.0952380952380952
 40
0.0952380952380952
 40
0.0952380952380952
 40
0.0952380952380952
 40
0.1428571428571428
 40
0.1428571428571428
 40
0.1428571428571428
 40
0.1428571428571428
 40
0.1904761904761905
 40
0.1904761904761905
 40
0.1904761904761905
 40
0.1904761904761905
 40
0.2380952380952381
 40
0.2380952380952381
 40
0.2380952380952381
 40
0.2380952380952381
 40
0.2857142857142857
 40
0.2857142857142857
 40
0.2857142857142857
 40
0.2857142857142857
 40
0.3333333333333333
 40
0.3333333333333333
 40
0.3333333333333333
 40
0.3333333333333333
 40
0.3809523809523809
 40
0.3809523809523809
 40
0.3809523809523809
 40
0.3809523809523809
 40
0.4285714285714285
 40
0.4285714285714285
 40
0.4285714285714285
 40
0.4285714285714285
 40
0.4761904761904762
 40
0.4761904761904762
 40
0.4761904761904762
 40
0.4761904761904762
 40
0.5238095238095238
 40
0.5238095238095238
 40
0.5238095238095238
 40
0.5238095238095238
 40
0.5714285714285714
 40
0.5714285714285714
 40
0.5714285714285714
 40
0.5714285714285714
 40
0.6190476190476191
 40
0.6190476190476191
 40
0.6190476190476191
 40
0.6190476190476191
 40
0.6666666666666666
 40
0.6666666666666666
 40
0.6666666666666666
 40
0.6666666666666666
 40
0.7142857142857143
 40
0.7142857142857143
 40
0.7142857142857143
 40
0.7142857142857143
 40
0.7619047619047619
 40
0.7619047619047619
 40
0.7619047619047619
 40
0.7619047619047619
 40
0.8095238095238095
 40
0.8095238095238095
 40
0.8095238095238095
 40
0.8095238095238095
 40
0.8571428571428571
 40
0.8571428571428571
 40
0.8571428571428571
 40
0.8571428571428571
 40
0.9047619047619048
 40
0.9047619047619048
 40
0.9047619047619048
 40
0.9047619047619048
 40
1.0
 40
1.0
 40
1.0
 40
1.0
 10
-5.35474
 20
23.51731
 30
0.0
 10
-5.35474
 20
23.51731
 30
0.0
 10
-5.35474
 20
24.86351
 30
0.0
 10
-5.35474
 20
24.86351
 30
0.0
 10
-5.35474
 20
24.86351
 30
0.0
 10
-5.35474
 20
24.86351
 30
0.0
 10
-5.1109
 20
24.86351
 30
0.0
 10
-5.1109
 20
24.86351
 30
0.0
 10
-5.1109
 20
24.86351
 30
0.0
 10
-5.1109
 20
24.86351
 30
0.0
 10
-5.1109
 20
24.60909
 30
0.0
 10
-5.1109
 20
24.60909
 30
0.0
 10
-5.1109
 20
24.60909
 30
0.0
 10
-4.99194
 20
24.79747
 30
0.0
 10
-4.83954
 20
24.89145
 30
0.0
 10
-4.65285
 20
24.89145
 30
0.0
 10
-4.65285
 20
24.89145
 30
0.0
 10
-4.47294
 20
24.89145
 30
0.0
 10
-4.35059
 20
24.79747
 30
0.0
 10
-4.2854
 20
24.60909
 30
0.0
 10
-4.2854
 20
24.60909
 30
0.0
 10
-4.16983
 20
24.79916
 30
0.0
 10
-4.01912
 20
24.89399
 30
0.0
 10
-3.83413
 20
24.89399
 30
0.0
 10
-3.83413
 20
24.89399
 30
0.0
 10
-3.71602
 20
24.89399
 30
0.0
 10
-3.62415
 20
24.85928
 30
0.0
 10
-3.55854
 20
24.78943
 30
0.0
 10
-3.55854
 20
24.78943
 30
0.0
 10
-3.49292
 20
24.71958
 30
0.0
 10
-3.4599
 20
24.62179
 30
0.0
 10
-3.4599
 20
24.49606
 30
0.0
 10
-3.4599
 20
24.49606
 30
0.0
 10
-3.4599
 20
24.49606
 30
0.0
 10
-3.4599
 20
23.51731
 30
0.0
 10
-3.4599
 20
23.51731
 30
0.0
 10
-3.4599
 20
23.51731
 30
0.0
 10
-3.4599
 20
23.51731
 30
0.0
 10
-3.70374
 20
23.51731
 30
0.0
 10
-3.70374
 20
23.51731
 30
0.0
 10
-3.70374
 20
23.51731
 30
0.0
 10
-3.70374
 20
23.51731
 30
0.0
 10
-3.70374
 20
24.45584
 30
0.0
 10
-3.70374
 20
24.45584
 30
0.0
 10
-3.70374
 20
24.45584
 30
0.0
 10
-3.70374
 20
24.60909
 30
0.0
 10
-3.7647
 20
24.68571
 30
0.0
 10
-3.88662
 20
24.68571
 30
0.0
 10
-3.88662
 20
24.68571
 30
0.0
 10
-4.0132
 20
24.68571
 30
0.0
 10
-4.14612
 20
24.59639
 30
0.0
 10
-4.2854
 20
24.41732
 30
0.0
 10
-4.2854
 20
24.41732
 30
0.0
 10
-4.2854
 20
24.41732
 30
0.0
 10
-4.2854
 20
23.51731
 30
0.0
 10
-4.2854
 20
23.51731
 30
0.0
 10
-4.2854
 20
23.51731
 30
0.0
 10
-4.2854
 20
23.51731
 30
0.0
 10
-4.52924
 20
23.51731
 30
0.0
 10
-4.52924
 20
23.51731
 30
0.0
 10
-4.52924
 20
23.51731
 30
0.0
 10
-4.52924
 20
23.51731
 30
0.0
 10
-4.52924
 20
24.45669
 30
0.0
 10
-4.52924
 20
24.45669
 30
0.0
 10
-4.52924
 20
24.45669
 30
0.0
 10
-4.52924
 20
24.6112
 30
0.0
 10
-4.59105
 20
24.68825
 30
0.0
 10
-4.71508
 20
24.68825
 30
0.0
 10
-4.71508
 20
24.68825
 30
0.0
 10
-4.83827
 20
24.68825
 30
0.0
 10
-4.97035
 20
24.5985
 30
0.0
 10
-5.1109
 20
24.41859
 30
0.0
 10
-5.1109
 20
24.41859
 30
0.0
 10
-5.1109
 20
24.41859
 30
0.0
 10
-5.1109
 20
23.51731
 30
0.0
 10
-5.1109
 20
23.51731
 30
0.0
 10
-5.1109
 20
23.51731
 30
0.0
 10
-5.1109
 20
23.51731
 30
0.0
 10
-5.35474
 20
23.51731
 30
0.0
 10
-5.35474
 20
23.51731
 30
0.0
  0
SPLINE
  5
67
330
1F
100
AcDbEntity
  8
Layer 1
100
AcDbSpline
210
0.0
220
0.0
230
1.0
 70
    11
 71
     3
 72
    84
 73
    80
 74
     0
 42
0.0000000001
 43
0.0000000001
 12
1.0
 22
0.0
 32
0.0
 13
1.0
 23
0.0
 33
0.0
 40
0.0
 40
0.0
 40
0.0
 40
0.0
 40
0.0476190476190476
 40
0.0476190476190476
 40
0.0476190476190476
 40
0.0476190476190476
 40
0.0952380952380952
 40
0.0952380952380952
 40
0.0952380952380952
 40
0.0952380952380952
 40
0.1428571428571428
 40
0.1428571428571428
 40
0.1428571428571428
 40
0.1428571428571428
 40
0.1904761904761905
 40
0.1904761904761905
 40
0.1904761904761905
 40
0.1904761904761905
 40
0.2380952380952381
 40
0.2380952380952381
 40
0.2380952380952381
 40
0.2380952380952381
 40
0.2857142857142857
 40
0.2857142857142857
 40
0.2857142857142857
 40
0.2857142857142857
 40
0.3333333333333333
 40
0.3333333333333333
 40
0.3333333333333333
 40
0.3333333333333333
 40
0.3809523809523809
 40
0.3809523809523809
 40
0.3809523809523809
 40
0.3809523809523809
 40
0.4285714285714285
 40
0.4285714285714285
 40
0.4285714285714285
 40
0.4285714285714285
 40
0.4761904761904762
 40
0.4761904761904762
 40
0.4761904761904762
 40
0.4761904761904762
 40
0.5238095238095238
 40
0.5238095238095238
 40
0.5238095238095238
 40
0.5238095238095238
 40
0.5714285714285714
 40
0.5714285714285714
 40
0.5714285714285714
 40
0.5714285714285714
 40
0.6190476190476191
 40
0.6190476190476191
 40
0.6190476190476191
 40
0.6190476190476191
 40
0.6666666666666666
 40
0.6666666666666666
 40
0.6666666666666666
 40
0.6666666666666666
 40
0.7142857142857143
 40
0.7142857142857143
 40
0.7142857142857143
 40
0.7142857142857143
 40
0.7619047619047619
 40
0.7619047619047619
 40
0.7619047619047619
 40
0.7619047619047619
 40
0.8095238095238095
 40
0.8095238095238095
 40
0.8095238095238095
 40
0.8095238095238095
 40
0.8571428571428571
 40
0.8571428571428571
 40
0.8571428571428571
 40
0.8571428571428571
 40
0.9047619047619048
 40
0.9047619047619048
 40
0.9047619047619048
 40
0.9047619047619048
 40
1.0
 40
1.0
 40
1.0
 40
1.0
 10
-2.98323
 20
23.51731
 30
0.0
 10
-2.98323
 20
23.51731
 30
0.0
 10
-2.98323
 20
24.86351
 30
0.0
 10
-2.98323
 20
24.86351
 30
0.0
 10
-2.98323
 20
24.86351
 30
0.0
 10
-2.98323
 20
24.86351
 30
0.0
 10
-2.73939
 20
24.86351
 30
0.0
 10
-2.73939
 20
24.86351
 30
0.0
 10
-2.73939
 20
24.86351
 30
0.0
 10
-2.73939
 20
24.86351
 30
0.0
 10
-2.73939
 20
24.60909
 30
0.0
 10
-2.73939
 20
24.60909
 30
0.0
 10
-2.73939
 20
24.60909
 30
0.0
 10
-2.62043
 20
24.79747
 30
0.0
 10
-2.46803
 20
24.89145
 30
0.0
 10
-2.28134
 20
24.89145
 30
0.0
 10
-2.28134
 20
24.89145
 30
0.0
 10
-2.10143
 20
24.89145
 30
0.0
 10
-1.97908
 20
24.79747
 30
0.0
 10
-1.91389
 20
24.60909
 30
0.0
 10
-1.91389
 20
24.60909
 30
0.0
 10
-1.79832
 20
24.79916
 30
0.0
 10
-1.64761
 20
24.89399
 30
0.0
 10
-1.46262
 20
24.89399
 30
0.0
 10
-1.46262
 20
24.89399
 30
0.0
 10
-1.34451
 20
24.89399
 30
0.0
 10
-1.25264
 20
24.85928
 30
0.0
 10
-1.18703
 20
24.78943
 30
0.0
 10
-1.18703
 20
24.78943
 30
0.0
 10
-1.12141
 20
24.71958
 30
0.0
 10
-1.08839
 20
24.62179
 30
0.0
 10
-1.08839
 20
24.49606
 30
0.0
 10
-1.08839
 20
24.49606
 30
0.0
 10
-1.08839
 20
24.49606
 30
0.0
 10
-1.08839
 20
23.51731
 30
0.0
 10
-1.08839
 20
23.51731
 30
0.0
 10
-1.08839
 20
23.51731
 30
0.0
 10
-1.08839
 20
23.51731
 30
0.0
 10
-1.33223
 20
23.51731
 30
0.0
 10
-1.33223
 20
23.51731
 30
0.0
 10
-1.33223
 20
23.51731
 30
0.0
 10
-1.33223
 20
23.51731
 30
0.0
 10
-1.33223
 20
24.45584
 30
0.0
 10
-1.33223
 20
24.45584
 30
0.0
 10
-1.33223
 20
24.45584
 30
0.0
 10
-1.33223
 20
24.60909
 30
0.0
 10
-1.39319
 20
24.68571
 30
0.0
 10
-1.51511
 20
24.68571
 30
0.0
 10
-1.51511
 20
24.68571
 30
0.0
 10
-1.64169
 20
24.68571
 30
0.0
 10
-1.77461
 20
24.59639
 30
0.0
 10
-1.91389
 20
24.41732
 30
0.0
 10
-1.91389
 20
24.41732
 30
0.0
 10
-1.91389
 20
24.41732
 30
0.0
 10
-1.91389
 20
23.51731
 30
0.0
 10
-1.91389
 20
23.51731
 30
0.0
 10
-1.91389
 20
23.51731
 30
0.0
 10
-1.91389
 20
23.51731
 30
0.0
 10
-2.15773
 20
23.51731
 30
0.0
 10
-2.15773
 20
23.51731
 30
0.0
 10
-2.15773
 20
23.51731
 30
0.0
 10
-2.15773
 20
23.51731
 30
0.0
 10
-2.15773
 20
24.45669
 30
0.0
 10
-2.15773
 20
24.45669
 30
0.0
 10
-2.15773
 20
24.45669
 30
0.0
 10
-2.15773
 20
24.6112
 30
0.0
 10
-2.21954
 20
24.68825
 30
0.0
 10
-2.34357
 20
24.68825
 30
0.0
 10
-2.34357
 20
24.68825
 30
0.0
 10
-2.46676
 20
24.68825
 30
0.0
 10
-2.59884
 20
24.5985
 30
0.0
 10
-2.73939
 20
24.41859
 30
0.0
 10
-2.73939
 20
24.41859
 30
0.0
 10
-2.73939
 20
24.41859
 30
0.0
 10
-2.73939
 20
23.51731
 30
0.0
 10
-2.73939
 20
23.51731
 30
0.0
 10
-2.73939
 20
23.51731
 30
0.0
 10
-2.73939
 20
23.51731
 30
0.0
 10
-2.98323
 20
23.51731
 30
0.0
 10
-2.98323
 20
23.51731
 30
0.0
  0
SPLINE
  5
68
330
1F
100
AcDbEntity
  8
Layer 1
100
AcDbSpline
210
0.0
220
0.0
230
1.0
 70
    11
 71
     3
 72
    20
 73
    16
 74
     0
 42
0.0000000001
 43
0.0000000001
 12
1.0
 22
0.0
 32
0.0
 13
1.0
 23
0.0
 33
0.0
 40
0.0
 40
0.0
 40
0.0
 40
0.0
 40
0.2
 40
0.2
 40
0.2
 40
0.2
 40
0.4
 40
0.4
 40
0.4
 40
0.4
 40
0.6
 40
0.6
 40
0.6
 40
0.6
 40
1.0
 40
1.0
 40
1.0
 40
1.0
 10
-0.74888
 20
23.33443
 30
0.0
 10
-0.74888
 20
23.33443
 30
0.0
 10
-0.74888
 20
23.51731
 30
0.0
 10
-0.74888
 20
23.51731
 30
0.0
 10
-0.74888
 20
23.51731
 30
0.0
 10
-0.74888
 20
23.51731
 30
0.0
 10
0.30776
 20
23.51731
 30
0.0
 10
0.30776
 20
23.51731
 30
0.0
 10
0.30776
 20
23.51731
 30
0.0
 10
0.30776
 20
23.51731
 30
0.0
 10
0.30776
 20
23.33443
 30
0.0
 10
0.30776
 20
23.33443
 30
0.0
 10
0.30776
 20
23.33443
 30
0.0
 10
0.30776
 20
23.33443
 30
0.0
 10
-0.74888
 20
23.33443
 30
0.0
 10
-0.74888
 20
23.33443
 30
0.0
  0
SPLINE
  5
69
330
1F
100
AcDbEntity
  8
Layer 1
100
AcDbSpline
210
0.0
220
0.0
230
1.0
 70
    11
 71
     3
 72
    48
 73
    44
 74
     0
 42
0.0000000001
 43
0.0000000001
 12
1.0
 22
0.0
 32
0.0
 13
1.0
 23
0.0
 33
0.0
 40
0.0
 40
0.0
 40
0.0
 40
0.0
 40
0.0833333333333333
 40
0.0833333333333333
 40
0.0833333333333333
 40
0.0833333333333333
 40
0.1666666666666667
 40
0.1666666666666667
 40
0.1666666666666667
 40
0.1666666666666667
 40
0.25
 40
0.25
 40
0.25
 40
0.25
 40
0.3333333333333333
 40
0.3333333333333333
 40
0.3333333333333333
 40
0.3333333333333333
 40
0.4166666666666667
 40
0.4166666666666667
 40
0.4166666666666667
 40
0.4166666666666667
 40
0.5
 40
0.5
 40
0.5
 40
0.5
 40
0.5833333333333334
 40
0.5833333333333334
 40
0.5833333333333334
 40
0.5833333333333334
 40
0.6666666666666666
 40
0.6666666666666666
 40
0.6666666666666666
 40
0.6666666666666666
 40
0.75
 40
0.75
 40
0.75
 40
0.75
 40
0.8333333333333334
 40
0.8333333333333334
 40
0.8333333333333334
 40
0.8333333333333334
 40
1.0
 40
1.0
 40
1.0
 40
1.0
 10
0.65828
 20
23.02709
 30
0.0
 10
0.65828
 20
23.02709
 30
0.0
 10
0.65828
 20
24.86351
 30
0.0
 10
0.65828
 20
24.86351
 30
0.0
 10
0.65828
 20
24.86351
 30
0.0
 10
0.65828
 20
24.86351
 30
0.0
 10
0.90212
 20
24.86351
 30
0.0
 10
0.90212
 20
24.86351
 30
0.0
 10
0.90212
 20
24.86351
 30
0.0
 10
0.90212
 20
24.86351
 30
0.0
 10
0.90212
 20
24.60909
 30
0.0
 10
0.90212
 20
24.60909
 30
0.0
 10
0.90212
 20
24.60909
 30
0.0
 10
1.00203
 20
24.79747
 30
0.0
 10
1.15231
 20
24.89145
 30
0.0
 10
1.35255
 20
24.89145
 30
0.0
 10
1.35255
 20
24.89145
 30
0.0
 10
1.51468
 20
24.89145
 30
0.0
 10
1.64211
 20
24.83261
 30
0.0
 10
1.73524
 20
24.7145
 30
0.0
 10
1.73524
 20
24.7145
 30
0.0
 10
1.82837
 20
24.59639
 30
0.0
 10
1.87494
 20
24.4351
 30
0.0
 10
1.87494
 20
24.23063
 30
0.0
 10
1.87494
 20
24.23063
 30
0.0
 10
1.87494
 20
24.00795
 30
0.0
 10
1.82202
 20
23.82804
 30
0.0
 10
1.71661
 20
23.69172
 30
0.0
 10
1.71661
 20
23.69172
 30
0.0
 10
1.6112
 20
23.55499
 30
0.0
 10
1.47235
 20
23.48683
 30
0.0
 10
1.30048
 20
23.48683
 30
0.0
 10
1.30048
 20
23.48683
 30
0.0
 10
1.14088
 20
23.48683
 30
0.0
 10
1.00795
 20
23.54779
 30
0.0
 10
0.90212
 20
23.67013
 30
0.0
 10
0.90212
 20
23.67013
 30
0.0
 10
0.90212
 20
23.67013
 30
0.0
 10
0.90212
 20
23.02709
 30
0.0
 10
0.90212
 20
23.02709
 30
0.0
 10
0.90212
 20
23.02709
 30
0.0
 10
0.90212
 20
23.02709
 30
0.0
 10
0.65828
 20
23.02709
 30
0.0
 10
0.65828
 20
23.02709
 30
0.0
  0
SPLINE
  5
6A
330
1F
100
AcDbEntity
  8
Layer 1
100
AcDbSpline
210
0.0
220
0.0
230
1.0
 70
    11
 71
     3
 72
    28
 73
    24
 74
     0
 42
0.0000000001
 43
0.0000000001
 12
1.0
 22
0.0
 32
0.0
 13
1.0
 23
0.0
 33
0.0
 40
0.0
 40
0.0
 40
0.0
 40
0.0
 40
0.1428571428571428
 40
0.1428571428571428
 40
0.1428571428571428
 40
0.1428571428571428
 40
0.2857142857142857
 40
0.2857142857142857
 40
0.2857142857142857
 40
0.2857142857142857
 40
0.4285714285714285
 40
0.4285714285714285
 40
0.4285714285714285
 40
0.4285714285714285
 40
0.5714285714285714
 40
0.5714285714285714
 40
0.5714285714285714
 40
0.5714285714285714
 40
0.7142857142857143
 40
0.7142857142857143
 40
0.7142857142857143
 40
0.7142857142857143
 40
1.0
 40
1.0
 40
1.0
 40
1.0
 10
0.90212
 20
23.8382
 30
0.0
 10
1.02785
 20
23.72601
 30
0.0
 10
1.14765
 20
23.66971
 30
0.0
 10
1.26153
 20
23.66971
 30
0.0
 10
1.26153
 20
23.66971
 30
0.0
 10
1.37371
 20
23.66971
 30
0.0
 10
1.4605
 20
23.7167
 30
0.0
 10
1.52146
 20
23.81026
 30
0.0
 10
1.52146
 20
23.81026
 30
0.0
 10
1.58284
 20
23.90381
 30
0.0
 10
1.61332
 20
24.03547
 30
0.0
 10
1.61332
 20
24.20565
 30
0.0
 10
1.61332
 20
24.20565
 30
0.0
 10
1.61332
 20
24.52061
 30
0.0
 10
1.50918
 20
24.67809
 30
0.0
 10
1.3009
 20
24.67809
 30
0.0
 10
1.3009
 20
24.67809
 30
0.0
 10
1.16459
 20
24.67809
 30
0.0
 10
1.03166
 20
24.60443
 30
0.0
 10
0.90212
 20
24.45669
 30
0.0
 10
0.90212
 20
24.45669
 30
0.0
 10
0.90212
 20
24.45669
 30
0.0
 10
0.90212
 20
23.8382
 30
0.0
 10
0.90212
 20
23.8382
 30
0.0
  0
SPLINE
  5
6B
330
1F
100
AcDbEntity
  8
Layer 1
100
AcDbSpline
210
0.0
220
0.0
230
1.0
 70
    11
 71
     3
 72
    20
 73
    16
 74
     0
 42
0.0000000001
 43
0.0000000001
 12
1.0
 22
0.0
 32
0.0
 13
1.0
 23
0.0
 33
0.0
 40
0.0
 40
0.0
 40
0.0
 40
0.0
 40
0.2
 40
0.2
 40
0.2
 40
0.2
 40
0.4
 40
0.4
 40
0.4
 40
0.4
 40
0.6
 40
0.6
 40
0.6
 40
0.6
 40
1.0
 40
1.0
 40
1.0
 40
1.0
 10
2.25679
 20
23.51731
 30
0.0
 10
2.25679
 20
23.51731
 30
0.0
 10
2.25679
 20
25.47565
 30
0.0
 10
2.25679
 20
25.47565
 30
0.0
 10
2.25679
 20
25.47565
 30
0.0
 10
2.25679
 20
25.47565
 30
0.0
 10
2.50063
 20
25.47565
 30
0.0
 10
2.50063
 20
25.47565
 30
0.0
 10
2.50063
 20
25.47565
 30
0.0
 10
2.50063
 20
25.47565
 30
0.0
 10
2.50063
 20
23.51731
 30
0.0
 10
2.50063
 20
23.51731
 30
0.0
 10
2.50063
 20
23.51731
 30
0.0
 10
2.50063
 20
23.51731
 30
0.0
 10
2.25679
 20
23.51731
 30
0.0
 10
2.25679
 20
23.51731
 30
0.0
  0
SPLINE
  5
6C
330
1F
100
AcDbEntity
  8
Layer 1
100
AcDbSpline
210
0.0
220
0.0
230
1.0
 70
    11
 71
     3
 72
    80
 73
    76
 74
     0
 42
0.0000000001
 43
0.0000000001
 12
1.0
 22
0.0
 32
0.0
 13
1.0
 23
0.0
 33
0.0
 40
0.0
 40
0.0
 40
0.0
 40
0.0
 40
0.05
 40
0.05
 40
0.05
 40
0.05
 40
0.1
 40
0.1
 40
0.1
 40
0.1
 40
0.15
 40
0.15
 40
0.15
 40
0.15
 40
0.2
 40
0.2
 40
0.2
 40
0.2
 40
0.25
 40
0.25
 40
0.25
 40
0.25
 40
0.3
 40
0.3
 40
0.3
 40
0.3
 40
0.35
 40
0.35
 40
0.35
 40
0.35
 40
0.4
 40
0.4
 40
0.4
 40
0.4
 40
0.45
 40
0.45
 40
0.45
 40
0.45
 40
0.5
 40
0.5
 40
0.5
 40
0.5
 40
0.55
 40
0.55
 40
0.55
 40
0.55
 40
0.6
 40
0.6
 40
0.6
 40
0.6
 40
0.65
 40
0.65
 40
0.65
 40
0.65
 40
0.7
 40
0.7
 40
0.7
 40
0.7
 40
0.75
 40
0.75
 40
0.75
 40
0.75
 40
0.8
 40
0.8
 40
0.8
 40
0.8
 40
0.85
 40
0.85
 40
0.85
 40
0.85
 40
0.9
 40
0.9
 40
0.9
 40
0.9
 40
1.0
 40
1.0
 40
1.0
 40
1.0
 10
3.68469
 20
23.68876
 30
0.0
 10
3.53822
 20
23.55414
 30
0.0
 10
3.39725
 20
23.48683
 30
0.0
 10
3.26178
 20
23.48683
 30
0.0
 10
3.26178
 20
23.48683
 30
0.0
 10
3.15045
 20
23.48683
 30
0.0
 10
3.05774
 20
23.52154
 30
0.0
 10
2.9845
 20
23.59139
 30
0.0
 10
2.9845
 20
23.59139
 30
0.0
 10
2.91084
 20
23.66124
 30
0.0
 10
2.87401
 20
23.7493
 30
0.0
 10
2.87401
 20
23.85555
 30
0.0
 10
2.87401
 20
23.85555
 30
0.0
 10
2.87401
 20
24.00245
 30
0.0
 10
2.93582
 20
24.11548
 30
0.0
 10
3.05943
 20
24.19422
 30
0.0
 10
3.05943
 20
24.19422
 30
0.0
 10
3.18304
 20
24.27296
 30
0.0
 10
3.36042
 20
24.31233
 30
0.0
 10
3.59156
 20
24.31233
 30
0.0
 10
3.59156
 20
24.31233
 30
0.0
 10
3.59156
 20
24.31233
 30
0.0
 10
3.64871
 20
24.31233
 30
0.0
 10
3.64871
 20
24.31233
 30
0.0
 10
3.64871
 20
24.31233
 30
0.0
 10
3.64871
 20
24.31233
 30
0.0
 10
3.64871
 20
24.47447
 30
0.0
 10
3.64871
 20
24.47447
 30
0.0
 10
3.64871
 20
24.47447
 30
0.0
 10
3.64871
 20
24.63068
 30
0.0
 10
3.56743
 20
24.70857
 30
0.0
 10
3.40445
 20
24.70857
 30
0.0
 10
3.40445
 20
24.70857
 30
0.0
 10
3.27829
 20
24.70857
 30
0.0
 10
3.14029
 20
24.66878
 30
0.0
 10
2.99085
 20
24.58919
 30
0.0
 10
2.99085
 20
24.58919
 30
0.0
 10
2.99085
 20
24.58919
 30
0.0
 10
2.99085
 20
24.78985
 30
0.0
 10
2.99085
 20
24.78985
 30
0.0
 10
2.99085
 20
24.78985
 30
0.0
 10
3.1551
 20
24.85758
 30
0.0
 10
3.31004
 20
24.89145
 30
0.0
 10
3.45525
 20
24.89145
 30
0.0
 10
3.45525
 20
24.89145
 30
0.0
 10
3.60468
 20
24.89145
 30
0.0
 10
3.71517
 20
24.85758
 30
0.0
 10
3.78587
 20
24.78943
 30
0.0
 10
3.78587
 20
24.78943
 30
0.0
 10
3.85699
 20
24.72127
 30
0.0
 10
3.89255
 20
24.61628
 30
0.0
 10
3.89255
 20
24.47447
 30
0.0
 10
3.89255
 20
24.47447
 30
0.0
 10
3.89255
 20
24.47447
 30
0.0
 10
3.89255
 20
23.86614
 30
0.0
 10
3.89255
 20
23.86614
 30
0.0
 10
3.89255
 20
23.86614
 30
0.0
 10
3.89255
 20
23.72686
 30
0.0
 10
3.93531
 20
23.65701
 30
0.0
 10
4.02124
 20
23.65701
 30
0.0
 10
4.02124
 20
23.65701
 30
0.0
 10
4.03183
 20
23.65701
 30
0.0
 10
4.04749
 20
23.6587
 30
0.0
 10
4.06823
 20
23.66209
 30
0.0
 10
4.06823
 20
23.66209
 30
0.0
 10
4.06823
 20
23.66209
 30
0.0
 10
4.08559
 20
23.52662
 30
0.0
 10
4.08559
 20
23.52662
 30
0.0
 10
4.08559
 20
23.52662
 30
0.0
 10
4.03013
 20
23.49995
 30
0.0
 10
3.96917
 20
23.48683
 30
0.0
 10
3.90229
 20
23.48683
 30
0.0
 10
3.90229
 20
23.48683
 30
0.0
 10
3.78841
 20
23.48683
 30
0.0
 10
3.71602
 20
23.55414
 30
0.0
 10
3.68469
 20
23.68876
 30
0.0
  0
SPLINE
  5
6D
330
1F
100
AcDbEntity
  8
Layer 1
100
AcDbSpline
210
0.0
220
0.0
230
1.0
 70
    11
 71
     3
 72
    32
 73
    28
 74
     0
 42
0.0000000001
 43
0.0000000001
 12
1.0
 22
0.0
 32
0.0
 13
1.0
 23
0.0
 33
0.0
 40
0.0
 40
0.0
 40
0.0
 40
0.0
 40
0.125
 40
0.125
 40
0.125
 40
0.125
 40
0.25
 40
0.25
 40
0.25
 40
0.25
 40
0.375
 40
0.375
 40
0.375
 40
0.375
 40
0.5
 40
0.5
 40
0.5
 40
0.5
 40
0.625
 40
0.625
 40
0.625
 40
0.625
 40
0.75
 40
0.75
 40
0.75
 40
0.75
 40
1.0
 40
1.0
 40
1.0
 40
1.0
 10
3.64871
 20
23.82169
 30
0.0
 10
3.64871
 20
23.82169
 30
0.0
 10
3.64871
 20
24.16755
 30
0.0
 10
3.64871
 20
24.16755
 30
0.0
 10
3.64871
 20
24.16755
 30
0.0
 10
3.64871
 20
24.16755
 30
0.0
 10
3.57039
 20
24.17009
 30
0.0
 10
3.57039
 20
24.17009
 30
0.0
 10
3.57039
 20
24.17009
 30
0.0
 10
3.43493
 20
24.17009
 30
0.0
 10
3.32571
 20
24.14511
 30
0.0
 10
3.24231
 20
24.09516
 30
0.0
 10
3.24231
 20
24.09516
 30
0.0
 10
3.15934
 20
24.04478
 30
0.0
 10
3.11785
 20
23.97832
 30
0.0
 10
3.11785
 20
23.89535
 30
0.0
 10
3.11785
 20
23.89535
 30
0.0
 10
3.11785
 20
23.83735
 30
0.0
 10
3.13859
 20
23.78824
 30
0.0
 10
3.17966
 20
23.74803
 30
0.0
 10
3.17966
 20
23.74803
 30
0.0
 10
3.22114
 20
23.70781
 30
0.0
 10
3.27152
 20
23.68749
 30
0.0
 10
3.33121
 20
23.68749
 30
0.0
 10
3.33121
 20
23.68749
 30
0.0
 10
3.43281
 20
23.68749
 30
0.0
 10
3.53864
 20
23.73236
 30
0.0
 10
3.64871
 20
23.82169
 30
0.0
  0
SPLINE
  5
6E
330
1F
100
AcDbEntity
  8
Layer 1
100
AcDbSpline
210
0.0
220
0.0
230
1.0
 70
    11
 71
     3
 72
    20
 73
    16
 74
     0
 42
0.0000000001
 43
0.0000000001
 12
1.0
 22
0.0
 32
0.0
 13
1.0
 23
0.0
 33
0.0
 40
0.0
 40
0.0
 40
0.0
 40
0.0
 40
0.2
 40
0.2
 40
0.2
 40
0.2
 40
0.4
 40
0.4
 40
0.4
 40
0.4
 40
0.6
 40
0.6
 40
0.6
 40
0.6
 40
1.0
 40
1.0
 40
1.0
 40
1.0
 10
4.25619
 20
23.33443
 30
0.0
 10
4.25619
 20
23.33443
 30
0.0
 10
4.25619
 20
23.51731
 30
0.0
 10
4.25619
 20
23.51731
 30
0.0
 10
4.25619
 20
23.51731
 30
0.0
 10
4.25619
 20
23.51731
 30
0.0
 10
5.31283
 20
23.51731
 30
0.0
 10
5.31283
 20
23.51731
 30
0.0
 10
5.31283
 20
23.51731
 30
0.0
 10
5.31283
 20
23.51731
 30
0.0
 10
5.31283
 20
23.33443
 30
0.0
 10
5.31283
 20
23.33443
 30
0.0
 10
5.31283
 20
23.33443
 30
0.0
 10
5.31283
 20
23.33443
 30
0.0
 10
4.25619
 20
23.33443
 30
0.0
 10
4.25619
 20
23.33443
 30
0.0
  0
SPLINE
  5
6F
330
1F
100
AcDbEntity
  8
Layer 1
100
AcDbSpline
210
0.0
220
0.0
230
1.0
 70
    11
 71
     3
 72
    80
 73
    76
 74
     0
 42
0.0000000001
 43
0.0000000001
 12
1.0
 22
0.0
 32
0.0
 13
1.0
 23
0.0
 33
0.0
 40
0.0
 40
0.0
 40
0.0
 40
0.0
 40
0.05
 40
0.05
 40
0.05
 40
0.05
 40
0.1
 40
0.1
 40
0.1
 40
0.1
 40
0.15
 40
0.15
 40
0.15
 40
0.15
 40
0.2
 40
0.2
 40
0.2
 40
0.2
 40
0.25
 40
0.25
 40
0.25
 40
0.25
 40
0.3
 40
0.3
 40
0.3
 40
0.3
 40
0.35
 40
0.35
 40
0.35
 40
0.35
 40
0.4
 40
0.4
 40
0.4
 40
0.4
 40
0.45
 40
0.45
 40
0.45
 40
0.45
 40
0.5
 40
0.5
 40
0.5
 40
0.5
 40
0.55
 40
0.55
 40
0.55
 40
0.55
 40
0.6
 40
0.6
 40
0.6
 40
0.6
 40
0.65
 40
0.65
 40
0.65
 40
0.65
 40
0.7
 40
0.7
 40
0.7
 40
0.7
 40
0.75
 40
0.75
 40
0.75
 40
0.75
 40
0.8
 40
0.8
 40
0.8
 40
0.8
 40
0.85
 40
0.85
 40
0.85
 40
0.85
 40
0.9
 40
0.9
 40
0.9
 40
0.9
 40
1.0
 40
1.0
 40
1.0
 40
1.0
 10
6.35719
 20
23.68876
 30
0.0
 10
6.21072
 20
23.55414
 30
0.0
 10
6.06975
 20
23.48683
 30
0.0
 10
5.93428
 20
23.48683
 30
0.0
 10
5.93428
 20
23.48683
 30
0.0
 10
5.82295
 20
23.48683
 30
0.0
 10
5.73024
 20
23.52154
 30
0.0
 10
5.657
 20
23.59139
 30
0.0
 10
5.657
 20
23.59139
 30
0.0
 10
5.58334
 20
23.66124
 30
0.0
 10
5.54651
 20
23.7493
 30
0.0
 10
5.54651
 20
23.85555
 30
0.0
 10
5.54651
 20
23.85555
 30
0.0
 10
5.54651
 20
24.00245
 30
0.0
 10
5.60832
 20
24.11548
 30
0.0
 10
5.73193
 20
24.19422
 30
0.0
 10
5.73193
 20
24.19422
 30
0.0
 10
5.85554
 20
24.27296
 30
0.0
 10
6.03292
 20
24.31233
 30
0.0
 10
6.26406
 20
24.31233
 30
0.0
 10
6.26406
 20
24.31233
 30
0.0
 10
6.26406
 20
24.31233
 30
0.0
 10
6.32121
 20
24.31233
 30
0.0
 10
6.32121
 20
24.31233
 30
0.0
 10
6.32121
 20
24.31233
 30
0.0
 10
6.32121
 20
24.31233
 30
0.0
 10
6.32121
 20
24.47447
 30
0.0
 10
6.32121
 20
24.47447
 30
0.0
 10
6.32121
 20
24.47447
 30
0.0
 10
6.32121
 20
24.63068
 30
0.0
 10
6.23993
 20
24.70857
 30
0.0
 10
6.07695
 20
24.70857
 30
0.0
 10
6.07695
 20
24.70857
 30
0.0
 10
5.95079
 20
24.70857
 30
0.0
 10
5.81279
 20
24.66878
 30
0.0
 10
5.66335
 20
24.58919
 30
0.0
 10
5.66335
 20
24.58919
 30
0.0
 10
5.66335
 20
24.58919
 30
0.0
 10
5.66335
 20
24.78985
 30
0.0
 10
5.66335
 20
24.78985
 30
0.0
 10
5.66335
 20
24.78985
 30
0.0
 10
5.8276
 20
24.85758
 30
0.0
 10
5.98254
 20
24.89145
 30
0.0
 10
6.12775
 20
24.89145
 30
0.0
 10
6.12775
 20
24.89145
 30
0.0
 10
6.27718
 20
24.89145
 30
0.0
 10
6.38767
 20
24.85758
 30
0.0
 10
6.45837
 20
24.78943
 30
0.0
 10
6.45837
 20
24.78943
 30
0.0
 10
6.52949
 20
24.72127
 30
0.0
 10
6.56505
 20
24.61628
 30
0.0
 10
6.56505
 20
24.47447
 30
0.0
 10
6.56505
 20
24.47447
 30
0.0
 10
6.56505
 20
24.47447
 30
0.0
 10
6.56505
 20
23.86614
 30
0.0
 10
6.56505
 20
23.86614
 30
0.0
 10
6.56505
 20
23.86614
 30
0.0
 10
6.56505
 20
23.72686
 30
0.0
 10
6.60781
 20
23.65701
 30
0.0
 10
6.69374
 20
23.65701
 30
0.0
 10
6.69374
 20
23.65701
 30
0.0
 10
6.70433
 20
23.65701
 30
0.0
 10
6.71999
 20
23.6587
 30
0.0
 10
6.74073
 20
23.66209
 30
0.0
 10
6.74073
 20
23.66209
 30
0.0
 10
6.74073
 20
23.66209
 30
0.0
 10
6.75809
 20
23.52662
 30
0.0
 10
6.75809
 20
23.52662
 30
0.0
 10
6.75809
 20
23.52662
 30
0.0
 10
6.70263
 20
23.49995
 30
0.0
 10
6.64167
 20
23.48683
 30
0.0
 10
6.57479
 20
23.48683
 30
0.0
 10
6.57479
 20
23.48683
 30
0.0
 10
6.46091
 20
23.48683
 30
0.0
 10
6.38852
 20
23.55414
 30
0.0
 10
6.35719
 20
23.68876
 30
0.0
  0
SPLINE
  5
70
330
1F
100
AcDbEntity
  8
Layer 1
100
AcDbSpline
210
0.0
220
0.0
230
1.0
 70
    11
 71
     3
 72
    32
 73
    28
 74
     0
 42
0.0000000001
 43
0.0000000001
 12
1.0
 22
0.0
 32
0.0
 13
1.0
 23
0.0
 33
0.0
 40
0.0
 40
0.0
 40
0.0
 40
0.0
 40
0.125
 40
0.125
 40
0.125
 40
0.125
 40
0.25
 40
0.25
 40
0.25
 40
0.25
 40
0.375
 40
0.375
 40
0.375
 40
0.375
 40
0.5
 40
0.5
 40
0.5
 40
0.5
 40
0.625
 40
0.625
 40
0.625
 40
0.625
 40
0.75
 40
0.75
 40
0.75
 40
0.75
 40
1.0
 40
1.0
 40
1.0
 40
1.0
 10
6.32121
 20
23.82169
 30
0.0
 10
6.32121
 20
23.82169
 30
0.0
 10
6.32121
 20
24.16755
 30
0.0
 10
6.32121
 20
24.16755
 30
0.0
 10
6.32121
 20
24.16755
 30
0.0
 10
6.32121
 20
24.16755
 30
0.0
 10
6.24289
 20
24.17009
 30
0.0
 10
6.24289
 20
24.17009
 30
0.0
 10
6.24289
 20
24.17009
 30
0.0
 10
6.10743
 20
24.17009
 30
0.0
 10
5.99821
 20
24.14511
 30
0.0
 10
5.91481
 20
24.09516
 30
0.0
 10
5.91481
 20
24.09516
 30
0.0
 10
5.83184
 20
24.04478
 30
0.0
 10
5.79035
 20
23.97832
 30
0.0
 10
5.79035
 20
23.89535
 30
0.0
 10
5.79035
 20
23.89535
 30
0.0
 10
5.79035
 20
23.83735
 30
0.0
 10
5.81109
 20
23.78824
 30
0.0
 10
5.85216
 20
23.74803
 30
0.0
 10
5.85216
 20
23.74803
 30
0.0
 10
5.89364
 20
23.70781
 30
0.0
 10
5.94402
 20
23.68749
 30
0.0
 10
6.00371
 20
23.68749
 30
0.0
 10
6.00371
 20
23.68749
 30
0.0
 10
6.10531
 20
23.68749
 30
0.0
 10
6.21114
 20
23.73236
 30
0.0
 10
6.32121
 20
23.82169
 30
0.0
  0
SPLINE
  5
71
330
1F
100
AcDbEntity
  8
Layer 1
100
AcDbSpline
210
0.0
220
0.0
230
1.0
 70
    11
 71
     3
 72
    48
 73
    44
 74
     0
 42
0.0000000001
 43
0.0000000001
 12
1.0
 22
0.0
 32
0.0
 13
1.0
 23
0.0
 33
0.0
 40
0.0
 40
0.0
 40
0.0
 40
0.0
 40
0.0833333333333333
 40
0.0833333333333333
 40
0.0833333333333333
 40
0.0833333333333333
 40
0.1666666666666667
 40
0.1666666666666667
 40
0.1666666666666667
 40
0.1666666666666667
 40
0.25
 40
0.25
 40
0.25
 40
0.25
 40
0.3333333333333333
 40
0.3333333333333333
 40
0.3333333333333333
 40
0.3333333333333333
 40
0.4166666666666667
 40
0.4166666666666667
 40
0.4166666666666667
 40
0.4166666666666667
 40
0.5
 40
0.5
 40
0.5
 40
0.5
 40
0.5833333333333334
 40
0.5833333333333334
 40
0.5833333333333334
 40
0.5833333333333334
 40
0.6666666666666666
 40
0.6666666666666666
 40
0.6666666666666666
 40
0.6666666666666666
 40
0.75
 40
0.75
 40
0.75
 40
0.75
 40
0.8333333333333334
 40
0.8333333333333334
 40
0.8333333333333334
 40
0.8333333333333334
 40
1.0
 40
1.0
 40
1.0
 40
1.0
 10
7.93199
 20
23.02709
 30
0.0
 10
7.93199
 20
23.02709
 30
0.0
 10
7.93199
 20
23.77004
 30
0.0
 10
7.93199
 20
23.77004
 30
0.0
 10
7.93199
 20
23.77004
 30
0.0
 10
7.83251
 20
23.58123
 30
0.0
 10
7.68265
 20
23.48683
 30
0.0
 10
7.48241
 20
23.48683
 30
0.0
 10
7.48241
 20
23.48683
 30
0.0
 10
7.31985
 20
23.48683
 30
0.0
 10
7.192
 20
23.54567
 30
0.0
 10
7.09887
 20
23.66378
 30
0.0
 10
7.09887
 20
23.66378
 30
0.0
 10
7.00574
 20
23.78189
 30
0.0
 10
6.95917
 20
23.94318
 30
0.0
 10
6.95917
 20
24.14765
 30
0.0
 10
6.95917
 20
24.14765
 30
0.0
 10
6.95917
 20
24.37117
 30
0.0
 10
7.01209
 20
24.55109
 30
0.0
 10
7.1175
 20
24.6874
 30
0.0
 10
7.1175
 20
24.6874
 30
0.0
 10
7.22333
 20
24.82329
 30
0.0
 10
7.36218
 20
24.89145
 30
0.0
 10
7.53448
 20
24.89145
 30
0.0
 10
7.53448
 20
24.89145
 30
0.0
 10
7.69408
 20
24.89145
 30
0.0
 10
7.827
 20
24.83049
 30
0.0
 10
7.93199
 20
24.70815
 30
0.0
 10
7.93199
 20
24.70815
 30
0.0
 10
7.93199
 20
24.70815
 30
0.0
 10
7.93199
 20
24.86351
 30
0.0
 10
7.93199
 20
24.86351
 30
0.0
 10
7.93199
 20
24.86351
 30
0.0
 10
7.93199
 20
24.86351
 30
0.0
 10
8.17583
 20
24.86351
 30
0.0
 10
8.17583
 20
24.86351
 30
0.0
 10
8.17583
 20
24.86351
 30
0.0
 10
8.17583
 20
24.86351
 30
0.0
 10
8.17583
 20
23.02709
 30
0.0
 10
8.17583
 20
23.02709
 30
0.0
 10
8.17583
 20
23.02709
 30
0.0
 10
8.17583
 20
23.02709
 30
0.0
 10
7.93199
 20
23.02709
 30
0.0
 10
7.93199
 20
23.02709
 30
0.0
  0
SPLINE
  5
72
330
1F
100
AcDbEntity
  8
Layer 1
100
AcDbSpline
210
0.0
220
0.0
230
1.0
 70
    11
 71
     3
 72
    28
 73
    24
 74
     0
 42
0.0000000001
 43
0.0000000001
 12
1.0
 22
0.0
 32
0.0
 13
1.0
 23
0.0
 33
0.0
 40
0.0
 40
0.0
 40
0.0
 40
0.0
 40
0.1428571428571428
 40
0.1428571428571428
 40
0.1428571428571428
 40
0.1428571428571428
 40
0.2857142857142857
 40
0.2857142857142857
 40
0.2857142857142857
 40
0.2857142857142857
 40
0.4285714285714285
 40
0.4285714285714285
 40
0.4285714285714285
 40
0.4285714285714285
 40
0.5714285714285714
 40
0.5714285714285714
 40
0.5714285714285714
 40
0.5714285714285714
 40
0.7142857142857143
 40
0.7142857142857143
 40
0.7142857142857143
 40
0.7142857142857143
 40
1.0
 40
1.0
 40
1.0
 40
1.0
 10
7.93199
 20
24.54135
 30
0.0
 10
7.80541
 20
24.65269
 30
0.0
 10
7.68561
 20
24.70857
 30
0.0
 10
7.57216
 20
24.70857
 30
0.0
 10
7.57216
 20
24.70857
 30
0.0
 10
7.4604
 20
24.70857
 30
0.0
 10
7.37404
 20
24.662
 30
0.0
 10
7.31265
 20
24.56845
 30
0.0
 10
7.31265
 20
24.56845
 30
0.0
 10
7.25127
 20
24.47531
 30
0.0
 10
7.22079
 20
24.34323
 30
0.0
 10
7.22079
 20
24.17221
 30
0.0
 10
7.22079
 20
24.17221
 30
0.0
 10
7.22079
 20
23.85767
 30
0.0
 10
7.32493
 20
23.70019
 30
0.0
 10
7.53363
 20
23.70019
 30
0.0
 10
7.53363
 20
23.70019
 30
0.0
 10
7.6691
 20
23.70019
 30
0.0
 10
7.80203
 20
23.77427
 30
0.0
 10
7.93199
 20
23.92202
 30
0.0
 10
7.93199
 20
23.92202
 30
0.0
 10
7.93199
 20
23.92202
 30
0.0
 10
7.93199
 20
24.54135
 30
0.0
 10
7.93199
 20
24.54135
 30
0.0
  0
SPLINE
  5
73
330
1F
100
AcDbEntity
  8
Layer 1
100
AcDbSpline
210
0.0
220
0.0
230
1.0
 70
    11
 71
     3
 72
    60
 73
    56
 74
     0
 42
0.0000000001
 43
0.0000000001
 12
1.0
 22
0.0
 32
0.0
 13
1.0
 23
0.0
 33
0.0
 40
0.0
 40
0.0
 40
0.0
 40
0.0
 40
0.0666666666666667
 40
0.0666666666666667
 40
0.0666666666666667
 40
0.0666666666666667
 40
0.1333333333333333
 40
0.1333333333333333
 40
0.1333333333333333
 40
0.1333333333333333
 40
0.2
 40
0.2
 40
0.2
 40
0.2
 40
0.2666666666666667
 40
0.2666666666666667
 40
0.2666666666666667
 40
0.2666666666666667
 40
0.3333333333333333
 40
0.3333333333333333
 40
0.3333333333333333
 40
0.3333333333333333
 40
0.4
 40
0.4
 40
0.4
 40
0.4
 40
0.4666666666666667
 40
0.4666666666666667
 40
0.4666666666666667
 40
0.4666666666666667
 40
0.5333333333333333
 40
0.5333333333333333
 40
0.5333333333333333
 40
0.5333333333333333
 40
0.6
 40
0.6
 40
0.6
 40
0.6
 40
0.6666666666666666
 40
0.6666666666666666
 40
0.6666666666666666
 40
0.6666666666666666
 40
0.7333333333333333
 40
0.7333333333333333
 40
0.7333333333333333
 40
0.7333333333333333
 40
0.8
 40
0.8
 40
0.8
 40
0.8
 40
0.8666666666666667
 40
0.8666666666666667
 40
0.8666666666666667
 40
0.8666666666666667
 40
1.0
 40
1.0
 40
1.0
 40
1.0
 10
9.50764
 20
23.51731
 30
0.0
 10
9.50764
 20
23.51731
 30
0.0
 10
9.50764
 20
23.77046
 30
0.0
 10
9.50764
 20
23.77046
 30
0.0
 10
9.50764
 20
23.77046
 30
0.0
 10
9.37768
 20
23.58123
 30
0.0
 10
9.21977
 20
23.48683
 30
0.0
 10
9.03435
 20
23.48683
 30
0.0
 10
9.03435
 20
23.48683
 30
0.0
 10
8.91667
 20
23.48683
 30
0.0
 10
8.82311
 20
23.52366
 30
0.0
 10
8.75368
 20
23.59774
 30
0.0
 10
8.75368
 20
23.59774
 30
0.0
 10
8.68383
 20
23.67183
 30
0.0
 10
8.64912
 20
23.77131
 30
0.0
 10
8.64912
 20
23.89704
 30
0.0
 10
8.64912
 20
23.89704
 30
0.0
 10
8.64912
 20
23.89704
 30
0.0
 10
8.64912
 20
24.86351
 30
0.0
 10
8.64912
 20
24.86351
 30
0.0
 10
8.64912
 20
24.86351
 30
0.0
 10
8.64912
 20
24.86351
 30
0.0
 10
8.89296
 20
24.86351
 30
0.0
 10
8.89296
 20
24.86351
 30
0.0
 10
8.89296
 20
24.86351
 30
0.0
 10
8.89296
 20
24.86351
 30
0.0
 10
8.89296
 20
23.97663
 30
0.0
 10
8.89296
 20
23.97663
 30
0.0
 10
8.89296
 20
23.97663
 30
0.0
 10
8.89296
 20
23.87545
 30
0.0
 10
8.90778
 20
23.80391
 30
0.0
 10
8.93699
 20
23.76157
 30
0.0
 10
8.93699
 20
23.76157
 30
0.0
 10
8.96662
 20
23.71882
 30
0.0
 10
9.01573
 20
23.69765
 30
0.0
 10
9.08473
 20
23.69765
 30
0.0
 10
9.08473
 20
23.69765
 30
0.0
 10
9.23374
 20
23.69765
 30
0.0
 10
9.37514
 20
23.79544
 30
0.0
 10
9.50764
 20
23.99144
 30
0.0
 10
9.50764
 20
23.99144
 30
0.0
 10
9.50764
 20
23.99144
 30
0.0
 10
9.50764
 20
24.86351
 30
0.0
 10
9.50764
 20
24.86351
 30
0.0
 10
9.50764
 20
24.86351
 30
0.0
 10
9.50764
 20
24.86351
 30
0.0
 10
9.75148
 20
24.86351
 30
0.0
 10
9.75148
 20
24.86351
 30
0.0
 10
9.75148
 20
24.86351
 30
0.0
 10
9.75148
 20
24.86351
 30
0.0
 10
9.75148
 20
23.51731
 30
0.0
 10
9.75148
 20
23.51731
 30
0.0
 10
9.75148
 20
23.51731
 30
0.0
 10
9.75148
 20
23.51731
 30
0.0
 10
9.50764
 20
23.51731
 30
0.0
 10
9.50764
 20
23.51731
 30
0.0
  0
SPLINE
  5
74
330
1F
100
AcDbEntity
  8
Layer 1
100
AcDbSpline
210
0.0
220
0.0
230
1.0
 70
    11
 71
     3
 72
    80
 73
    76
 74
     0
 42
0.0000000001
 43
0.0000000001
 12
1.0
 22
0.0
 32
0.0
 13
1.0
 23
0.0
 33
0.0
 40
0.0
 40
0.0
 40
0.0
 40
0.0
 40
0.05
 40
0.05
 40
0.05
 40
0.05
 40
0.1
 40
0.1
 40
0.1
 40
0.1
 40
0.15
 40
0.15
 40
0.15
 40
0.15
 40
0.2
 40
0.2
 40
0.2
 40
0.2
 40
0.25
 40
0.25
 40
0.25
 40
0.25
 40
0.3
 40
0.3
 40
0.3
 40
0.3
 40
0.35
 40
0.35
 40
0.35
 40
0.35
 40
0.4
 40
0.4
 40
0.4
 40
0.4
 40
0.45
 40
0.45
 40
0.45
 40
0.45
 40
0.5
 40
0.5
 40
0.5
 40
0.5
 40
0.55
 40
0.55
 40
0.55
 40
0.55
 40
0.6
 40
0.6
 40
0.6
 40
0.6
 40
0.65
 40
0.65
 40
0.65
 40
0.65
 40
0.7
 40
0.7
 40
0.7
 40
0.7
 40
0.75
 40
0.75
 40
0.75
 40
0.75
 40
0.8
 40
0.8
 40
0.8
 40
0.8
 40
0.85
 40
0.85
 40
0.85
 40
0.85
 40
0.9
 40
0.9
 40
0.9
 40
0.9
 40
1.0
 40
1.0
 40
1.0
 40
1.0
 10
10.93469
 20
23.68876
 30
0.0
 10
10.78822
 20
23.55414
 30
0.0
 10
10.64725
 20
23.48683
 30
0.0
 10
10.51178
 20
23.48683
 30
0.0
 10
10.51178
 20
23.48683
 30
0.0
 10
10.40045
 20
23.48683
 30
0.0
 10
10.30774
 20
23.52154
 30
0.0
 10
10.2345
 20
23.59139
 30
0.0
 10
10.2345
 20
23.59139
 30
0.0
 10
10.16084
 20
23.66124
 30
0.0
 10
10.12401
 20
23.7493
 30
0.0
 10
10.12401
 20
23.85555
 30
0.0
 10
10.12401
 20
23.85555
 30
0.0
 10
10.12401
 20
24.00245
 30
0.0
 10
10.18582
 20
24.11548
 30
0.0
 10
10.30943
 20
24.19422
 30
0.0
 10
10.30943
 20
24.19422
 30
0.0
 10
10.43304
 20
24.27296
 30
0.0
 10
10.61042
 20
24.31233
 30
0.0
 10
10.84156
 20
24.31233
 30
0.0
 10
10.84156
 20
24.31233
 30
0.0
 10
10.84156
 20
24.31233
 30
0.0
 10
10.89871
 20
24.31233
 30
0.0
 10
10.89871
 20
24.31233
 30
0.0
 10
10.89871
 20
24.31233
 30
0.0
 10
10.89871
 20
24.31233
 30
0.0
 10
10.89871
 20
24.47447
 30
0.0
 10
10.89871
 20
24.47447
 30
0.0
 10
10.89871
 20
24.47447
 30
0.0
 10
10.89871
 20
24.63068
 30
0.0
 10
10.81743
 20
24.70857
 30
0.0
 10
10.65445
 20
24.70857
 30
0.0
 10
10.65445
 20
24.70857
 30
0.0
 10
10.52829
 20
24.70857
 30
0.0
 10
10.39029
 20
24.66878
 30
0.0
 10
10.24085
 20
24.58919
 30
0.0
 10
10.24085
 20
24.58919
 30
0.0
 10
10.24085
 20
24.58919
 30
0.0
 10
10.24085
 20
24.78985
 30
0.0
 10
10.24085
 20
24.78985
 30
0.0
 10
10.24085
 20
24.78985
 30
0.0
 10
10.4051
 20
24.85758
 30
0.0
 10
10.56004
 20
24.89145
 30
0.0
 10
10.70525
 20
24.89145
 30
0.0
 10
10.70525
 20
24.89145
 30
0.0
 10
10.85468
 20
24.89145
 30
0.0
 10
10.96517
 20
24.85758
 30
0.0
 10
11.03587
 20
24.78943
 30
0.0
 10
11.03587
 20
24.78943
 30
0.0
 10
11.10699
 20
24.72127
 30
0.0
 10
11.14255
 20
24.61628
 30
0.0
 10
11.14255
 20
24.47447
 30
0.0
 10
11.14255
 20
24.47447
 30
0.0
 10
11.14255
 20
24.47447
 30
0.0
 10
11.14255
 20
23.86614
 30
0.0
 10
11.14255
 20
23.86614
 30
0.0
 10
11.14255
 20
23.86614
 30
0.0
 10
11.14255
 20
23.72686
 30
0.0
 10
11.18531
 20
23.65701
 30
0.0
 10
11.27124
 20
23.65701
 30
0.0
 10
11.27124
 20
23.65701
 30
0.0
 10
11.28183
 20
23.65701
 30
0.0
 10
11.29749
 20
23.6587
 30
0.0
 10
11.31823
 20
23.66209
 30
0.0
 10
11.31823
 20
23.66209
 30
0.0
 10
11.31823
 20
23.66209
 30
0.0
 10
11.33559
 20
23.52662
 30
0.0
 10
11.33559
 20
23.52662
 30
0.0
 10
11.33559
 20
23.52662
 30
0.0
 10
11.28013
 20
23.49995
 30
0.0
 10
11.21917
 20
23.48683
 30
0.0
 10
11.15229
 20
23.48683
 30
0.0
 10
11.15229
 20
23.48683
 30
0.0
 10
11.03841
 20
23.48683
 30
0.0
 10
10.96602
 20
23.55414
 30
0.0
 10
10.93469
 20
23.68876
 30
0.0
  0
SPLINE
  5
75
330
1F
100
AcDbEntity
  8
Layer 1
100
AcDbSpline
210
0.0
220
0.0
230
1.0
 70
    11
 71
     3
 72
    32
 73
    28
 74
     0
 42
0.0000000001
 43
0.0000000001
 12
1.0
 22
0.0
 32
0.0
 13
1.0
 23
0.0
 33
0.0
 40
0.0
 40
0.0
 40
0.0
 40
0.0
 40
0.125
 40
0.125
 40
0.125
 40
0.125
 40
0.25
 40
0.25
 40
0.25
 40
0.25
 40
0.375
 40
0.375
 40
0.375
 40
0.375
 40
0.5
 40
0.5
 40
0.5
 40
0.5
 40
0.625
 40
0.625
 40
0.625
 40
0.625
 40
0.75
 40
0.75
 40
0.75
 40
0.75
 40
1.0
 40
1.0
 40
1.0
 40
1.0
 10
10.89871
 20
23.82169
 30
0.0
 10
10.89871
 20
23.82169
 30
0.0
 10
10.89871
 20
24.16755
 30
0.0
 10
10.89871
 20
24.16755
 30
0.0
 10
10.89871
 20
24.16755
 30
0.0
 10
10.89871
 20
24.16755
 30
0.0
 10
10.82039
 20
24.17009
 30
0.0
 10
10.82039
 20
24.17009
 30
0.0
 10
10.82039
 20
24.17009
 30
0.0
 10
10.68493
 20
24.17009
 30
0.0
 10
10.57571
 20
24.14511
 30
0.0
 10
10.49231
 20
24.09516
 30
0.0
 10
10.49231
 20
24.09516
 30
0.0
 10
10.40934
 20
24.04478
 30
0.0
 10
10.36785
 20
23.97832
 30
0.0
 10
10.36785
 20
23.89535
 30
0.0
 10
10.36785
 20
23.89535
 30
0.0
 10
10.36785
 20
23.83735
 30
0.0
 10
10.38859
 20
23.78824
 30
0.0
 10
10.42966
 20
23.74803
 30
0.0
 10
10.42966
 20
23.74803
 30
0.0
 10
10.47114
 20
23.70781
 30
0.0
 10
10.52152
 20
23.68749
 30
0.0
 10
10.58121
 20
23.68749
 30
0.0
 10
10.58121
 20
23.68749
 30
0.0
 10
10.68281
 20
23.68749
 30
0.0
 10
10.78864
 20
23.73236
 30
0.0
 10
10.89871
 20
23.82169
 30
0.0
  0
SPLINE
  5
76
330
1F
100
AcDbEntity
  8
Layer 1
100
AcDbSpline
210
0.0
220
0.0
230
1.0
 70
    11
 71
     3
 72
    20
 73
    16
 74
     0
 42
0.0000000001
 43
0.0000000001
 12
1.0
 22
0.0
 32
0.0
 13
1.0
 23
0.0
 33
0.0
 40
0.0
 40
0.0
 40
0.0
 40
0.0
 40
0.2
 40
0.2
 40
0.2
 40
0.2
 40
0.4
 40
0.4
 40
0.4
 40
0.4
 40
0.6
 40
0.6
 40
0.6
 40
0.6
 40
1.0
 40
1.0
 40
1.0
 40
1.0
 10
11.50619
 20
23.33443
 30
0.0
 10
11.50619
 20
23.33443
 30
0.0
 10
11.50619
 20
23.51731
 30
0.0
 10
11.50619
 20
23.51731
 30
0.0
 10
11.50619
 20
23.51731
 30
0.0
 10
11.50619
 20
23.51731
 30
0.0
 10
12.56283
 20
23.51731
 30
0.0
 10
12.56283
 20
23.51731
 30
0.0
 10
12.56283
 20
23.51731
 30
0.0
 10
12.56283
 20
23.51731
 30
0.0
 10
12.56283
 20
23.33443
 30
0.0
 10
12.56283
 20
23.33443
 30
0.0
 10
12.56283
 20
23.33443
 30
0.0
 10
12.56283
 20
23.33443
 30
0.0
 10
11.50619
 20
23.33443
 30
0.0
 10
11.50619
 20
23.33443
 30
0.0
  0
SPLINE
  5
77
330
1F
100
AcDbEntity
  8
Layer 1
100
AcDbSpline
210
0.0
220
0.0
230
1.0
 70
    11
 71
     3
 72
    44
 73
    40
 74
     0
 42
0.0000000001
 43
0.0000000001
 12
1.0
 22
0.0
 32
0.0
 13
1.0
 23
0.0
 33
0.0
 40
0.0
 40
0.0
 40
0.0
 40
0.0
 40
0.0909090909090909
 40
0.0909090909090909
 40
0.0909090909090909
 40
0.0909090909090909
 40
0.1818181818181818
 40
0.1818181818181818
 40
0.1818181818181818
 40
0.1818181818181818
 40
0.2727272727272727
 40
0.2727272727272727
 40
0.2727272727272727
 40
0.2727272727272727
 40
0.3636363636363636
 40
0.3636363636363636
 40
0.3636363636363636
 40
0.3636363636363636
 40
0.4545454545454545
 40
0.4545454545454545
 40
0.4545454545454545
 40
0.4545454545454545
 40
0.5454545454545454
 40
0.5454545454545454
 40
0.5454545454545454
 40
0.5454545454545454
 40
0.6363636363636364
 40
0.6363636363636364
 40
0.6363636363636364
 40
0.6363636363636364
 40
0.7272727272727273
 40
0.7272727272727273
 40
0.7272727272727273
 40
0.7272727272727273
 40
0.8181818181818182
 40
0.8181818181818182
 40
0.8181818181818182
 40
0.8181818181818182
 40
1.0
 40
1.0
 40
1.0
 40
1.0
 10
12.91335
 20
23.51731
 30
0.0
 10
12.91335
 20
23.51731
 30
0.0
 10
12.91335
 20
24.86351
 30
0.0
 10
12.91335
 20
24.86351
 30
0.0
 10
12.91335
 20
24.86351
 30
0.0
 10
12.91335
 20
24.86351
 30
0.0
 10
13.15719
 20
24.86351
 30
0.0
 10
13.15719
 20
24.86351
 30
0.0
 10
13.15719
 20
24.86351
 30
0.0
 10
13.15719
 20
24.86351
 30
0.0
 10
13.15719
 20
24.60909
 30
0.0
 10
13.15719
 20
24.60909
 30
0.0
 10
13.15719
 20
24.60909
 30
0.0
 10
13.25413
 20
24.79747
 30
0.0
 10
13.39468
 20
24.89145
 30
0.0
 10
13.57925
 20
24.89145
 30
0.0
 10
13.57925
 20
24.89145
 30
0.0
 10
13.60423
 20
24.89145
 30
0.0
 10
13.63048
 20
24.88933
 30
0.0
 10
13.65757
 20
24.8851
 30
0.0
 10
13.65757
 20
24.8851
 30
0.0
 10
13.65757
 20
24.8851
 30
0.0
 10
13.65757
 20
24.65692
 30
0.0
 10
13.65757
 20
24.65692
 30
0.0
 10
13.65757
 20
24.65692
 30
0.0
 10
13.61524
 20
24.67089
 30
0.0
 10
13.57798
 20
24.67809
 30
0.0
 10
13.54581
 20
24.67809
 30
0.0
 10
13.54581
 20
24.67809
 30
0.0
 10
13.39087
 20
24.67809
 30
0.0
 10
13.26133
 20
24.58665
 30
0.0
 10
13.15719
 20
24.40335
 30
0.0
 10
13.15719
 20
24.40335
 30
0.0
 10
13.15719
 20
24.40335
 30
0.0
 10
13.15719
 20
23.51731
 30
0.0
 10
13.15719
 20
23.51731
 30
0.0
 10
13.15719
 20
23.51731
 30
0.0
 10
13.15719
 20
23.51731
 30
0.0
 10
12.91335
 20
23.51731
 30
0.0
 10
12.91335
 20
23.51731
 30
0.0
  0
SPLINE
  5
78
330
1F
100
AcDbEntity
  8
Layer 1
100
AcDbSpline
210
0.0
220
0.0
230
1.0
 70
    11
 71
     3
 72
    52
 73
    48
 74
     0
 42
0.0000000001
 43
0.0000000001
 12
1.0
 22
0.0
 32
0.0
 13
1.0
 23
0.0
 33
0.0
 40
0.0
 40
0.0
 40
0.0
 40
0.0
 40
0.0769230769230769
 40
0.0769230769230769
 40
0.0769230769230769
 40
0.0769230769230769
 40
0.1538461538461539
 40
0.1538461538461539
 40
0.1538461538461539
 40
0.1538461538461539
 40
0.2307692307692308
 40
0.2307692307692308
 40
0.2307692307692308
 40
0.2307692307692308
 40
0.3076923076923077
 40
0.3076923076923077
 40
0.3076923076923077
 40
0.3076923076923077
 40
0.3846153846153846
 40
0.3846153846153846
 40
0.3846153846153846
 40
0.3846153846153846
 40
0.4615384615384616
 40
0.4615384615384616
 40
0.4615384615384616
 40
0.4615384615384616
 40
0.5384615384615384
 40
0.5384615384615384
 40
0.5384615384615384
 40
0.5384615384615384
 40
0.6153846153846154
 40
0.6153846153846154
 40
0.6153846153846154
 40
0.6153846153846154
 40
0.6923076923076923
 40
0.6923076923076923
 40
0.6923076923076923
 40
0.6923076923076923
 40
0.7692307692307693
 40
0.7692307692307693
 40
0.7692307692307693
 40
0.7692307692307693
 40
0.8461538461538461
 40
0.8461538461538461
 40
0.8461538461538461
 40
0.8461538461538461
 40
1.0
 40
1.0
 40
1.0
 40
1.0
 10
14.94069
 20
23.56049
 30
0.0
 10
14.77686
 20
23.51138
 30
0.0
 10
14.63674
 20
23.48683
 30
0.0
 10
14.5199
 20
23.48683
 30
0.0
 10
14.5199
 20
23.48683
 30
0.0
 10
14.32051
 20
23.48683
 30
0.0
 10
14.15837
 20
23.55287
 30
0.0
 10
14.03349
 20
23.68453
 30
0.0
 10
14.03349
 20
23.68453
 30
0.0
 10
13.9086
 20
23.81618
 30
0.0
 10
13.84595
 20
23.98679
 30
0.0
 10
13.84595
 20
24.19676
 30
0.0
 10
13.84595
 20
24.19676
 30
0.0
 10
13.84595
 20
24.40038
 30
0.0
 10
13.90098
 20
24.5676
 30
0.0
 10
14.01147
 20
24.69841
 30
0.0
 10
14.01147
 20
24.69841
 30
0.0
 10
14.12196
 20
24.8288
 30
0.0
 10
14.26336
 20
24.89399
 30
0.0
 10
14.43565
 20
24.89399
 30
0.0
 10
14.43565
 20
24.89399
 30
0.0
 10
14.59864
 20
24.89399
 30
0.0
 10
14.72479
 20
24.83599
 30
0.0
 10
14.81369
 20
24.72
 30
0.0
 10
14.81369
 20
24.72
 30
0.0
 10
14.90259
 20
24.60401
 30
0.0
 10
14.94704
 20
24.43975
 30
0.0
 10
14.94704
 20
24.22682
 30
0.0
 10
14.94704
 20
24.22682
 30
0.0
 10
14.94704
 20
24.22682
 30
0.0
 10
14.94577
 20
24.15231
 30
0.0
 10
14.94577
 20
24.15231
 30
0.0
 10
14.94577
 20
24.15231
 30
0.0
 10
14.94577
 20
24.15231
 30
0.0
 10
14.09487
 20
24.15231
 30
0.0
 10
14.09487
 20
24.15231
 30
0.0
 10
14.09487
 20
24.15231
 30
0.0
 10
14.13043
 20
23.83058
 30
0.0
 10
14.28749
 20
23.66971
 30
0.0
 10
14.56562
 20
23.66971
 30
0.0
 10
14.56562
 20
23.66971
 30
0.0
 10
14.66764
 20
23.66971
 30
0.0
 10
14.79252
 20
23.6985
 30
0.0
 10
14.94069
 20
23.75607
 30
0.0
 10
14.94069
 20
23.75607
 30
0.0
 10
14.94069
 20
23.75607
 30
0.0
 10
14.94069
 20
23.56049
 30
0.0
 10
14.94069
 20
23.56049
 30
0.0
  0
SPLINE
  5
79
330
1F
100
AcDbEntity
  8
Layer 1
100
AcDbSpline
210
0.0
220
0.0
230
1.0
 70
    11
 71
     3
 72
    16
 73
    12
 74
     0
 42
0.0000000001
 43
0.0000000001
 12
1.0
 22
0.0
 32
0.0
 13
1.0
 23
0.0
 33
0.0
 40
0.0
 40
0.0
 40
0.0
 40
0.0
 40
0.25
 40
0.25
 40
0.25
 40
0.25
 40
0.5
 40
0.5
 40
0.5
 40
0.5
 40
1.0
 40
1.0
 40
1.0
 40
1.0
 10
14.10757
 20
24.33519
 30
0.0
 10
14.10757
 20
24.33519
 30
0.0
 10
14.70193
 20
24.33519
 30
0.0
 10
14.70193
 20
24.33519
 30
0.0
 10
14.70193
 20
24.33519
 30
0.0
 10
14.70193
 20
24.5858
 30
0.0
 10
14.60837
 20
24.71111
 30
0.0
 10
14.42168
 20
24.71111
 30
0.0
 10
14.42168
 20
24.71111
 30
0.0
 10
14.23372
 20
24.71111
 30
0.0
 10
14.12916
 20
24.5858
 30
0.0
 10
14.10757
 20
24.33519
 30
0.0
  0
SPLINE
  5
7A
330
1F
100
AcDbEntity
  8
Layer 1
100
AcDbSpline
210
0.0
220
0.0
230
1.0
 70
    11
 71
     3
 72
    52
 73
    48
 74
     0
 42
0.0000000001
 43
0.0000000001
 12
1.0
 22
0.0
 32
0.0
 13
1.0
 23
0.0
 33
0.0
 40
0.0
 40
0.0
 40
0.0
 40
0.0
 40
0.0769230769230769
 40
0.0769230769230769
 40
0.0769230769230769
 40
0.0769230769230769
 40
0.1538461538461539
 40
0.1538461538461539
 40
0.1538461538461539
 40
0.1538461538461539
 40
0.2307692307692308
 40
0.2307692307692308
 40
0.2307692307692308
 40
0.2307692307692308
 40
0.3076923076923077
 40
0.3076923076923077
 40
0.3076923076923077
 40
0.3076923076923077
 40
0.3846153846153846
 40
0.3846153846153846
 40
0.3846153846153846
 40
0.3846153846153846
 40
0.4615384615384616
 40
0.4615384615384616
 40
0.4615384615384616
 40
0.4615384615384616
 40
0.5384615384615384
 40
0.5384615384615384
 40
0.5384615384615384
 40
0.5384615384615384
 40
0.6153846153846154
 40
0.6153846153846154
 40
0.6153846153846154
 40
0.6153846153846154
 40
0.6923076923076923
 40
0.6923076923076923
 40
0.6923076923076923
 40
0.6923076923076923
 40
0.7692307692307693
 40
0.7692307692307693
 40
0.7692307692307693
 40
0.7692307692307693
 40
0.8461538461538461
 40
0.8461538461538461
 40
0.8461538461538461
 40
0.8461538461538461
 40
1.0
 40
1.0
 40
1.0
 40
1.0
 10
16.35589
 20
23.56049
 30
0.0
 10
16.19206
 20
23.51138
 30
0.0
 10
16.05194
 20
23.48683
 30
0.0
 10
15.9351
 20
23.48683
 30
0.0
 10
15.9351
 20
23.48683
 30
0.0
 10
15.73571
 20
23.48683
 30
0.0
 10
15.57357
 20
23.55287
 30
0.0
 10
15.44869
 20
23.68453
 30
0.0
 10
15.44869
 20
23.68453
 30
0.0
 10
15.3238
 20
23.81618
 30
0.0
 10
15.26115
 20
23.98679
 30
0.0
 10
15.26115
 20
24.19676
 30
0.0
 10
15.26115
 20
24.19676
 30
0.0
 10
15.26115
 20
24.40038
 30
0.0
 10
15.31618
 20
24.5676
 30
0.0
 10
15.42667
 20
24.69841
 30
0.0
 10
15.42667
 20
24.69841
 30
0.0
 10
15.53716
 20
24.8288
 30
0.0
 10
15.67856
 20
24.89399
 30
0.0
 10
15.85085
 20
24.89399
 30
0.0
 10
15.85085
 20
24.89399
 30
0.0
 10
16.01384
 20
24.89399
 30
0.0
 10
16.13999
 20
24.83599
 30
0.0
 10
16.22889
 20
24.72
 30
0.0
 10
16.22889
 20
24.72
 30
0.0
 10
16.31779
 20
24.60401
 30
0.0
 10
16.36224
 20
24.43975
 30
0.0
 10
16.36224
 20
24.22682
 30
0.0
 10
16.36224
 20
24.22682
 30
0.0
 10
16.36224
 20
24.22682
 30
0.0
 10
16.36097
 20
24.15231
 30
0.0
 10
16.36097
 20
24.15231
 30
0.0
 10
16.36097
 20
24.15231
 30
0.0
 10
16.36097
 20
24.15231
 30
0.0
 10
15.51007
 20
24.15231
 30
0.0
 10
15.51007
 20
24.15231
 30
0.0
 10
15.51007
 20
24.15231
 30
0.0
 10
15.54563
 20
23.83058
 30
0.0
 10
15.70269
 20
23.66971
 30
0.0
 10
15.98082
 20
23.66971
 30
0.0
 10
15.98082
 20
23.66971
 30
0.0
 10
16.08284
 20
23.66971
 30
0.0
 10
16.20772
 20
23.6985
 30
0.0
 10
16.35589
 20
23.75607
 30
0.0
 10
16.35589
 20
23.75607
 30
0.0
 10
16.35589
 20
23.75607
 30
0.0
 10
16.35589
 20
23.56049
 30
0.0
 10
16.35589
 20
23.56049
 30
0.0
  0
SPLINE
  5
7B
330
1F
100
AcDbEntity
  8
Layer 1
100
AcDbSpline
210
0.0
220
0.0
230
1.0
 70
    11
 71
     3
 72
    16
 73
    12
 74
     0
 42
0.0000000001
 43
0.0000000001
 12
1.0
 22
0.0
 32
0.0
 13
1.0
 23
0.0
 33
0.0
 40
0.0
 40
0.0
 40
0.0
 40
0.0
 40
0.25
 40
0.25
 40
0.25
 40
0.25
 40
0.5
 40
0.5
 40
0.5
 40
0.5
 40
1.0
 40
1.0
 40
1.0
 40
1.0
 10
15.52277
 20
24.33519
 30
0.0
 10
15.52277
 20
24.33519
 30
0.0
 10
16.11713
 20
24.33519
 30
0.0
 10
16.11713
 20
24.33519
 30
0.0
 10
16.11713
 20
24.33519
 30
0.0
 10
16.11713
 20
24.5858
 30
0.0
 10
16.02357
 20
24.71111
 30
0.0
 10
15.83688
 20
24.71111
 30
0.0
 10
15.83688
 20
24.71111
 30
0.0
 10
15.64892
 20
24.71111
 30
0.0
 10
15.54436
 20
24.5858
 30
0.0
 10
15.52277
 20
24.33519
 30
0.0
  0
SPLINE
  5
7C
330
1F
100
AcDbEntity
  8
Layer 1
100
AcDbSpline
210
0.0
220
0.0
230
1.0
 70
    11
 71
     3
 72
    20
 73
    16
 74
     0
 42
0.0000000001
 43
0.0000000001
 12
1.0
 22
0.0
 32
0.0
 13
1.0
 23
0.0
 33
0.0
 40
0.0
 40
0.0
 40
0.0
 40
0.0
 40
0.2
 40
0.2
 40
0.2
 40
0.2
 40
0.4
 40
0.4
 40
0.4
 40
0.4
 40
0.6
 40
0.6
 40
0.6
 40
0.6
 40
1.0
 40
1.0
 40
1.0
 40
1.0
 10
16.78303
 20
23.51731
 30
0.0
 10
16.78303
 20
23.51731
 30
0.0
 10
16.78303
 20
25.47565
 30
0.0
 10
16.78303
 20
25.47565
 30
0.0
 10
16.78303
 20
25.47565
 30
0.0
 10
16.78303
 20
25.47565
 30
0.0
 10
17.02687
 20
25.47565
 30
0.0
 10
17.02687
 20
25.47565
 30
0.0
 10
17.02687
 20
25.47565
 30
0.0
 10
17.02687
 20
25.47565
 30
0.0
 10
17.02687
 20
23.51731
 30
0.0
 10
17.02687
 20
23.51731
 30
0.0
 10
17.02687
 20
23.51731
 30
0.0
 10
17.02687
 20
23.51731
 30
0.0
 10
16.78303
 20
23.51731
 30
0.0
 10
16.78303
 20
23.51731
 30
0.0
  0
SPLINE
  5
7D
330
1F
100
AcDbEntity
  8
Layer 1
100
AcDbSpline
210
0.0
220
0.0
230
1.0
 70
    11
 71
     3
 72
    20
 73
    16
 74
     0
 42
0.0000000001
 43
0.0000000001
 12
1.0
 22
0.0
 32
0.0
 13
1.0
 23
0.0
 33
0.0
 40
0.0
 40
0.0
 40
0.0
 40
0.0
 40
0.2
 40
0.2
 40
0.2
 40
0.2
 40
0.4
 40
0.4
 40
0.4
 40
0.4
 40
0.6
 40
0.6
 40
0.6
 40
0.6
 40
1.0
 40
1.0
 40
1.0
 40
1.0
 10
17.37993
 20
23.33443
 30
0.0
 10
17.37993
 20
23.33443
 30
0.0
 10
17.37993
 20
23.51731
 30
0.0
 10
17.37993
 20
23.51731
 30
0.0
 10
17.37993
 20
23.51731
 30
0.0
 10
17.37993
 20
23.51731
 30
0.0
 10
18.43657
 20
23.51731
 30
0.0
 10
18.43657
 20
23.51731
 30
0.0
 10
18.43657
 20
23.51731
 30
0.0
 10
18.43657
 20
23.51731
 30
0.0
 10
18.43657
 20
23.33443
 30
0.0
 10
18.43657
 20
23.33443
 30
0.0
 10
18.43657
 20
23.33443
 30
0.0
 10
18.43657
 20
23.33443
 30
0.0
 10
17.37993
 20
23.33443
 30
0.0
 10
17.37993
 20
23.33443
 30
0.0
  0
SPLINE
  5
7E
330
1F
100
AcDbEntity
  8
Layer 1
100
AcDbSpline
210
0.0
220
0.0
230
1.0
 70
    11
 71
     3
 72
    84
 73
    80
 74
     0
 42
0.0000000001
 43
0.0000000001
 12
1.0
 22
0.0
 32
0.0
 13
1.0
 23
0.0
 33
0.0
 40
0.0
 40
0.0
 40
0.0
 40
0.0
 40
0.0476190476190476
 40
0.0476190476190476
 40
0.0476190476190476
 40
0.0476190476190476
 40
0.0952380952380952
 40
0.0952380952380952
 40
0.0952380952380952
 40
0.0952380952380952
 40
0.1428571428571428
 40
0.1428571428571428
 40
0.1428571428571428
 40
0.1428571428571428
 40
0.1904761904761905
 40
0.1904761904761905
 40
0.1904761904761905
 40
0.1904761904761905
 40
0.2380952380952381
 40
0.2380952380952381
 40
0.2380952380952381
 40
0.2380952380952381
 40
0.2857142857142857
 40
0.2857142857142857
 40
0.2857142857142857
 40
0.2857142857142857
 40
0.3333333333333333
 40
0.3333333333333333
 40
0.3333333333333333
 40
0.3333333333333333
 40
0.3809523809523809
 40
0.3809523809523809
 40
0.3809523809523809
 40
0.3809523809523809
 40
0.4285714285714285
 40
0.4285714285714285
 40
0.4285714285714285
 40
0.4285714285714285
 40
0.4761904761904762
 40
0.4761904761904762
 40
0.4761904761904762
 40
0.4761904761904762
 40
0.5238095238095238
 40
0.5238095238095238
 40
0.5238095238095238
 40
0.5238095238095238
 40
0.5714285714285714
 40
0.5714285714285714
 40
0.5714285714285714
 40
0.5714285714285714
 40
0.6190476190476191
 40
0.6190476190476191
 40
0.6190476190476191
 40
0.6190476190476191
 40
0.6666666666666666
 40
0.6666666666666666
 40
0.6666666666666666
 40
0.6666666666666666
 40
0.7142857142857143
 40
0.7142857142857143
 40
0.7142857142857143
 40
0.7142857142857143
 40
0.7619047619047619
 40
0.7619047619047619
 40
0.7619047619047619
 40
0.7619047619047619
 40
0.8095238095238095
 40
0.8095238095238095
 40
0.8095238095238095
 40
0.8095238095238095
 40
0.8571428571428571
 40
0.8571428571428571
 40
0.8571428571428571
 40
0.8571428571428571
 40
0.9047619047619048
 40
0.9047619047619048
 40
0.9047619047619048
 40
0.9047619047619048
 40
1.0
 40
1.0
 40
1.0
 40
1.0
 10
18.80233
 20
23.53001
 30
0.0
 10
18.80233
 20
23.53001
 30
0.0
 10
18.80233
 20
23.75861
 30
0.0
 10
18.80233
 20
23.75861
 30
0.0
 10
18.80233
 20
23.75861
 30
0.0
 10
18.97674
 20
23.68918
 30
0.0
 10
19.11348
 20
23.65447
 30
0.0
 10
19.21381
 20
23.65447
 30
0.0
 10
19.21381
 20
23.65447
 30
0.0
 10
19.33192
 20
23.65447
 30
0.0
 10
19.42717
 20
23.68834
 30
0.0
 10
19.50041
 20
23.75649
 30
0.0
 10
19.50041
 20
23.75649
 30
0.0
 10
19.57364
 20
23.82465
 30
0.0
 10
19.61005
 20
23.91355
 30
0.0
 10
19.61005
 20
24.02277
 30
0.0
 10
19.61005
 20
24.02277
 30
0.0
 10
19.61005
 20
24.28185
 30
0.0
 10
19.42971
 20
24.41139
 30
0.0
 10
19.06903
 20
24.41139
 30
0.0
 10
19.06903
 20
24.41139
 30
0.0
 10
19.06903
 20
24.41139
 30
0.0
 10
18.97251
 20
24.41139
 30
0.0
 10
18.97251
 20
24.41139
 30
0.0
 10
18.97251
 20
24.41139
 30
0.0
 10
18.97251
 20
24.41139
 30
0.0
 10
18.97251
 20
24.57522
 30
0.0
 10
18.97251
 20
24.57522
 30
0.0
 10
18.97251
 20
24.57522
 30
0.0
 10
18.97251
 20
24.57522
 30
0.0
 10
19.05802
 20
24.57649
 30
0.0
 10
19.05802
 20
24.57649
 30
0.0
 10
19.05802
 20
24.57649
 30
0.0
 10
19.39711
 20
24.57649
 30
0.0
 10
19.56687
 20
24.69587
 30
0.0
 10
19.56687
 20
24.93505
 30
0.0
 10
19.56687
 20
24.93505
 30
0.0
 10
19.56687
 20
25.12259
 30
0.0
 10
19.45426
 20
25.21657
 30
0.0
 10
19.22947
 20
25.21657
 30
0.0
 10
19.22947
 20
25.21657
 30
0.0
 10
19.10882
 20
25.21657
 30
0.0
 10
18.97505
 20
25.18186
 30
0.0
 10
18.82773
 20
25.11243
 30
0.0
 10
18.82773
 20
25.11243
 30
0.0
 10
18.82773
 20
25.11243
 30
0.0
 10
18.82773
 20
25.32579
 30
0.0
 10
18.82773
 20
25.32579
 30
0.0
 10
18.82773
 20
25.32579
 30
0.0
 10
18.97209
 20
25.3749
 30
0.0
 10
19.11136
 20
25.39945
 30
0.0
 10
19.24514
 20
25.39945
 30
0.0
 10
19.24514
 20
25.39945
 30
0.0
 10
19.42717
 20
25.39945
 30
0.0
 10
19.56729
 20
25.36304
 30
0.0
 10
19.66466
 20
25.29023
 30
0.0
 10
19.66466
 20
25.29023
 30
0.0
 10
19.76203
 20
25.21784
 30
0.0
 10
19.81071
 20
25.11243
 30
0.0
 10
19.81071
 20
24.97442
 30
0.0
 10
19.81071
 20
24.97442
 30
0.0
 10
19.81071
 20
24.75895
 30
0.0
 10
19.68329
 20
24.60528
 30
0.0
 10
19.42802
 20
24.51384
 30
0.0
 10
19.42802
 20
24.51384
 30
0.0
 10
19.72393
 20
24.44483
 30
0.0
 10
19.87167
 20
24.2827
 30
0.0
 10
19.87167
 20
24.02658
 30
0.0
 10
19.87167
 20
24.02658
 30
0.0
 10
19.87167
 20
23.85386
 30
0.0
 10
19.81452
 20
23.71797
 30
0.0
 10
19.70064
 20
23.61933
 30
0.0
 10
19.70064
 20
23.61933
 30
0.0
 10
19.58677
 20
23.5207
 30
0.0
 10
19.43013
 20
23.47159
 30
0.0
 10
19.23117
 20
23.47159
 30
0.0
 10
19.23117
 20
23.47159
 30
0.0
 10
19.11771
 20
23.47159
 30
0.0
 10
18.97505
 20
23.49106
 30
0.0
 10
18.80233
 20
23.53001
 30
0.0
  0
SPLINE
  5
7F
330
1F
100
AcDbEntity
  8
Layer 1
100
AcDbSpline
210
0.0
220
0.0
230
1.0
 70
    11
 71
     3
 72
    48
 73
    44
 74
     0
 42
0.0000000001
 43
0.0000000001
 12
1.0
 22
0.0
 32
0.0
 13
1.0
 23
0.0
 33
0.0
 40
0.0
 40
0.0
 40
0.0
 40
0.0
 40
0.0833333333333333
 40
0.0833333333333333
 40
0.0833333333333333
 40
0.0833333333333333
 40
0.1666666666666667
 40
0.1666666666666667
 40
0.1666666666666667
 40
0.1666666666666667
 40
0.25
 40
0.25
 40
0.25
 40
0.25
 40
0.3333333333333333
 40
0.3333333333333333
 40
0.3333333333333333
 40
0.3333333333333333
 40
0.4166666666666667
 40
0.4166666666666667
 40
0.4166666666666667
 40
0.4166666666666667
 40
0.5
 40
0.5
 40
0.5
 40
0.5
 40
0.5833333333333334
 40
0.5833333333333334
 40
0.5833333333333334
 40
0.5833333333333334
 40
0.6666666666666666
 40
0.6666666666666666
 40
0.6666666666666666
 40
0.6666666666666666
 40
0.75
 40
0.75
 40
0.75
 40
0.75
 40
0.8333333333333334
 40
0.8333333333333334
 40
0.8333333333333334
 40
0.8333333333333334
 40
1.0
 40
1.0
 40
1.0
 40
1.0
 10
21.25936
 20
23.51731
 30
0.0
 10
21.25936
 20
23.51731
 30
0.0
 10
21.25936
 20
23.77004
 30
0.0
 10
21.25936
 20
23.77004
 30
0.0
 10
21.25936
 20
23.77004
 30
0.0
 10
21.15988
 20
23.58123
 30
0.0
 10
21.01002
 20
23.48683
 30
0.0
 10
20.80978
 20
23.48683
 30
0.0
 10
20.80978
 20
23.48683
 30
0.0
 10
20.64722
 20
23.48683
 30
0.0
 10
20.51937
 20
23.54567
 30
0.0
 10
20.42624
 20
23.66378
 30
0.0
 10
20.42624
 20
23.66378
 30
0.0
 10
20.33311
 20
23.78189
 30
0.0
 10
20.28654
 20
23.94318
 30
0.0
 10
20.28654
 20
24.14765
 30
0.0
 10
20.28654
 20
24.14765
 30
0.0
 10
20.28654
 20
24.37117
 30
0.0
 10
20.33946
 20
24.55109
 30
0.0
 10
20.44487
 20
24.6874
 30
0.0
 10
20.44487
 20
24.6874
 30
0.0
 10
20.5507
 20
24.82329
 30
0.0
 10
20.68955
 20
24.89145
 30
0.0
 10
20.86185
 20
24.89145
 30
0.0
 10
20.86185
 20
24.89145
 30
0.0
 10
21.02145
 20
24.89145
 30
0.0
 10
21.15437
 20
24.83049
 30
0.0
 10
21.25936
 20
24.70815
 30
0.0
 10
21.25936
 20
24.70815
 30
0.0
 10
21.25936
 20
24.70815
 30
0.0
 10
21.25936
 20
25.47565
 30
0.0
 10
21.25936
 20
25.47565
 30
0.0
 10
21.25936
 20
25.47565
 30
0.0
 10
21.25936
 20
25.47565
 30
0.0
 10
21.5032
 20
25.47565
 30
0.0
 10
21.5032
 20
25.47565
 30
0.0
 10
21.5032
 20
25.47565
 30
0.0
 10
21.5032
 20
25.47565
 30
0.0
 10
21.5032
 20
23.51731
 30
0.0
 10
21.5032
 20
23.51731
 30
0.0
 10
21.5032
 20
23.51731
 30
0.0
 10
21.5032
 20
23.51731
 30
0.0
 10
21.25936
 20
23.51731
 30
0.0
 10
21.25936
 20
23.51731
 30
0.0
  0
SPLINE
  5
80
330
1F
100
AcDbEntity
  8
Layer 1
100
AcDbSpline
210
0.0
220
0.0
230
1.0
 70
    11
 71
     3
 72
    28
 73
    24
 74
     0
 42
0.0000000001
 43
0.0000000001
 12
1.0
 22
0.0
 32
0.0
 13
1.0
 23
0.0
 33
0.0
 40
0.0
 40
0.0
 40
0.0
 40
0.0
 40
0.1428571428571428
 40
0.1428571428571428
 40
0.1428571428571428
 40
0.1428571428571428
 40
0.2857142857142857
 40
0.2857142857142857
 40
0.2857142857142857
 40
0.2857142857142857
 40
0.4285714285714285
 40
0.4285714285714285
 40
0.4285714285714285
 40
0.4285714285714285
 40
0.5714285714285714
 40
0.5714285714285714
 40
0.5714285714285714
 40
0.5714285714285714
 40
0.7142857142857143
 40
0.7142857142857143
 40
0.7142857142857143
 40
0.7142857142857143
 40
1.0
 40
1.0
 40
1.0
 40
1.0
 10
21.25936
 20
24.54135
 30
0.0
 10
21.13278
 20
24.65269
 30
0.0
 10
21.01298
 20
24.70857
 30
0.0
 10
20.89953
 20
24.70857
 30
0.0
 10
20.89953
 20
24.70857
 30
0.0
 10
20.78777
 20
24.70857
 30
0.0
 10
20.70141
 20
24.662
 30
0.0
 10
20.64002
 20
24.56845
 30
0.0
 10
20.64002
 20
24.56845
 30
0.0
 10
20.57864
 20
24.47531
 30
0.0
 10
20.54816
 20
24.34323
 30
0.0
 10
20.54816
 20
24.17221
 30
0.0
 10
20.54816
 20
24.17221
 30
0.0
 10
20.54816
 20
23.85767
 30
0.0
 10
20.6523
 20
23.70019
 30
0.0
 10
20.861
 20
23.70019
 30
0.0
 10
20.861
 20
23.70019
 30
0.0
 10
20.99647
 20
23.70019
 30
0.0
 10
21.1294
 20
23.77427
 30
0.0
 10
21.25936
 20
23.92202
 30
0.0
 10
21.25936
 20
23.92202
 30
0.0
 10
21.25936
 20
23.92202
 30
0.0
 10
21.25936
 20
24.54135
 30
0.0
 10
21.25936
 20
24.54135
 30
0.0
  0
SPLINE
  5
81
330
1F
100
AcDbEntity
  8
Layer 1
100
AcDbSpline
210
0.0
220
0.0
230
1.0
 70
    11
 71
     3
 72
    48
 73
    44
 74
     0
 42
0.0000000001
 43
0.0000000001
 12
1.0
 22
0.0
 32
0.0
 13
1.0
 23
0.0
 33
0.0
 40
0.0
 40
0.0
 40
0.0
 40
0.0
 40
0.0833333333333333
 40
0.0833333333333333
 40
0.0833333333333333
 40
0.0833333333333333
 40
0.1666666666666667
 40
0.1666666666666667
 40
0.1666666666666667
 40
0.1666666666666667
 40
0.25
 40
0.25
 40
0.25
 40
0.25
 40
0.3333333333333333
 40
0.3333333333333333
 40
0.3333333333333333
 40
0.3333333333333333
 40
0.4166666666666667
 40
0.4166666666666667
 40
0.4166666666666667
 40
0.4166666666666667
 40
0.5
 40
0.5
 40
0.5
 40
0.5
 40
0.5833333333333334
 40
0.5833333333333334
 40
0.5833333333333334
 40
0.5833333333333334
 40
0.6666666666666666
 40
0.6666666666666666
 40
0.6666666666666666
 40
0.6666666666666666
 40
0.75
 40
0.75
 40
0.75
 40
0.75
 40
0.8333333333333334
 40
0.8333333333333334
 40
0.8333333333333334
 40
0.8333333333333334
 40
1.0
 40
1.0
 40
1.0
 40
1.0
 10
22.85787
 20
23.02709
 30
0.0
 10
22.85787
 20
23.02709
 30
0.0
 10
22.85787
 20
23.77004
 30
0.0
 10
22.85787
 20
23.77004
 30
0.0
 10
22.85787
 20
23.77004
 30
0.0
 10
22.75839
 20
23.58123
 30
0.0
 10
22.60853
 20
23.48683
 30
0.0
 10
22.40829
 20
23.48683
 30
0.0
 10
22.40829
 20
23.48683
 30
0.0
 10
22.24573
 20
23.48683
 30
0.0
 10
22.11788
 20
23.54567
 30
0.0
 10
22.02475
 20
23.66378
 30
0.0
 10
22.02475
 20
23.66378
 30
0.0
 10
21.93162
 20
23.78189
 30
0.0
 10
21.88505
 20
23.94318
 30
0.0
 10
21.88505
 20
24.14765
 30
0.0
 10
21.88505
 20
24.14765
 30
0.0
 10
21.88505
 20
24.37117
 30
0.0
 10
21.93797
 20
24.55109
 30
0.0
 10
22.04338
 20
24.6874
 30
0.0
 10
22.04338
 20
24.6874
 30
0.0
 10
22.14921
 20
24.82329
 30
0.0
 10
22.28806
 20
24.89145
 30
0.0
 10
22.46036
 20
24.89145
 30
0.0
 10
22.46036
 20
24.89145
 30
0.0
 10
22.61996
 20
24.89145
 30
0.0
 10
22.75288
 20
24.83049
 30
0.0
 10
22.85787
 20
24.70815
 30
0.0
 10
22.85787
 20
24.70815
 30
0.0
 10
22.85787
 20
24.70815
 30
0.0
 10
22.85787
 20
24.86351
 30
0.0
 10
22.85787
 20
24.86351
 30
0.0
 10
22.85787
 20
24.86351
 30
0.0
 10
22.85787
 20
24.86351
 30
0.0
 10
23.10171
 20
24.86351
 30
0.0
 10
23.10171
 20
24.86351
 30
0.0
 10
23.10171
 20
24.86351
 30
0.0
 10
23.10171
 20
24.86351
 30
0.0
 10
23.10171
 20
23.02709
 30
0.0
 10
23.10171
 20
23.02709
 30
0.0
 10
23.10171
 20
23.02709
 30
0.0
 10
23.10171
 20
23.02709
 30
0.0
 10
22.85787
 20
23.02709
 30
0.0
 10
22.85787
 20
23.02709
 30
0.0
  0
SPLINE
  5
82
330
1F
100
AcDbEntity
  8
Layer 1
100
AcDbSpline
210
0.0
220
0.0
230
1.0
 70
    11
 71
     3
 72
    28
 73
    24
 74
     0
 42
0.0000000001
 43
0.0000000001
 12
1.0
 22
0.0
 32
0.0
 13
1.0
 23
0.0
 33
0.0
 40
0.0
 40
0.0
 40
0.0
 40
0.0
 40
0.1428571428571428
 40
0.1428571428571428
 40
0.1428571428571428
 40
0.1428571428571428
 40
0.2857142857142857
 40
0.2857142857142857
 40
0.2857142857142857
 40
0.2857142857142857
 40
0.4285714285714285
 40
0.4285714285714285
 40
0.4285714285714285
 40
0.4285714285714285
 40
0.5714285714285714
 40
0.5714285714285714
 40
0.5714285714285714
 40
0.5714285714285714
 40
0.7142857142857143
 40
0.7142857142857143
 40
0.7142857142857143
 40
0.7142857142857143
 40
1.0
 40
1.0
 40
1.0
 40
1.0
 10
22.85787
 20
24.54135
 30
0.0
 10
22.73129
 20
24.65269
 30
0.0
 10
22.61149
 20
24.70857
 30
0.0
 10
22.49804
 20
24.70857
 30
0.0
 10
22.49804
 20
24.70857
 30
0.0
 10
22.38628
 20
24.70857
 30
0.0
 10
22.29992
 20
24.662
 30
0.0
 10
22.23853
 20
24.56845
 30
0.0
 10
22.23853
 20
24.56845
 30
0.0
 10
22.17715
 20
24.47531
 30
0.0
 10
22.14667
 20
24.34323
 30
0.0
 10
22.14667
 20
24.17221
 30
0.0
 10
22.14667
 20
24.17221
 30
0.0
 10
22.14667
 20
23.85767
 30
0.0
 10
22.25081
 20
23.70019
 30
0.0
 10
22.45951
 20
23.70019
 30
0.0
 10
22.45951
 20
23.70019
 30
0.0
 10
22.59498
 20
23.70019
 30
0.0
 10
22.72791
 20
23.77427
 30
0.0
 10
22.85787
 20
23.92202
 30
0.0
 10
22.85787
 20
23.92202
 30
0.0
 10
22.85787
 20
23.92202
 30
0.0
 10
22.85787
 20
24.54135
 30
0.0
 10
22.85787
 20
24.54135
 30
0.0
  0
SPLINE
  5
83
330
1F
100
AcDbEntity
  8
Layer 1
100
AcDbSpline
210
0.0
220
0.0
230
1.0
 70
    11
 71
     3
 72
    72
 73
    68
 74
     0
 42
0.0000000001
 43
0.0000000001
 12
1.0
 22
0.0
 32
0.0
 13
1.0
 23
0.0
 33
0.0
 40
0.0
 40
0.0
 40
0.0
 40
0.0
 40
0.0555555555555556
 40
0.0555555555555556
 40
0.0555555555555556
 40
0.0555555555555556
 40
0.1111111111111111
 40
0.1111111111111111
 40
0.1111111111111111
 40
0.1111111111111111
 40
0.1666666666666667
 40
0.1666666666666667
 40
0.1666666666666667
 40
0.1666666666666667
 40
0.2222222222222222
 40
0.2222222222222222
 40
0.2222222222222222
 40
0.2222222222222222
 40
0.2777777777777778
 40
0.2777777777777778
 40
0.2777777777777778
 40
0.2777777777777778
 40
0.3333333333333333
 40
0.3333333333333333
 40
0.3333333333333333
 40
0.3333333333333333
 40
0.3888888888888889
 40
0.3888888888888889
 40
0.3888888888888889
 40
0.3888888888888889
 40
0.4444444444444444
 40
0.4444444444444444
 40
0.4444444444444444
 40
0.4444444444444444
 40
0.5
 40
0.5
 40
0.5
 40
0.5
 40
0.5555555555555556
 40
0.5555555555555556
 40
0.5555555555555556
 40
0.5555555555555556
 40
0.6111111111111112
 40
0.6111111111111112
 40
0.6111111111111112
 40
0.6111111111111112
 40
0.6666666666666666
 40
0.6666666666666666
 40
0.6666666666666666
 40
0.6666666666666666
 40
0.7222222222222222
 40
0.7222222222222222
 40
0.7222222222222222
 40
0.7222222222222222
 40
0.7777777777777778
 40
0.7777777777777778
 40
0.7777777777777778
 40
0.7777777777777778
 40
0.8333333333333334
 40
0.8333333333333334
 40
0.8333333333333334
 40
0.8333333333333334
 40
0.8888888888888888
 40
0.8888888888888888
 40
0.8888888888888888
 40
0.8888888888888888
 40
1.0
 40
1.0
 40
1.0
 40
1.0
 10
23.63596
 20
23.51731
 30
0.0
 10
23.63596
 20
23.51731
 30
0.0
 10
23.63596
 20
24.68063
 30
0.0
 10
23.63596
 20
24.68063
 30
0.0
 10
23.63596
 20
24.68063
 30
0.0
 10
23.63596
 20
24.68063
 30
0.0
 10
23.44504
 20
24.68063
 30
0.0
 10
23.44504
 20
24.68063
 30
0.0
 10
23.44504
 20
24.68063
 30
0.0
 10
23.44504
 20
24.68063
 30
0.0
 10
23.44504
 20
24.86351
 30
0.0
 10
23.44504
 20
24.86351
 30
0.0
 10
23.44504
 20
24.86351
 30
0.0
 10
23.44504
 20
24.86351
 30
0.0
 10
23.63596
 20
24.86351
 30
0.0
 10
23.63596
 20
24.86351
 30
0.0
 10
23.63596
 20
24.86351
 30
0.0
 10
23.63596
 20
24.86351
 30
0.0
 10
23.63596
 20
25.0248
 30
0.0
 10
23.63596
 20
25.0248
 30
0.0
 10
23.63596
 20
25.0248
 30
0.0
 10
23.63596
 20
25.34569
 30
0.0
 10
23.78243
 20
25.50613
 30
0.0
 10
24.07538
 20
25.50613
 30
0.0
 10
24.07538
 20
25.50613
 30
0.0
 10
24.15751
 20
25.50613
 30
0.0
 10
24.25064
 20
25.49258
 30
0.0
 10
24.35478
 20
25.46549
 30
0.0
 10
24.35478
 20
25.46549
 30
0.0
 10
24.35478
 20
25.46549
 30
0.0
 10
24.35478
 20
25.26991
 30
0.0
 10
24.35478
 20
25.26991
 30
0.0
 10
24.35478
 20
25.26991
 30
0.0
 10
24.24429
 20
25.30547
 30
0.0
 10
24.15581
 20
25.32325
 30
0.0
 10
24.08935
 20
25.32325
 30
0.0
 10
24.08935
 20
25.32325
 30
0.0
 10
24.00849
 20
25.32325
 30
0.0
 10
23.95346
 20
25.3042
 30
0.0
 10
23.92425
 20
25.26568
 30
0.0
 10
23.92425
 20
25.26568
 30
0.0
 10
23.89462
 20
25.22715
 30
0.0
 10
23.8798
 20
25.15561
 30
0.0
 10
23.8798
 20
25.05105
 30
0.0
 10
23.8798
 20
25.05105
 30
0.0
 10
23.8798
 20
25.05105
 30
0.0
 10
23.8798
 20
24.86351
 30
0.0
 10
23.8798
 20
24.86351
 30
0.0
 10
23.8798
 20
24.86351
 30
0.0
 10
23.8798
 20
24.86351
 30
0.0
 10
24.21804
 20
24.86351
 30
0.0
 10
24.21804
 20
24.86351
 30
0.0
 10
24.21804
 20
24.86351
 30
0.0
 10
24.21804
 20
24.86351
 30
0.0
 10
24.21804
 20
24.68063
 30
0.0
 10
24.21804
 20
24.68063
 30
0.0
 10
24.21804
 20
24.68063
 30
0.0
 10
24.21804
 20
24.68063
 30
0.0
 10
23.8798
 20
24.68063
 30
0.0
 10
23.8798
 20
24.68063
 30
0.0
 10
23.8798
 20
24.68063
 30
0.0
 10
23.8798
 20
24.68063
 30
0.0
 10
23.8798
 20
23.51731
 30
0.0
 10
23.8798
 20
23.51731
 30
0.0
 10
23.8798
 20
23.51731
 30
0.0
 10
23.8798
 20
23.51731
 30
0.0
 10
23.63596
 20
23.51731
 30
0.0
 10
23.63596
 20
23.51731
 30
0.0
  0
ELLIPSE
  5
84
330
1F
100
AcDbEntity
  8
Layer 1
370
    53
100
AcDbEllipse
 10
-4.12499
 20
0.0
 30
0.0
 11
0.0
 21
3.4
 31
0.0
210
0.0
220
0.0
230
1.0
 40
1.0
 41
0.0
 42
6.283185307179586
  0
ELLIPSE
  5
85
330
1F
100
AcDbEntity
  8
Layer 1
370
    53
100
AcDbEllipse
 10
-4.12499
 20
0.0
 30
0.0
 11
0.0
 21
4.5
 31
0.0
210
0.0
220
0.0
230
1.0
 40
1.0
 41
0.0
 42
6.283185307179586
  0
ELLIPSE
  5
86
330
1F
100
AcDbEntity
  8
Layer 1
370
    53
100
AcDbEllipse
 10
-4.12499
 20
0.0
 30
0.0
 11
0.0
 21
9.75
 31
0.0
210
0.0
220
0.0
230
1.0
 40
1.0
 41
0.0
 42
6.283185307179586
  0
LWPOLYLINE
  5
87
330
1F
100
AcDbEntity
  8
Layer 1
370
    53
100
AcDbPolyline
 90
        5
 70
     1
 43
0.0
 10
7.87498
 20
-9.75
 10
8.17498
 20
-9.75
 10
8.17498
 20
9.75
 10
7.87498
 20
9.75
 10
7.87498
 20
-9.75
  0
LWPOLYLINE
  5
88
330
1F
100
AcDbEntity
  8
Layer 1
370
    53
100
AcDbPolyline
 90
        5
 70
     1
 43
0.0
 10
7.87498
 20
-3.4
 10
13.87498
 20
-3.4
 10
13.87498
 20
3.4
 10
7.87498
 20
3.4
 10
7.87498
 20
-3.4
  0
LWPOLYLINE
  5
89
330
1F
100
AcDbEntity
  8
Layer 1
370
    53
100
AcDbPolyline
 90
        5
 70
     1
 43
0.0
 10
13.57498
 20
-9.75
 10
13.87498
 20
-9.75
 10
13.87498
 20
9.75
 10
13.57498
 20
9.75
 10
13.57498
 20
-9.75
  0
ENDSEC
  0
SECTION
  2
OBJECTS
  0
DICTIONARY
  5
C
330
0
100
AcDbDictionary
281
     1
  3
ACAD_GROUP
350
D
  3
ACAD_LAYOUT
350
1A
  3
ACAD_MATERIAL
350
3B
  3
ACAD_MLEADERSTYLE
350
AB
  3
ACAD_MLINESTYLE
350
17
  3
ACAD_PLOTSETTINGS
350
19
  3
ACAD_PLOTSTYLENAME
350
E
  3
ACAD_TABLESTYLE
350
AA
  3
ACAD_VISUALSTYLE
350
2A
  0
DICTIONARY
  5
D
102
{ACAD_REACTORS
330
C
102
}
330
C
100
AcDbDictionary
281
     1
  0
DICTIONARY
  5
1A
102
{ACAD_REACTORS
330
C
102
}
330
C
100
AcDbDictionary
281
     1
  3
Layout1
350
1E
  3
Layout2
350
26
  3
Model
350
22
  0
DICTIONARY
  5
3B
102
{ACAD_REACTORS
330
C
102
}
330
C
100
AcDbDictionary
281
     1
  3
ByBlock
350
3D
  3
ByLayer
350
3C
  3
Global
350
3E
  0
DICTIONARY
  5
AB
102
{ACAD_REACTORS
330
C
102
}
330
C
100
AcDbDictionary
281
     1
  0
DICTIONARY
  5
17
102
{ACAD_REACTORS
330
C
102
}
330
C
100
AcDbDictionary
281
     1
  3
Standard
350
18
  0
DICTIONARY
  5
19
102
{ACAD_REACTORS
330
C
102
}
330
C
100
AcDbDictionary
281
     1
  0
ACDBDICTIONARYWDFLT
  5
E
102
{ACAD_REACTORS
330
C
102
}
330
C
100
AcDbDictionary
281
     1
  3
Normal
350
F
100
AcDbDictionaryWithDefault
340
F
  0
DICTIONARY
  5
AA
102
{ACAD_REACTORS
330
C
102
}
330
C
100
AcDbDictionary
281
     1
  0
DICTIONARY
  5
2A
102
{ACAD_REACTORS
330
C
102
}
330
C
100
AcDbDictionary
281
     1
  3
2dWireframe
350
2F
  3
3D Hidden
350
31
  3
3dWireframe
350
30
  3
Basic
350
32
  3
Brighten
350
36
  3
ColorChange
350
3A
  3
Conceptual
350
34
  3
Dim
350
35
  3
Facepattern
350
39
  3
Flat
350
2B
  3
FlatWithEdges
350
2C
  3
Gouraud
350
2D
  3
GouraudWithEdges
350
2E
  3
Linepattern
350
38
  3
Realistic
350
33
  3
Thicken
350
37
  0
LAYOUT
  5
1E
102
{ACAD_REACTORS
330
1A
102
}
330
1A
100
AcDbPlotSettings
  1

  2
none_device
  4

  6

 40
0.0
 41
0.0
 42
0.0
 43
0.0
 44
0.0
 45
0.0
 46
0.0
 47
0.0
 48
0.0
 49
0.0
140
0.0
141
0.0
142
1.0
143
1.0
 70
   688
 72
     0
 73
     0
 74
     5
  7

 75
    16
 76
     0
 77
     2
 78
   300
147
1.0
148
0.0
149
0.0
100
AcDbLayout
  1
Layout1
 70
     1
 71
     1
 10
0.0
 20
0.0
 11
12.0
 21
9.0
 12
0.0
 22
0.0
 32
0.0
 14
1.000000000000000E+20
 24
1.000000000000000E+20
 34
1.000000000000000E+20
 15
-1.000000000000000E+20
 25
-1.000000000000000E+20
 35
-1.000000000000000E+20
146
0.0
 13
0.0
 23
0.0
 33
0.0
 16
1.0
 26
0.0
 36
0.0
 17
0.0
 27
1.0
 37
0.0
 76
     0
330
1B
  0
LAYOUT
  5
26
102
{ACAD_REACTORS
330
1A
102
}
330
1A
100
AcDbPlotSettings
  1

  2
none_device
  4

  6

 40
0.0
 41
0.0
 42
0.0
 43
0.0
 44
0.0
 45
0.0
 46
0.0
 47
0.0
 48
0.0
 49
0.0
140
0.0
141
0.0
142
1.0
143
1.0
 70
   688
 72
     0
 73
     0
 74
     5
  7

 75
    16
 76
     0
 77
     2
 78
   300
147
1.0
148
0.0
149
0.0
100
AcDbLayout
  1
Layout2
 70
     1
 71
     2
 10
0.0
 20
0.0
 11
0.0
 21
0.0
 12
0.0
 22
0.0
 32
0.0
 14
0.0
 24
0.0
 34
0.0
 15
0.0
 25
0.0
 35
0.0
146
0.0
 13
0.0
 23
0.0
 33
0.0
 16
1.0
 26
0.0
 36
0.0
 17
0.0
 27
1.0
 37
0.0
 76
     0
330
23
  0
LAYOUT
  5
22
102
{ACAD_REACTORS
330
1A
102
}
330
1A
100
AcDbPlotSettings
  1

  2
none_device
  4

  6

 40
0.0
 41
0.0
 42
0.0
 43
0.0
 44
0.0
 45
0.0
 46
0.0
 47
0.0
 48
0.0
 49
0.0
140
0.0
141
0.0
142
1.0
143
1.0
 70
  1712
 72
     0
 73
     0
 74
     0
  7

 75
     0
 76
     0
 77
     2
 78
   300
147
1.0
148
0.0
149
0.0
100
AcDbLayout
  1
Model
 70
     1
 71
     0
 10
0.0
 20
0.0
 11
12.0
 21
9.0
 12
0.0
 22
0.0
 32
0.0
 14
-24.21508
 24
-9.77646
 34
0.0
 15
24.35478
 25
29.37878
 35
0.0
146
0.0
 13
0.0
 23
0.0
 33
0.0
 16
1.0
 26
0.0
 36
0.0
 17
0.0
 27
1.0
 37
0.0
 76
     0
330
1F
331
29
  0
MATERIAL
  5
3D
102
{ACAD_REACTORS
330
3B
102
}
330
3B
100
AcDbMaterial
  1
ByBlock
 72
     1
 94
      127
  0
MATERIAL
  5
3C
102
{ACAD_REACTORS
330
3B
102
}
330
3B
100
AcDbMaterial
  1
ByLayer
 72
     1
 94
      127
  0
MATERIAL
  5
3E
102
{ACAD_REACTORS
330
3B
102
}
330
3B
100
AcDbMaterial
  1
Global
 72
     1
 94
      127
  0
MLINESTYLE
  5
18
102
{ACAD_REACTORS
330
17
102
}
330
17
100
AcDbMlineStyle
  2
Standard
 70
     0
  3

 62
   256
 51
90.0
 52
90.0
 71
     2
 49
0.5
 62
   256
  6
BYLAYER
 49
-0.5
 62
   256
  6
BYLAYER
  0
ACDBPLACEHOLDER
  5
F
102
{ACAD_REACTORS
330
E
102
}
330
E
  0
VISUALSTYLE
  5
2F
102
{ACAD_REACTORS
330
2A
102
}
102
{ACAD_XDICTIONARY
360
92
102
}
330
2A
100
AcDbVisualStyle
  2
2dWireframe
 70
     4
 71
     0
 72
     2
 73
     0
 90
        0
 40
-0.6
 41
-30.0
 62
     5
 63
     7
421
 16777215
 74
     1
 91
        4
 64
     7
 65
   257
 75
     1
175
     1
 42
1.0
 92
        0
 66
   257
 43
1.0
 76
     1
 77
     6
 78
     2
 67
     7
 79
     5
170
     0
171
     0
290
     0
174
     0
 93
        1
 44
0.0
173
     0
291
     0
 45
0.0
  0
VISUALSTYLE
  5
31
102
{ACAD_REACTORS
330
2A
102
}
102
{ACAD_XDICTIONARY
360
96
102
}
330
2A
100
AcDbVisualStyle
  2
3D Hidden
 70
     6
 71
     1
 72
     2
 73
     2
 90
        0
 40
-0.6
 41
-30.0
 62
     5
 63
     7
421
 16777215
 74
     2
 91
        2
 64
     7
 65
   257
 75
     2
175
     1
 42
40.0
 92
        0
 66
   257
 43
1.0
 76
     1
 77
     6
 78
     2
 67
     7
 79
     3
170
     0
171
     0
290
     0
174
     0
 93
        1
 44
0.0
173
     0
291
     0
 45
0.0
  0
VISUALSTYLE
  5
30
102
{ACAD_REACTORS
330
2A
102
}
102
{ACAD_XDICTIONARY
360
94
102
}
330
2A
100
AcDbVisualStyle
  2
3dWireframe
 70
     5
 71
     0
 72
     2
 73
     0
 90
        0
 40
-0.6
 41
-30.0
 62
     5
 63
     7
421
 16777215
 74
     1
 91
        4
 64
     7
 65
   257
 75
     1
175
     1
 42
1.0
 92
        0
 66
   257
 43
1.0
 76
     1
 77
     6
 78
     2
 67
     7
 79
     5
170
     0
171
     0
290
     0
174
     0
 93
        1
 44
0.0
173
     0
291
     0
 45
0.0
  0
VISUALSTYLE
  5
32
102
{ACAD_REACTORS
330
2A
102
}
102
{ACAD_XDICTIONARY
360
98
102
}
330
2A
100
AcDbVisualStyle
  2
Basic
 70
     7
 71
     1
 72
     0
 73
     1
 90
        0
 40
-0.6
 41
-30.0
 62
     5
 63
     7
421
 16777215
 74
     0
 91
        4
 64
     7
 65
   257
 75
     1
175
     1
 42
1.0
 92
        8
 66
     7
 43
1.0
 76
     1
 77
     6
 78
     2
 67
     7
 79
     5
170
     0
171
     0
290
     0
174
     0
 93
        1
 44
0.0
173
     0
291
     1
 45
0.0
  0
VISUALSTYLE
  5
36
102
{ACAD_REACTORS
330
2A
102
}
102
{ACAD_XDICTIONARY
360
A0
102
}
330
2A
100
AcDbVisualStyle
  2
Brighten
 70
    12
 71
     2
 72
     2
 73
     0
 90
        0
 40
-0.6
 41
-30.0
 62
     5
 63
     7
421
 16777215
 74
     1
 91
        4
 64
     7
 65
   257
 75
     1
175
     1
 42
1.0
 92
        8
 66
     7
 43
1.0
 76
     1
 77
     6
 78
     2
 67
     7
 79
     5
170
     0
171
     0
290
     0
174
     0
 93
        1
 44
50.0
173
     0
291
     1
 45
0.0
  0
VISUALSTYLE
  5
3A
102
{ACAD_REACTORS
330
2A
102
}
102
{ACAD_XDICTIONARY
360
A8
102
}
330
2A
100
AcDbVisualStyle
  2
ColorChange
 70
    16
 71
     2
 72
     2
 73
     3
 90
        0
 40
-0.6
 41
-30.0
 62
     5
 63
     8
421
  8421504
 74
     1
 91
        4
 64
     7
 65
   257
 75
     1
175
     1
 42
1.0
 92
        8
 66
     8
424
  8421504
 43
1.0
 76
     1
 77
     6
 78
     2
 67
     7
 79
     5
170
     0
171
     0
290
     0
174
     0
 93
        1
 44
0.0
173
     0
291
     1
 45
0.0
  0
VISUALSTYLE
  5
34
102
{ACAD_REACTORS
330
2A
102
}
102
{ACAD_XDICTIONARY
360
9C
102
}
330
2A
100
AcDbVisualStyle
  2
Conceptual
 70
     9
 71
     3
 72
     2
 73
     0
 90
        0
 40
-0.6
 41
-30.0
 62
     5
 63
     7
421
 16777215
 74
     2
 91
        2
 64
     7
 65
   257
 75
     1
175
     1
 42
40.0
 92
        8
 66
     7
 43
1.0
 76
     1
 77
     6
 78
     2
 67
     7
 79
     3
170
     0
171
     0
290
     0
174
     0
 93
        1
 44
0.0
173
     0
291
     0
 45
0.0
  0
VISUALSTYLE
  5
35
102
{ACAD_REACTORS
330
2A
102
}
102
{ACAD_XDICTIONARY
360
9E
102
}
330
2A
100
AcDbVisualStyle
  2
Dim
 70
    11
 71
     2
 72
     2
 73
     0
 90
        0
 40
-0.6
 41
-30.0
 62
     5
 63
     7
421
 16777215
 74
     1
 91
        4
 64
     7
 65
   257
 75
     1
175
     1
 42
1.0
 92
        8
 66
     7
 43
1.0
 76
     1
 77
     6
 78
     2
 67
     7
 79
     5
170
     0
171
     0
290
     0
174
     0
 93
        1
 44
-50.0
173
     0
291
     1
 45
0.0
  0
VISUALSTYLE
  5
39
102
{ACAD_REACTORS
330
2A
102
}
102
{ACAD_XDICTIONARY
360
A6
102
}
330
2A
100
AcDbVisualStyle
  2
Facepattern
 70
    15
 71
     2
 72
     2
 73
     0
 90
        0
 40
-0.6
 41
-30.0
 62
     5
 63
     7
421
 16777215
 74
     1
 91
        4
 64
     7
 65
   257
 75
     1
175
     1
 42
1.0
 92
        8
 66
     7
 43
1.0
 76
     1
 77
     6
 78
     2
 67
     7
 79
     5
170
     0
171
     0
290
     0
174
     0
 93
        1
 44
0.0
173
     0
291
     1
 45
0.0
  0
VISUALSTYLE
  5
2B
102
{ACAD_REACTORS
330
2A
102
}
102
{ACAD_XDICTIONARY
360
8A
102
}
330
2A
100
AcDbVisualStyle
  2
Flat
 70
     0
 71
     2
 72
     1
 73
     1
 90
        2
 40
-0.6
 41
30.0
 62
     5
 63
     7
421
 16777215
 74
     0
 91
        4
 64
     7
 65
   257
 75
     1
175
     1
 42
1.0
 92
        8
 66
     7
 43
1.0
 76
     1
 77
     6
 78
     2
 67
     7
 79
     5
170
     0
171
     0
290
     0
174
     0
 93
       13
 44
0.0
173
     0
291
     1
 45
0.0
  0
VISUALSTYLE
  5
2C
102
{ACAD_REACTORS
330
2A
102
}
102
{ACAD_XDICTIONARY
360
8C
102
}
330
2A
100
AcDbVisualStyle
  2
FlatWithEdges
 70
     1
 71
     2
 72
     1
 73
     1
 90
        2
 40
-0.6
 41
30.0
 62
     5
 63
     7
421
 16777215
 74
     1
 91
        4
 64
     7
 65
   257
 75
     1
175
     1
 42
1.0
 92
        0
 66
   257
 43
1.0
 76
     1
 77
     6
 78
     2
 67
     7
 79
     5
170
     0
171
     0
290
     0
174
     0
 93
       13
 44
0.0
173
     0
291
     1
 45
0.0
  0
VISUALSTYLE
  5
2D
102
{ACAD_REACTORS
330
2A
102
}
102
{ACAD_XDICTIONARY
360
8E
102
}
330
2A
100
AcDbVisualStyle
  2
Gouraud
 70
     2
 71
     2
 72
     2
 73
     1
 90
        2
 40
-0.6
 41
30.0
 62
     5
 63
     7
421
 16777215
 74
     0
 91
        4
 64
     7
 65
   257
 75
     1
175
     1
 42
1.0
 92
        0
 66
     7
 43
1.0
 76
     1
 77
     6
 78
     2
 67
     7
 79
     5
170
     0
171
     0
290
     0
174
     0
 93
       13
 44
0.0
173
     0
291
     1
 45
0.0
  0
VISUALSTYLE
  5
2E
102
{ACAD_REACTORS
330
2A
102
}
102
{ACAD_XDICTIONARY
360
90
102
}
330
2A
100
AcDbVisualStyle
  2
GouraudWithEdges
 70
     3
 71
     2
 72
     2
 73
     1
 90
        2
 40
-0.6
 41
30.0
 62
     5
 63
     7
421
 16777215
 74
     1
 91
        4
 64
     7
 65
   257
 75
     1
175
     1
 42
1.0
 92
        0
 66
   257
 43
1.0
 76
     1
 77
     6
 78
     2
 67
     7
 79
     5
170
     0
171
     0
290
     0
174
     0
 93
       13
 44
0.0
173
     0
291
     1
 45
0.0
  0
VISUALSTYLE
  5
38
102
{ACAD_REACTORS
330
2A
102
}
102
{ACAD_XDICTIONARY
360
A4
102
}
330
2A
100
AcDbVisualStyle
  2
Linepattern
 70
    14
 71
     2
 72
     2
 73
     0
 90
        0
 40
-0.6
 41
-30.0
 62
     5
 63
     7
421
 16777215
 74
     1
 91
        4
 64
     7
 65
   257
 75
     7
175
     7
 42
1.0
 92
        8
 66
     7
 43
1.0
 76
     1
 77
     6
 78
     2
 67
     7
 79
     5
170
     0
171
     0
290
     0
174
     0
 93
        1
 44
0.0
173
     0
291
     1
 45
0.0
  0
VISUALSTYLE
  5
33
102
{ACAD_REACTORS
330
2A
102
}
102
{ACAD_XDICTIONARY
360
9A
102
}
330
2A
100
AcDbVisualStyle
  2
Realistic
 70
     8
 71
     2
 72
     2
 73
     0
 90
        0
 40
-0.6
 41
-30.0
 62
     5
 63
     7
421
 16777215
 74
     1
 91
        0
 64
     7
 65
   257
 75
     1
175
     1
 42
1.0
 92
        8
 66
     8
424
  7895160
 43
1.0
 76
     1
 77
     6
 78
     2
 67
     7
 79
     5
170
     0
171
     0
290
     0
174
     0
 93
       13
 44
0.0
173
     0
291
     0
 45
0.0
  0
VISUALSTYLE
  5
37
102
{ACAD_REACTORS
330
2A
102
}
102
{ACAD_XDICTIONARY
360
A2
102
}
330
2A
100
AcDbVisualStyle
  2
Thicken
 70
    13
 71
     2
 72
     2
 73
     0
 90
        0
 40
-0.6
 41
-30.0
 62
     5
 63
     7
421
 16777215
 74
     1
 91
        4
 64
     7
 65
   257
 75
     1
175
     1
 42
1.0
 92
       12
 66
     7
 43
1.0
 76
     1
 77
     6
 78
     2
 67
     7
 79
     5
170
     0
171
     0
290
     0
174
     0
 93
        1
 44
0.0
173
     0
291
     1
 45
0.0
  0
DICTIONARY
  5
92
330
2F
100
AcDbDictionary
280
     1
281
     1
  3
ACAD_XREC_ROUNDTRIP
360
93
  0
DICTIONARY
  5
96
330
31
100
AcDbDictionary
280
     1
281
     1
  3
ACAD_XREC_ROUNDTRIP
360
97
  0
DICTIONARY
  5
94
330
30
100
AcDbDictionary
280
     1
281
     1
  3
ACAD_XREC_ROUNDTRIP
360
95
  0
DICTIONARY
  5
98
330
32
100
AcDbDictionary
280
     1
281
     1
  3
ACAD_XREC_ROUNDTRIP
360
99
  0
DICTIONARY
  5
A0
330
36
100
AcDbDictionary
280
     1
281
     1
  3
ACAD_XREC_ROUNDTRIP
360
A1
  0
DICTIONARY
  5
A8
330
3A
100
AcDbDictionary
280
     1
281
     1
  3
ACAD_XREC_ROUNDTRIP
360
A9
  0
DICTIONARY
  5
9C
330
34
100
AcDbDictionary
280
     1
281
     1
  3
ACAD_XREC_ROUNDTRIP
360
9D
  0
DICTIONARY
  5
9E
330
35
100
AcDbDictionary
280
     1
281
     1
  3
ACAD_XREC_ROUNDTRIP
360
9F
  0
DICTIONARY
  5
A6
330
39
100
AcDbDictionary
280
     1
281
     1
  3
ACAD_XREC_ROUNDTRIP
360
A7
  0
DICTIONARY
  5
8A
330
2B
100
AcDbDictionary
280
     1
281
     1
  3
ACAD_XREC_ROUNDTRIP
360
8B
  0
DICTIONARY
  5
8C
330
2C
100
AcDbDictionary
280
     1
281
     1
  3
ACAD_XREC_ROUNDTRIP
360
8D
  0
DICTIONARY
  5
8E
330
2D
100
AcDbDictionary
280
     1
281
     1
  3
ACAD_XREC_ROUNDTRIP
360
8F
  0
DICTIONARY
  5
90
330
2E
100
AcDbDictionary
280
     1
281
     1
  3
ACAD_XREC_ROUNDTRIP
360
91
  0
DICTIONARY
  5
A4
330
38
100
AcDbDictionary
280
     1
281
     1
  3
ACAD_XREC_ROUNDTRIP
360
A5
  0
DICTIONARY
  5
9A
330
33
100
AcDbDictionary
280
     1
281
     1
  3
ACAD_XREC_ROUNDTRIP
360
9B
  0
DICTIONARY
  5
A2
330
37
100
AcDbDictionary
280
     1
281
     1
  3
ACAD_XREC_ROUNDTRIP
360
A3
  0
XRECORD
  5
93
102
{ACAD_REACTORS
330
92
102
}
330
92
100
AcDbXrecord
280
     1
102
RTVSPropertyOp0
 70
     1
102
RTVSPropertyOp1
 70
     1
102
RTVSPropertyOp2
 70
     1
102
RTVSPropertyOp3
 70
     1
102
RTVSPropertyOp4
 70
     1
102
RTVSPropertyOp5
 70
     1
102
RTVSPropertyOp6
 70
     1
102
RTVSPropertyOp7
 70
     1
102
RTVSPropertyOp8
 70
     1
102
RTVSPropertyOp9
 70
     1
102
RTVSPropertyOp10
 70
     1
102
RTVSPropertyOp11
 70
     1
102
RTVSPropertyOp12
 70
     1
102
RTVSPropertyOp13
 70
     1
102
RTVSPropertyOp14
 70
     1
102
RTVSPropertyOp15
 70
     1
102
RTVSPropertyOp16
 70
     1
102
RTVSPropertyOp17
 70
     1
102
RTVSPropertyOp18
 70
     1
102
RTVSPropertyOp19
 70
     1
102
RTVSPropertyOp20
 70
     1
102
RTVSPropertyOp21
 70
     1
102
RTVSPropertyOp22
 70
     1
102
RTVSPropertyOp23
 70
     1
102
RTVSPropertyOp24
 70
     1
102
RTVSPropertyOp25
 70
     1
102
RTVSPropertyOp26
 70
     1
102
RTVSPropertyOp27
 70
     1
102
RTVSPropertyOp28
 70
     1
102
RTVSPropertyOp29
 70
     1
102
RTVSPropertyOp30
 70
     1
102
RTVSPropertyOp31
 70
     1
102
RTVSPropertyOp32
 70
     1
  0
XRECORD
  5
97
102
{ACAD_REACTORS
330
96
102
}
330
96
100
AcDbXrecord
280
     1
102
RTVSPropertyOp0
 70
     1
102
RTVSPropertyOp1
 70
     1
102
RTVSPropertyOp2
 70
     1
102
RTVSPropertyOp3
 70
     1
102
RTVSPropertyOp4
 70
     1
102
RTVSPropertyOp5
 70
     1
102
RTVSPropertyOp6
 70
     1
102
RTVSPropertyOp7
 70
     1
102
RTVSPropertyOp8
 70
     1
102
RTVSPropertyOp9
 70
     1
102
RTVSPropertyOp10
 70
     1
102
RTVSPropertyOp11
 70
     1
102
RTVSPropertyOp12
 70
     1
102
RTVSPropertyOp13
 70
     1
102
RTVSPropertyOp14
 70
     1
102
RTVSPropertyOp15
 70
     1
102
RTVSPropertyOp16
 70
     1
102
RTVSPropertyOp17
 70
     1
102
RTVSPropertyOp18
 70
     1
102
RTVSPropertyOp19
 70
     1
102
RTVSPropertyOp20
 70
     1
102
RTVSPropertyOp21
 70
     1
102
RTVSPropertyOp22
 70
     1
102
RTVSPropertyOp23
 70
     1
102
RTVSPropertyOp24
 70
     1
102
RTVSPropertyOp25
 70
     1
102
RTVSPropertyOp26
 70
     1
102
RTVSPropertyOp27
 70
     1
102
RTVSPropertyOp28
 70
     1
102
RTVSPropertyOp29
 70
     1
102
RTVSPropertyOp30
 70
     1
102
RTVSPropertyOp31
 70
     1
102
RTVSPropertyOp32
 70
     1
  0
XRECORD
  5
95
102
{ACAD_REACTORS
330
94
102
}
330
94
100
AcDbXrecord
280
     1
102
RTVSPropertyOp0
 70
     1
102
RTVSPropertyOp1
 70
     1
102
RTVSPropertyOp2
 70
     1
102
RTVSPropertyOp3
 70
     1
102
RTVSPropertyOp4
 70
     1
102
RTVSPropertyOp5
 70
     1
102
RTVSPropertyOp6
 70
     1
102
RTVSPropertyOp7
 70
     1
102
RTVSPropertyOp8
 70
     1
102
RTVSPropertyOp9
 70
     1
102
RTVSPropertyOp10
 70
     1
102
RTVSPropertyOp11
 70
     1
102
RTVSPropertyOp12
 70
     1
102
RTVSPropertyOp13
 70
     1
102
RTVSPropertyOp14
 70
     1
102
RTVSPropertyOp15
 70
     1
102
RTVSPropertyOp16
 70
     1
102
RTVSPropertyOp17
 70
     1
102
RTVSPropertyOp18
 70
     1
102
RTVSPropertyOp19
 70
     1
102
RTVSPropertyOp20
 70
     1
102
RTVSPropertyOp21
 70
     1
102
RTVSPropertyOp22
 70
     1
102
RTVSPropertyOp23
 70
     1
102
RTVSPropertyOp24
 70
     1
102
RTVSPropertyOp25
 70
     1
102
RTVSPropertyOp26
 70
     1
102
RTVSPropertyOp27
 70
     1
102
RTVSPropertyOp28
 70
     1
102
RTVSPropertyOp29
 70
     1
102
RTVSPropertyOp30
 70
     1
102
RTVSPropertyOp31
 70
     1
102
RTVSPropertyOp32
 70
     1
  0
XRECORD
  5
99
102
{ACAD_REACTORS
330
98
102
}
330
98
100
AcDbXrecord
280
     1
102
RTVSPropertyOp0
 70
     1
102
RTVSPropertyOp1
 70
     1
102
RTVSPropertyOp2
 70
     1
102
RTVSPropertyOp3
 70
     1
102
RTVSPropertyOp4
 70
     1
102
RTVSPropertyOp5
 70
     1
102
RTVSPropertyOp6
 70
     1
102
RTVSPropertyOp7
 70
     1
102
RTVSPropertyOp8
 70
     1
102
RTVSPropertyOp9
 70
     1
102
RTVSPropertyOp10
 70
     1
102
RTVSPropertyOp11
 70
     1
102
RTVSPropertyOp12
 70
     1
102
RTVSPropertyOp13
 70
     1
102
RTVSPropertyOp14
 70
     1
102
RTVSPropertyOp15
 70
     1
102
RTVSPropertyOp16
 70
     1
102
RTVSPropertyOp17
 70
     1
102
RTVSPropertyOp18
 70
     1
102
RTVSPropertyOp19
 70
     1
102
RTVSPropertyOp20
 70
     1
102
RTVSPropertyOp21
 70
     1
102
RTVSPropertyOp22
 70
     1
102
RTVSPropertyOp23
 70
     1
102
RTVSPropertyOp24
 70
     1
102
RTVSPropertyOp25
 70
     1
102
RTVSPropertyOp26
 70
     1
102
RTVSPropertyOp27
 70
     1
102
RTVSPropertyOp28
 70
     1
102
RTVSPropertyOp29
 70
     1
102
RTVSPropertyOp30
 70
     1
102
RTVSPropertyOp31
 70
     1
102
RTVSPropertyOp32
 70
     1
  0
XRECORD
  5
A1
102
{ACAD_REACTORS
330
A0
102
}
330
A0
100
AcDbXrecord
280
     1
102
RTVSPropertyOp0
 70
     1
102
RTVSPropertyOp1
 70
     1
102
RTVSPropertyOp2
 70
     1
102
RTVSPropertyOp3
 70
     1
102
RTVSPropertyOp4
 70
     1
102
RTVSPropertyOp5
 70
     1
102
RTVSPropertyOp6
 70
     1
102
RTVSPropertyOp7
 70
     1
102
RTVSPropertyOp8
 70
     1
102
RTVSPropertyOp9
 70
     1
102
RTVSPropertyOp10
 70
     1
102
RTVSPropertyOp11
 70
     1
102
RTVSPropertyOp12
 70
     1
102
RTVSPropertyOp13
 70
     1
102
RTVSPropertyOp14
 70
     1
102
RTVSPropertyOp15
 70
     1
102
RTVSPropertyOp16
 70
     1
102
RTVSPropertyOp17
 70
     1
102
RTVSPropertyOp18
 70
     1
102
RTVSPropertyOp19
 70
     1
102
RTVSPropertyOp20
 70
     1
102
RTVSPropertyOp21
 70
     1
102
RTVSPropertyOp22
 70
     1
102
RTVSPropertyOp23
 70
     1
102
RTVSPropertyOp24
 70
     1
102
RTVSPropertyOp25
 70
     1
102
RTVSPropertyOp26
 70
     1
102
RTVSPropertyOp27
 70
     1
102
RTVSPropertyOp28
 70
     1
102
RTVSPropertyOp29
 70
     1
102
RTVSPropertyOp30
 70
     1
102
RTVSPropertyOp31
 70
     1
102
RTVSPropertyOp32
 70
     1
  0
XRECORD
  5
A9
102
{ACAD_REACTORS
330
A8
102
}
330
A8
100
AcDbXrecord
280
     1
102
RTVSPropertyOp0
 70
     1
102
RTVSPropertyOp1
 70
     1
102
RTVSPropertyOp2
 70
     1
102
RTVSPropertyOp3
 70
     1
102
RTVSPropertyOp4
 70
     1
102
RTVSPropertyOp5
 70
     1
102
RTVSPropertyOp6
 70
     1
102
RTVSPropertyOp7
 70
     1
102
RTVSPropertyOp8
 70
     1
102
RTVSPropertyOp9
 70
     1
102
RTVSPropertyOp10
 70
     1
102
RTVSPropertyOp11
 70
     1
102
RTVSPropertyOp12
 70
     1
102
RTVSPropertyOp13
 70
     1
102
RTVSPropertyOp14
 70
     1
102
RTVSPropertyOp15
 70
     1
102
RTVSPropertyOp16
 70
     1
102
RTVSPropertyOp17
 70
     1
102
RTVSPropertyOp18
 70
     1
102
RTVSPropertyOp19
 70
     1
102
RTVSPropertyOp20
 70
     1
102
RTVSPropertyOp21
 70
     1
102
RTVSPropertyOp22
 70
     1
102
RTVSPropertyOp23
 70
     1
102
RTVSPropertyOp24
 70
     1
102
RTVSPropertyOp25
 70
     1
102
RTVSPropertyOp26
 70
     1
102
RTVSPropertyOp27
 70
     1
102
RTVSPropertyOp28
 70
     1
102
RTVSPropertyOp29
 70
     1
102
RTVSPropertyOp30
 70
     1
102
RTVSPropertyOp31
 70
     1
102
RTVSPropertyOp32
 70
     1
  0
XRECORD
  5
9D
102
{ACAD_REACTORS
330
9C
102
}
330
9C
100
AcDbXrecord
280
     1
102
RTVSPropertyOp0
 70
     1
102
RTVSPropertyOp1
 70
     1
102
RTVSPropertyOp2
 70
     1
102
RTVSPropertyOp3
 70
     1
102
RTVSPropertyOp4
 70
     1
102
RTVSPropertyOp5
 70
     1
102
RTVSPropertyOp6
 70
     1
102
RTVSPropertyOp7
 70
     1
102
RTVSPropertyOp8
 70
     1
102
RTVSPropertyOp9
 70
     1
102
RTVSPropertyOp10
 70
     1
102
RTVSPropertyOp11
 70
     1
102
RTVSPropertyOp12
 70
     1
102
RTVSPropertyOp13
 70
     1
102
RTVSPropertyOp14
 70
     1
102
RTVSPropertyOp15
 70
     1
102
RTVSPropertyOp16
 70
     1
102
RTVSPropertyOp17
 70
     1
102
RTVSPropertyOp18
 70
     1
102
RTVSPropertyOp19
 70
     1
102
RTVSPropertyOp20
 70
     1
102
RTVSPropertyOp21
 70
     1
102
RTVSPropertyOp22
 70
     1
102
RTVSPropertyOp23
 70
     1
102
RTVSPropertyOp24
 70
     1
102
RTVSPropertyOp25
 70
     1
102
RTVSPropertyOp26
 70
     1
102
RTVSPropertyOp27
 70
     1
102
RTVSPropertyOp28
 70
     1
102
RTVSPropertyOp29
 70
     1
102
RTVSPropertyOp30
 70
     1
102
RTVSPropertyOp31
 70
     1
102
RTVSPropertyOp32
 70
     1
  0
XRECORD
  5
9F
102
{ACAD_REACTORS
330
9E
102
}
330
9E
100
AcDbXrecord
280
     1
102
RTVSPropertyOp0
 70
     1
102
RTVSPropertyOp1
 70
     1
102
RTVSPropertyOp2
 70
     1
102
RTVSPropertyOp3
 70
     1
102
RTVSPropertyOp4
 70
     1
102
RTVSPropertyOp5
 70
     1
102
RTVSPropertyOp6
 70
     1
102
RTVSPropertyOp7
 70
     1
102
RTVSPropertyOp8
 70
     1
102
RTVSPropertyOp9
 70
     1
102
RTVSPropertyOp10
 70
     1
102
RTVSPropertyOp11
 70
     1
102
RTVSPropertyOp12
 70
     1
102
RTVSPropertyOp13
 70
     1
102
RTVSPropertyOp14
 70
     1
102
RTVSPropertyOp15
 70
     1
102
RTVSPropertyOp16
 70
     1
102
RTVSPropertyOp17
 70
     1
102
RTVSPropertyOp18
 70
     1
102
RTVSPropertyOp19
 70
     1
102
RTVSPropertyOp20
 70
     1
102
RTVSPropertyOp21
 70
     1
102
RTVSPropertyOp22
 70
     1
102
RTVSPropertyOp23
 70
     1
102
RTVSPropertyOp24
 70
     1
102
RTVSPropertyOp25
 70
     1
102
RTVSPropertyOp26
 70
     1
102
RTVSPropertyOp27
 70
     1
102
RTVSPropertyOp28
 70
     1
102
RTVSPropertyOp29
 70
     1
102
RTVSPropertyOp30
 70
     1
102
RTVSPropertyOp31
 70
     1
102
RTVSPropertyOp32
 70
     1
  0
XRECORD
  5
A7
102
{ACAD_REACTORS
330
A6
102
}
330
A6
100
AcDbXrecord
280
     1
102
RTVSPropertyOp0
 70
     1
102
RTVSPropertyOp1
 70
     1
102
RTVSPropertyOp2
 70
     1
102
RTVSPropertyOp3
 70
     1
102
RTVSPropertyOp4
 70
     1
102
RTVSPropertyOp5
 70
     1
102
RTVSPropertyOp6
 70
     1
102
RTVSPropertyOp7
 70
     1
102
RTVSPropertyOp8
 70
     1
102
RTVSPropertyOp9
 70
     1
102
RTVSPropertyOp10
 70
     1
102
RTVSPropertyOp11
 70
     1
102
RTVSPropertyOp12
 70
     1
102
RTVSPropertyOp13
 70
     1
102
RTVSPropertyOp14
 70
     1
102
RTVSPropertyOp15
 70
     1
102
RTVSPropertyOp16
 70
     1
102
RTVSPropertyOp17
 70
     1
102
RTVSPropertyOp18
 70
     1
102
RTVSPropertyOp19
 70
     1
102
RTVSPropertyOp20
 70
     1
102
RTVSPropertyOp21
 70
     1
102
RTVSPropertyOp22
 70
     1
102
RTVSPropertyOp23
 70
     1
102
RTVSPropertyOp24
 70
     1
102
RTVSPropertyOp25
 70
     1
102
RTVSPropertyOp26
 70
     1
102
RTVSPropertyOp27
 70
     1
102
RTVSPropertyOp28
 70
     1
102
RTVSPropertyOp29
 70
     1
102
RTVSPropertyOp30
 70
     1
102
RTVSPropertyOp31
 70
     1
102
RTVSPropertyOp32
 70
     1
  0
XRECORD
  5
8B
102
{ACAD_REACTORS
330
8A
102
}
330
8A
100
AcDbXrecord
280
     1
102
RTVSPropertyOp0
 70
     1
102
RTVSPropertyOp1
 70
     1
102
RTVSPropertyOp2
 70
     1
102
RTVSPropertyOp3
 70
     1
102
RTVSPropertyOp4
 70
     1
102
RTVSPropertyOp5
 70
     1
102
RTVSPropertyOp6
 70
     1
102
RTVSPropertyOp7
 70
     1
102
RTVSPropertyOp8
 70
     1
102
RTVSPropertyOp9
 70
     1
102
RTVSPropertyOp10
 70
     1
102
RTVSPropertyOp11
 70
     1
102
RTVSPropertyOp12
 70
     1
102
RTVSPropertyOp13
 70
     1
102
RTVSPropertyOp14
 70
     1
102
RTVSPropertyOp15
 70
     1
102
RTVSPropertyOp16
 70
     1
102
RTVSPropertyOp17
 70
     1
102
RTVSPropertyOp18
 70
     1
102
RTVSPropertyOp19
 70
     1
102
RTVSPropertyOp20
 70
     1
102
RTVSPropertyOp21
 70
     1
102
RTVSPropertyOp22
 70
     1
102
RTVSPropertyOp23
 70
     1
102
RTVSPropertyOp24
 70
     1
102
RTVSPropertyOp25
 70
     1
102
RTVSPropertyOp26
 70
     1
102
RTVSPropertyOp27
 70
     1
102
RTVSPropertyOp28
 70
     1
102
RTVSPropertyOp29
 70
     1
102
RTVSPropertyOp30
 70
     1
102
RTVSPropertyOp31
 70
     1
102
RTVSPropertyOp32
 70
     1
  0
XRECORD
  5
8D
102
{ACAD_REACTORS
330
8C
102
}
330
8C
100
AcDbXrecord
280
     1
102
RTVSPropertyOp0
 70
     1
102
RTVSPropertyOp1
 70
     1
102
RTVSPropertyOp2
 70
     1
102
RTVSPropertyOp3
 70
     1
102
RTVSPropertyOp4
 70
     1
102
RTVSPropertyOp5
 70
     1
102
RTVSPropertyOp6
 70
     1
102
RTVSPropertyOp7
 70
     1
102
RTVSPropertyOp8
 70
     1
102
RTVSPropertyOp9
 70
     1
102
RTVSPropertyOp10
 70
     1
102
RTVSPropertyOp11
 70
     1
102
RTVSPropertyOp12
 70
     1
102
RTVSPropertyOp13
 70
     1
102
RTVSPropertyOp14
 70
     1
102
RTVSPropertyOp15
 70
     1
102
RTVSPropertyOp16
 70
     1
102
RTVSPropertyOp17
 70
     1
102
RTVSPropertyOp18
 70
     1
102
RTVSPropertyOp19
 70
     1
102
RTVSPropertyOp20
 70
     1
102
RTVSPropertyOp21
 70
     1
102
RTVSPropertyOp22
 70
     1
102
RTVSPropertyOp23
 70
     1
102
RTVSPropertyOp24
 70
     1
102
RTVSPropertyOp25
 70
     1
102
RTVSPropertyOp26
 70
     1
102
RTVSPropertyOp27
 70
     1
102
RTVSPropertyOp28
 70
     1
102
RTVSPropertyOp29
 70
     1
102
RTVSPropertyOp30
 70
     1
102
RTVSPropertyOp31
 70
     1
102
RTVSPropertyOp32
 70
     1
  0
XRECORD
  5
8F
102
{ACAD_REACTORS
330
8E
102
}
330
8E
100
AcDbXrecord
280
     1
102
RTVSPropertyOp0
 70
     1
102
RTVSPropertyOp1
 70
     1
102
RTVSPropertyOp2
 70
     1
102
RTVSPropertyOp3
 70
     1
102
RTVSPropertyOp4
 70
     1
102
RTVSPropertyOp5
 70
     1
102
RTVSPropertyOp6
 70
     1
102
RTVSPropertyOp7
 70
     1
102
RTVSPropertyOp8
 70
     1
102
RTVSPropertyOp9
 70
     1
102
RTVSPropertyOp10
 70
     1
102
RTVSPropertyOp11
 70
     1
102
RTVSPropertyOp12
 70
     1
102
RTVSPropertyOp13
 70
     1
102
RTVSPropertyOp14
 70
     1
102
RTVSPropertyOp15
 70
     1
102
RTVSPropertyOp16
 70
     1
102
RTVSPropertyOp17
 70
     1
102
RTVSPropertyOp18
 70
     1
102
RTVSPropertyOp19
 70
     1
102
RTVSPropertyOp20
 70
     1
102
RTVSPropertyOp21
 70
     1
102
RTVSPropertyOp22
 70
     1
102
RTVSPropertyOp23
 70
     1
102
RTVSPropertyOp24
 70
     1
102
RTVSPropertyOp25
 70
     1
102
RTVSPropertyOp26
 70
     1
102
RTVSPropertyOp27
 70
     1
102
RTVSPropertyOp28
 70
     1
102
RTVSPropertyOp29
 70
     1
102
RTVSPropertyOp30
 70
     1
102
RTVSPropertyOp31
 70
     1
102
RTVSPropertyOp32
 70
     1
  0
XRECORD
  5
91
102
{ACAD_REACTORS
330
90
102
}
330
90
100
AcDbXrecord
280
     1
102
RTVSPropertyOp0
 70
     1
102
RTVSPropertyOp1
 70
     1
102
RTVSPropertyOp2
 70
     1
102
RTVSPropertyOp3
 70
     1
102
RTVSPropertyOp4
 70
     1
102
RTVSPropertyOp5
 70
     1
102
RTVSPropertyOp6
 70
     1
102
RTVSPropertyOp7
 70
     1
102
RTVSPropertyOp8
 70
     1
102
RTVSPropertyOp9
 70
     1
102
RTVSPropertyOp10
 70
     1
102
RTVSPropertyOp11
 70
     1
102
RTVSPropertyOp12
 70
     1
102
RTVSPropertyOp13
 70
     1
102
RTVSPropertyOp14
 70
     1
102
RTVSPropertyOp15
 70
     1
102
RTVSPropertyOp16
 70
     1
102
RTVSPropertyOp17
 70
     1
102
RTVSPropertyOp18
 70
     1
102
RTVSPropertyOp19
 70
     1
102
RTVSPropertyOp20
 70
     1
102
RTVSPropertyOp21
 70
     1
102
RTVSPropertyOp22
 70
     1
102
RTVSPropertyOp23
 70
     1
102
RTVSPropertyOp24
 70
     1
102
RTVSPropertyOp25
 70
     1
102
RTVSPropertyOp26
 70
     1
102
RTVSPropertyOp27
 70
     1
102
RTVSPropertyOp28
 70
     1
102
RTVSPropertyOp29
 70
     1
102
RTVSPropertyOp30
 70
     1
102
RTVSPropertyOp31
 70
     1
102
RTVSPropertyOp32
 70
     1
  0
XRECORD
  5
A5
102
{ACAD_REACTORS
330
A4
102
}
330
A4
100
AcDbXrecord
280
     1
102
RTVSPropertyOp0
 70
     1
102
RTVSPropertyOp1
 70
     1
102
RTVSPropertyOp2
 70
     1
102
RTVSPropertyOp3
 70
     1
102
RTVSPropertyOp4
 70
     1
102
RTVSPropertyOp5
 70
     1
102
RTVSPropertyOp6
 70
     1
102
RTVSPropertyOp7
 70
     1
102
RTVSPropertyOp8
 70
     1
102
RTVSPropertyOp9
 70
     1
102
RTVSPropertyOp10
 70
     1
102
RTVSPropertyOp11
 70
     1
102
RTVSPropertyOp12
 70
     1
102
RTVSPropertyOp13
 70
     1
102
RTVSPropertyOp14
 70
     1
102
RTVSPropertyOp15
 70
     1
102
RTVSPropertyOp16
 70
     1
102
RTVSPropertyOp17
 70
     1
102
RTVSPropertyOp18
 70
     1
102
RTVSPropertyOp19
 70
     1
102
RTVSPropertyOp20
 70
     1
102
RTVSPropertyOp21
 70
     1
102
RTVSPropertyOp22
 70
     1
102
RTVSPropertyOp23
 70
     1
102
RTVSPropertyOp24
 70
     1
102
RTVSPropertyOp25
 70
     1
102
RTVSPropertyOp26
 70
     1
102
RTVSPropertyOp27
 70
     1
102
RTVSPropertyOp28
 70
     1
102
RTVSPropertyOp29
 70
     1
102
RTVSPropertyOp30
 70
     1
102
RTVSPropertyOp31
 70
     1
102
RTVSPropertyOp32
 70
     1
  0
XRECORD
  5
9B
102
{ACAD_REACTORS
330
9A
102
}
330
9A
100
AcDbXrecord
280
     1
102
RTVSPropertyOp0
 70
     1
102
RTVSPropertyOp1
 70
     1
102
RTVSPropertyOp2
 70
     1
102
RTVSPropertyOp3
 70
     1
102
RTVSPropertyOp4
 70
     1
102
RTVSPropertyOp5
 70
     1
102
RTVSPropertyOp6
 70
     1
102
RTVSPropertyOp7
 70
     1
102
RTVSPropertyOp8
 70
     1
102
RTVSPropertyOp9
 70
     1
102
RTVSPropertyOp10
 70
     1
102
RTVSPropertyOp11
 70
     1
102
RTVSPropertyOp12
 70
     1
102
RTVSPropertyOp13
 70
     1
102
RTVSPropertyOp14
 70
     1
102
RTVSPropertyOp15
 70
     1
102
RTVSPropertyOp16
 70
     1
102
RTVSPropertyOp17
 70
     1
102
RTVSPropertyOp18
 70
     1
102
RTVSPropertyOp19
 70
     1
102
RTVSPropertyOp20
 70
     1
102
RTVSPropertyOp21
 70
     1
102
RTVSPropertyOp22
 70
     1
102
RTVSPropertyOp23
 70
     1
102
RTVSPropertyOp24
 70
     1
102
RTVSPropertyOp25
 70
     1
102
RTVSPropertyOp26
 70
     1
102
RTVSPropertyOp27
 70
     1
102
RTVSPropertyOp28
 70
     1
102
RTVSPropertyOp29
 70
     1
102
RTVSPropertyOp30
 70
     1
102
RTVSPropertyOp31
 70
     1
102
RTVSPropertyOp32
 70
     1
  0
XRECORD
  5
A3
102
{ACAD_REACTORS
330
A2
102
}
330
A2
100
AcDbXrecord
280
     1
102
RTVSPropertyOp0
 70
     1
102
RTVSPropertyOp1
 70
     1
102
RTVSPropertyOp2
 70
     1
102
RTVSPropertyOp3
 70
     1
102
RTVSPropertyOp4
 70
     1
102
RTVSPropertyOp5
 70
     1
102
RTVSPropertyOp6
 70
     1
102
RTVSPropertyOp7
 70
     1
102
RTVSPropertyOp8
 70
     1
102
RTVSPropertyOp9
 70
     1
102
RTVSPropertyOp10
 70
     1
102
RTVSPropertyOp11
 70
     1
102
RTVSPropertyOp12
 70
     1
102
RTVSPropertyOp13
 70
     1
102
RTVSPropertyOp14
 70
     1
102
RTVSPropertyOp15
 70
     1
102
RTVSPropertyOp16
 70
     1
102
RTVSPropertyOp17
 70
     1
102
RTVSPropertyOp18
 70
     1
102
RTVSPropertyOp19
 70
     1
102
RTVSPropertyOp20
 70
     1
102
RTVSPropertyOp21
 70
     1
102
RTVSPropertyOp22
 70
     1
102
RTVSPropertyOp23
 70
     1
102
RTVSPropertyOp24
 70
     1
102
RTVSPropertyOp25
 70
     1
102
RTVSPropertyOp26
 70
     1
102
RTVSPropertyOp27
 70
     1
102
RTVSPropertyOp28
 70
     1
102
RTVSPropertyOp29
 70
     1
102
RTVSPropertyOp30
 70
     1
102
RTVSPropertyOp31
 70
     1
102
RTVSPropertyOp32
 70
     1
  0
ENDSEC
  0
EOF
