  0
SECTION
  2
HEADER
  9
$ACADVER
  1
AC1021
  9
$ACADMAINTVER
 70
    25
  9
$DWGCODEPAGE
  3
ANSI_1252
  9
$INSBASE
 10
0.0
 20
0.0
 30
0.0
  9
$EXTMIN
 10
-3.58834
 20
-0.34401
 30
0.0
  9
$EXTMAX
 10
3.58833
 20
3.35687
 30
0.0
  9
$LIMMIN
 10
0.0
 20
0.0
  9
$LIMMAX
 10
12.0
 20
9.0
  9
$ORTHOMODE
 70
     0
  9
$REGENMODE
 70
     1
  9
$FILLMODE
 70
     1
  9
$QTEXTMODE
 70
     0
  9
$MIRRTEXT
 70
     1
  9
$LTSCALE
 40
1.0
  9
$ATTMODE
 70
     1
  9
$TEXTSIZE
 40
0.2
  9
$TRACEWID
 40
0.05
  9
$TEXTSTYLE
  7
Standard
  9
$CLAYER
  8
0
  9
$CELTYPE
  6
ByLayer
  9
$CECOLOR
 62
   256
  9
$CELTSCALE
 40
1.0
  9
$DISPSILH
 70
     0
  9
$DIMSCALE
 40
1.0
  9
$DIMASZ
 40
0.18
  9
$DIMEXO
 40
0.0625
  9
$DIMDLI
 40
0.38
  9
$DIMRND
 40
0.0
  9
$DIMDLE
 40
0.0
  9
$DIMEXE
 40
0.18
  9
$DIMTP
 40
0.0
  9
$DIMTM
 40
0.0
  9
$DIMTXT
 40
0.18
  9
$DIMCEN
 40
0.09
  9
$DIMTSZ
 40
0.0
  9
$DIMTOL
 70
     0
  9
$DIMLIM
 70
     0
  9
$DIMTIH
 70
     1
  9
$DIMTOH
 70
     1
  9
$DIMSE1
 70
     0
  9
$DIMSE2
 70
     0
  9
$DIMTAD
 70
     0
  9
$DIMZIN
 70
     0
  9
$DIMBLK
  1

  9
$DIMASO
 70
     1
  9
$DIMSHO
 70
     1
  9
$DIMPOST
  1

  9
$DIMAPOST
  1

  9
$DIMALT
 70
     0
  9
$DIMALTD
 70
     2
  9
$DIMALTF
 40
25.4
  9
$DIMLFAC
 40
1.0
  9
$DIMTOFL
 70
     0
  9
$DIMTVP
 40
0.0
  9
$DIMTIX
 70
     0
  9
$DIMSOXD
 70
     0
  9
$DIMSAH
 70
     0
  9
$DIMBLK1
  1

  9
$DIMBLK2
  1

  9
$DIMSTYLE
  2
Standard
  9
$DIMCLRD
 70
     0
  9
$DIMCLRE
 70
     0
  9
$DIMCLRT
 70
     0
  9
$DIMTFAC
 40
1.0
  9
$DIMGAP
 40
0.09
  9
$DIMJUST
 70
     0
  9
$DIMSD1
 70
     0
  9
$DIMSD2
 70
     0
  9
$DIMTOLJ
 70
     1
  9
$DIMTZIN
 70
     0
  9
$DIMALTZ
 70
     0
  9
$DIMALTTZ
 70
     0
  9
$DIMUPT
 70
     0
  9
$DIMDEC
 70
     4
  9
$DIMTDEC
 70
     4
  9
$DIMALTU
 70
     2
  9
$DIMALTTD
 70
     2
  9
$DIMTXSTY
  7
Standard
  9
$DIMAUNIT
 70
     0
  9
$DIMADEC
 70
     0
  9
$DIMALTRND
 40
0.0
  9
$DIMAZIN
 70
     0
  9
$DIMDSEP
 70
    46
  9
$DIMATFIT
 70
     3
  9
$DIMFRAC
 70
     0
  9
$DIMLDRBLK
  1

  9
$DIMLUNIT
 70
     2
  9
$DIMLWD
 70
    -2
  9
$DIMLWE
 70
    -2
  9
$DIMTMOVE
 70
     0
  9
$DIMFXL
 40
1.0
  9
$DIMFXLON
 70
     0
  9
$DIMJOGANG
 40
0.7853981633974483
  9
$DIMTFILL
 70
     0
  9
$DIMTFILLCLR
 70
     0
  9
$DIMARCSYM
 70
     0
  9
$DIMLTYPE
  6

  9
$DIMLTEX1
  6

  9
$DIMLTEX2
  6

  9
$LUNITS
 70
     2
  9
$LUPREC
 70
     4
  9
$SKETCHINC
 40
0.1
  9
$FILLETRAD
 40
0.5
  9
$AUNITS
 70
     0
  9
$AUPREC
 70
     0
  9
$MENU
  1
.
  9
$ELEVATION
 40
0.0
  9
$PELEVATION
 40
0.0
  9
$THICKNESS
 40
0.0
  9
$LIMCHECK
 70
     0
  9
$CHAMFERA
 40
0.5
  9
$CHAMFERB
 40
0.5
  9
$CHAMFERC
 40
1.0
  9
$CHAMFERD
 40
0.0
  9
$SKPOLY
 70
     0
  9
$TDCREATE
 40
2460571.62662772
  9
$TDUCREATE
 40
2460571.584961053
  9
$TDUPDATE
 40
2460571.626627766
  9
$TDUUPDATE
 40
2460571.5849611
  9
$TDINDWG
 40
0.0000000116
  9
$TDUSRTIMER
 40
0.0000000116
  9
$USRTIMER
 70
     1
  9
$ANGBASE
 50
0.0
  9
$ANGDIR
 70
     0
  9
$PDMODE
 70
     0
  9
$PDSIZE
 40
0.0
  9
$PLINEWID
 40
0.0
  9
$SPLFRAME
 70
     0
  9
$SPLINETYPE
 70
     6
  9
$SPLINESEGS
 70
     8
  9
$HANDSEED
  5
7A
  9
$SURFTAB1
 70
     6
  9
$SURFTAB2
 70
     6
  9
$SURFTYPE
 70
     6
  9
$SURFU
 70
     6
  9
$SURFV
 70
     6
  9
$UCSBASE
  2

  9
$UCSNAME
  2

  9
$UCSORG
 10
0.0
 20
0.0
 30
0.0
  9
$UCSXDIR
 10
1.0
 20
0.0
 30
0.0
  9
$UCSYDIR
 10
0.0
 20
1.0
 30
0.0
  9
$UCSORTHOREF
  2

  9
$UCSORTHOVIEW
 70
     0
  9
$UCSORGTOP
 10
0.0
 20
0.0
 30
0.0
  9
$UCSORGBOTTOM
 10
0.0
 20
0.0
 30
0.0
  9
$UCSORGLEFT
 10
0.0
 20
0.0
 30
0.0
  9
$UCSORGRIGHT
 10
0.0
 20
0.0
 30
0.0
  9
$UCSORGFRONT
 10
0.0
 20
0.0
 30
0.0
  9
$UCSORGBACK
 10
0.0
 20
0.0
 30
0.0
  9
$PUCSBASE
  2

  9
$PUCSNAME
  2

  9
$PUCSORG
 10
0.0
 20
0.0
 30
0.0
  9
$PUCSXDIR
 10
1.0
 20
0.0
 30
0.0
  9
$PUCSYDIR
 10
0.0
 20
1.0
 30
0.0
  9
$PUCSORTHOREF
  2

  9
$PUCSORTHOVIEW
 70
     0
  9
$PUCSORGTOP
 10
0.0
 20
0.0
 30
0.0
  9
$PUCSORGBOTTOM
 10
0.0
 20
0.0
 30
0.0
  9
$PUCSORGLEFT
 10
0.0
 20
0.0
 30
0.0
  9
$PUCSORGRIGHT
 10
0.0
 20
0.0
 30
0.0
  9
$PUCSORGFRONT
 10
0.0
 20
0.0
 30
0.0
  9
$PUCSORGBACK
 10
0.0
 20
0.0
 30
0.0
  9
$USERI1
 70
     0
  9
$USERI2
 70
     0
  9
$USERI3
 70
     0
  9
$USERI4
 70
     0
  9
$USERI5
 70
     0
  9
$USERR1
 40
0.0
  9
$USERR2
 40
0.0
  9
$USERR3
 40
0.0
  9
$USERR4
 40
0.0
  9
$USERR5
 40
0.0
  9
$WORLDVIEW
 70
     1
  9
$SHADEDGE
 70
     3
  9
$SHADEDIF
 70
    70
  9
$TILEMODE
 70
     1
  9
$MAXACTVP
 70
    64
  9
$PINSBASE
 10
0.0
 20
0.0
 30
0.0
  9
$PLIMCHECK
 70
     0
  9
$PEXTMIN
 10
1.000000000000000E+20
 20
1.000000000000000E+20
 30
1.000000000000000E+20
  9
$PEXTMAX
 10
-1.000000000000000E+20
 20
-1.000000000000000E+20
 30
-1.000000000000000E+20
  9
$PLIMMIN
 10
0.0
 20
0.0
  9
$PLIMMAX
 10
12.0
 20
9.0
  9
$UNITMODE
 70
     0
  9
$VISRETAIN
 70
     1
  9
$PLINEGEN
 70
     0
  9
$PSLTSCALE
 70
     1
  9
$TREEDEPTH
 70
  3020
  9
$CMLSTYLE
  2
Standard
  9
$CMLJUST
 70
     0
  9
$CMLSCALE
 40
1.0
  9
$PROXYGRAPHICS
 70
     1
  9
$MEASUREMENT
 70
     0
  9
$CELWEIGHT
370
    -1
  9
$ENDCAPS
280
     0
  9
$JOINSTYLE
280
     0
  9
$LWDISPLAY
290
     0
  9
$INSUNITS
 70
     5
  9
$HYPERLINKBASE
  1

  9
$STYLESHEET
  1

  9
$XEDIT
290
     1
  9
$CEPSNTYPE
380
     0
  9
$PSTYLEMODE
290
     1
  9
$FINGERPRINTGUID
  2
{75EE39CE-223E-4F2A-92C9-0DBDE99EB26B}
  9
$VERSIONGUID
  2
{FAEB1C32-E019-11D5-929B-00C0DF256EC4}
  9
$EXTNAMES
290
     1
  9
$PSVPSCALE
 40
0.0
  9
$OLESTARTUP
290
     0
  9
$SORTENTS
280
   127
  9
$INDEXCTL
280
     0
  9
$HIDETEXT
280
     1
  9
$XCLIPFRAME
290
     0
  9
$HALOGAP
280
     0
  9
$OBSCOLOR
 70
   257
  9
$OBSLTYPE
280
     0
  9
$INTERSECTIONDISPLAY
280
     0
  9
$INTERSECTIONCOLOR
 70
   257
  9
$DIMASSOC
280
     2
  9
$PROJECTNAME
  1

  9
$CAMERADISPLAY
290
     0
  9
$LENSLENGTH
 40
50.0
  9
$CAMERAHEIGHT
 40
0.0
  9
$STEPSPERSEC
 40
2.0
  9
$STEPSIZE
 40
6.0
  9
$3DDWFPREC
 40
2.0
  9
$PSOLWIDTH
 40
0.25
  9
$PSOLHEIGHT
 40
4.0
  9
$LOFTANG1
 40
1.570796326794897
  9
$LOFTANG2
 40
1.570796326794897
  9
$LOFTMAG1
 40
0.0
  9
$LOFTMAG2
 40
0.0
  9
$LOFTPARAM
 70
     7
  9
$LOFTNORMALS
280
     1
  9
$LATITUDE
 40
37.795
  9
$LONGITUDE
 40
-122.394
  9
$NORTHDIRECTION
 40
0.0
  9
$TIMEZONE
 70
 -8000
  9
$LIGHTGLYPHDISPLAY
280
     1
  9
$TILEMODELIGHTSYNCH
280
     1
  9
$SOLIDHIST
280
     1
  9
$SHOWHIST
280
     1
  9
$DWFFRAME
280
     2
  9
$DGNFRAME
280
     2
  9
$REALWORLDSCALE
290
     1
  9
$INTERFERECOLOR
 62
   256
  9
$CSHADOW
280
     0
  9
$SHADOWPLANELOCATION
 40
0.0
  0
ENDSEC
  0
SECTION
  2
CLASSES
  0
CLASS
  1
ACDBDICTIONARYWDFLT
  2
AcDbDictionaryWithDefault
  3
ObjectDBX Classes
 90
        0
 91
        4
280
     0
281
     0
  0
CLASS
  1
VISUALSTYLE
  2
AcDbVisualStyle
  3
ObjectDBX Classes
 90
     4095
 91
        4
280
     0
281
     0
  0
CLASS
  1
MATERIAL
  2
AcDbMaterial
  3
ObjectDBX Classes
 90
     1153
 91
        4
280
     0
281
     0
  0
ENDSEC
  0
SECTION
  2
TABLES
  0
TABLE
  2
VPORT
  5
8
330
0
100
AcDbSymbolTable
 70
     1
  0
VPORT
  5
29
330
8
100
AcDbSymbolTableRecord
100
AcDbViewportTableRecord
  2
*Active
 70
     0
 10
0.0
 20
0.0
 11
1.0
 21
1.0
 12
10.42990654205607
 22
4.5
 13
0.0
 23
0.0
 14
0.5
 24
0.5
 15
0.5
 25
0.5
 16
0.0
 26
0.0
 36
1.0
 17
0.0
 27
0.0
 37
0.0
 40
9.0
 41
1.972972972850329
 42
50.0
 43
0.0
 44
0.0
 50
0.0
 51
0.0
 71
     0
 72
   100
 73
     1
 74
     3
 75
     0
 76
     0
 77
     0
 78
     0
281
     0
 65
     1
110
0.0
120
0.0
130
0.0
111
1.0
121
0.0
131
0.0
112
0.0
122
1.0
132
0.0
 79
     0
146
0.0
 60
     3
 61
     5
292
     1
282
     1
141
0.0
142
0.0
 63
   250
  0
ENDTAB
  0
TABLE
  2
LTYPE
  5
5
330
0
100
AcDbSymbolTable
 70
     1
  0
LTYPE
  5
14
330
5
100
AcDbSymbolTableRecord
100
AcDbLinetypeTableRecord
  2
ByBlock
 70
     0
  3

 72
    65
 73
     0
 40
0.0
  0
LTYPE
  5
15
330
5
100
AcDbSymbolTableRecord
100
AcDbLinetypeTableRecord
  2
ByLayer
 70
     0
  3

 72
    65
 73
     0
 40
0.0
  0
LTYPE
  5
16
330
5
100
AcDbSymbolTableRecord
100
AcDbLinetypeTableRecord
  2
Continuous
 70
     0
  3
Solid line
 72
    65
 73
     0
 40
0.0
  0
ENDTAB
  0
TABLE
  2
LAYER
  5
2
330
0
100
AcDbSymbolTable
 70
     2
  0
LAYER
  5
10
330
2
100
AcDbSymbolTableRecord
100
AcDbLayerTableRecord
  2
0
 70
     0
 62
     7
  6
Continuous
370
    -3
390
F
347
3E
  0
LAYER
  5
40
330
2
100
AcDbSymbolTableRecord
100
AcDbLayerTableRecord
  2
Layer 1
 70
     0
 62
     7
  6
Continuous
370
    -3
390
F
347
3E
  0
ENDTAB
  0
TABLE
  2
STYLE
  5
3
330
0
100
AcDbSymbolTable
 70
     1
  0
STYLE
  5
11
330
3
100
AcDbSymbolTableRecord
100
AcDbTextStyleTableRecord
  2
Standard
 70
     0
 40
0.0
 41
1.0
 50
0.0
 71
     0
 42
0.2
  3
txt
  4

  0
ENDTAB
  0
TABLE
  2
VIEW
  5
6
330
0
100
AcDbSymbolTable
 70
     0
  0
ENDTAB
  0
TABLE
  2
UCS
  5
7
330
0
100
AcDbSymbolTable
 70
     0
  0
ENDTAB
  0
TABLE
  2
APPID
  5
9
330
0
100
AcDbSymbolTable
 70
     2
  0
APPID
  5
12
330
9
100
AcDbSymbolTableRecord
100
AcDbRegAppTableRecord
  2
ACAD
 70
     0
  0
APPID
  5
3F
330
9
100
AcDbSymbolTableRecord
100
AcDbRegAppTableRecord
  2
ODA
 70
     0
  0
ENDTAB
  0
TABLE
  2
DIMSTYLE
  5
A
330
0
100
AcDbSymbolTable
 70
     1
100
AcDbDimStyleTable
  0
DIMSTYLE
105
27
330
A
100
AcDbSymbolTableRecord
100
AcDbDimStyleTableRecord
  2
Standard
 70
     0
178
     0
340
11
  0
ENDTAB
  0
TABLE
  2
BLOCK_RECORD
  5
1
330
0
100
AcDbSymbolTable
 70
     1
  0
BLOCK_RECORD
  5
1F
330
1
100
AcDbSymbolTableRecord
100
AcDbBlockTableRecord
  2
*Model_Space
340
22
 70
     0
280
     1
281
     0
  0
BLOCK_RECORD
  5
1B
330
1
100
AcDbSymbolTableRecord
100
AcDbBlockTableRecord
  2
*Paper_Space
340
1E
 70
     0
280
     1
281
     0
  0
BLOCK_RECORD
  5
23
330
1
100
AcDbSymbolTableRecord
100
AcDbBlockTableRecord
  2
*Paper_Space0
340
26
 70
     0
280
     1
281
     0
  0
ENDTAB
  0
ENDSEC
  0
SECTION
  2
BLOCKS
  0
BLOCK
  5
20
330
1F
100
AcDbEntity
  8
0
100
AcDbBlockBegin
  2
*Model_Space
 70
     0
 10
0.0
 20
0.0
 30
0.0
  3
*Model_Space
  1

  0
ENDBLK
  5
21
330
1F
100
AcDbEntity
  8
0
100
AcDbBlockEnd
  0
BLOCK
  5
1C
330
1B
100
AcDbEntity
 67
     1
  8
0
100
AcDbBlockBegin
  2
*Paper_Space
 70
     0
 10
0.0
 20
0.0
 30
0.0
  3
*Paper_Space
  1

  0
ENDBLK
  5
1D
330
1B
100
AcDbEntity
 67
     1
  8
0
100
AcDbBlockEnd
  0
BLOCK
  5
24
330
23
100
AcDbEntity
  8
0
100
AcDbBlockBegin
  2
*Paper_Space0
 70
     0
 10
0.0
 20
0.0
 30
0.0
  3
*Paper_Space0
  1

  0
ENDBLK
  5
25
330
23
100
AcDbEntity
  8
0
100
AcDbBlockEnd
  0
ENDSEC
  0
SECTION
  2
ENTITIES
  0
SPLINE
  5
41
330
1F
100
AcDbEntity
  8
Layer 1
100
AcDbSpline
210
0.0
220
0.0
230
1.0
 70
    11
 71
     3
 72
    60
 73
    56
 74
     0
 42
0.0000000001
 43
0.0000000001
 12
1.0
 22
0.0
 32
0.0
 13
1.0
 23
0.0
 33
0.0
 40
0.0
 40
0.0
 40
0.0
 40
0.0
 40
0.0666666666666667
 40
0.0666666666666667
 40
0.0666666666666667
 40
0.0666666666666667
 40
0.1333333333333333
 40
0.1333333333333333
 40
0.1333333333333333
 40
0.1333333333333333
 40
0.2
 40
0.2
 40
0.2
 40
0.2
 40
0.2666666666666667
 40
0.2666666666666667
 40
0.2666666666666667
 40
0.2666666666666667
 40
0.3333333333333333
 40
0.3333333333333333
 40
0.3333333333333333
 40
0.3333333333333333
 40
0.4
 40
0.4
 40
0.4
 40
0.4
 40
0.4666666666666667
 40
0.4666666666666667
 40
0.4666666666666667
 40
0.4666666666666667
 40
0.5333333333333333
 40
0.5333333333333333
 40
0.5333333333333333
 40
0.5333333333333333
 40
0.6
 40
0.6
 40
0.6
 40
0.6
 40
0.6666666666666666
 40
0.6666666666666666
 40
0.6666666666666666
 40
0.6666666666666666
 40
0.7333333333333333
 40
0.7333333333333333
 40
0.7333333333333333
 40
0.7333333333333333
 40
0.8
 40
0.8
 40
0.8
 40
0.8
 40
0.8666666666666667
 40
0.8666666666666667
 40
0.8666666666666667
 40
0.8666666666666667
 40
1.0
 40
1.0
 40
1.0
 40
1.0
 10
-3.58834
 20
2.70409
 30
0.0
 10
-3.58834
 20
2.70409
 30
0.0
 10
-3.58834
 20
3.35687
 30
0.0
 10
-3.58834
 20
3.35687
 30
0.0
 10
-3.58834
 20
3.35687
 30
0.0
 10
-3.58834
 20
3.35687
 30
0.0
 10
-3.50706
 20
3.35687
 30
0.0
 10
-3.50706
 20
3.35687
 30
0.0
 10
-3.50706
 20
3.35687
 30
0.0
 10
-3.50706
 20
3.35687
 30
0.0
 10
-3.50706
 20
3.06802
 30
0.0
 10
-3.50706
 20
3.06802
 30
0.0
 10
-3.50706
 20
3.06802
 30
0.0
 10
-3.46402
 20
3.13081
 30
0.0
 10
-3.41124
 20
3.16214
 30
0.0
 10
-3.34887
 20
3.16214
 30
0.0
 10
-3.34887
 20
3.16214
 30
0.0
 10
-3.30964
 20
3.16214
 30
0.0
 10
-3.27846
 20
3.14986
 30
0.0
 10
-3.25546
 20
3.12517
 30
0.0
 10
-3.25546
 20
3.12517
 30
0.0
 10
-3.23246
 20
3.10061
 30
0.0
 10
-3.22088
 20
3.06745
 30
0.0
 10
-3.22088
 20
3.02597
 30
0.0
 10
-3.22088
 20
3.02597
 30
0.0
 10
-3.22088
 20
3.02597
 30
0.0
 10
-3.22088
 20
2.70409
 30
0.0
 10
-3.22088
 20
2.70409
 30
0.0
 10
-3.22088
 20
2.70409
 30
0.0
 10
-3.22088
 20
2.70409
 30
0.0
 10
-3.30217
 20
2.70409
 30
0.0
 10
-3.30217
 20
2.70409
 30
0.0
 10
-3.30217
 20
2.70409
 30
0.0
 10
-3.30217
 20
2.70409
 30
0.0
 10
-3.30217
 20
2.99944
 30
0.0
 10
-3.30217
 20
2.99944
 30
0.0
 10
-3.30217
 20
2.99944
 30
0.0
 10
-3.30217
 20
3.03274
 30
0.0
 10
-3.3071
 20
3.05645
 30
0.0
 10
-3.31684
 20
3.07056
 30
0.0
 10
-3.31684
 20
3.07056
 30
0.0
 10
-3.32672
 20
3.08481
 30
0.0
 10
-3.34295
 20
3.09186
 30
0.0
 10
-3.36567
 20
3.09186
 30
0.0
 10
-3.36567
 20
3.09186
 30
0.0
 10
-3.41562
 20
3.09186
 30
0.0
 10
-3.46275
 20
3.05927
 30
0.0
 10
-3.50706
 20
2.99407
 30
0.0
 10
-3.50706
 20
2.99407
 30
0.0
 10
-3.50706
 20
2.99407
 30
0.0
 10
-3.50706
 20
2.70409
 30
0.0
 10
-3.50706
 20
2.70409
 30
0.0
 10
-3.50706
 20
2.70409
 30
0.0
 10
-3.50706
 20
2.70409
 30
0.0
 10
-3.58834
 20
2.70409
 30
0.0
 10
-3.58834
 20
2.70409
 30
0.0
  0
SPLINE
  5
42
330
1F
100
AcDbEntity
  8
Layer 1
100
AcDbSpline
210
0.0
220
0.0
230
1.0
 70
    11
 71
     3
 72
    80
 73
    76
 74
     0
 42
0.0000000001
 43
0.0000000001
 12
1.0
 22
0.0
 32
0.0
 13
1.0
 23
0.0
 33
0.0
 40
0.0
 40
0.0
 40
0.0
 40
0.0
 40
0.05
 40
0.05
 40
0.05
 40
0.05
 40
0.1
 40
0.1
 40
0.1
 40
0.1
 40
0.15
 40
0.15
 40
0.15
 40
0.15
 40
0.2
 40
0.2
 40
0.2
 40
0.2
 40
0.25
 40
0.25
 40
0.25
 40
0.25
 40
0.3
 40
0.3
 40
0.3
 40
0.3
 40
0.35
 40
0.35
 40
0.35
 40
0.35
 40
0.4
 40
0.4
 40
0.4
 40
0.4
 40
0.45
 40
0.45
 40
0.45
 40
0.45
 40
0.5
 40
0.5
 40
0.5
 40
0.5
 40
0.55
 40
0.55
 40
0.55
 40
0.55
 40
0.6
 40
0.6
 40
0.6
 40
0.6
 40
0.65
 40
0.65
 40
0.65
 40
0.65
 40
0.7
 40
0.7
 40
0.7
 40
0.7
 40
0.75
 40
0.75
 40
0.75
 40
0.75
 40
0.8
 40
0.8
 40
0.8
 40
0.8
 40
0.85
 40
0.85
 40
0.85
 40
0.85
 40
0.9
 40
0.9
 40
0.9
 40
0.9
 40
1.0
 40
1.0
 40
1.0
 40
1.0
 10
-2.83156
 20
2.76124
 30
0.0
 10
-2.88038
 20
2.71637
 30
0.0
 10
-2.92737
 20
2.69393
 30
0.0
 10
-2.97253
 20
2.69393
 30
0.0
 10
-2.97253
 20
2.69393
 30
0.0
 10
-3.00964
 20
2.69393
 30
0.0
 10
-3.04054
 20
2.7055
 30
0.0
 10
-3.06496
 20
2.72878
 30
0.0
 10
-3.06496
 20
2.72878
 30
0.0
 10
-3.08951
 20
2.75207
 30
0.0
 10
-3.10179
 20
2.78142
 30
0.0
 10
-3.10179
 20
2.81684
 30
0.0
 10
-3.10179
 20
2.81684
 30
0.0
 10
-3.10179
 20
2.8658
 30
0.0
 10
-3.08118
 20
2.90348
 30
0.0
 10
-3.03998
 20
2.92973
 30
0.0
 10
-3.03998
 20
2.92973
 30
0.0
 10
-2.99877
 20
2.95597
 30
0.0
 10
-2.93965
 20
2.9691
 30
0.0
 10
-2.8626
 20
2.9691
 30
0.0
 10
-2.8626
 20
2.9691
 30
0.0
 10
-2.8626
 20
2.9691
 30
0.0
 10
-2.84355
 20
2.9691
 30
0.0
 10
-2.84355
 20
2.9691
 30
0.0
 10
-2.84355
 20
2.9691
 30
0.0
 10
-2.84355
 20
2.9691
 30
0.0
 10
-2.84355
 20
3.02314
 30
0.0
 10
-2.84355
 20
3.02314
 30
0.0
 10
-2.84355
 20
3.02314
 30
0.0
 10
-2.84355
 20
3.07521
 30
0.0
 10
-2.87065
 20
3.10118
 30
0.0
 10
-2.92497
 20
3.10118
 30
0.0
 10
-2.92497
 20
3.10118
 30
0.0
 10
-2.96702
 20
3.10118
 30
0.0
 10
-3.01303
 20
3.08791
 30
0.0
 10
-3.06284
 20
3.06138
 30
0.0
 10
-3.06284
 20
3.06138
 30
0.0
 10
-3.06284
 20
3.06138
 30
0.0
 10
-3.06284
 20
3.12827
 30
0.0
 10
-3.06284
 20
3.12827
 30
0.0
 10
-3.06284
 20
3.12827
 30
0.0
 10
-3.00809
 20
3.15085
 30
0.0
 10
-2.95644
 20
3.16214
 30
0.0
 10
-2.90804
 20
3.16214
 30
0.0
 10
-2.90804
 20
3.16214
 30
0.0
 10
-2.85823
 20
3.16214
 30
0.0
 10
-2.8214
 20
3.15085
 30
0.0
 10
-2.79783
 20
3.12813
 30
0.0
 10
-2.79783
 20
3.12813
 30
0.0
 10
-2.77413
 20
3.10541
 30
0.0
 10
-2.76227
 20
3.07042
 30
0.0
 10
-2.76227
 20
3.02314
 30
0.0
 10
-2.76227
 20
3.02314
 30
0.0
 10
-2.76227
 20
3.02314
 30
0.0
 10
-2.76227
 20
2.82037
 30
0.0
 10
-2.76227
 20
2.82037
 30
0.0
 10
-2.76227
 20
2.82037
 30
0.0
 10
-2.76227
 20
2.77394
 30
0.0
 10
-2.74802
 20
2.75066
 30
0.0
 10
-2.71937
 20
2.75066
 30
0.0
 10
-2.71937
 20
2.75066
 30
0.0
 10
-2.71585
 20
2.75066
 30
0.0
 10
-2.71062
 20
2.75122
 30
0.0
 10
-2.70371
 20
2.75235
 30
0.0
 10
-2.70371
 20
2.75235
 30
0.0
 10
-2.70371
 20
2.75235
 30
0.0
 10
-2.69792
 20
2.70719
 30
0.0
 10
-2.69792
 20
2.70719
 30
0.0
 10
-2.69792
 20
2.70719
 30
0.0
 10
-2.71641
 20
2.6983
 30
0.0
 10
-2.73673
 20
2.69393
 30
0.0
 10
-2.75903
 20
2.69393
 30
0.0
 10
-2.75903
 20
2.69393
 30
0.0
 10
-2.79699
 20
2.69393
 30
0.0
 10
-2.82112
 20
2.71637
 30
0.0
 10
-2.83156
 20
2.76124
 30
0.0
  0
SPLINE
  5
43
330
1F
100
AcDbEntity
  8
Layer 1
100
AcDbSpline
210
0.0
220
0.0
230
1.0
 70
    11
 71
     3
 72
    32
 73
    28
 74
     0
 42
0.0000000001
 43
0.0000000001
 12
1.0
 22
0.0
 32
0.0
 13
1.0
 23
0.0
 33
0.0
 40
0.0
 40
0.0
 40
0.0
 40
0.0
 40
0.125
 40
0.125
 40
0.125
 40
0.125
 40
0.25
 40
0.25
 40
0.25
 40
0.25
 40
0.375
 40
0.375
 40
0.375
 40
0.375
 40
0.5
 40
0.5
 40
0.5
 40
0.5
 40
0.625
 40
0.625
 40
0.625
 40
0.625
 40
0.75
 40
0.75
 40
0.75
 40
0.75
 40
1.0
 40
1.0
 40
1.0
 40
1.0
 10
-2.84355
 20
2.80555
 30
0.0
 10
-2.84355
 20
2.80555
 30
0.0
 10
-2.84355
 20
2.92084
 30
0.0
 10
-2.84355
 20
2.92084
 30
0.0
 10
-2.84355
 20
2.92084
 30
0.0
 10
-2.84355
 20
2.92084
 30
0.0
 10
-2.86966
 20
2.92168
 30
0.0
 10
-2.86966
 20
2.92168
 30
0.0
 10
-2.86966
 20
2.92168
 30
0.0
 10
-2.91481
 20
2.92168
 30
0.0
 10
-2.95122
 20
2.91336
 30
0.0
 10
-2.97902
 20
2.89671
 30
0.0
 10
-2.97902
 20
2.89671
 30
0.0
 10
-3.00668
 20
2.87992
 30
0.0
 10
-3.02051
 20
2.85776
 30
0.0
 10
-3.02051
 20
2.8301
 30
0.0
 10
-3.02051
 20
2.8301
 30
0.0
 10
-3.02051
 20
2.81077
 30
0.0
 10
-3.01359
 20
2.7944
 30
0.0
 10
-2.9999
 20
2.781
 30
0.0
 10
-2.9999
 20
2.781
 30
0.0
 10
-2.98607
 20
2.76759
 30
0.0
 10
-2.96928
 20
2.76082
 30
0.0
 10
-2.94939
 20
2.76082
 30
0.0
 10
-2.94939
 20
2.76082
 30
0.0
 10
-2.91552
 20
2.76082
 30
0.0
 10
-2.88024
 20
2.77577
 30
0.0
 10
-2.84355
 20
2.80555
 30
0.0
  0
SPLINE
  5
44
330
1F
100
AcDbEntity
  8
Layer 1
100
AcDbSpline
210
0.0
220
0.0
230
1.0
 70
    11
 71
     3
 72
    44
 73
    40
 74
     0
 42
0.0000000001
 43
0.0000000001
 12
1.0
 22
0.0
 32
0.0
 13
1.0
 23
0.0
 33
0.0
 40
0.0
 40
0.0
 40
0.0
 40
0.0
 40
0.0909090909090909
 40
0.0909090909090909
 40
0.0909090909090909
 40
0.0909090909090909
 40
0.1818181818181818
 40
0.1818181818181818
 40
0.1818181818181818
 40
0.1818181818181818
 40
0.2727272727272727
 40
0.2727272727272727
 40
0.2727272727272727
 40
0.2727272727272727
 40
0.3636363636363636
 40
0.3636363636363636
 40
0.3636363636363636
 40
0.3636363636363636
 40
0.4545454545454545
 40
0.4545454545454545
 40
0.4545454545454545
 40
0.4545454545454545
 40
0.5454545454545454
 40
0.5454545454545454
 40
0.5454545454545454
 40
0.5454545454545454
 40
0.6363636363636364
 40
0.6363636363636364
 40
0.6363636363636364
 40
0.6363636363636364
 40
0.7272727272727273
 40
0.7272727272727273
 40
0.7272727272727273
 40
0.7272727272727273
 40
0.8181818181818182
 40
0.8181818181818182
 40
0.8181818181818182
 40
0.8181818181818182
 40
1.0
 40
1.0
 40
1.0
 40
1.0
 10
-2.59534
 20
2.70409
 30
0.0
 10
-2.59534
 20
2.70409
 30
0.0
 10
-2.59534
 20
3.15283
 30
0.0
 10
-2.59534
 20
3.15283
 30
0.0
 10
-2.59534
 20
3.15283
 30
0.0
 10
-2.59534
 20
3.15283
 30
0.0
 10
-2.51406
 20
3.15283
 30
0.0
 10
-2.51406
 20
3.15283
 30
0.0
 10
-2.51406
 20
3.15283
 30
0.0
 10
-2.51406
 20
3.15283
 30
0.0
 10
-2.51406
 20
3.06802
 30
0.0
 10
-2.51406
 20
3.06802
 30
0.0
 10
-2.51406
 20
3.06802
 30
0.0
 10
-2.48174
 20
3.13081
 30
0.0
 10
-2.4349
 20
3.16214
 30
0.0
 10
-2.37337
 20
3.16214
 30
0.0
 10
-2.37337
 20
3.16214
 30
0.0
 10
-2.36505
 20
3.16214
 30
0.0
 10
-2.3563
 20
3.16143
 30
0.0
 10
-2.34727
 20
3.16002
 30
0.0
 10
-2.34727
 20
3.16002
 30
0.0
 10
-2.34727
 20
3.16002
 30
0.0
 10
-2.34727
 20
3.08396
 30
0.0
 10
-2.34727
 20
3.08396
 30
0.0
 10
-2.34727
 20
3.08396
 30
0.0
 10
-2.36138
 20
3.08862
 30
0.0
 10
-2.37379
 20
3.09102
 30
0.0
 10
-2.38452
 20
3.09102
 30
0.0
 10
-2.38452
 20
3.09102
 30
0.0
 10
-2.43617
 20
3.09102
 30
0.0
 10
-2.47935
 20
3.06054
 30
0.0
 10
-2.51406
 20
2.99944
 30
0.0
 10
-2.51406
 20
2.99944
 30
0.0
 10
-2.51406
 20
2.99944
 30
0.0
 10
-2.51406
 20
2.70409
 30
0.0
 10
-2.51406
 20
2.70409
 30
0.0
 10
-2.51406
 20
2.70409
 30
0.0
 10
-2.51406
 20
2.70409
 30
0.0
 10
-2.59534
 20
2.70409
 30
0.0
 10
-2.59534
 20
2.70409
 30
0.0
  0
SPLINE
  5
45
330
1F
100
AcDbEntity
  8
Layer 1
100
AcDbSpline
210
0.0
220
0.0
230
1.0
 70
    11
 71
     3
 72
    48
 73
    44
 74
     0
 42
0.0000000001
 43
0.0000000001
 12
1.0
 22
0.0
 32
0.0
 13
1.0
 23
0.0
 33
0.0
 40
0.0
 40
0.0
 40
0.0
 40
0.0
 40
0.0833333333333333
 40
0.0833333333333333
 40
0.0833333333333333
 40
0.0833333333333333
 40
0.1666666666666667
 40
0.1666666666666667
 40
0.1666666666666667
 40
0.1666666666666667
 40
0.25
 40
0.25
 40
0.25
 40
0.25
 40
0.3333333333333333
 40
0.3333333333333333
 40
0.3333333333333333
 40
0.3333333333333333
 40
0.4166666666666667
 40
0.4166666666666667
 40
0.4166666666666667
 40
0.4166666666666667
 40
0.5
 40
0.5
 40
0.5
 40
0.5
 40
0.5833333333333334
 40
0.5833333333333334
 40
0.5833333333333334
 40
0.5833333333333334
 40
0.6666666666666666
 40
0.6666666666666666
 40
0.6666666666666666
 40
0.6666666666666666
 40
0.75
 40
0.75
 40
0.75
 40
0.75
 40
0.8333333333333334
 40
0.8333333333333334
 40
0.8333333333333334
 40
0.8333333333333334
 40
1.0
 40
1.0
 40
1.0
 40
1.0
 10
-1.9602
 20
2.70409
 30
0.0
 10
-1.9602
 20
2.70409
 30
0.0
 10
-1.9602
 20
2.78833
 30
0.0
 10
-1.9602
 20
2.78833
 30
0.0
 10
-1.9602
 20
2.78833
 30
0.0
 10
-1.99336
 20
2.7254
 30
0.0
 10
-2.04331
 20
2.69393
 30
0.0
 10
-2.11006
 20
2.69393
 30
0.0
 10
-2.11006
 20
2.69393
 30
0.0
 10
-2.16424
 20
2.69393
 30
0.0
 10
-2.20686
 20
2.71354
 30
0.0
 10
-2.2379
 20
2.75291
 30
0.0
 10
-2.2379
 20
2.75291
 30
0.0
 10
-2.26895
 20
2.79228
 30
0.0
 10
-2.28447
 20
2.84605
 30
0.0
 10
-2.28447
 20
2.91421
 30
0.0
 10
-2.28447
 20
2.91421
 30
0.0
 10
-2.28447
 20
2.98871
 30
0.0
 10
-2.26683
 20
3.04868
 30
0.0
 10
-2.23169
 20
3.09412
 30
0.0
 10
-2.23169
 20
3.09412
 30
0.0
 10
-2.19642
 20
3.13942
 30
0.0
 10
-2.15013
 20
3.16214
 30
0.0
 10
-2.0927
 20
3.16214
 30
0.0
 10
-2.0927
 20
3.16214
 30
0.0
 10
-2.0395
 20
3.16214
 30
0.0
 10
-1.99519
 20
3.14182
 30
0.0
 10
-1.9602
 20
3.10104
 30
0.0
 10
-1.9602
 20
3.10104
 30
0.0
 10
-1.9602
 20
3.10104
 30
0.0
 10
-1.9602
 20
3.35687
 30
0.0
 10
-1.9602
 20
3.35687
 30
0.0
 10
-1.9602
 20
3.35687
 30
0.0
 10
-1.9602
 20
3.35687
 30
0.0
 10
-1.87891
 20
3.35687
 30
0.0
 10
-1.87891
 20
3.35687
 30
0.0
 10
-1.87891
 20
3.35687
 30
0.0
 10
-1.87891
 20
3.35687
 30
0.0
 10
-1.87891
 20
2.70409
 30
0.0
 10
-1.87891
 20
2.70409
 30
0.0
 10
-1.87891
 20
2.70409
 30
0.0
 10
-1.87891
 20
2.70409
 30
0.0
 10
-1.9602
 20
2.70409
 30
0.0
 10
-1.9602
 20
2.70409
 30
0.0
  0
SPLINE
  5
46
330
1F
100
AcDbEntity
  8
Layer 1
100
AcDbSpline
210
0.0
220
0.0
230
1.0
 70
    11
 71
     3
 72
    28
 73
    24
 74
     0
 42
0.0000000001
 43
0.0000000001
 12
1.0
 22
0.0
 32
0.0
 13
1.0
 23
0.0
 33
0.0
 40
0.0
 40
0.0
 40
0.0
 40
0.0
 40
0.1428571428571428
 40
0.1428571428571428
 40
0.1428571428571428
 40
0.1428571428571428
 40
0.2857142857142857
 40
0.2857142857142857
 40
0.2857142857142857
 40
0.2857142857142857
 40
0.4285714285714285
 40
0.4285714285714285
 40
0.4285714285714285
 40
0.4285714285714285
 40
0.5714285714285714
 40
0.5714285714285714
 40
0.5714285714285714
 40
0.5714285714285714
 40
0.7142857142857143
 40
0.7142857142857143
 40
0.7142857142857143
 40
0.7142857142857143
 40
1.0
 40
1.0
 40
1.0
 40
1.0
 10
-1.9602
 20
3.04544
 30
0.0
 10
-2.00239
 20
3.08255
 30
0.0
 10
-2.04232
 20
3.10118
 30
0.0
 10
-2.08014
 20
3.10118
 30
0.0
 10
-2.08014
 20
3.10118
 30
0.0
 10
-2.11739
 20
3.10118
 30
0.0
 10
-2.14618
 20
3.08566
 30
0.0
 10
-2.16664
 20
3.05447
 30
0.0
 10
-2.16664
 20
3.05447
 30
0.0
 10
-2.1871
 20
3.02343
 30
0.0
 10
-2.19726
 20
2.9794
 30
0.0
 10
-2.19726
 20
2.92239
 30
0.0
 10
-2.19726
 20
2.92239
 30
0.0
 10
-2.19726
 20
2.81754
 30
0.0
 10
-2.16255
 20
2.76505
 30
0.0
 10
-2.09298
 20
2.76505
 30
0.0
 10
-2.09298
 20
2.76505
 30
0.0
 10
-2.04783
 20
2.76505
 30
0.0
 10
-2.00352
 20
2.78974
 30
0.0
 10
-1.9602
 20
2.83899
 30
0.0
 10
-1.9602
 20
2.83899
 30
0.0
 10
-1.9602
 20
2.83899
 30
0.0
 10
-1.9602
 20
3.04544
 30
0.0
 10
-1.9602
 20
3.04544
 30
0.0
  0
SPLINE
  5
47
330
1F
100
AcDbEntity
  8
Layer 1
100
AcDbSpline
210
0.0
220
0.0
230
1.0
 70
    11
 71
     3
 72
    56
 73
    52
 74
     0
 42
0.0000000001
 43
0.0000000001
 12
1.0
 22
0.0
 32
0.0
 13
1.0
 23
0.0
 33
0.0
 40
0.0
 40
0.0
 40
0.0
 40
0.0
 40
0.0714285714285714
 40
0.0714285714285714
 40
0.0714285714285714
 40
0.0714285714285714
 40
0.1428571428571428
 40
0.1428571428571428
 40
0.1428571428571428
 40
0.1428571428571428
 40
0.2142857142857143
 40
0.2142857142857143
 40
0.2142857142857143
 40
0.2142857142857143
 40
0.2857142857142857
 40
0.2857142857142857
 40
0.2857142857142857
 40
0.2857142857142857
 40
0.3571428571428572
 40
0.3571428571428572
 40
0.3571428571428572
 40
0.3571428571428572
 40
0.4285714285714285
 40
0.4285714285714285
 40
0.4285714285714285
 40
0.4285714285714285
 40
0.5
 40
0.5
 40
0.5
 40
0.5
 40
0.5714285714285714
 40
0.5714285714285714
 40
0.5714285714285714
 40
0.5714285714285714
 40
0.6428571428571429
 40
0.6428571428571429
 40
0.6428571428571429
 40
0.6428571428571429
 40
0.7142857142857143
 40
0.7142857142857143
 40
0.7142857142857143
 40
0.7142857142857143
 40
0.7857142857142857
 40
0.7857142857142857
 40
0.7857142857142857
 40
0.7857142857142857
 40
0.8571428571428571
 40
0.8571428571428571
 40
0.8571428571428571
 40
0.8571428571428571
 40
1.0
 40
1.0
 40
1.0
 40
1.0
 10
-1.66358
 20
2.70409
 30
0.0
 10
-1.66358
 20
2.70409
 30
0.0
 10
-1.79227
 20
3.15283
 30
0.0
 10
-1.79227
 20
3.15283
 30
0.0
 10
-1.79227
 20
3.15283
 30
0.0
 10
-1.79227
 20
3.15283
 30
0.0
 10
-1.71297
 20
3.15283
 30
0.0
 10
-1.71297
 20
3.15283
 30
0.0
 10
-1.71297
 20
3.15283
 30
0.0
 10
-1.71297
 20
3.15283
 30
0.0
 10
-1.61433
 20
2.80442
 30
0.0
 10
-1.61433
 20
2.80442
 30
0.0
 10
-1.61433
 20
2.80442
 30
0.0
 10
-1.61433
 20
2.80442
 30
0.0
 10
-1.50793
 20
3.15283
 30
0.0
 10
-1.50793
 20
3.15283
 30
0.0
 10
-1.50793
 20
3.15283
 30
0.0
 10
-1.50793
 20
3.15283
 30
0.0
 10
-1.42665
 20
3.15283
 30
0.0
 10
-1.42665
 20
3.15283
 30
0.0
 10
-1.42665
 20
3.15283
 30
0.0
 10
-1.42665
 20
3.15283
 30
0.0
 10
-1.33309
 20
2.80498
 30
0.0
 10
-1.33309
 20
2.80498
 30
0.0
 10
-1.33309
 20
2.80498
 30
0.0
 10
-1.33309
 20
2.80498
 30
0.0
 10
-1.21992
 20
3.15283
 30
0.0
 10
-1.21992
 20
3.15283
 30
0.0
 10
-1.21992
 20
3.15283
 30
0.0
 10
-1.21992
 20
3.15283
 30
0.0
 10
-1.15049
 20
3.15283
 30
0.0
 10
-1.15049
 20
3.15283
 30
0.0
 10
-1.15049
 20
3.15283
 30
0.0
 10
-1.15049
 20
3.15283
 30
0.0
 10
-1.29697
 20
2.70409
 30
0.0
 10
-1.29697
 20
2.70409
 30
0.0
 10
-1.29697
 20
2.70409
 30
0.0
 10
-1.29697
 20
2.70409
 30
0.0
 10
-1.37825
 20
2.70409
 30
0.0
 10
-1.37825
 20
2.70409
 30
0.0
 10
-1.37825
 20
2.70409
 30
0.0
 10
-1.37825
 20
2.70409
 30
0.0
 10
-1.47449
 20
3.05405
 30
0.0
 10
-1.47449
 20
3.05405
 30
0.0
 10
-1.47449
 20
3.05405
 30
0.0
 10
-1.47449
 20
3.05405
 30
0.0
 10
-1.5823
 20
2.70409
 30
0.0
 10
-1.5823
 20
2.70409
 30
0.0
 10
-1.5823
 20
2.70409
 30
0.0
 10
-1.5823
 20
2.70409
 30
0.0
 10
-1.66358
 20
2.70409
 30
0.0
 10
-1.66358
 20
2.70409
 30
0.0
  0
SPLINE
  5
48
330
1F
100
AcDbEntity
  8
Layer 1
100
AcDbSpline
210
0.0
220
0.0
230
1.0
 70
    11
 71
     3
 72
    80
 73
    76
 74
     0
 42
0.0000000001
 43
0.0000000001
 12
1.0
 22
0.0
 32
0.0
 13
1.0
 23
0.0
 33
0.0
 40
0.0
 40
0.0
 40
0.0
 40
0.0
 40
0.05
 40
0.05
 40
0.05
 40
0.05
 40
0.1
 40
0.1
 40
0.1
 40
0.1
 40
0.15
 40
0.15
 40
0.15
 40
0.15
 40
0.2
 40
0.2
 40
0.2
 40
0.2
 40
0.25
 40
0.25
 40
0.25
 40
0.25
 40
0.3
 40
0.3
 40
0.3
 40
0.3
 40
0.35
 40
0.35
 40
0.35
 40
0.35
 40
0.4
 40
0.4
 40
0.4
 40
0.4
 40
0.45
 40
0.45
 40
0.45
 40
0.45
 40
0.5
 40
0.5
 40
0.5
 40
0.5
 40
0.55
 40
0.55
 40
0.55
 40
0.55
 40
0.6
 40
0.6
 40
0.6
 40
0.6
 40
0.65
 40
0.65
 40
0.65
 40
0.65
 40
0.7
 40
0.7
 40
0.7
 40
0.7
 40
0.75
 40
0.75
 40
0.75
 40
0.75
 40
0.8
 40
0.8
 40
0.8
 40
0.8
 40
0.85
 40
0.85
 40
0.85
 40
0.85
 40
0.9
 40
0.9
 40
0.9
 40
0.9
 40
1.0
 40
1.0
 40
1.0
 40
1.0
 10
-0.83243
 20
2.76124
 30
0.0
 10
-0.88125
 20
2.71637
 30
0.0
 10
-0.92824
 20
2.69393
 30
0.0
 10
-0.9734
 20
2.69393
 30
0.0
 10
-0.9734
 20
2.69393
 30
0.0
 10
-1.01051
 20
2.69393
 30
0.0
 10
-1.04141
 20
2.7055
 30
0.0
 10
-1.06583
 20
2.72878
 30
0.0
 10
-1.06583
 20
2.72878
 30
0.0
 10
-1.09038
 20
2.75207
 30
0.0
 10
-1.10266
 20
2.78142
 30
0.0
 10
-1.10266
 20
2.81684
 30
0.0
 10
-1.10266
 20
2.81684
 30
0.0
 10
-1.10266
 20
2.8658
 30
0.0
 10
-1.08205
 20
2.90348
 30
0.0
 10
-1.04085
 20
2.92973
 30
0.0
 10
-1.04085
 20
2.92973
 30
0.0
 10
-0.99964
 20
2.95597
 30
0.0
 10
-0.94052
 20
2.9691
 30
0.0
 10
-0.86347
 20
2.9691
 30
0.0
 10
-0.86347
 20
2.9691
 30
0.0
 10
-0.86347
 20
2.9691
 30
0.0
 10
-0.84442
 20
2.9691
 30
0.0
 10
-0.84442
 20
2.9691
 30
0.0
 10
-0.84442
 20
2.9691
 30
0.0
 10
-0.84442
 20
2.9691
 30
0.0
 10
-0.84442
 20
3.02314
 30
0.0
 10
-0.84442
 20
3.02314
 30
0.0
 10
-0.84442
 20
3.02314
 30
0.0
 10
-0.84442
 20
3.07521
 30
0.0
 10
-0.87152
 20
3.10118
 30
0.0
 10
-0.92584
 20
3.10118
 30
0.0
 10
-0.92584
 20
3.10118
 30
0.0
 10
-0.96789
 20
3.10118
 30
0.0
 10
-1.0139
 20
3.08791
 30
0.0
 10
-1.06371
 20
3.06138
 30
0.0
 10
-1.06371
 20
3.06138
 30
0.0
 10
-1.06371
 20
3.06138
 30
0.0
 10
-1.06371
 20
3.12827
 30
0.0
 10
-1.06371
 20
3.12827
 30
0.0
 10
-1.06371
 20
3.12827
 30
0.0
 10
-1.00896
 20
3.15085
 30
0.0
 10
-0.95731
 20
3.16214
 30
0.0
 10
-0.90891
 20
3.16214
 30
0.0
 10
-0.90891
 20
3.16214
 30
0.0
 10
-0.8591
 20
3.16214
 30
0.0
 10
-0.82227
 20
3.15085
 30
0.0
 10
-0.7987
 20
3.12813
 30
0.0
 10
-0.7987
 20
3.12813
 30
0.0
 10
-0.775
 20
3.10541
 30
0.0
 10
-0.76314
 20
3.07042
 30
0.0
 10
-0.76314
 20
3.02314
 30
0.0
 10
-0.76314
 20
3.02314
 30
0.0
 10
-0.76314
 20
3.02314
 30
0.0
 10
-0.76314
 20
2.82037
 30
0.0
 10
-0.76314
 20
2.82037
 30
0.0
 10
-0.76314
 20
2.82037
 30
0.0
 10
-0.76314
 20
2.77394
 30
0.0
 10
-0.74889
 20
2.75066
 30
0.0
 10
-0.72024
 20
2.75066
 30
0.0
 10
-0.72024
 20
2.75066
 30
0.0
 10
-0.71672
 20
2.75066
 30
0.0
 10
-0.71149
 20
2.75122
 30
0.0
 10
-0.70458
 20
2.75235
 30
0.0
 10
-0.70458
 20
2.75235
 30
0.0
 10
-0.70458
 20
2.75235
 30
0.0
 10
-0.69879
 20
2.70719
 30
0.0
 10
-0.69879
 20
2.70719
 30
0.0
 10
-0.69879
 20
2.70719
 30
0.0
 10
-0.71728
 20
2.6983
 30
0.0
 10
-0.7376
 20
2.69393
 30
0.0
 10
-0.7599
 20
2.69393
 30
0.0
 10
-0.7599
 20
2.69393
 30
0.0
 10
-0.79786
 20
2.69393
 30
0.0
 10
-0.82199
 20
2.71637
 30
0.0
 10
-0.83243
 20
2.76124
 30
0.0
  0
SPLINE
  5
49
330
1F
100
AcDbEntity
  8
Layer 1
100
AcDbSpline
210
0.0
220
0.0
230
1.0
 70
    11
 71
     3
 72
    32
 73
    28
 74
     0
 42
0.0000000001
 43
0.0000000001
 12
1.0
 22
0.0
 32
0.0
 13
1.0
 23
0.0
 33
0.0
 40
0.0
 40
0.0
 40
0.0
 40
0.0
 40
0.125
 40
0.125
 40
0.125
 40
0.125
 40
0.25
 40
0.25
 40
0.25
 40
0.25
 40
0.375
 40
0.375
 40
0.375
 40
0.375
 40
0.5
 40
0.5
 40
0.5
 40
0.5
 40
0.625
 40
0.625
 40
0.625
 40
0.625
 40
0.75
 40
0.75
 40
0.75
 40
0.75
 40
1.0
 40
1.0
 40
1.0
 40
1.0
 10
-0.84442
 20
2.80555
 30
0.0
 10
-0.84442
 20
2.80555
 30
0.0
 10
-0.84442
 20
2.92084
 30
0.0
 10
-0.84442
 20
2.92084
 30
0.0
 10
-0.84442
 20
2.92084
 30
0.0
 10
-0.84442
 20
2.92084
 30
0.0
 10
-0.87053
 20
2.92168
 30
0.0
 10
-0.87053
 20
2.92168
 30
0.0
 10
-0.87053
 20
2.92168
 30
0.0
 10
-0.91568
 20
2.92168
 30
0.0
 10
-0.95209
 20
2.91336
 30
0.0
 10
-0.97989
 20
2.89671
 30
0.0
 10
-0.97989
 20
2.89671
 30
0.0
 10
-1.00755
 20
2.87992
 30
0.0
 10
-1.02138
 20
2.85776
 30
0.0
 10
-1.02138
 20
2.8301
 30
0.0
 10
-1.02138
 20
2.8301
 30
0.0
 10
-1.02138
 20
2.81077
 30
0.0
 10
-1.01446
 20
2.7944
 30
0.0
 10
-1.00077
 20
2.781
 30
0.0
 10
-1.00077
 20
2.781
 30
0.0
 10
-0.98694
 20
2.76759
 30
0.0
 10
-0.97015
 20
2.76082
 30
0.0
 10
-0.95026
 20
2.76082
 30
0.0
 10
-0.95026
 20
2.76082
 30
0.0
 10
-0.91639
 20
2.76082
 30
0.0
 10
-0.88111
 20
2.77577
 30
0.0
 10
-0.84442
 20
2.80555
 30
0.0
  0
SPLINE
  5
4A
330
1F
100
AcDbEntity
  8
Layer 1
100
AcDbSpline
210
0.0
220
0.0
230
1.0
 70
    11
 71
     3
 72
    44
 73
    40
 74
     0
 42
0.0000000001
 43
0.0000000001
 12
1.0
 22
0.0
 32
0.0
 13
1.0
 23
0.0
 33
0.0
 40
0.0
 40
0.0
 40
0.0
 40
0.0
 40
0.0909090909090909
 40
0.0909090909090909
 40
0.0909090909090909
 40
0.0909090909090909
 40
0.1818181818181818
 40
0.1818181818181818
 40
0.1818181818181818
 40
0.1818181818181818
 40
0.2727272727272727
 40
0.2727272727272727
 40
0.2727272727272727
 40
0.2727272727272727
 40
0.3636363636363636
 40
0.3636363636363636
 40
0.3636363636363636
 40
0.3636363636363636
 40
0.4545454545454545
 40
0.4545454545454545
 40
0.4545454545454545
 40
0.4545454545454545
 40
0.5454545454545454
 40
0.5454545454545454
 40
0.5454545454545454
 40
0.5454545454545454
 40
0.6363636363636364
 40
0.6363636363636364
 40
0.6363636363636364
 40
0.6363636363636364
 40
0.7272727272727273
 40
0.7272727272727273
 40
0.7272727272727273
 40
0.7272727272727273
 40
0.8181818181818182
 40
0.8181818181818182
 40
0.8181818181818182
 40
0.8181818181818182
 40
1.0
 40
1.0
 40
1.0
 40
1.0
 10
-0.59621
 20
2.70409
 30
0.0
 10
-0.59621
 20
2.70409
 30
0.0
 10
-0.59621
 20
3.15283
 30
0.0
 10
-0.59621
 20
3.15283
 30
0.0
 10
-0.59621
 20
3.15283
 30
0.0
 10
-0.59621
 20
3.15283
 30
0.0
 10
-0.51493
 20
3.15283
 30
0.0
 10
-0.51493
 20
3.15283
 30
0.0
 10
-0.51493
 20
3.15283
 30
0.0
 10
-0.51493
 20
3.15283
 30
0.0
 10
-0.51493
 20
3.06802
 30
0.0
 10
-0.51493
 20
3.06802
 30
0.0
 10
-0.51493
 20
3.06802
 30
0.0
 10
-0.48261
 20
3.13081
 30
0.0
 10
-0.43577
 20
3.16214
 30
0.0
 10
-0.37424
 20
3.16214
 30
0.0
 10
-0.37424
 20
3.16214
 30
0.0
 10
-0.36592
 20
3.16214
 30
0.0
 10
-0.35717
 20
3.16143
 30
0.0
 10
-0.34814
 20
3.16002
 30
0.0
 10
-0.34814
 20
3.16002
 30
0.0
 10
-0.34814
 20
3.16002
 30
0.0
 10
-0.34814
 20
3.08396
 30
0.0
 10
-0.34814
 20
3.08396
 30
0.0
 10
-0.34814
 20
3.08396
 30
0.0
 10
-0.36225
 20
3.08862
 30
0.0
 10
-0.37466
 20
3.09102
 30
0.0
 10
-0.38539
 20
3.09102
 30
0.0
 10
-0.38539
 20
3.09102
 30
0.0
 10
-0.43704
 20
3.09102
 30
0.0
 10
-0.48022
 20
3.06054
 30
0.0
 10
-0.51493
 20
2.99944
 30
0.0
 10
-0.51493
 20
2.99944
 30
0.0
 10
-0.51493
 20
2.99944
 30
0.0
 10
-0.51493
 20
2.70409
 30
0.0
 10
-0.51493
 20
2.70409
 30
0.0
 10
-0.51493
 20
2.70409
 30
0.0
 10
-0.51493
 20
2.70409
 30
0.0
 10
-0.59621
 20
2.70409
 30
0.0
 10
-0.59621
 20
2.70409
 30
0.0
  0
SPLINE
  5
4B
330
1F
100
AcDbEntity
  8
Layer 1
100
AcDbSpline
210
0.0
220
0.0
230
1.0
 70
    11
 71
     3
 72
    52
 73
    48
 74
     0
 42
0.0000000001
 43
0.0000000001
 12
1.0
 22
0.0
 32
0.0
 13
1.0
 23
0.0
 33
0.0
 40
0.0
 40
0.0
 40
0.0
 40
0.0
 40
0.0769230769230769
 40
0.0769230769230769
 40
0.0769230769230769
 40
0.0769230769230769
 40
0.1538461538461539
 40
0.1538461538461539
 40
0.1538461538461539
 40
0.1538461538461539
 40
0.2307692307692308
 40
0.2307692307692308
 40
0.2307692307692308
 40
0.2307692307692308
 40
0.3076923076923077
 40
0.3076923076923077
 40
0.3076923076923077
 40
0.3076923076923077
 40
0.3846153846153846
 40
0.3846153846153846
 40
0.3846153846153846
 40
0.3846153846153846
 40
0.4615384615384616
 40
0.4615384615384616
 40
0.4615384615384616
 40
0.4615384615384616
 40
0.5384615384615384
 40
0.5384615384615384
 40
0.5384615384615384
 40
0.5384615384615384
 40
0.6153846153846154
 40
0.6153846153846154
 40
0.6153846153846154
 40
0.6153846153846154
 40
0.6923076923076923
 40
0.6923076923076923
 40
0.6923076923076923
 40
0.6923076923076923
 40
0.7692307692307693
 40
0.7692307692307693
 40
0.7692307692307693
 40
0.7692307692307693
 40
0.8461538461538461
 40
0.8461538461538461
 40
0.8461538461538461
 40
0.8461538461538461
 40
1.0
 40
1.0
 40
1.0
 40
1.0
 10
0.07957
 20
2.71848
 30
0.0
 10
0.02496
 20
2.70211
 30
0.0
 10
-0.02174
 20
2.69393
 30
0.0
 10
-0.06069
 20
2.69393
 30
0.0
 10
-0.06069
 20
2.69393
 30
0.0
 10
-0.12715
 20
2.69393
 30
0.0
 10
-0.1812
 20
2.71594
 30
0.0
 10
-0.22283
 20
2.75983
 30
0.0
 10
-0.22283
 20
2.75983
 30
0.0
 10
-0.26446
 20
2.80371
 30
0.0
 10
-0.28534
 20
2.86058
 30
0.0
 10
-0.28534
 20
2.93057
 30
0.0
 10
-0.28534
 20
2.93057
 30
0.0
 10
-0.28534
 20
2.99845
 30
0.0
 10
-0.267
 20
3.05419
 30
0.0
 10
-0.23017
 20
3.09779
 30
0.0
 10
-0.23017
 20
3.09779
 30
0.0
 10
-0.19334
 20
3.14125
 30
0.0
 10
-0.1462
 20
3.16299
 30
0.0
 10
-0.08877
 20
3.16299
 30
0.0
 10
-0.08877
 20
3.16299
 30
0.0
 10
-0.03444
 20
3.16299
 30
0.0
 10
0.00761
 20
3.14365
 30
0.0
 10
0.03724
 20
3.10499
 30
0.0
 10
0.03724
 20
3.10499
 30
0.0
 10
0.06687
 20
3.06632
 30
0.0
 10
0.08169
 20
3.01157
 30
0.0
 10
0.08169
 20
2.94059
 30
0.0
 10
0.08169
 20
2.94059
 30
0.0
 10
0.08169
 20
2.94059
 30
0.0
 10
0.08127
 20
2.91576
 30
0.0
 10
0.08127
 20
2.91576
 30
0.0
 10
0.08127
 20
2.91576
 30
0.0
 10
0.08127
 20
2.91576
 30
0.0
 10
-0.20237
 20
2.91576
 30
0.0
 10
-0.20237
 20
2.91576
 30
0.0
 10
-0.20237
 20
2.91576
 30
0.0
 10
-0.19051
 20
2.80851
 30
0.0
 10
-0.13816
 20
2.75489
 30
0.0
 10
-0.04545
 20
2.75489
 30
0.0
 10
-0.04545
 20
2.75489
 30
0.0
 10
-0.01144
 20
2.75489
 30
0.0
 10
0.03019
 20
2.76449
 30
0.0
 10
0.07957
 20
2.78368
 30
0.0
 10
0.07957
 20
2.78368
 30
0.0
 10
0.07957
 20
2.78368
 30
0.0
 10
0.07957
 20
2.71848
 30
0.0
 10
0.07957
 20
2.71848
 30
0.0
  0
SPLINE
  5
4C
330
1F
100
AcDbEntity
  8
Layer 1
100
AcDbSpline
210
0.0
220
0.0
230
1.0
 70
    11
 71
     3
 72
    16
 73
    12
 74
     0
 42
0.0000000001
 43
0.0000000001
 12
1.0
 22
0.0
 32
0.0
 13
1.0
 23
0.0
 33
0.0
 40
0.0
 40
0.0
 40
0.0
 40
0.0
 40
0.25
 40
0.25
 40
0.25
 40
0.25
 40
0.5
 40
0.5
 40
0.5
 40
0.5
 40
1.0
 40
1.0
 40
1.0
 40
1.0
 10
-0.19813
 20
2.97672
 30
0.0
 10
-0.19813
 20
2.97672
 30
0.0
 10
-0.00001
 20
2.97672
 30
0.0
 10
-0.00001
 20
2.97672
 30
0.0
 10
-0.00001
 20
2.97672
 30
0.0
 10
-0.00001
 20
3.06026
 30
0.0
 10
-0.0312
 20
3.10202
 30
0.0
 10
-0.09343
 20
3.10202
 30
0.0
 10
-0.09343
 20
3.10202
 30
0.0
 10
-0.15608
 20
3.10202
 30
0.0
 10
-0.19094
 20
3.06026
 30
0.0
 10
-0.19813
 20
2.97672
 30
0.0
  0
SPLINE
  5
4D
330
1F
100
AcDbEntity
  8
Layer 1
100
AcDbSpline
210
0.0
220
0.0
230
1.0
 70
    11
 71
     3
 72
    20
 73
    16
 74
     0
 42
0.0000000001
 43
0.0000000001
 12
1.0
 22
0.0
 32
0.0
 13
1.0
 23
0.0
 33
0.0
 40
0.0
 40
0.0
 40
0.0
 40
0.0
 40
0.2
 40
0.2
 40
0.2
 40
0.2
 40
0.4
 40
0.4
 40
0.4
 40
0.4
 40
0.6
 40
0.6
 40
0.6
 40
0.6
 40
1.0
 40
1.0
 40
1.0
 40
1.0
 10
0.17624
 20
2.64313
 30
0.0
 10
0.17624
 20
2.64313
 30
0.0
 10
0.17624
 20
2.70409
 30
0.0
 10
0.17624
 20
2.70409
 30
0.0
 10
0.17624
 20
2.70409
 30
0.0
 10
0.17624
 20
2.70409
 30
0.0
 10
0.52845
 20
2.70409
 30
0.0
 10
0.52845
 20
2.70409
 30
0.0
 10
0.52845
 20
2.70409
 30
0.0
 10
0.52845
 20
2.70409
 30
0.0
 10
0.52845
 20
2.64313
 30
0.0
 10
0.52845
 20
2.64313
 30
0.0
 10
0.52845
 20
2.64313
 30
0.0
 10
0.52845
 20
2.64313
 30
0.0
 10
0.17624
 20
2.64313
 30
0.0
 10
0.17624
 20
2.64313
 30
0.0
  0
SPLINE
  5
4E
330
1F
100
AcDbEntity
  8
Layer 1
100
AcDbSpline
210
0.0
220
0.0
230
1.0
 70
    11
 71
     3
 72
    60
 73
    56
 74
     0
 42
0.0000000001
 43
0.0000000001
 12
1.0
 22
0.0
 32
0.0
 13
1.0
 23
0.0
 33
0.0
 40
0.0
 40
0.0
 40
0.0
 40
0.0
 40
0.0666666666666667
 40
0.0666666666666667
 40
0.0666666666666667
 40
0.0666666666666667
 40
0.1333333333333333
 40
0.1333333333333333
 40
0.1333333333333333
 40
0.1333333333333333
 40
0.2
 40
0.2
 40
0.2
 40
0.2
 40
0.2666666666666667
 40
0.2666666666666667
 40
0.2666666666666667
 40
0.2666666666666667
 40
0.3333333333333333
 40
0.3333333333333333
 40
0.3333333333333333
 40
0.3333333333333333
 40
0.4
 40
0.4
 40
0.4
 40
0.4
 40
0.4666666666666667
 40
0.4666666666666667
 40
0.4666666666666667
 40
0.4666666666666667
 40
0.5333333333333333
 40
0.5333333333333333
 40
0.5333333333333333
 40
0.5333333333333333
 40
0.6
 40
0.6
 40
0.6
 40
0.6
 40
0.6666666666666666
 40
0.6666666666666666
 40
0.6666666666666666
 40
0.6666666666666666
 40
0.7333333333333333
 40
0.7333333333333333
 40
0.7333333333333333
 40
0.7333333333333333
 40
0.8
 40
0.8
 40
0.8
 40
0.8
 40
0.8666666666666667
 40
0.8666666666666667
 40
0.8666666666666667
 40
0.8666666666666667
 40
1.0
 40
1.0
 40
1.0
 40
1.0
 10
0.6453
 20
2.70409
 30
0.0
 10
0.6453
 20
2.70409
 30
0.0
 10
0.6453
 20
3.15283
 30
0.0
 10
0.6453
 20
3.15283
 30
0.0
 10
0.6453
 20
3.15283
 30
0.0
 10
0.6453
 20
3.15283
 30
0.0
 10
0.72658
 20
3.15283
 30
0.0
 10
0.72658
 20
3.15283
 30
0.0
 10
0.72658
 20
3.15283
 30
0.0
 10
0.72658
 20
3.15283
 30
0.0
 10
0.72658
 20
3.06802
 30
0.0
 10
0.72658
 20
3.06802
 30
0.0
 10
0.72658
 20
3.06802
 30
0.0
 10
0.76962
 20
3.13081
 30
0.0
 10
0.8224
 20
3.16214
 30
0.0
 10
0.88477
 20
3.16214
 30
0.0
 10
0.88477
 20
3.16214
 30
0.0
 10
0.924
 20
3.16214
 30
0.0
 10
0.95518
 20
3.14986
 30
0.0
 10
0.97818
 20
3.12517
 30
0.0
 10
0.97818
 20
3.12517
 30
0.0
 10
1.00118
 20
3.10061
 30
0.0
 10
1.01276
 20
3.06745
 30
0.0
 10
1.01276
 20
3.02597
 30
0.0
 10
1.01276
 20
3.02597
 30
0.0
 10
1.01276
 20
3.02597
 30
0.0
 10
1.01276
 20
2.70409
 30
0.0
 10
1.01276
 20
2.70409
 30
0.0
 10
1.01276
 20
2.70409
 30
0.0
 10
1.01276
 20
2.70409
 30
0.0
 10
0.93147
 20
2.70409
 30
0.0
 10
0.93147
 20
2.70409
 30
0.0
 10
0.93147
 20
2.70409
 30
0.0
 10
0.93147
 20
2.70409
 30
0.0
 10
0.93147
 20
2.99944
 30
0.0
 10
0.93147
 20
2.99944
 30
0.0
 10
0.93147
 20
2.99944
 30
0.0
 10
0.93147
 20
3.03274
 30
0.0
 10
0.92654
 20
3.05645
 30
0.0
 10
0.9168
 20
3.07056
 30
0.0
 10
0.9168
 20
3.07056
 30
0.0
 10
0.90692
 20
3.08481
 30
0.0
 10
0.89069
 20
3.09186
 30
0.0
 10
0.86797
 20
3.09186
 30
0.0
 10
0.86797
 20
3.09186
 30
0.0
 10
0.81802
 20
3.09186
 30
0.0
 10
0.77089
 20
3.05927
 30
0.0
 10
0.72658
 20
2.99407
 30
0.0
 10
0.72658
 20
2.99407
 30
0.0
 10
0.72658
 20
2.99407
 30
0.0
 10
0.72658
 20
2.70409
 30
0.0
 10
0.72658
 20
2.70409
 30
0.0
 10
0.72658
 20
2.70409
 30
0.0
 10
0.72658
 20
2.70409
 30
0.0
 10
0.6453
 20
2.70409
 30
0.0
 10
0.6453
 20
2.70409
 30
0.0
  0
SPLINE
  5
4F
330
1F
100
AcDbEntity
  8
Layer 1
100
AcDbSpline
210
0.0
220
0.0
230
1.0
 70
    11
 71
     3
 72
    60
 73
    56
 74
     0
 42
0.0000000001
 43
0.0000000001
 12
1.0
 22
0.0
 32
0.0
 13
1.0
 23
0.0
 33
0.0
 40
0.0
 40
0.0
 40
0.0
 40
0.0
 40
0.0666666666666667
 40
0.0666666666666667
 40
0.0666666666666667
 40
0.0666666666666667
 40
0.1333333333333333
 40
0.1333333333333333
 40
0.1333333333333333
 40
0.1333333333333333
 40
0.2
 40
0.2
 40
0.2
 40
0.2
 40
0.2666666666666667
 40
0.2666666666666667
 40
0.2666666666666667
 40
0.2666666666666667
 40
0.3333333333333333
 40
0.3333333333333333
 40
0.3333333333333333
 40
0.3333333333333333
 40
0.4
 40
0.4
 40
0.4
 40
0.4
 40
0.4666666666666667
 40
0.4666666666666667
 40
0.4666666666666667
 40
0.4666666666666667
 40
0.5333333333333333
 40
0.5333333333333333
 40
0.5333333333333333
 40
0.5333333333333333
 40
0.6
 40
0.6
 40
0.6
 40
0.6
 40
0.6666666666666666
 40
0.6666666666666666
 40
0.6666666666666666
 40
0.6666666666666666
 40
0.7333333333333333
 40
0.7333333333333333
 40
0.7333333333333333
 40
0.7333333333333333
 40
0.8
 40
0.8
 40
0.8
 40
0.8
 40
0.8666666666666667
 40
0.8666666666666667
 40
0.8666666666666667
 40
0.8666666666666667
 40
1.0
 40
1.0
 40
1.0
 40
1.0
 10
1.45189
 20
2.70409
 30
0.0
 10
1.45189
 20
2.70409
 30
0.0
 10
1.45189
 20
2.78847
 30
0.0
 10
1.45189
 20
2.78847
 30
0.0
 10
1.45189
 20
2.78847
 30
0.0
 10
1.40857
 20
2.7254
 30
0.0
 10
1.35594
 20
2.69393
 30
0.0
 10
1.29413
 20
2.69393
 30
0.0
 10
1.29413
 20
2.69393
 30
0.0
 10
1.2549
 20
2.69393
 30
0.0
 10
1.22372
 20
2.70621
 30
0.0
 10
1.20057
 20
2.7309
 30
0.0
 10
1.20057
 20
2.7309
 30
0.0
 10
1.17729
 20
2.7556
 30
0.0
 10
1.16572
 20
2.78876
 30
0.0
 10
1.16572
 20
2.83067
 30
0.0
 10
1.16572
 20
2.83067
 30
0.0
 10
1.16572
 20
2.83067
 30
0.0
 10
1.16572
 20
3.15283
 30
0.0
 10
1.16572
 20
3.15283
 30
0.0
 10
1.16572
 20
3.15283
 30
0.0
 10
1.16572
 20
3.15283
 30
0.0
 10
1.247
 20
3.15283
 30
0.0
 10
1.247
 20
3.15283
 30
0.0
 10
1.247
 20
3.15283
 30
0.0
 10
1.247
 20
3.15283
 30
0.0
 10
1.247
 20
2.8572
 30
0.0
 10
1.247
 20
2.8572
 30
0.0
 10
1.247
 20
2.8572
 30
0.0
 10
1.247
 20
2.82347
 30
0.0
 10
1.25194
 20
2.79962
 30
0.0
 10
1.26168
 20
2.78551
 30
0.0
 10
1.26168
 20
2.78551
 30
0.0
 10
1.27155
 20
2.77126
 30
0.0
 10
1.28792
 20
2.7642
 30
0.0
 10
1.31092
 20
2.7642
 30
0.0
 10
1.31092
 20
2.7642
 30
0.0
 10
1.3606
 20
2.7642
 30
0.0
 10
1.40773
 20
2.7968
 30
0.0
 10
1.45189
 20
2.86214
 30
0.0
 10
1.45189
 20
2.86214
 30
0.0
 10
1.45189
 20
2.86214
 30
0.0
 10
1.45189
 20
3.15283
 30
0.0
 10
1.45189
 20
3.15283
 30
0.0
 10
1.45189
 20
3.15283
 30
0.0
 10
1.45189
 20
3.15283
 30
0.0
 10
1.53318
 20
3.15283
 30
0.0
 10
1.53318
 20
3.15283
 30
0.0
 10
1.53318
 20
3.15283
 30
0.0
 10
1.53318
 20
3.15283
 30
0.0
 10
1.53318
 20
2.70409
 30
0.0
 10
1.53318
 20
2.70409
 30
0.0
 10
1.53318
 20
2.70409
 30
0.0
 10
1.53318
 20
2.70409
 30
0.0
 10
1.45189
 20
2.70409
 30
0.0
 10
1.45189
 20
2.70409
 30
0.0
  0
SPLINE
  5
50
330
1F
100
AcDbEntity
  8
Layer 1
100
AcDbSpline
210
0.0
220
0.0
230
1.0
 70
    11
 71
     3
 72
    72
 73
    68
 74
     0
 42
0.0000000001
 43
0.0000000001
 12
1.0
 22
0.0
 32
0.0
 13
1.0
 23
0.0
 33
0.0
 40
0.0
 40
0.0
 40
0.0
 40
0.0
 40
0.0555555555555556
 40
0.0555555555555556
 40
0.0555555555555556
 40
0.0555555555555556
 40
0.1111111111111111
 40
0.1111111111111111
 40
0.1111111111111111
 40
0.1111111111111111
 40
0.1666666666666667
 40
0.1666666666666667
 40
0.1666666666666667
 40
0.1666666666666667
 40
0.2222222222222222
 40
0.2222222222222222
 40
0.2222222222222222
 40
0.2222222222222222
 40
0.2777777777777778
 40
0.2777777777777778
 40
0.2777777777777778
 40
0.2777777777777778
 40
0.3333333333333333
 40
0.3333333333333333
 40
0.3333333333333333
 40
0.3333333333333333
 40
0.3888888888888889
 40
0.3888888888888889
 40
0.3888888888888889
 40
0.3888888888888889
 40
0.4444444444444444
 40
0.4444444444444444
 40
0.4444444444444444
 40
0.4444444444444444
 40
0.5
 40
0.5
 40
0.5
 40
0.5
 40
0.5555555555555556
 40
0.5555555555555556
 40
0.5555555555555556
 40
0.5555555555555556
 40
0.6111111111111112
 40
0.6111111111111112
 40
0.6111111111111112
 40
0.6111111111111112
 40
0.6666666666666666
 40
0.6666666666666666
 40
0.6666666666666666
 40
0.6666666666666666
 40
0.7222222222222222
 40
0.7222222222222222
 40
0.7222222222222222
 40
0.7222222222222222
 40
0.7777777777777778
 40
0.7777777777777778
 40
0.7777777777777778
 40
0.7777777777777778
 40
0.8333333333333334
 40
0.8333333333333334
 40
0.8333333333333334
 40
0.8333333333333334
 40
0.8888888888888888
 40
0.8888888888888888
 40
0.8888888888888888
 40
0.8888888888888888
 40
1.0
 40
1.0
 40
1.0
 40
1.0
 10
1.89696
 20
2.70423
 30
0.0
 10
1.87184
 20
2.69732
 30
0.0
 10
1.84997
 20
2.69393
 30
0.0
 10
1.83149
 20
2.69393
 30
0.0
 10
1.83149
 20
2.69393
 30
0.0
 10
1.79
 20
2.69393
 30
0.0
 10
1.75768
 20
2.70578
 30
0.0
 10
1.73454
 20
2.72949
 30
0.0
 10
1.73454
 20
2.72949
 30
0.0
 10
1.71126
 20
2.7532
 30
0.0
 10
1.69969
 20
2.78608
 30
0.0
 10
1.69969
 20
2.82827
 30
0.0
 10
1.69969
 20
2.82827
 30
0.0
 10
1.69969
 20
2.82827
 30
0.0
 10
1.69969
 20
3.09186
 30
0.0
 10
1.69969
 20
3.09186
 30
0.0
 10
1.69969
 20
3.09186
 30
0.0
 10
1.69969
 20
3.09186
 30
0.0
 10
1.64352
 20
3.09186
 30
0.0
 10
1.64352
 20
3.09186
 30
0.0
 10
1.64352
 20
3.09186
 30
0.0
 10
1.64352
 20
3.09186
 30
0.0
 10
1.64352
 20
3.15283
 30
0.0
 10
1.64352
 20
3.15283
 30
0.0
 10
1.64352
 20
3.15283
 30
0.0
 10
1.64352
 20
3.15283
 30
0.0
 10
1.69969
 20
3.15283
 30
0.0
 10
1.69969
 20
3.15283
 30
0.0
 10
1.69969
 20
3.15283
 30
0.0
 10
1.69969
 20
3.15283
 30
0.0
 10
1.69969
 20
3.23396
 30
0.0
 10
1.69969
 20
3.23396
 30
0.0
 10
1.69969
 20
3.23396
 30
0.0
 10
1.69969
 20
3.23396
 30
0.0
 10
1.78097
 20
3.24173
 30
0.0
 10
1.78097
 20
3.24173
 30
0.0
 10
1.78097
 20
3.24173
 30
0.0
 10
1.78097
 20
3.24173
 30
0.0
 10
1.78097
 20
3.15283
 30
0.0
 10
1.78097
 20
3.15283
 30
0.0
 10
1.78097
 20
3.15283
 30
0.0
 10
1.78097
 20
3.15283
 30
0.0
 10
1.89865
 20
3.15283
 30
0.0
 10
1.89865
 20
3.15283
 30
0.0
 10
1.89865
 20
3.15283
 30
0.0
 10
1.89865
 20
3.15283
 30
0.0
 10
1.89865
 20
3.09186
 30
0.0
 10
1.89865
 20
3.09186
 30
0.0
 10
1.89865
 20
3.09186
 30
0.0
 10
1.89865
 20
3.09186
 30
0.0
 10
1.78097
 20
3.09186
 30
0.0
 10
1.78097
 20
3.09186
 30
0.0
 10
1.78097
 20
3.09186
 30
0.0
 10
1.78097
 20
3.09186
 30
0.0
 10
1.78097
 20
2.84294
 30
0.0
 10
1.78097
 20
2.84294
 30
0.0
 10
1.78097
 20
2.84294
 30
0.0
 10
1.78097
 20
2.78424
 30
0.0
 10
1.80651
 20
2.75489
 30
0.0
 10
1.85745
 20
2.75489
 30
0.0
 10
1.85745
 20
2.75489
 30
0.0
 10
1.86832
 20
2.75489
 30
0.0
 10
1.88144
 20
2.75672
 30
0.0
 10
1.89696
 20
2.76025
 30
0.0
 10
1.89696
 20
2.76025
 30
0.0
 10
1.89696
 20
2.76025
 30
0.0
 10
1.89696
 20
2.70423
 30
0.0
 10
1.89696
 20
2.70423
 30
0.0
  0
SPLINE
  5
51
330
1F
100
AcDbEntity
  8
Layer 1
100
AcDbSpline
210
0.0
220
0.0
230
1.0
 70
    11
 71
     3
 72
    20
 73
    16
 74
     0
 42
0.0000000001
 43
0.0000000001
 12
1.0
 22
0.0
 32
0.0
 13
1.0
 23
0.0
 33
0.0
 40
0.0
 40
0.0
 40
0.0
 40
0.0
 40
0.2
 40
0.2
 40
0.2
 40
0.2
 40
0.4
 40
0.4
 40
0.4
 40
0.4
 40
0.6
 40
0.6
 40
0.6
 40
0.6
 40
1.0
 40
1.0
 40
1.0
 40
1.0
 10
1.96723
 20
2.64313
 30
0.0
 10
1.96723
 20
2.64313
 30
0.0
 10
1.96723
 20
2.70409
 30
0.0
 10
1.96723
 20
2.70409
 30
0.0
 10
1.96723
 20
2.70409
 30
0.0
 10
1.96723
 20
2.70409
 30
0.0
 10
2.31944
 20
2.70409
 30
0.0
 10
2.31944
 20
2.70409
 30
0.0
 10
2.31944
 20
2.70409
 30
0.0
 10
2.31944
 20
2.70409
 30
0.0
 10
2.31944
 20
2.64313
 30
0.0
 10
2.31944
 20
2.64313
 30
0.0
 10
2.31944
 20
2.64313
 30
0.0
 10
2.31944
 20
2.64313
 30
0.0
 10
1.96723
 20
2.64313
 30
0.0
 10
1.96723
 20
2.64313
 30
0.0
  0
SPLINE
  5
52
330
1F
100
AcDbEntity
  8
Layer 1
100
AcDbSpline
210
0.0
220
0.0
230
1.0
 70
    11
 71
     3
 72
    84
 73
    80
 74
     0
 42
0.0000000001
 43
0.0000000001
 12
1.0
 22
0.0
 32
0.0
 13
1.0
 23
0.0
 33
0.0
 40
0.0
 40
0.0
 40
0.0
 40
0.0
 40
0.0476190476190476
 40
0.0476190476190476
 40
0.0476190476190476
 40
0.0476190476190476
 40
0.0952380952380952
 40
0.0952380952380952
 40
0.0952380952380952
 40
0.0952380952380952
 40
0.1428571428571428
 40
0.1428571428571428
 40
0.1428571428571428
 40
0.1428571428571428
 40
0.1904761904761905
 40
0.1904761904761905
 40
0.1904761904761905
 40
0.1904761904761905
 40
0.2380952380952381
 40
0.2380952380952381
 40
0.2380952380952381
 40
0.2380952380952381
 40
0.2857142857142857
 40
0.2857142857142857
 40
0.2857142857142857
 40
0.2857142857142857
 40
0.3333333333333333
 40
0.3333333333333333
 40
0.3333333333333333
 40
0.3333333333333333
 40
0.3809523809523809
 40
0.3809523809523809
 40
0.3809523809523809
 40
0.3809523809523809
 40
0.4285714285714285
 40
0.4285714285714285
 40
0.4285714285714285
 40
0.4285714285714285
 40
0.4761904761904762
 40
0.4761904761904762
 40
0.4761904761904762
 40
0.4761904761904762
 40
0.5238095238095238
 40
0.5238095238095238
 40
0.5238095238095238
 40
0.5238095238095238
 40
0.5714285714285714
 40
0.5714285714285714
 40
0.5714285714285714
 40
0.5714285714285714
 40
0.6190476190476191
 40
0.6190476190476191
 40
0.6190476190476191
 40
0.6190476190476191
 40
0.6666666666666666
 40
0.6666666666666666
 40
0.6666666666666666
 40
0.6666666666666666
 40
0.7142857142857143
 40
0.7142857142857143
 40
0.7142857142857143
 40
0.7142857142857143
 40
0.7619047619047619
 40
0.7619047619047619
 40
0.7619047619047619
 40
0.7619047619047619
 40
0.8095238095238095
 40
0.8095238095238095
 40
0.8095238095238095
 40
0.8095238095238095
 40
0.8571428571428571
 40
0.8571428571428571
 40
0.8571428571428571
 40
0.8571428571428571
 40
0.9047619047619048
 40
0.9047619047619048
 40
0.9047619047619048
 40
0.9047619047619048
 40
1.0
 40
1.0
 40
1.0
 40
1.0
 10
2.43629
 20
2.70409
 30
0.0
 10
2.43629
 20
2.70409
 30
0.0
 10
2.43629
 20
3.15283
 30
0.0
 10
2.43629
 20
3.15283
 30
0.0
 10
2.43629
 20
3.15283
 30
0.0
 10
2.43629
 20
3.15283
 30
0.0
 10
2.51757
 20
3.15283
 30
0.0
 10
2.51757
 20
3.15283
 30
0.0
 10
2.51757
 20
3.15283
 30
0.0
 10
2.51757
 20
3.15283
 30
0.0
 10
2.51757
 20
3.06802
 30
0.0
 10
2.51757
 20
3.06802
 30
0.0
 10
2.51757
 20
3.06802
 30
0.0
 10
2.55722
 20
3.13081
 30
0.0
 10
2.60802
 20
3.16214
 30
0.0
 10
2.67025
 20
3.16214
 30
0.0
 10
2.67025
 20
3.16214
 30
0.0
 10
2.73023
 20
3.16214
 30
0.0
 10
2.77101
 20
3.13081
 30
0.0
 10
2.79274
 20
3.06802
 30
0.0
 10
2.79274
 20
3.06802
 30
0.0
 10
2.83126
 20
3.13138
 30
0.0
 10
2.8815
 20
3.16299
 30
0.0
 10
2.94316
 20
3.16299
 30
0.0
 10
2.94316
 20
3.16299
 30
0.0
 10
2.98253
 20
3.16299
 30
0.0
 10
3.01315
 20
3.15141
 30
0.0
 10
3.03503
 20
3.12813
 30
0.0
 10
3.03503
 20
3.12813
 30
0.0
 10
3.0569
 20
3.10485
 30
0.0
 10
3.06791
 20
3.07225
 30
0.0
 10
3.06791
 20
3.03034
 30
0.0
 10
3.06791
 20
3.03034
 30
0.0
 10
3.06791
 20
3.03034
 30
0.0
 10
3.06791
 20
2.70409
 30
0.0
 10
3.06791
 20
2.70409
 30
0.0
 10
3.06791
 20
2.70409
 30
0.0
 10
3.06791
 20
2.70409
 30
0.0
 10
2.98663
 20
2.70409
 30
0.0
 10
2.98663
 20
2.70409
 30
0.0
 10
2.98663
 20
2.70409
 30
0.0
 10
2.98663
 20
2.70409
 30
0.0
 10
2.98663
 20
3.01693
 30
0.0
 10
2.98663
 20
3.01693
 30
0.0
 10
2.98663
 20
3.01693
 30
0.0
 10
2.98663
 20
3.06802
 30
0.0
 10
2.96631
 20
3.09356
 30
0.0
 10
2.92567
 20
3.09356
 30
0.0
 10
2.92567
 20
3.09356
 30
0.0
 10
2.88347
 20
3.09356
 30
0.0
 10
2.83916
 20
3.06378
 30
0.0
 10
2.79274
 20
3.00409
 30
0.0
 10
2.79274
 20
3.00409
 30
0.0
 10
2.79274
 20
3.00409
 30
0.0
 10
2.79274
 20
2.70409
 30
0.0
 10
2.79274
 20
2.70409
 30
0.0
 10
2.79274
 20
2.70409
 30
0.0
 10
2.79274
 20
2.70409
 30
0.0
 10
2.71146
 20
2.70409
 30
0.0
 10
2.71146
 20
2.70409
 30
0.0
 10
2.71146
 20
2.70409
 30
0.0
 10
2.71146
 20
2.70409
 30
0.0
 10
2.71146
 20
3.01722
 30
0.0
 10
2.71146
 20
3.01722
 30
0.0
 10
2.71146
 20
3.01722
 30
0.0
 10
2.71146
 20
3.06872
 30
0.0
 10
2.69086
 20
3.0944
 30
0.0
 10
2.64951
 20
3.0944
 30
0.0
 10
2.64951
 20
3.0944
 30
0.0
 10
2.60845
 20
3.0944
 30
0.0
 10
2.56442
 20
3.06449
 30
0.0
 10
2.51757
 20
3.00452
 30
0.0
 10
2.51757
 20
3.00452
 30
0.0
 10
2.51757
 20
3.00452
 30
0.0
 10
2.51757
 20
2.70409
 30
0.0
 10
2.51757
 20
2.70409
 30
0.0
 10
2.51757
 20
2.70409
 30
0.0
 10
2.51757
 20
2.70409
 30
0.0
 10
2.43629
 20
2.70409
 30
0.0
 10
2.43629
 20
2.70409
 30
0.0
  0
SPLINE
  5
53
330
1F
100
AcDbEntity
  8
Layer 1
100
AcDbSpline
210
0.0
220
0.0
230
1.0
 70
    11
 71
     3
 72
    84
 73
    80
 74
     0
 42
0.0000000001
 43
0.0000000001
 12
1.0
 22
0.0
 32
0.0
 13
1.0
 23
0.0
 33
0.0
 40
0.0
 40
0.0
 40
0.0
 40
0.0
 40
0.0476190476190476
 40
0.0476190476190476
 40
0.0476190476190476
 40
0.0476190476190476
 40
0.0952380952380952
 40
0.0952380952380952
 40
0.0952380952380952
 40
0.0952380952380952
 40
0.1428571428571428
 40
0.1428571428571428
 40
0.1428571428571428
 40
0.1428571428571428
 40
0.1904761904761905
 40
0.1904761904761905
 40
0.1904761904761905
 40
0.1904761904761905
 40
0.2380952380952381
 40
0.2380952380952381
 40
0.2380952380952381
 40
0.2380952380952381
 40
0.2857142857142857
 40
0.2857142857142857
 40
0.2857142857142857
 40
0.2857142857142857
 40
0.3333333333333333
 40
0.3333333333333333
 40
0.3333333333333333
 40
0.3333333333333333
 40
0.3809523809523809
 40
0.3809523809523809
 40
0.3809523809523809
 40
0.3809523809523809
 40
0.4285714285714285
 40
0.4285714285714285
 40
0.4285714285714285
 40
0.4285714285714285
 40
0.4761904761904762
 40
0.4761904761904762
 40
0.4761904761904762
 40
0.4761904761904762
 40
0.5238095238095238
 40
0.5238095238095238
 40
0.5238095238095238
 40
0.5238095238095238
 40
0.5714285714285714
 40
0.5714285714285714
 40
0.5714285714285714
 40
0.5714285714285714
 40
0.6190476190476191
 40
0.6190476190476191
 40
0.6190476190476191
 40
0.6190476190476191
 40
0.6666666666666666
 40
0.6666666666666666
 40
0.6666666666666666
 40
0.6666666666666666
 40
0.7142857142857143
 40
0.7142857142857143
 40
0.7142857142857143
 40
0.7142857142857143
 40
0.7619047619047619
 40
0.7619047619047619
 40
0.7619047619047619
 40
0.7619047619047619
 40
0.8095238095238095
 40
0.8095238095238095
 40
0.8095238095238095
 40
0.8095238095238095
 40
0.8571428571428571
 40
0.8571428571428571
 40
0.8571428571428571
 40
0.8571428571428571
 40
0.9047619047619048
 40
0.9047619047619048
 40
0.9047619047619048
 40
0.9047619047619048
 40
1.0
 40
1.0
 40
1.0
 40
1.0
 10
3.23188
 20
2.70832
 30
0.0
 10
3.23188
 20
2.70832
 30
0.0
 10
3.23188
 20
2.78452
 30
0.0
 10
3.23188
 20
2.78452
 30
0.0
 10
3.23188
 20
2.78452
 30
0.0
 10
3.29002
 20
2.76138
 30
0.0
 10
3.3356
 20
2.74981
 30
0.0
 10
3.36904
 20
2.74981
 30
0.0
 10
3.36904
 20
2.74981
 30
0.0
 10
3.40841
 20
2.74981
 30
0.0
 10
3.44016
 20
2.7611
 30
0.0
 10
3.46457
 20
2.78382
 30
0.0
 10
3.46457
 20
2.78382
 30
0.0
 10
3.48899
 20
2.80654
 30
0.0
 10
3.50112
 20
2.83617
 30
0.0
 10
3.50112
 20
2.87258
 30
0.0
 10
3.50112
 20
2.87258
 30
0.0
 10
3.50112
 20
2.95894
 30
0.0
 10
3.44101
 20
3.00212
 30
0.0
 10
3.32078
 20
3.00212
 30
0.0
 10
3.32078
 20
3.00212
 30
0.0
 10
3.32078
 20
3.00212
 30
0.0
 10
3.28861
 20
3.00212
 30
0.0
 10
3.28861
 20
3.00212
 30
0.0
 10
3.28861
 20
3.00212
 30
0.0
 10
3.28861
 20
3.00212
 30
0.0
 10
3.28861
 20
3.05673
 30
0.0
 10
3.28861
 20
3.05673
 30
0.0
 10
3.28861
 20
3.05673
 30
0.0
 10
3.28861
 20
3.05673
 30
0.0
 10
3.31711
 20
3.05715
 30
0.0
 10
3.31711
 20
3.05715
 30
0.0
 10
3.31711
 20
3.05715
 30
0.0
 10
3.43014
 20
3.05715
 30
0.0
 10
3.48673
 20
3.09694
 30
0.0
 10
3.48673
 20
3.17667
 30
0.0
 10
3.48673
 20
3.17667
 30
0.0
 10
3.48673
 20
3.23919
 30
0.0
 10
3.44919
 20
3.27051
 30
0.0
 10
3.37426
 20
3.27051
 30
0.0
 10
3.37426
 20
3.27051
 30
0.0
 10
3.33405
 20
3.27051
 30
0.0
 10
3.28945
 20
3.25894
 30
0.0
 10
3.24035
 20
3.2358
 30
0.0
 10
3.24035
 20
3.2358
 30
0.0
 10
3.24035
 20
3.2358
 30
0.0
 10
3.24035
 20
3.30692
 30
0.0
 10
3.24035
 20
3.30692
 30
0.0
 10
3.24035
 20
3.30692
 30
0.0
 10
3.28847
 20
3.32329
 30
0.0
 10
3.33489
 20
3.33147
 30
0.0
 10
3.37948
 20
3.33147
 30
0.0
 10
3.37948
 20
3.33147
 30
0.0
 10
3.44016
 20
3.33147
 30
0.0
 10
3.48687
 20
3.31934
 30
0.0
 10
3.51932
 20
3.29507
 30
0.0
 10
3.51932
 20
3.29507
 30
0.0
 10
3.55178
 20
3.27094
 30
0.0
 10
3.56801
 20
3.2358
 30
0.0
 10
3.56801
 20
3.1898
 30
0.0
 10
3.56801
 20
3.1898
 30
0.0
 10
3.56801
 20
3.11797
 30
0.0
 10
3.52553
 20
3.06675
 30
0.0
 10
3.44044
 20
3.03627
 30
0.0
 10
3.44044
 20
3.03627
 30
0.0
 10
3.53908
 20
3.01327
 30
0.0
 10
3.58833
 20
2.95922
 30
0.0
 10
3.58833
 20
2.87385
 30
0.0
 10
3.58833
 20
2.87385
 30
0.0
 10
3.58833
 20
2.81627
 30
0.0
 10
3.56928
 20
2.77098
 30
0.0
 10
3.53132
 20
2.7381
 30
0.0
 10
3.53132
 20
2.7381
 30
0.0
 10
3.49336
 20
2.70522
 30
0.0
 10
3.44115
 20
2.68885
 30
0.0
 10
3.37483
 20
2.68885
 30
0.0
 10
3.37483
 20
2.68885
 30
0.0
 10
3.33701
 20
2.68885
 30
0.0
 10
3.28945
 20
2.69534
 30
0.0
 10
3.23188
 20
2.70832
 30
0.0
  0
ELLIPSE
  5
54
330
1F
100
AcDbEntity
  8
Layer 1
370
    53
100
AcDbEllipse
 10
0.0
 20
0.0
 30
0.0
 11
0.0
 21
0.15
 31
0.0
210
0.0
220
0.0
230
1.0
 40
1.0
 41
0.0
 42
6.283185307179586
  0
SPLINE
  5
55
330
1F
100
AcDbEntity
  8
Layer 1
370
    53
100
AcDbSpline
210
0.0
220
0.0
230
1.0
 70
    11
 71
     3
 72
    52
 73
    48
 74
     0
 42
0.0000000001
 43
0.0000000001
 12
1.0
 22
0.0
 32
0.0
 13
1.0
 23
0.0
 33
0.0
 40
0.0
 40
0.0
 40
0.0
 40
0.0
 40
0.0769230769230769
 40
0.0769230769230769
 40
0.0769230769230769
 40
0.0769230769230769
 40
0.1538461538461539
 40
0.1538461538461539
 40
0.1538461538461539
 40
0.1538461538461539
 40
0.2307692307692308
 40
0.2307692307692308
 40
0.2307692307692308
 40
0.2307692307692308
 40
0.3076923076923077
 40
0.3076923076923077
 40
0.3076923076923077
 40
0.3076923076923077
 40
0.3846153846153846
 40
0.3846153846153846
 40
0.3846153846153846
 40
0.3846153846153846
 40
0.4615384615384616
 40
0.4615384615384616
 40
0.4615384615384616
 40
0.4615384615384616
 40
0.5384615384615384
 40
0.5384615384615384
 40
0.5384615384615384
 40
0.5384615384615384
 40
0.6153846153846154
 40
0.6153846153846154
 40
0.6153846153846154
 40
0.6153846153846154
 40
0.6923076923076923
 40
0.6923076923076923
 40
0.6923076923076923
 40
0.6923076923076923
 40
0.7692307692307693
 40
0.7692307692307693
 40
0.7692307692307693
 40
0.7692307692307693
 40
0.8461538461538461
 40
0.8461538461538461
 40
0.8461538461538461
 40
0.8461538461538461
 40
1.0
 40
1.0
 40
1.0
 40
1.0
 10
0.0
 20
0.31754
 30
0.0
 10
0.0
 20
0.31754
 30
0.0
 10
0.1375
 20
0.23816
 30
0.0
 10
0.1375
 20
0.23816
 30
0.0
 10
0.1375
 20
0.23816
 30
0.0
 10
0.1375
 20
0.23816
 30
0.0
 10
0.275
 20
0.15877
 30
0.0
 10
0.275
 20
0.15877
 30
0.0
 10
0.275
 20
0.15877
 30
0.0
 10
0.275
 20
0.15877
 30
0.0
 10
0.275
 20
0.0
 30
0.0
 10
0.275
 20
0.0
 30
0.0
 10
0.275
 20
0.0
 30
0.0
 10
0.275
 20
0.0
 30
0.0
 10
0.275
 20
-0.15877
 30
0.0
 10
0.275
 20
-0.15877
 30
0.0
 10
0.275
 20
-0.15877
 30
0.0
 10
0.275
 20
-0.15877
 30
0.0
 10
0.1375
 20
-0.23816
 30
0.0
 10
0.1375
 20
-0.23816
 30
0.0
 10
0.1375
 20
-0.23816
 30
0.0
 10
0.1375
 20
-0.23816
 30
0.0
 10
0.0
 20
-0.31754
 30
0.0
 10
0.0
 20
-0.31754
 30
0.0
 10
0.0
 20
-0.31754
 30
0.0
 10
0.0
 20
-0.31754
 30
0.0
 10
-0.1375
 20
-0.23816
 30
0.0
 10
-0.1375
 20
-0.23816
 30
0.0
 10
-0.1375
 20
-0.23816
 30
0.0
 10
-0.1375
 20
-0.23816
 30
0.0
 10
-0.275
 20
-0.15877
 30
0.0
 10
-0.275
 20
-0.15877
 30
0.0
 10
-0.275
 20
-0.15877
 30
0.0
 10
-0.275
 20
-0.15877
 30
0.0
 10
-0.275
 20
0.0
 30
0.0
 10
-0.275
 20
0.0
 30
0.0
 10
-0.275
 20
0.0
 30
0.0
 10
-0.275
 20
0.0
 30
0.0
 10
-0.275
 20
0.15877
 30
0.0
 10
-0.275
 20
0.15877
 30
0.0
 10
-0.275
 20
0.15877
 30
0.0
 10
-0.275
 20
0.15877
 30
0.0
 10
-0.1375
 20
0.23816
 30
0.0
 10
-0.1375
 20
0.23816
 30
0.0
 10
-0.1375
 20
0.23816
 30
0.0
 10
-0.1375
 20
0.23816
 30
0.0
 10
0.0
 20
0.31754
 30
0.0
 10
0.0
 20
0.31754
 30
0.0
  0
LWPOLYLINE
  5
56
330
1F
100
AcDbEntity
  8
Layer 1
370
    53
100
AcDbPolyline
 90
        5
 70
     1
 43
0.0
 10
-0.275
 20
1.38
 10
0.275
 20
1.38
 10
0.275
 20
1.62
 10
-0.275
 20
1.62
 10
-0.275
 20
1.38
  0
LWPOLYLINE
  5
57
330
1F
100
AcDbEntity
  8
Layer 1
370
    53
100
AcDbPolyline
 90
        5
 70
     1
 43
0.0
 10
1.38
 20
-0.31755
 10
1.62
 20
-0.31755
 10
1.62
 20
0.31755
 10
1.38
 20
0.31755
 10
1.38
 20
-0.31755
  0
ENDSEC
  0
SECTION
  2
OBJECTS
  0
DICTIONARY
  5
C
330
0
100
AcDbDictionary
281
     1
  3
ACAD_GROUP
350
D
  3
ACAD_LAYOUT
350
1A
  3
ACAD_MATERIAL
350
3B
  3
ACAD_MLEADERSTYLE
350
79
  3
ACAD_MLINESTYLE
350
17
  3
ACAD_PLOTSETTINGS
350
19
  3
ACAD_PLOTSTYLENAME
350
E
  3
ACAD_TABLESTYLE
350
78
  3
ACAD_VISUALSTYLE
350
2A
  0
DICTIONARY
  5
D
102
{ACAD_REACTORS
330
C
102
}
330
C
100
AcDbDictionary
281
     1
  0
DICTIONARY
  5
1A
102
{ACAD_REACTORS
330
C
102
}
330
C
100
AcDbDictionary
281
     1
  3
Layout1
350
1E
  3
Layout2
350
26
  3
Model
350
22
  0
DICTIONARY
  5
3B
102
{ACAD_REACTORS
330
C
102
}
330
C
100
AcDbDictionary
281
     1
  3
ByBlock
350
3D
  3
ByLayer
350
3C
  3
Global
350
3E
  0
DICTIONARY
  5
79
102
{ACAD_REACTORS
330
C
102
}
330
C
100
AcDbDictionary
281
     1
  0
DICTIONARY
  5
17
102
{ACAD_REACTORS
330
C
102
}
330
C
100
AcDbDictionary
281
     1
  3
Standard
350
18
  0
DICTIONARY
  5
19
102
{ACAD_REACTORS
330
C
102
}
330
C
100
AcDbDictionary
281
     1
  0
ACDBDICTIONARYWDFLT
  5
E
102
{ACAD_REACTORS
330
C
102
}
330
C
100
AcDbDictionary
281
     1
  3
Normal
350
F
100
AcDbDictionaryWithDefault
340
F
  0
DICTIONARY
  5
78
102
{ACAD_REACTORS
330
C
102
}
330
C
100
AcDbDictionary
281
     1
  0
DICTIONARY
  5
2A
102
{ACAD_REACTORS
330
C
102
}
330
C
100
AcDbDictionary
281
     1
  3
2dWireframe
350
2F
  3
3D Hidden
350
31
  3
3dWireframe
350
30
  3
Basic
350
32
  3
Brighten
350
36
  3
ColorChange
350
3A
  3
Conceptual
350
34
  3
Dim
350
35
  3
Facepattern
350
39
  3
Flat
350
2B
  3
FlatWithEdges
350
2C
  3
Gouraud
350
2D
  3
GouraudWithEdges
350
2E
  3
Linepattern
350
38
  3
Realistic
350
33
  3
Thicken
350
37
  0
LAYOUT
  5
1E
102
{ACAD_REACTORS
330
1A
102
}
330
1A
100
AcDbPlotSettings
  1

  2
none_device
  4

  6

 40
0.0
 41
0.0
 42
0.0
 43
0.0
 44
0.0
 45
0.0
 46
0.0
 47
0.0
 48
0.0
 49
0.0
140
0.0
141
0.0
142
1.0
143
1.0
 70
   688
 72
     0
 73
     0
 74
     5
  7

 75
    16
 76
     0
 77
     2
 78
   300
147
1.0
148
0.0
149
0.0
100
AcDbLayout
  1
Layout1
 70
     1
 71
     1
 10
0.0
 20
0.0
 11
12.0
 21
9.0
 12
0.0
 22
0.0
 32
0.0
 14
1.000000000000000E+20
 24
1.000000000000000E+20
 34
1.000000000000000E+20
 15
-1.000000000000000E+20
 25
-1.000000000000000E+20
 35
-1.000000000000000E+20
146
0.0
 13
0.0
 23
0.0
 33
0.0
 16
1.0
 26
0.0
 36
0.0
 17
0.0
 27
1.0
 37
0.0
 76
     0
330
1B
  0
LAYOUT
  5
26
102
{ACAD_REACTORS
330
1A
102
}
330
1A
100
AcDbPlotSettings
  1

  2
none_device
  4

  6

 40
0.0
 41
0.0
 42
0.0
 43
0.0
 44
0.0
 45
0.0
 46
0.0
 47
0.0
 48
0.0
 49
0.0
140
0.0
141
0.0
142
1.0
143
1.0
 70
   688
 72
     0
 73
     0
 74
     5
  7

 75
    16
 76
     0
 77
     2
 78
   300
147
1.0
148
0.0
149
0.0
100
AcDbLayout
  1
Layout2
 70
     1
 71
     2
 10
0.0
 20
0.0
 11
0.0
 21
0.0
 12
0.0
 22
0.0
 32
0.0
 14
0.0
 24
0.0
 34
0.0
 15
0.0
 25
0.0
 35
0.0
146
0.0
 13
0.0
 23
0.0
 33
0.0
 16
1.0
 26
0.0
 36
0.0
 17
0.0
 27
1.0
 37
0.0
 76
     0
330
23
  0
LAYOUT
  5
22
102
{ACAD_REACTORS
330
1A
102
}
330
1A
100
AcDbPlotSettings
  1

  2
none_device
  4

  6

 40
0.0
 41
0.0
 42
0.0
 43
0.0
 44
0.0
 45
0.0
 46
0.0
 47
0.0
 48
0.0
 49
0.0
140
0.0
141
0.0
142
1.0
143
1.0
 70
  1712
 72
     0
 73
     0
 74
     0
  7

 75
     0
 76
     0
 77
     2
 78
   300
147
1.0
148
0.0
149
0.0
100
AcDbLayout
  1
Model
 70
     1
 71
     0
 10
0.0
 20
0.0
 11
12.0
 21
9.0
 12
0.0
 22
0.0
 32
0.0
 14
-3.58834
 24
-0.34401
 34
0.0
 15
3.58833
 25
3.35687
 35
0.0
146
0.0
 13
0.0
 23
0.0
 33
0.0
 16
1.0
 26
0.0
 36
0.0
 17
0.0
 27
1.0
 37
0.0
 76
     0
330
1F
331
29
  0
MATERIAL
  5
3D
102
{ACAD_REACTORS
330
3B
102
}
330
3B
100
AcDbMaterial
  1
ByBlock
 72
     1
 94
      127
  0
MATERIAL
  5
3C
102
{ACAD_REACTORS
330
3B
102
}
330
3B
100
AcDbMaterial
  1
ByLayer
 72
     1
 94
      127
  0
MATERIAL
  5
3E
102
{ACAD_REACTORS
330
3B
102
}
330
3B
100
AcDbMaterial
  1
Global
 72
     1
 94
      127
  0
MLINESTYLE
  5
18
102
{ACAD_REACTORS
330
17
102
}
330
17
100
AcDbMlineStyle
  2
Standard
 70
     0
  3

 62
   256
 51
90.0
 52
90.0
 71
     2
 49
0.5
 62
   256
  6
BYLAYER
 49
-0.5
 62
   256
  6
BYLAYER
  0
ACDBPLACEHOLDER
  5
F
102
{ACAD_REACTORS
330
E
102
}
330
E
  0
VISUALSTYLE
  5
2F
102
{ACAD_REACTORS
330
2A
102
}
102
{ACAD_XDICTIONARY
360
60
102
}
330
2A
100
AcDbVisualStyle
  2
2dWireframe
 70
     4
 71
     0
 72
     2
 73
     0
 90
        0
 40
-0.6
 41
-30.0
 62
     5
 63
     7
421
 16777215
 74
     1
 91
        4
 64
     7
 65
   257
 75
     1
175
     1
 42
1.0
 92
        0
 66
   257
 43
1.0
 76
     1
 77
     6
 78
     2
 67
     7
 79
     5
170
     0
171
     0
290
     0
174
     0
 93
        1
 44
0.0
173
     0
291
     0
 45
0.0
  0
VISUALSTYLE
  5
31
102
{ACAD_REACTORS
330
2A
102
}
102
{ACAD_XDICTIONARY
360
64
102
}
330
2A
100
AcDbVisualStyle
  2
3D Hidden
 70
     6
 71
     1
 72
     2
 73
     2
 90
        0
 40
-0.6
 41
-30.0
 62
     5
 63
     7
421
 16777215
 74
     2
 91
        2
 64
     7
 65
   257
 75
     2
175
     1
 42
40.0
 92
        0
 66
   257
 43
1.0
 76
     1
 77
     6
 78
     2
 67
     7
 79
     3
170
     0
171
     0
290
     0
174
     0
 93
        1
 44
0.0
173
     0
291
     0
 45
0.0
  0
VISUALSTYLE
  5
30
102
{ACAD_REACTORS
330
2A
102
}
102
{ACAD_XDICTIONARY
360
62
102
}
330
2A
100
AcDbVisualStyle
  2
3dWireframe
 70
     5
 71
     0
 72
     2
 73
     0
 90
        0
 40
-0.6
 41
-30.0
 62
     5
 63
     7
421
 16777215
 74
     1
 91
        4
 64
     7
 65
   257
 75
     1
175
     1
 42
1.0
 92
        0
 66
   257
 43
1.0
 76
     1
 77
     6
 78
     2
 67
     7
 79
     5
170
     0
171
     0
290
     0
174
     0
 93
        1
 44
0.0
173
     0
291
     0
 45
0.0
  0
VISUALSTYLE
  5
32
102
{ACAD_REACTORS
330
2A
102
}
102
{ACAD_XDICTIONARY
360
66
102
}
330
2A
100
AcDbVisualStyle
  2
Basic
 70
     7
 71
     1
 72
     0
 73
     1
 90
        0
 40
-0.6
 41
-30.0
 62
     5
 63
     7
421
 16777215
 74
     0
 91
        4
 64
     7
 65
   257
 75
     1
175
     1
 42
1.0
 92
        8
 66
     7
 43
1.0
 76
     1
 77
     6
 78
     2
 67
     7
 79
     5
170
     0
171
     0
290
     0
174
     0
 93
        1
 44
0.0
173
     0
291
     1
 45
0.0
  0
VISUALSTYLE
  5
36
102
{ACAD_REACTORS
330
2A
102
}
102
{ACAD_XDICTIONARY
360
6E
102
}
330
2A
100
AcDbVisualStyle
  2
Brighten
 70
    12
 71
     2
 72
     2
 73
     0
 90
        0
 40
-0.6
 41
-30.0
 62
     5
 63
     7
421
 16777215
 74
     1
 91
        4
 64
     7
 65
   257
 75
     1
175
     1
 42
1.0
 92
        8
 66
     7
 43
1.0
 76
     1
 77
     6
 78
     2
 67
     7
 79
     5
170
     0
171
     0
290
     0
174
     0
 93
        1
 44
50.0
173
     0
291
     1
 45
0.0
  0
VISUALSTYLE
  5
3A
102
{ACAD_REACTORS
330
2A
102
}
102
{ACAD_XDICTIONARY
360
76
102
}
330
2A
100
AcDbVisualStyle
  2
ColorChange
 70
    16
 71
     2
 72
     2
 73
     3
 90
        0
 40
-0.6
 41
-30.0
 62
     5
 63
     8
421
  8421504
 74
     1
 91
        4
 64
     7
 65
   257
 75
     1
175
     1
 42
1.0
 92
        8
 66
     8
424
  8421504
 43
1.0
 76
     1
 77
     6
 78
     2
 67
     7
 79
     5
170
     0
171
     0
290
     0
174
     0
 93
        1
 44
0.0
173
     0
291
     1
 45
0.0
  0
VISUALSTYLE
  5
34
102
{ACAD_REACTORS
330
2A
102
}
102
{ACAD_XDICTIONARY
360
6A
102
}
330
2A
100
AcDbVisualStyle
  2
Conceptual
 70
     9
 71
     3
 72
     2
 73
     0
 90
        0
 40
-0.6
 41
-30.0
 62
     5
 63
     7
421
 16777215
 74
     2
 91
        2
 64
     7
 65
   257
 75
     1
175
     1
 42
40.0
 92
        8
 66
     7
 43
1.0
 76
     1
 77
     6
 78
     2
 67
     7
 79
     3
170
     0
171
     0
290
     0
174
     0
 93
        1
 44
0.0
173
     0
291
     0
 45
0.0
  0
VISUALSTYLE
  5
35
102
{ACAD_REACTORS
330
2A
102
}
102
{ACAD_XDICTIONARY
360
6C
102
}
330
2A
100
AcDbVisualStyle
  2
Dim
 70
    11
 71
     2
 72
     2
 73
     0
 90
        0
 40
-0.6
 41
-30.0
 62
     5
 63
     7
421
 16777215
 74
     1
 91
        4
 64
     7
 65
   257
 75
     1
175
     1
 42
1.0
 92
        8
 66
     7
 43
1.0
 76
     1
 77
     6
 78
     2
 67
     7
 79
     5
170
     0
171
     0
290
     0
174
     0
 93
        1
 44
-50.0
173
     0
291
     1
 45
0.0
  0
VISUALSTYLE
  5
39
102
{ACAD_REACTORS
330
2A
102
}
102
{ACAD_XDICTIONARY
360
74
102
}
330
2A
100
AcDbVisualStyle
  2
Facepattern
 70
    15
 71
     2
 72
     2
 73
     0
 90
        0
 40
-0.6
 41
-30.0
 62
     5
 63
     7
421
 16777215
 74
     1
 91
        4
 64
     7
 65
   257
 75
     1
175
     1
 42
1.0
 92
        8
 66
     7
 43
1.0
 76
     1
 77
     6
 78
     2
 67
     7
 79
     5
170
     0
171
     0
290
     0
174
     0
 93
        1
 44
0.0
173
     0
291
     1
 45
0.0
  0
VISUALSTYLE
  5
2B
102
{ACAD_REACTORS
330
2A
102
}
102
{ACAD_XDICTIONARY
360
58
102
}
330
2A
100
AcDbVisualStyle
  2
Flat
 70
     0
 71
     2
 72
     1
 73
     1
 90
        2
 40
-0.6
 41
30.0
 62
     5
 63
     7
421
 16777215
 74
     0
 91
        4
 64
     7
 65
   257
 75
     1
175
     1
 42
1.0
 92
        8
 66
     7
 43
1.0
 76
     1
 77
     6
 78
     2
 67
     7
 79
     5
170
     0
171
     0
290
     0
174
     0
 93
       13
 44
0.0
173
     0
291
     1
 45
0.0
  0
VISUALSTYLE
  5
2C
102
{ACAD_REACTORS
330
2A
102
}
102
{ACAD_XDICTIONARY
360
5A
102
}
330
2A
100
AcDbVisualStyle
  2
FlatWithEdges
 70
     1
 71
     2
 72
     1
 73
     1
 90
        2
 40
-0.6
 41
30.0
 62
     5
 63
     7
421
 16777215
 74
     1
 91
        4
 64
     7
 65
   257
 75
     1
175
     1
 42
1.0
 92
        0
 66
   257
 43
1.0
 76
     1
 77
     6
 78
     2
 67
     7
 79
     5
170
     0
171
     0
290
     0
174
     0
 93
       13
 44
0.0
173
     0
291
     1
 45
0.0
  0
VISUALSTYLE
  5
2D
102
{ACAD_REACTORS
330
2A
102
}
102
{ACAD_XDICTIONARY
360
5C
102
}
330
2A
100
AcDbVisualStyle
  2
Gouraud
 70
     2
 71
     2
 72
     2
 73
     1
 90
        2
 40
-0.6
 41
30.0
 62
     5
 63
     7
421
 16777215
 74
     0
 91
        4
 64
     7
 65
   257
 75
     1
175
     1
 42
1.0
 92
        0
 66
     7
 43
1.0
 76
     1
 77
     6
 78
     2
 67
     7
 79
     5
170
     0
171
     0
290
     0
174
     0
 93
       13
 44
0.0
173
     0
291
     1
 45
0.0
  0
VISUALSTYLE
  5
2E
102
{ACAD_REACTORS
330
2A
102
}
102
{ACAD_XDICTIONARY
360
5E
102
}
330
2A
100
AcDbVisualStyle
  2
GouraudWithEdges
 70
     3
 71
     2
 72
     2
 73
     1
 90
        2
 40
-0.6
 41
30.0
 62
     5
 63
     7
421
 16777215
 74
     1
 91
        4
 64
     7
 65
   257
 75
     1
175
     1
 42
1.0
 92
        0
 66
   257
 43
1.0
 76
     1
 77
     6
 78
     2
 67
     7
 79
     5
170
     0
171
     0
290
     0
174
     0
 93
       13
 44
0.0
173
     0
291
     1
 45
0.0
  0
VISUALSTYLE
  5
38
102
{ACAD_REACTORS
330
2A
102
}
102
{ACAD_XDICTIONARY
360
72
102
}
330
2A
100
AcDbVisualStyle
  2
Linepattern
 70
    14
 71
     2
 72
     2
 73
     0
 90
        0
 40
-0.6
 41
-30.0
 62
     5
 63
     7
421
 16777215
 74
     1
 91
        4
 64
     7
 65
   257
 75
     7
175
     7
 42
1.0
 92
        8
 66
     7
 43
1.0
 76
     1
 77
     6
 78
     2
 67
     7
 79
     5
170
     0
171
     0
290
     0
174
     0
 93
        1
 44
0.0
173
     0
291
     1
 45
0.0
  0
VISUALSTYLE
  5
33
102
{ACAD_REACTORS
330
2A
102
}
102
{ACAD_XDICTIONARY
360
68
102
}
330
2A
100
AcDbVisualStyle
  2
Realistic
 70
     8
 71
     2
 72
     2
 73
     0
 90
        0
 40
-0.6
 41
-30.0
 62
     5
 63
     7
421
 16777215
 74
     1
 91
        0
 64
     7
 65
   257
 75
     1
175
     1
 42
1.0
 92
        8
 66
     8
424
  7895160
 43
1.0
 76
     1
 77
     6
 78
     2
 67
     7
 79
     5
170
     0
171
     0
290
     0
174
     0
 93
       13
 44
0.0
173
     0
291
     0
 45
0.0
  0
VISUALSTYLE
  5
37
102
{ACAD_REACTORS
330
2A
102
}
102
{ACAD_XDICTIONARY
360
70
102
}
330
2A
100
AcDbVisualStyle
  2
Thicken
 70
    13
 71
     2
 72
     2
 73
     0
 90
        0
 40
-0.6
 41
-30.0
 62
     5
 63
     7
421
 16777215
 74
     1
 91
        4
 64
     7
 65
   257
 75
     1
175
     1
 42
1.0
 92
       12
 66
     7
 43
1.0
 76
     1
 77
     6
 78
     2
 67
     7
 79
     5
170
     0
171
     0
290
     0
174
     0
 93
        1
 44
0.0
173
     0
291
     1
 45
0.0
  0
DICTIONARY
  5
60
330
2F
100
AcDbDictionary
280
     1
281
     1
  3
ACAD_XREC_ROUNDTRIP
360
61
  0
DICTIONARY
  5
64
330
31
100
AcDbDictionary
280
     1
281
     1
  3
ACAD_XREC_ROUNDTRIP
360
65
  0
DICTIONARY
  5
62
330
30
100
AcDbDictionary
280
     1
281
     1
  3
ACAD_XREC_ROUNDTRIP
360
63
  0
DICTIONARY
  5
66
330
32
100
AcDbDictionary
280
     1
281
     1
  3
ACAD_XREC_ROUNDTRIP
360
67
  0
DICTIONARY
  5
6E
330
36
100
AcDbDictionary
280
     1
281
     1
  3
ACAD_XREC_ROUNDTRIP
360
6F
  0
DICTIONARY
  5
76
330
3A
100
AcDbDictionary
280
     1
281
     1
  3
ACAD_XREC_ROUNDTRIP
360
77
  0
DICTIONARY
  5
6A
330
34
100
AcDbDictionary
280
     1
281
     1
  3
ACAD_XREC_ROUNDTRIP
360
6B
  0
DICTIONARY
  5
6C
330
35
100
AcDbDictionary
280
     1
281
     1
  3
ACAD_XREC_ROUNDTRIP
360
6D
  0
DICTIONARY
  5
74
330
39
100
AcDbDictionary
280
     1
281
     1
  3
ACAD_XREC_ROUNDTRIP
360
75
  0
DICTIONARY
  5
58
330
2B
100
AcDbDictionary
280
     1
281
     1
  3
ACAD_XREC_ROUNDTRIP
360
59
  0
DICTIONARY
  5
5A
330
2C
100
AcDbDictionary
280
     1
281
     1
  3
ACAD_XREC_ROUNDTRIP
360
5B
  0
DICTIONARY
  5
5C
330
2D
100
AcDbDictionary
280
     1
281
     1
  3
ACAD_XREC_ROUNDTRIP
360
5D
  0
DICTIONARY
  5
5E
330
2E
100
AcDbDictionary
280
     1
281
     1
  3
ACAD_XREC_ROUNDTRIP
360
5F
  0
DICTIONARY
  5
72
330
38
100
AcDbDictionary
280
     1
281
     1
  3
ACAD_XREC_ROUNDTRIP
360
73
  0
DICTIONARY
  5
68
330
33
100
AcDbDictionary
280
     1
281
     1
  3
ACAD_XREC_ROUNDTRIP
360
69
  0
DICTIONARY
  5
70
330
37
100
AcDbDictionary
280
     1
281
     1
  3
ACAD_XREC_ROUNDTRIP
360
71
  0
XRECORD
  5
61
102
{ACAD_REACTORS
330
60
102
}
330
60
100
AcDbXrecord
280
     1
102
RTVSPropertyOp0
 70
     1
102
RTVSPropertyOp1
 70
     1
102
RTVSPropertyOp2
 70
     1
102
RTVSPropertyOp3
 70
     1
102
RTVSPropertyOp4
 70
     1
102
RTVSPropertyOp5
 70
     1
102
RTVSPropertyOp6
 70
     1
102
RTVSPropertyOp7
 70
     1
102
RTVSPropertyOp8
 70
     1
102
RTVSPropertyOp9
 70
     1
102
RTVSPropertyOp10
 70
     1
102
RTVSPropertyOp11
 70
     1
102
RTVSPropertyOp12
 70
     1
102
RTVSPropertyOp13
 70
     1
102
RTVSPropertyOp14
 70
     1
102
RTVSPropertyOp15
 70
     1
102
RTVSPropertyOp16
 70
     1
102
RTVSPropertyOp17
 70
     1
102
RTVSPropertyOp18
 70
     1
102
RTVSPropertyOp19
 70
     1
102
RTVSPropertyOp20
 70
     1
102
RTVSPropertyOp21
 70
     1
102
RTVSPropertyOp22
 70
     1
102
RTVSPropertyOp23
 70
     1
102
RTVSPropertyOp24
 70
     1
102
RTVSPropertyOp25
 70
     1
102
RTVSPropertyOp26
 70
     1
102
RTVSPropertyOp27
 70
     1
102
RTVSPropertyOp28
 70
     1
102
RTVSPropertyOp29
 70
     1
102
RTVSPropertyOp30
 70
     1
102
RTVSPropertyOp31
 70
     1
102
RTVSPropertyOp32
 70
     1
  0
XRECORD
  5
65
102
{ACAD_REACTORS
330
64
102
}
330
64
100
AcDbXrecord
280
     1
102
RTVSPropertyOp0
 70
     1
102
RTVSPropertyOp1
 70
     1
102
RTVSPropertyOp2
 70
     1
102
RTVSPropertyOp3
 70
     1
102
RTVSPropertyOp4
 70
     1
102
RTVSPropertyOp5
 70
     1
102
RTVSPropertyOp6
 70
     1
102
RTVSPropertyOp7
 70
     1
102
RTVSPropertyOp8
 70
     1
102
RTVSPropertyOp9
 70
     1
102
RTVSPropertyOp10
 70
     1
102
RTVSPropertyOp11
 70
     1
102
RTVSPropertyOp12
 70
     1
102
RTVSPropertyOp13
 70
     1
102
RTVSPropertyOp14
 70
     1
102
RTVSPropertyOp15
 70
     1
102
RTVSPropertyOp16
 70
     1
102
RTVSPropertyOp17
 70
     1
102
RTVSPropertyOp18
 70
     1
102
RTVSPropertyOp19
 70
     1
102
RTVSPropertyOp20
 70
     1
102
RTVSPropertyOp21
 70
     1
102
RTVSPropertyOp22
 70
     1
102
RTVSPropertyOp23
 70
     1
102
RTVSPropertyOp24
 70
     1
102
RTVSPropertyOp25
 70
     1
102
RTVSPropertyOp26
 70
     1
102
RTVSPropertyOp27
 70
     1
102
RTVSPropertyOp28
 70
     1
102
RTVSPropertyOp29
 70
     1
102
RTVSPropertyOp30
 70
     1
102
RTVSPropertyOp31
 70
     1
102
RTVSPropertyOp32
 70
     1
  0
XRECORD
  5
63
102
{ACAD_REACTORS
330
62
102
}
330
62
100
AcDbXrecord
280
     1
102
RTVSPropertyOp0
 70
     1
102
RTVSPropertyOp1
 70
     1
102
RTVSPropertyOp2
 70
     1
102
RTVSPropertyOp3
 70
     1
102
RTVSPropertyOp4
 70
     1
102
RTVSPropertyOp5
 70
     1
102
RTVSPropertyOp6
 70
     1
102
RTVSPropertyOp7
 70
     1
102
RTVSPropertyOp8
 70
     1
102
RTVSPropertyOp9
 70
     1
102
RTVSPropertyOp10
 70
     1
102
RTVSPropertyOp11
 70
     1
102
RTVSPropertyOp12
 70
     1
102
RTVSPropertyOp13
 70
     1
102
RTVSPropertyOp14
 70
     1
102
RTVSPropertyOp15
 70
     1
102
RTVSPropertyOp16
 70
     1
102
RTVSPropertyOp17
 70
     1
102
RTVSPropertyOp18
 70
     1
102
RTVSPropertyOp19
 70
     1
102
RTVSPropertyOp20
 70
     1
102
RTVSPropertyOp21
 70
     1
102
RTVSPropertyOp22
 70
     1
102
RTVSPropertyOp23
 70
     1
102
RTVSPropertyOp24
 70
     1
102
RTVSPropertyOp25
 70
     1
102
RTVSPropertyOp26
 70
     1
102
RTVSPropertyOp27
 70
     1
102
RTVSPropertyOp28
 70
     1
102
RTVSPropertyOp29
 70
     1
102
RTVSPropertyOp30
 70
     1
102
RTVSPropertyOp31
 70
     1
102
RTVSPropertyOp32
 70
     1
  0
XRECORD
  5
67
102
{ACAD_REACTORS
330
66
102
}
330
66
100
AcDbXrecord
280
     1
102
RTVSPropertyOp0
 70
     1
102
RTVSPropertyOp1
 70
     1
102
RTVSPropertyOp2
 70
     1
102
RTVSPropertyOp3
 70
     1
102
RTVSPropertyOp4
 70
     1
102
RTVSPropertyOp5
 70
     1
102
RTVSPropertyOp6
 70
     1
102
RTVSPropertyOp7
 70
     1
102
RTVSPropertyOp8
 70
     1
102
RTVSPropertyOp9
 70
     1
102
RTVSPropertyOp10
 70
     1
102
RTVSPropertyOp11
 70
     1
102
RTVSPropertyOp12
 70
     1
102
RTVSPropertyOp13
 70
     1
102
RTVSPropertyOp14
 70
     1
102
RTVSPropertyOp15
 70
     1
102
RTVSPropertyOp16
 70
     1
102
RTVSPropertyOp17
 70
     1
102
RTVSPropertyOp18
 70
     1
102
RTVSPropertyOp19
 70
     1
102
RTVSPropertyOp20
 70
     1
102
RTVSPropertyOp21
 70
     1
102
RTVSPropertyOp22
 70
     1
102
RTVSPropertyOp23
 70
     1
102
RTVSPropertyOp24
 70
     1
102
RTVSPropertyOp25
 70
     1
102
RTVSPropertyOp26
 70
     1
102
RTVSPropertyOp27
 70
     1
102
RTVSPropertyOp28
 70
     1
102
RTVSPropertyOp29
 70
     1
102
RTVSPropertyOp30
 70
     1
102
RTVSPropertyOp31
 70
     1
102
RTVSPropertyOp32
 70
     1
  0
XRECORD
  5
6F
102
{ACAD_REACTORS
330
6E
102
}
330
6E
100
AcDbXrecord
280
     1
102
RTVSPropertyOp0
 70
     1
102
RTVSPropertyOp1
 70
     1
102
RTVSPropertyOp2
 70
     1
102
RTVSPropertyOp3
 70
     1
102
RTVSPropertyOp4
 70
     1
102
RTVSPropertyOp5
 70
     1
102
RTVSPropertyOp6
 70
     1
102
RTVSPropertyOp7
 70
     1
102
RTVSPropertyOp8
 70
     1
102
RTVSPropertyOp9
 70
     1
102
RTVSPropertyOp10
 70
     1
102
RTVSPropertyOp11
 70
     1
102
RTVSPropertyOp12
 70
     1
102
RTVSPropertyOp13
 70
     1
102
RTVSPropertyOp14
 70
     1
102
RTVSPropertyOp15
 70
     1
102
RTVSPropertyOp16
 70
     1
102
RTVSPropertyOp17
 70
     1
102
RTVSPropertyOp18
 70
     1
102
RTVSPropertyOp19
 70
     1
102
RTVSPropertyOp20
 70
     1
102
RTVSPropertyOp21
 70
     1
102
RTVSPropertyOp22
 70
     1
102
RTVSPropertyOp23
 70
     1
102
RTVSPropertyOp24
 70
     1
102
RTVSPropertyOp25
 70
     1
102
RTVSPropertyOp26
 70
     1
102
RTVSPropertyOp27
 70
     1
102
RTVSPropertyOp28
 70
     1
102
RTVSPropertyOp29
 70
     1
102
RTVSPropertyOp30
 70
     1
102
RTVSPropertyOp31
 70
     1
102
RTVSPropertyOp32
 70
     1
  0
XRECORD
  5
77
102
{ACAD_REACTORS
330
76
102
}
330
76
100
AcDbXrecord
280
     1
102
RTVSPropertyOp0
 70
     1
102
RTVSPropertyOp1
 70
     1
102
RTVSPropertyOp2
 70
     1
102
RTVSPropertyOp3
 70
     1
102
RTVSPropertyOp4
 70
     1
102
RTVSPropertyOp5
 70
     1
102
RTVSPropertyOp6
 70
     1
102
RTVSPropertyOp7
 70
     1
102
RTVSPropertyOp8
 70
     1
102
RTVSPropertyOp9
 70
     1
102
RTVSPropertyOp10
 70
     1
102
RTVSPropertyOp11
 70
     1
102
RTVSPropertyOp12
 70
     1
102
RTVSPropertyOp13
 70
     1
102
RTVSPropertyOp14
 70
     1
102
RTVSPropertyOp15
 70
     1
102
RTVSPropertyOp16
 70
     1
102
RTVSPropertyOp17
 70
     1
102
RTVSPropertyOp18
 70
     1
102
RTVSPropertyOp19
 70
     1
102
RTVSPropertyOp20
 70
     1
102
RTVSPropertyOp21
 70
     1
102
RTVSPropertyOp22
 70
     1
102
RTVSPropertyOp23
 70
     1
102
RTVSPropertyOp24
 70
     1
102
RTVSPropertyOp25
 70
     1
102
RTVSPropertyOp26
 70
     1
102
RTVSPropertyOp27
 70
     1
102
RTVSPropertyOp28
 70
     1
102
RTVSPropertyOp29
 70
     1
102
RTVSPropertyOp30
 70
     1
102
RTVSPropertyOp31
 70
     1
102
RTVSPropertyOp32
 70
     1
  0
XRECORD
  5
6B
102
{ACAD_REACTORS
330
6A
102
}
330
6A
100
AcDbXrecord
280
     1
102
RTVSPropertyOp0
 70
     1
102
RTVSPropertyOp1
 70
     1
102
RTVSPropertyOp2
 70
     1
102
RTVSPropertyOp3
 70
     1
102
RTVSPropertyOp4
 70
     1
102
RTVSPropertyOp5
 70
     1
102
RTVSPropertyOp6
 70
     1
102
RTVSPropertyOp7
 70
     1
102
RTVSPropertyOp8
 70
     1
102
RTVSPropertyOp9
 70
     1
102
RTVSPropertyOp10
 70
     1
102
RTVSPropertyOp11
 70
     1
102
RTVSPropertyOp12
 70
     1
102
RTVSPropertyOp13
 70
     1
102
RTVSPropertyOp14
 70
     1
102
RTVSPropertyOp15
 70
     1
102
RTVSPropertyOp16
 70
     1
102
RTVSPropertyOp17
 70
     1
102
RTVSPropertyOp18
 70
     1
102
RTVSPropertyOp19
 70
     1
102
RTVSPropertyOp20
 70
     1
102
RTVSPropertyOp21
 70
     1
102
RTVSPropertyOp22
 70
     1
102
RTVSPropertyOp23
 70
     1
102
RTVSPropertyOp24
 70
     1
102
RTVSPropertyOp25
 70
     1
102
RTVSPropertyOp26
 70
     1
102
RTVSPropertyOp27
 70
     1
102
RTVSPropertyOp28
 70
     1
102
RTVSPropertyOp29
 70
     1
102
RTVSPropertyOp30
 70
     1
102
RTVSPropertyOp31
 70
     1
102
RTVSPropertyOp32
 70
     1
  0
XRECORD
  5
6D
102
{ACAD_REACTORS
330
6C
102
}
330
6C
100
AcDbXrecord
280
     1
102
RTVSPropertyOp0
 70
     1
102
RTVSPropertyOp1
 70
     1
102
RTVSPropertyOp2
 70
     1
102
RTVSPropertyOp3
 70
     1
102
RTVSPropertyOp4
 70
     1
102
RTVSPropertyOp5
 70
     1
102
RTVSPropertyOp6
 70
     1
102
RTVSPropertyOp7
 70
     1
102
RTVSPropertyOp8
 70
     1
102
RTVSPropertyOp9
 70
     1
102
RTVSPropertyOp10
 70
     1
102
RTVSPropertyOp11
 70
     1
102
RTVSPropertyOp12
 70
     1
102
RTVSPropertyOp13
 70
     1
102
RTVSPropertyOp14
 70
     1
102
RTVSPropertyOp15
 70
     1
102
RTVSPropertyOp16
 70
     1
102
RTVSPropertyOp17
 70
     1
102
RTVSPropertyOp18
 70
     1
102
RTVSPropertyOp19
 70
     1
102
RTVSPropertyOp20
 70
     1
102
RTVSPropertyOp21
 70
     1
102
RTVSPropertyOp22
 70
     1
102
RTVSPropertyOp23
 70
     1
102
RTVSPropertyOp24
 70
     1
102
RTVSPropertyOp25
 70
     1
102
RTVSPropertyOp26
 70
     1
102
RTVSPropertyOp27
 70
     1
102
RTVSPropertyOp28
 70
     1
102
RTVSPropertyOp29
 70
     1
102
RTVSPropertyOp30
 70
     1
102
RTVSPropertyOp31
 70
     1
102
RTVSPropertyOp32
 70
     1
  0
XRECORD
  5
75
102
{ACAD_REACTORS
330
74
102
}
330
74
100
AcDbXrecord
280
     1
102
RTVSPropertyOp0
 70
     1
102
RTVSPropertyOp1
 70
     1
102
RTVSPropertyOp2
 70
     1
102
RTVSPropertyOp3
 70
     1
102
RTVSPropertyOp4
 70
     1
102
RTVSPropertyOp5
 70
     1
102
RTVSPropertyOp6
 70
     1
102
RTVSPropertyOp7
 70
     1
102
RTVSPropertyOp8
 70
     1
102
RTVSPropertyOp9
 70
     1
102
RTVSPropertyOp10
 70
     1
102
RTVSPropertyOp11
 70
     1
102
RTVSPropertyOp12
 70
     1
102
RTVSPropertyOp13
 70
     1
102
RTVSPropertyOp14
 70
     1
102
RTVSPropertyOp15
 70
     1
102
RTVSPropertyOp16
 70
     1
102
RTVSPropertyOp17
 70
     1
102
RTVSPropertyOp18
 70
     1
102
RTVSPropertyOp19
 70
     1
102
RTVSPropertyOp20
 70
     1
102
RTVSPropertyOp21
 70
     1
102
RTVSPropertyOp22
 70
     1
102
RTVSPropertyOp23
 70
     1
102
RTVSPropertyOp24
 70
     1
102
RTVSPropertyOp25
 70
     1
102
RTVSPropertyOp26
 70
     1
102
RTVSPropertyOp27
 70
     1
102
RTVSPropertyOp28
 70
     1
102
RTVSPropertyOp29
 70
     1
102
RTVSPropertyOp30
 70
     1
102
RTVSPropertyOp31
 70
     1
102
RTVSPropertyOp32
 70
     1
  0
XRECORD
  5
59
102
{ACAD_REACTORS
330
58
102
}
330
58
100
AcDbXrecord
280
     1
102
RTVSPropertyOp0
 70
     1
102
RTVSPropertyOp1
 70
     1
102
RTVSPropertyOp2
 70
     1
102
RTVSPropertyOp3
 70
     1
102
RTVSPropertyOp4
 70
     1
102
RTVSPropertyOp5
 70
     1
102
RTVSPropertyOp6
 70
     1
102
RTVSPropertyOp7
 70
     1
102
RTVSPropertyOp8
 70
     1
102
RTVSPropertyOp9
 70
     1
102
RTVSPropertyOp10
 70
     1
102
RTVSPropertyOp11
 70
     1
102
RTVSPropertyOp12
 70
     1
102
RTVSPropertyOp13
 70
     1
102
RTVSPropertyOp14
 70
     1
102
RTVSPropertyOp15
 70
     1
102
RTVSPropertyOp16
 70
     1
102
RTVSPropertyOp17
 70
     1
102
RTVSPropertyOp18
 70
     1
102
RTVSPropertyOp19
 70
     1
102
RTVSPropertyOp20
 70
     1
102
RTVSPropertyOp21
 70
     1
102
RTVSPropertyOp22
 70
     1
102
RTVSPropertyOp23
 70
     1
102
RTVSPropertyOp24
 70
     1
102
RTVSPropertyOp25
 70
     1
102
RTVSPropertyOp26
 70
     1
102
RTVSPropertyOp27
 70
     1
102
RTVSPropertyOp28
 70
     1
102
RTVSPropertyOp29
 70
     1
102
RTVSPropertyOp30
 70
     1
102
RTVSPropertyOp31
 70
     1
102
RTVSPropertyOp32
 70
     1
  0
XRECORD
  5
5B
102
{ACAD_REACTORS
330
5A
102
}
330
5A
100
AcDbXrecord
280
     1
102
RTVSPropertyOp0
 70
     1
102
RTVSPropertyOp1
 70
     1
102
RTVSPropertyOp2
 70
     1
102
RTVSPropertyOp3
 70
     1
102
RTVSPropertyOp4
 70
     1
102
RTVSPropertyOp5
 70
     1
102
RTVSPropertyOp6
 70
     1
102
RTVSPropertyOp7
 70
     1
102
RTVSPropertyOp8
 70
     1
102
RTVSPropertyOp9
 70
     1
102
RTVSPropertyOp10
 70
     1
102
RTVSPropertyOp11
 70
     1
102
RTVSPropertyOp12
 70
     1
102
RTVSPropertyOp13
 70
     1
102
RTVSPropertyOp14
 70
     1
102
RTVSPropertyOp15
 70
     1
102
RTVSPropertyOp16
 70
     1
102
RTVSPropertyOp17
 70
     1
102
RTVSPropertyOp18
 70
     1
102
RTVSPropertyOp19
 70
     1
102
RTVSPropertyOp20
 70
     1
102
RTVSPropertyOp21
 70
     1
102
RTVSPropertyOp22
 70
     1
102
RTVSPropertyOp23
 70
     1
102
RTVSPropertyOp24
 70
     1
102
RTVSPropertyOp25
 70
     1
102
RTVSPropertyOp26
 70
     1
102
RTVSPropertyOp27
 70
     1
102
RTVSPropertyOp28
 70
     1
102
RTVSPropertyOp29
 70
     1
102
RTVSPropertyOp30
 70
     1
102
RTVSPropertyOp31
 70
     1
102
RTVSPropertyOp32
 70
     1
  0
XRECORD
  5
5D
102
{ACAD_REACTORS
330
5C
102
}
330
5C
100
AcDbXrecord
280
     1
102
RTVSPropertyOp0
 70
     1
102
RTVSPropertyOp1
 70
     1
102
RTVSPropertyOp2
 70
     1
102
RTVSPropertyOp3
 70
     1
102
RTVSPropertyOp4
 70
     1
102
RTVSPropertyOp5
 70
     1
102
RTVSPropertyOp6
 70
     1
102
RTVSPropertyOp7
 70
     1
102
RTVSPropertyOp8
 70
     1
102
RTVSPropertyOp9
 70
     1
102
RTVSPropertyOp10
 70
     1
102
RTVSPropertyOp11
 70
     1
102
RTVSPropertyOp12
 70
     1
102
RTVSPropertyOp13
 70
     1
102
RTVSPropertyOp14
 70
     1
102
RTVSPropertyOp15
 70
     1
102
RTVSPropertyOp16
 70
     1
102
RTVSPropertyOp17
 70
     1
102
RTVSPropertyOp18
 70
     1
102
RTVSPropertyOp19
 70
     1
102
RTVSPropertyOp20
 70
     1
102
RTVSPropertyOp21
 70
     1
102
RTVSPropertyOp22
 70
     1
102
RTVSPropertyOp23
 70
     1
102
RTVSPropertyOp24
 70
     1
102
RTVSPropertyOp25
 70
     1
102
RTVSPropertyOp26
 70
     1
102
RTVSPropertyOp27
 70
     1
102
RTVSPropertyOp28
 70
     1
102
RTVSPropertyOp29
 70
     1
102
RTVSPropertyOp30
 70
     1
102
RTVSPropertyOp31
 70
     1
102
RTVSPropertyOp32
 70
     1
  0
XRECORD
  5
5F
102
{ACAD_REACTORS
330
5E
102
}
330
5E
100
AcDbXrecord
280
     1
102
RTVSPropertyOp0
 70
     1
102
RTVSPropertyOp1
 70
     1
102
RTVSPropertyOp2
 70
     1
102
RTVSPropertyOp3
 70
     1
102
RTVSPropertyOp4
 70
     1
102
RTVSPropertyOp5
 70
     1
102
RTVSPropertyOp6
 70
     1
102
RTVSPropertyOp7
 70
     1
102
RTVSPropertyOp8
 70
     1
102
RTVSPropertyOp9
 70
     1
102
RTVSPropertyOp10
 70
     1
102
RTVSPropertyOp11
 70
     1
102
RTVSPropertyOp12
 70
     1
102
RTVSPropertyOp13
 70
     1
102
RTVSPropertyOp14
 70
     1
102
RTVSPropertyOp15
 70
     1
102
RTVSPropertyOp16
 70
     1
102
RTVSPropertyOp17
 70
     1
102
RTVSPropertyOp18
 70
     1
102
RTVSPropertyOp19
 70
     1
102
RTVSPropertyOp20
 70
     1
102
RTVSPropertyOp21
 70
     1
102
RTVSPropertyOp22
 70
     1
102
RTVSPropertyOp23
 70
     1
102
RTVSPropertyOp24
 70
     1
102
RTVSPropertyOp25
 70
     1
102
RTVSPropertyOp26
 70
     1
102
RTVSPropertyOp27
 70
     1
102
RTVSPropertyOp28
 70
     1
102
RTVSPropertyOp29
 70
     1
102
RTVSPropertyOp30
 70
     1
102
RTVSPropertyOp31
 70
     1
102
RTVSPropertyOp32
 70
     1
  0
XRECORD
  5
73
102
{ACAD_REACTORS
330
72
102
}
330
72
100
AcDbXrecord
280
     1
102
RTVSPropertyOp0
 70
     1
102
RTVSPropertyOp1
 70
     1
102
RTVSPropertyOp2
 70
     1
102
RTVSPropertyOp3
 70
     1
102
RTVSPropertyOp4
 70
     1
102
RTVSPropertyOp5
 70
     1
102
RTVSPropertyOp6
 70
     1
102
RTVSPropertyOp7
 70
     1
102
RTVSPropertyOp8
 70
     1
102
RTVSPropertyOp9
 70
     1
102
RTVSPropertyOp10
 70
     1
102
RTVSPropertyOp11
 70
     1
102
RTVSPropertyOp12
 70
     1
102
RTVSPropertyOp13
 70
     1
102
RTVSPropertyOp14
 70
     1
102
RTVSPropertyOp15
 70
     1
102
RTVSPropertyOp16
 70
     1
102
RTVSPropertyOp17
 70
     1
102
RTVSPropertyOp18
 70
     1
102
RTVSPropertyOp19
 70
     1
102
RTVSPropertyOp20
 70
     1
102
RTVSPropertyOp21
 70
     1
102
RTVSPropertyOp22
 70
     1
102
RTVSPropertyOp23
 70
     1
102
RTVSPropertyOp24
 70
     1
102
RTVSPropertyOp25
 70
     1
102
RTVSPropertyOp26
 70
     1
102
RTVSPropertyOp27
 70
     1
102
RTVSPropertyOp28
 70
     1
102
RTVSPropertyOp29
 70
     1
102
RTVSPropertyOp30
 70
     1
102
RTVSPropertyOp31
 70
     1
102
RTVSPropertyOp32
 70
     1
  0
XRECORD
  5
69
102
{ACAD_REACTORS
330
68
102
}
330
68
100
AcDbXrecord
280
     1
102
RTVSPropertyOp0
 70
     1
102
RTVSPropertyOp1
 70
     1
102
RTVSPropertyOp2
 70
     1
102
RTVSPropertyOp3
 70
     1
102
RTVSPropertyOp4
 70
     1
102
RTVSPropertyOp5
 70
     1
102
RTVSPropertyOp6
 70
     1
102
RTVSPropertyOp7
 70
     1
102
RTVSPropertyOp8
 70
     1
102
RTVSPropertyOp9
 70
     1
102
RTVSPropertyOp10
 70
     1
102
RTVSPropertyOp11
 70
     1
102
RTVSPropertyOp12
 70
     1
102
RTVSPropertyOp13
 70
     1
102
RTVSPropertyOp14
 70
     1
102
RTVSPropertyOp15
 70
     1
102
RTVSPropertyOp16
 70
     1
102
RTVSPropertyOp17
 70
     1
102
RTVSPropertyOp18
 70
     1
102
RTVSPropertyOp19
 70
     1
102
RTVSPropertyOp20
 70
     1
102
RTVSPropertyOp21
 70
     1
102
RTVSPropertyOp22
 70
     1
102
RTVSPropertyOp23
 70
     1
102
RTVSPropertyOp24
 70
     1
102
RTVSPropertyOp25
 70
     1
102
RTVSPropertyOp26
 70
     1
102
RTVSPropertyOp27
 70
     1
102
RTVSPropertyOp28
 70
     1
102
RTVSPropertyOp29
 70
     1
102
RTVSPropertyOp30
 70
     1
102
RTVSPropertyOp31
 70
     1
102
RTVSPropertyOp32
 70
     1
  0
XRECORD
  5
71
102
{ACAD_REACTORS
330
70
102
}
330
70
100
AcDbXrecord
280
     1
102
RTVSPropertyOp0
 70
     1
102
RTVSPropertyOp1
 70
     1
102
RTVSPropertyOp2
 70
     1
102
RTVSPropertyOp3
 70
     1
102
RTVSPropertyOp4
 70
     1
102
RTVSPropertyOp5
 70
     1
102
RTVSPropertyOp6
 70
     1
102
RTVSPropertyOp7
 70
     1
102
RTVSPropertyOp8
 70
     1
102
RTVSPropertyOp9
 70
     1
102
RTVSPropertyOp10
 70
     1
102
RTVSPropertyOp11
 70
     1
102
RTVSPropertyOp12
 70
     1
102
RTVSPropertyOp13
 70
     1
102
RTVSPropertyOp14
 70
     1
102
RTVSPropertyOp15
 70
     1
102
RTVSPropertyOp16
 70
     1
102
RTVSPropertyOp17
 70
     1
102
RTVSPropertyOp18
 70
     1
102
RTVSPropertyOp19
 70
     1
102
RTVSPropertyOp20
 70
     1
102
RTVSPropertyOp21
 70
     1
102
RTVSPropertyOp22
 70
     1
102
RTVSPropertyOp23
 70
     1
102
RTVSPropertyOp24
 70
     1
102
RTVSPropertyOp25
 70
     1
102
RTVSPropertyOp26
 70
     1
102
RTVSPropertyOp27
 70
     1
102
RTVSPropertyOp28
 70
     1
102
RTVSPropertyOp29
 70
     1
102
RTVSPropertyOp30
 70
     1
102
RTVSPropertyOp31
 70
     1
102
RTVSPropertyOp32
 70
     1
  0
ENDSEC
  0
EOF
