solid OpenSCAD_Model
  facet normal 0.125338 0.992114 -0
    outer loop
      vertex 55.1238 83.0729 0
      vertex 53.8779 83.2303 15.5
      vertex 55.1238 83.0729 15.5
    endloop
  endfacet
  facet normal 0.125338 0.992114 0
    outer loop
      vertex 53.8779 83.2303 15.5
      vertex 55.1238 83.0729 0
      vertex 53.8779 83.2303 0
    endloop
  endfacet
  facet normal 0 1 0
    outer loop
      vertex 53.8779 83.2303 15.5
      vertex 48.75 83.2303 1
      vertex 48.75 83.2303 15.5
    endloop
  endfacet
  facet normal 0 1 0
    outer loop
      vertex 48.75 83.2303 1
      vertex 53.8779 83.2303 0
      vertex -48.75 83.2303 1
    endloop
  endfacet
  facet normal 0 1 -0
    outer loop
      vertex 53.8779 83.2303 0
      vertex 48.75 83.2303 1
      vertex 53.8779 83.2303 15.5
    endloop
  endfacet
  facet normal 0 1 -0
    outer loop
      vertex -48.75 83.2303 1
      vertex -53.8779 83.2303 15.5
      vertex -48.75 83.2303 15.5
    endloop
  endfacet
  facet normal 0 1 0
    outer loop
      vertex -48.75 83.2303 1
      vertex -53.8779 83.2303 0
      vertex -53.8779 83.2303 15.5
    endloop
  endfacet
  facet normal 0 1 0
    outer loop
      vertex -53.8779 83.2303 0
      vertex -48.75 83.2303 1
      vertex 53.8779 83.2303 0
    endloop
  endfacet
  facet normal -0.125338 0.992114 0
    outer loop
      vertex -53.8779 83.2303 0
      vertex -55.1238 83.0729 15.5
      vertex -53.8779 83.2303 15.5
    endloop
  endfacet
  facet normal -0.125338 0.992114 0
    outer loop
      vertex -55.1238 83.0729 15.5
      vertex -53.8779 83.2303 0
      vertex -55.1238 83.0729 0
    endloop
  endfacet
  facet normal 0.248676 0.968587 -0
    outer loop
      vertex 56.3402 82.7606 0
      vertex 55.1238 83.0729 15.5
      vertex 56.3402 82.7606 15.5
    endloop
  endfacet
  facet normal 0.248676 0.968587 0
    outer loop
      vertex 55.1238 83.0729 15.5
      vertex 56.3402 82.7606 0
      vertex 55.1238 83.0729 0
    endloop
  endfacet
  facet normal 0.770501 0.637439 0
    outer loop
      vertex 61.3402 79.1279 15.5
      vertex 60.5397 80.0955 0
      vertex 60.5397 80.0955 15.5
    endloop
  endfacet
  facet normal 0.770501 0.637439 0
    outer loop
      vertex 60.5397 80.0955 0
      vertex 61.3402 79.1279 15.5
      vertex 61.3402 79.1279 0
    endloop
  endfacet
  facet normal -0.6845 0.729013 0
    outer loop
      vertex -59.6242 80.9551 0
      vertex -60.5397 80.0955 15.5
      vertex -59.6242 80.9551 15.5
    endloop
  endfacet
  facet normal -0.6845 0.729013 0
    outer loop
      vertex -60.5397 80.0955 15.5
      vertex -59.6242 80.9551 0
      vertex -60.5397 80.0955 0
    endloop
  endfacet
  facet normal 0.6845 0.729013 -0
    outer loop
      vertex 60.5397 80.0955 0
      vertex 59.6242 80.9551 15.5
      vertex 60.5397 80.0955 15.5
    endloop
  endfacet
  facet normal 0.6845 0.729013 0
    outer loop
      vertex 59.6242 80.9551 15.5
      vertex 60.5397 80.0955 0
      vertex 59.6242 80.9551 0
    endloop
  endfacet
  facet normal -0.248676 0.968587 0
    outer loop
      vertex -55.1238 83.0729 0
      vertex -56.3402 82.7606 15.5
      vertex -55.1238 83.0729 15.5
    endloop
  endfacet
  facet normal -0.248676 0.968587 0
    outer loop
      vertex -56.3402 82.7606 15.5
      vertex -55.1238 83.0729 0
      vertex -56.3402 82.7606 0
    endloop
  endfacet
  facet normal 1 0 0
    outer loop
      vertex 63.25 68.75 1
      vertex 63.25 73.25 15.5
      vertex 63.25 68.75 15.5
    endloop
  endfacet
  facet normal 1 0 0
    outer loop
      vertex 63.25 73.25 15.5
      vertex 63.25 68.75 1
      vertex 63.25 73.25 0
    endloop
  endfacet
  facet normal 1 0 0
    outer loop
      vertex 63.25 0 0
      vertex 63.25 68.75 1
      vertex 63.25 0 1
    endloop
  endfacet
  facet normal 1 0 0
    outer loop
      vertex 63.25 68.75 1
      vertex 63.25 0 0
      vertex 63.25 73.25 0
    endloop
  endfacet
  facet normal -1 0 0
    outer loop
      vertex -63.25 73.25 0
      vertex -63.25 68.75 1
      vertex -63.25 73.25 15.5
    endloop
  endfacet
  facet normal -1 0 0
    outer loop
      vertex -63.25 0 0
      vertex -63.25 68.75 1
      vertex -63.25 73.25 0
    endloop
  endfacet
  facet normal -1 -0 0
    outer loop
      vertex -63.25 68.75 1
      vertex -63.25 0 0
      vertex -63.25 0 1
    endloop
  endfacet
  facet normal -1 -0 0
    outer loop
      vertex -63.25 73.25 15.5
      vertex -63.25 68.75 1
      vertex -63.25 68.75 15.5
    endloop
  endfacet
  facet normal -0.998024 0.0628294 0
    outer loop
      vertex -63.25 73.25 0
      vertex -63.1711 74.5033 15.5
      vertex -63.1711 74.5033 0
    endloop
  endfacet
  facet normal -0.998024 0.0628294 0
    outer loop
      vertex -63.1711 74.5033 15.5
      vertex -63.25 73.25 0
      vertex -63.25 73.25 15.5
    endloop
  endfacet
  facet normal -0.904828 0.425778 0
    outer loop
      vertex -62.5478 76.9312 0
      vertex -62.0131 78.0675 15.5
      vertex -62.0131 78.0675 0
    endloop
  endfacet
  facet normal -0.904828 0.425778 0
    outer loop
      vertex -62.0131 78.0675 15.5
      vertex -62.5478 76.9312 0
      vertex -62.5478 76.9312 15.5
    endloop
  endfacet
  facet normal -0.98229 0.187365 0
    outer loop
      vertex -63.1711 74.5033 0
      vertex -62.9358 75.7369 15.5
      vertex -62.9358 75.7369 0
    endloop
  endfacet
  facet normal -0.98229 0.187365 0
    outer loop
      vertex -62.9358 75.7369 15.5
      vertex -63.1711 74.5033 0
      vertex -63.1711 74.5033 15.5
    endloop
  endfacet
  facet normal -0.481751 0.876308 0
    outer loop
      vertex -57.5078 82.2983 0
      vertex -58.6083 81.6933 15.5
      vertex -57.5078 82.2983 15.5
    endloop
  endfacet
  facet normal -0.481751 0.876308 0
    outer loop
      vertex -58.6083 81.6933 15.5
      vertex -57.5078 82.2983 0
      vertex -58.6083 81.6933 0
    endloop
  endfacet
  facet normal 0.368135 0.929773 -0
    outer loop
      vertex 57.5078 82.2983 0
      vertex 56.3402 82.7606 15.5
      vertex 57.5078 82.2983 15.5
    endloop
  endfacet
  facet normal 0.368135 0.929773 0
    outer loop
      vertex 56.3402 82.7606 15.5
      vertex 57.5078 82.2983 0
      vertex 56.3402 82.7606 0
    endloop
  endfacet
  facet normal 0.481751 0.876308 -0
    outer loop
      vertex 58.6083 81.6933 0
      vertex 57.5078 82.2983 15.5
      vertex 58.6083 81.6933 15.5
    endloop
  endfacet
  facet normal 0.481751 0.876308 0
    outer loop
      vertex 57.5078 82.2983 15.5
      vertex 58.6083 81.6933 0
      vertex 57.5078 82.2983 0
    endloop
  endfacet
  facet normal 0.951069 0.30898 0
    outer loop
      vertex 62.9358 75.7369 15.5
      vertex 62.5478 76.9312 0
      vertex 62.5478 76.9312 15.5
    endloop
  endfacet
  facet normal 0.951069 0.30898 0
    outer loop
      vertex 62.5478 76.9312 0
      vertex 62.9358 75.7369 15.5
      vertex 62.9358 75.7369 0
    endloop
  endfacet
  facet normal 0 0 1
    outer loop
      vertex -48.75 83.2303 15.5
      vertex -53.8151 82.2322 15.5
      vertex -48.75 82.2322 15.5
    endloop
  endfacet
  facet normal -0 0 1
    outer loop
      vertex -53.8779 83.2303 15.5
      vertex -53.8151 82.2322 15.5
      vertex -48.75 83.2303 15.5
    endloop
  endfacet
  facet normal 0 0 1
    outer loop
      vertex -53.8779 83.2303 15.5
      vertex -54.9364 82.0906 15.5
      vertex -53.8151 82.2322 15.5
    endloop
  endfacet
  facet normal -0 0 1
    outer loop
      vertex -55.1238 83.0729 15.5
      vertex -54.9364 82.0906 15.5
      vertex -53.8779 83.2303 15.5
    endloop
  endfacet
  facet normal 0 0 1
    outer loop
      vertex -55.1238 83.0729 15.5
      vertex -56.0312 81.8095 15.5
      vertex -54.9364 82.0906 15.5
    endloop
  endfacet
  facet normal -0 0 1
    outer loop
      vertex -56.3402 82.7606 15.5
      vertex -56.0312 81.8095 15.5
      vertex -55.1238 83.0729 15.5
    endloop
  endfacet
  facet normal 0 0 1
    outer loop
      vertex -56.3402 82.7606 15.5
      vertex -57.082 81.3934 15.5
      vertex -56.0312 81.8095 15.5
    endloop
  endfacet
  facet normal -0 0 1
    outer loop
      vertex -57.5078 82.2983 15.5
      vertex -57.082 81.3934 15.5
      vertex -56.3402 82.7606 15.5
    endloop
  endfacet
  facet normal 0 0 1
    outer loop
      vertex -57.5078 82.2983 15.5
      vertex -58.0724 80.849 15.5
      vertex -57.082 81.3934 15.5
    endloop
  endfacet
  facet normal -0 0 1
    outer loop
      vertex -58.6083 81.6933 15.5
      vertex -58.0724 80.849 15.5
      vertex -57.5078 82.2983 15.5
    endloop
  endfacet
  facet normal 0 0 1
    outer loop
      vertex -58.6083 81.6933 15.5
      vertex -58.9868 80.1846 15.5
      vertex -58.0724 80.849 15.5
    endloop
  endfacet
  facet normal -0 0 1
    outer loop
      vertex -59.6242 80.9551 15.5
      vertex -58.9868 80.1846 15.5
      vertex -58.6083 81.6933 15.5
    endloop
  endfacet
  facet normal 0 0 1
    outer loop
      vertex -59.6242 80.9551 15.5
      vertex -59.8107 79.4109 15.5
      vertex -58.9868 80.1846 15.5
    endloop
  endfacet
  facet normal -0 0 1
    outer loop
      vertex -60.5397 80.0955 15.5
      vertex -59.8107 79.4109 15.5
      vertex -59.6242 80.9551 15.5
    endloop
  endfacet
  facet normal 0 0 1
    outer loop
      vertex -59.8107 79.4109 15.5
      vertex -60.5397 80.0955 15.5
      vertex -60.5312 78.5401 15.5
    endloop
  endfacet
  facet normal -0 0 1
    outer loop
      vertex -61.3402 79.1279 15.5
      vertex -60.5312 78.5401 15.5
      vertex -60.5397 80.0955 15.5
    endloop
  endfacet
  facet normal 0 0 1
    outer loop
      vertex -60.5312 78.5401 15.5
      vertex -61.3402 79.1279 15.5
      vertex -61.1368 77.5858 15.5
    endloop
  endfacet
  facet normal -0 0 1
    outer loop
      vertex -62.0131 78.0675 15.5
      vertex -61.1368 77.5858 15.5
      vertex -61.3402 79.1279 15.5
    endloop
  endfacet
  facet normal 0 0 1
    outer loop
      vertex -61.1368 77.5858 15.5
      vertex -62.0131 78.0675 15.5
      vertex -61.618 76.5631 15.5
    endloop
  endfacet
  facet normal -0 0 1
    outer loop
      vertex -62.5478 76.9312 15.5
      vertex -61.618 76.5631 15.5
      vertex -62.0131 78.0675 15.5
    endloop
  endfacet
  facet normal 0 0 1
    outer loop
      vertex -61.618 76.5631 15.5
      vertex -62.5478 76.9312 15.5
      vertex -61.9672 75.4882 15.5
    endloop
  endfacet
  facet normal -0 0 1
    outer loop
      vertex -62.9358 75.7369 15.5
      vertex -61.9672 75.4882 15.5
      vertex -62.5478 76.9312 15.5
    endloop
  endfacet
  facet normal 0 0 1
    outer loop
      vertex -61.9672 75.4882 15.5
      vertex -62.9358 75.7369 15.5
      vertex -62.179 74.378 15.5
    endloop
  endfacet
  facet normal -0 0 1
    outer loop
      vertex -63.1711 74.5033 15.5
      vertex -62.179 74.378 15.5
      vertex -62.9358 75.7369 15.5
    endloop
  endfacet
  facet normal 0 0 1
    outer loop
      vertex -62.179 74.378 15.5
      vertex -63.1711 74.5033 15.5
      vertex -62.25 73.25 15.5
    endloop
  endfacet
  facet normal 0 0 1
    outer loop
      vertex -63.25 73.25 15.5
      vertex -62.25 73.25 15.5
      vertex -63.1711 74.5033 15.5
    endloop
  endfacet
  facet normal 0 0 1
    outer loop
      vertex -62.25 73.25 15.5
      vertex -63.25 73.25 15.5
      vertex -62.25 68.75 15.5
    endloop
  endfacet
  facet normal 0 0 1
    outer loop
      vertex -62.25 68.75 15.5
      vertex -63.25 73.25 15.5
      vertex -63.25 68.75 15.5
    endloop
  endfacet
  facet normal 0 0 1
    outer loop
      vertex 63.1711 74.5033 15.5
      vertex 62.179 74.378 15.5
      vertex 62.25 73.25 15.5
    endloop
  endfacet
  facet normal 0 0 1
    outer loop
      vertex 61.618 76.5631 15.5
      vertex 62.5478 76.9312 15.5
      vertex 62.0131 78.0675 15.5
    endloop
  endfacet
  facet normal 0 0 1
    outer loop
      vertex 62.9358 75.7369 15.5
      vertex 61.9672 75.4882 15.5
      vertex 62.179 74.378 15.5
    endloop
  endfacet
  facet normal 0 0 1
    outer loop
      vertex 62.5478 76.9312 15.5
      vertex 61.618 76.5631 15.5
      vertex 61.9672 75.4882 15.5
    endloop
  endfacet
  facet normal 0 0 1
    outer loop
      vertex 61.1368 77.5858 15.5
      vertex 62.0131 78.0675 15.5
      vertex 61.3402 79.1279 15.5
    endloop
  endfacet
  facet normal 0 0 1
    outer loop
      vertex 62.0131 78.0675 15.5
      vertex 61.1368 77.5858 15.5
      vertex 61.618 76.5631 15.5
    endloop
  endfacet
  facet normal 0 0 1
    outer loop
      vertex 60.5312 78.5401 15.5
      vertex 61.3402 79.1279 15.5
      vertex 60.5397 80.0955 15.5
    endloop
  endfacet
  facet normal 0 0 1
    outer loop
      vertex 61.3402 79.1279 15.5
      vertex 60.5312 78.5401 15.5
      vertex 61.1368 77.5858 15.5
    endloop
  endfacet
  facet normal 0 0 1
    outer loop
      vertex 60.5397 80.0955 15.5
      vertex 59.8107 79.4109 15.5
      vertex 60.5312 78.5401 15.5
    endloop
  endfacet
  facet normal 0 0 1
    outer loop
      vertex 59.6242 80.9551 15.5
      vertex 59.8107 79.4109 15.5
      vertex 60.5397 80.0955 15.5
    endloop
  endfacet
  facet normal 0 0 1
    outer loop
      vertex 59.6242 80.9551 15.5
      vertex 58.9868 80.1846 15.5
      vertex 59.8107 79.4109 15.5
    endloop
  endfacet
  facet normal 0 0 1
    outer loop
      vertex 58.6083 81.6933 15.5
      vertex 58.9868 80.1846 15.5
      vertex 59.6242 80.9551 15.5
    endloop
  endfacet
  facet normal 0 0 1
    outer loop
      vertex 58.6083 81.6933 15.5
      vertex 58.0724 80.849 15.5
      vertex 58.9868 80.1846 15.5
    endloop
  endfacet
  facet normal 0 0 1
    outer loop
      vertex 57.5078 82.2983 15.5
      vertex 58.0724 80.849 15.5
      vertex 58.6083 81.6933 15.5
    endloop
  endfacet
  facet normal 0 0 1
    outer loop
      vertex 57.5078 82.2983 15.5
      vertex 57.082 81.3934 15.5
      vertex 58.0724 80.849 15.5
    endloop
  endfacet
  facet normal 0 0 1
    outer loop
      vertex 56.3402 82.7606 15.5
      vertex 57.082 81.3934 15.5
      vertex 57.5078 82.2983 15.5
    endloop
  endfacet
  facet normal 0 0 1
    outer loop
      vertex 56.3402 82.7606 15.5
      vertex 56.0312 81.8095 15.5
      vertex 57.082 81.3934 15.5
    endloop
  endfacet
  facet normal 0 0 1
    outer loop
      vertex 55.1238 83.0729 15.5
      vertex 56.0312 81.8095 15.5
      vertex 56.3402 82.7606 15.5
    endloop
  endfacet
  facet normal 0 0 1
    outer loop
      vertex 55.1238 83.0729 15.5
      vertex 54.9364 82.0906 15.5
      vertex 56.0312 81.8095 15.5
    endloop
  endfacet
  facet normal 0 0 1
    outer loop
      vertex 53.8779 83.2303 15.5
      vertex 54.9364 82.0906 15.5
      vertex 55.1238 83.0729 15.5
    endloop
  endfacet
  facet normal 0 0 1
    outer loop
      vertex 53.8779 83.2303 15.5
      vertex 53.8151 82.2322 15.5
      vertex 54.9364 82.0906 15.5
    endloop
  endfacet
  facet normal -0 0 1
    outer loop
      vertex 48.75 83.2303 15.5
      vertex 53.8151 82.2322 15.5
      vertex 53.8779 83.2303 15.5
    endloop
  endfacet
  facet normal 0 0 1
    outer loop
      vertex 53.8151 82.2322 15.5
      vertex 48.75 83.2303 15.5
      vertex 48.75 82.2322 15.5
    endloop
  endfacet
  facet normal 0 0 1
    outer loop
      vertex 62.25 73.25 15.5
      vertex 63.25 73.25 15.5
      vertex 63.1711 74.5033 15.5
    endloop
  endfacet
  facet normal 0 0 1
    outer loop
      vertex 62.179 74.378 15.5
      vertex 63.1711 74.5033 15.5
      vertex 62.9358 75.7369 15.5
    endloop
  endfacet
  facet normal 0 0 1
    outer loop
      vertex 61.9672 75.4882 15.5
      vertex 62.9358 75.7369 15.5
      vertex 62.5478 76.9312 15.5
    endloop
  endfacet
  facet normal 0 0 1
    outer loop
      vertex 63.25 73.25 15.5
      vertex 62.25 73.25 15.5
      vertex 63.25 68.75 15.5
    endloop
  endfacet
  facet normal 0 0 1
    outer loop
      vertex 63.25 68.75 15.5
      vertex 62.25 73.25 15.5
      vertex 62.25 68.75 15.5
    endloop
  endfacet
  facet normal -0.368135 0.929773 0
    outer loop
      vertex -56.3402 82.7606 0
      vertex -57.5078 82.2983 15.5
      vertex -56.3402 82.7606 15.5
    endloop
  endfacet
  facet normal -0.368135 0.929773 0
    outer loop
      vertex -57.5078 82.2983 15.5
      vertex -56.3402 82.7606 0
      vertex -57.5078 82.2983 0
    endloop
  endfacet
  facet normal 0.58784 0.808977 -0
    outer loop
      vertex 59.6242 80.9551 0
      vertex 58.6083 81.6933 15.5
      vertex 59.6242 80.9551 15.5
    endloop
  endfacet
  facet normal 0.58784 0.808977 0
    outer loop
      vertex 58.6083 81.6933 15.5
      vertex 59.6242 80.9551 0
      vertex 58.6083 81.6933 0
    endloop
  endfacet
  facet normal -0.951069 0.30898 0
    outer loop
      vertex -62.9358 75.7369 0
      vertex -62.5478 76.9312 15.5
      vertex -62.5478 76.9312 0
    endloop
  endfacet
  facet normal -0.951069 0.30898 0
    outer loop
      vertex -62.5478 76.9312 15.5
      vertex -62.9358 75.7369 0
      vertex -62.9358 75.7369 15.5
    endloop
  endfacet
  facet normal -0.770501 0.637439 0
    outer loop
      vertex -61.3402 79.1279 0
      vertex -60.5397 80.0955 15.5
      vertex -60.5397 80.0955 0
    endloop
  endfacet
  facet normal -0.770501 0.637439 0
    outer loop
      vertex -60.5397 80.0955 15.5
      vertex -61.3402 79.1279 0
      vertex -61.3402 79.1279 15.5
    endloop
  endfacet
  facet normal -0.58784 0.808977 0
    outer loop
      vertex -58.6083 81.6933 0
      vertex -59.6242 80.9551 15.5
      vertex -58.6083 81.6933 15.5
    endloop
  endfacet
  facet normal -0.58784 0.808977 0
    outer loop
      vertex -59.6242 80.9551 15.5
      vertex -58.6083 81.6933 0
      vertex -59.6242 80.9551 0
    endloop
  endfacet
  facet normal 0.98229 0.187365 0
    outer loop
      vertex 63.1711 74.5033 15.5
      vertex 62.9358 75.7369 0
      vertex 62.9358 75.7369 15.5
    endloop
  endfacet
  facet normal 0.98229 0.187365 0
    outer loop
      vertex 62.9358 75.7369 0
      vertex 63.1711 74.5033 15.5
      vertex 63.1711 74.5033 0
    endloop
  endfacet
  facet normal 0.998024 0.0628294 0
    outer loop
      vertex 63.25 73.25 15.5
      vertex 63.1711 74.5033 0
      vertex 63.1711 74.5033 15.5
    endloop
  endfacet
  facet normal 0.998024 0.0628294 0
    outer loop
      vertex 63.1711 74.5033 0
      vertex 63.25 73.25 15.5
      vertex 63.25 73.25 0
    endloop
  endfacet
  facet normal 0.844346 0.535798 0
    outer loop
      vertex 62.0131 78.0675 15.5
      vertex 61.3402 79.1279 0
      vertex 61.3402 79.1279 15.5
    endloop
  endfacet
  facet normal 0.844346 0.535798 0
    outer loop
      vertex 61.3402 79.1279 0
      vertex 62.0131 78.0675 15.5
      vertex 62.0131 78.0675 0
    endloop
  endfacet
  facet normal 0.904828 0.425778 0
    outer loop
      vertex 62.5478 76.9312 15.5
      vertex 62.0131 78.0675 0
      vertex 62.0131 78.0675 15.5
    endloop
  endfacet
  facet normal 0.904828 0.425778 0
    outer loop
      vertex 62.0131 78.0675 0
      vertex 62.5478 76.9312 15.5
      vertex 62.5478 76.9312 0
    endloop
  endfacet
  facet normal 0 0 -1
    outer loop
      vertex -63.25 0 0
      vertex -60.5 70 0
      vertex -60.5 0 0
    endloop
  endfacet
  facet normal 0 -0 -1
    outer loop
      vertex -63.1711 74.5033 0
      vertex -60.5 70 0
      vertex -63.25 73.25 0
    endloop
  endfacet
  facet normal 0 0 -1
    outer loop
      vertex -60.5 70 0
      vertex -61.3402 79.1279 0
      vertex -60.5397 80.0955 0
    endloop
  endfacet
  facet normal 0 0 -1
    outer loop
      vertex -60.5 70 0
      vertex -62.0131 78.0675 0
      vertex -61.3402 79.1279 0
    endloop
  endfacet
  facet normal 0 0 -1
    outer loop
      vertex -60.5 70 0
      vertex -62.5478 76.9312 0
      vertex -62.0131 78.0675 0
    endloop
  endfacet
  facet normal 0 0 -1
    outer loop
      vertex -60.5 70 0
      vertex -62.9358 75.7369 0
      vertex -62.5478 76.9312 0
    endloop
  endfacet
  facet normal -0 0 -1
    outer loop
      vertex -60.5 70 0
      vertex -63.25 0 0
      vertex -63.25 73.25 0
    endloop
  endfacet
  facet normal 0 0 -1
    outer loop
      vertex -60.5 70 0
      vertex -63.1711 74.5033 0
      vertex -62.9358 75.7369 0
    endloop
  endfacet
  facet normal 0 0 -1
    outer loop
      vertex 60.5 70 0
      vertex 63.25 73.25 0
      vertex 63.25 0 0
    endloop
  endfacet
  facet normal 0 0 -1
    outer loop
      vertex 60.4566 70.6893 0
      vertex 63.25 73.25 0
      vertex 60.5 70 0
    endloop
  endfacet
  facet normal 0 0 -1
    outer loop
      vertex 60.3272 71.3678 0
      vertex 63.25 73.25 0
      vertex 60.4566 70.6893 0
    endloop
  endfacet
  facet normal 0 0 -1
    outer loop
      vertex 60.1138 72.0247 0
      vertex 63.25 73.25 0
      vertex 60.3272 71.3678 0
    endloop
  endfacet
  facet normal 0 0 -1
    outer loop
      vertex 59.8197 72.6496 0
      vertex 63.25 73.25 0
      vertex 60.1138 72.0247 0
    endloop
  endfacet
  facet normal -0 0 -1
    outer loop
      vertex 63.25 73.25 0
      vertex 59.8197 72.6496 0
      vertex 63.1711 74.5033 0
    endloop
  endfacet
  facet normal 0 0 -1
    outer loop
      vertex 60.5 70 0
      vertex 63.25 0 0
      vertex 60.5 0 0
    endloop
  endfacet
  facet normal 0 0 -1
    outer loop
      vertex 59.4496 73.2328 0
      vertex 63.1711 74.5033 0
      vertex 59.8197 72.6496 0
    endloop
  endfacet
  facet normal -0 0 -1
    outer loop
      vertex 63.1711 74.5033 0
      vertex 59.4496 73.2328 0
      vertex 62.9358 75.7369 0
    endloop
  endfacet
  facet normal 0 0 -1
    outer loop
      vertex 59.0093 73.765 0
      vertex 62.9358 75.7369 0
      vertex 59.4496 73.2328 0
    endloop
  endfacet
  facet normal -0 0 -1
    outer loop
      vertex 62.9358 75.7369 0
      vertex 59.0093 73.765 0
      vertex 62.5478 76.9312 0
    endloop
  endfacet
  facet normal 0 0 -1
    outer loop
      vertex 58.5058 74.2378 0
      vertex 62.5478 76.9312 0
      vertex 59.0093 73.765 0
    endloop
  endfacet
  facet normal -0 0 -1
    outer loop
      vertex 62.5478 76.9312 0
      vertex 58.5058 74.2378 0
      vertex 62.0131 78.0675 0
    endloop
  endfacet
  facet normal 0 0 -1
    outer loop
      vertex 57.947 74.6438 0
      vertex 62.0131 78.0675 0
      vertex 58.5058 74.2378 0
    endloop
  endfacet
  facet normal -0 0 -1
    outer loop
      vertex 62.0131 78.0675 0
      vertex 57.947 74.6438 0
      vertex 61.3402 79.1279 0
    endloop
  endfacet
  facet normal 0 0 -1
    outer loop
      vertex 57.3418 74.9765 0
      vertex 61.3402 79.1279 0
      vertex 57.947 74.6438 0
    endloop
  endfacet
  facet normal -0 0 -1
    outer loop
      vertex 61.3402 79.1279 0
      vertex 57.3418 74.9765 0
      vertex 60.5397 80.0955 0
    endloop
  endfacet
  facet normal 0 0 -1
    outer loop
      vertex 56.6996 75.2308 0
      vertex 60.5397 80.0955 0
      vertex 57.3418 74.9765 0
    endloop
  endfacet
  facet normal -0 0 -1
    outer loop
      vertex 60.5397 80.0955 0
      vertex 56.6996 75.2308 0
      vertex 59.6242 80.9551 0
    endloop
  endfacet
  facet normal 0 0 -1
    outer loop
      vertex 56.0306 75.4026 0
      vertex 59.6242 80.9551 0
      vertex 56.6996 75.2308 0
    endloop
  endfacet
  facet normal -0 0 -1
    outer loop
      vertex 59.6242 80.9551 0
      vertex 56.0306 75.4026 0
      vertex 58.6083 81.6933 0
    endloop
  endfacet
  facet normal -0 0 -1
    outer loop
      vertex 58.6083 81.6933 0
      vertex 56.0306 75.4026 0
      vertex 57.5078 82.2983 0
    endloop
  endfacet
  facet normal 0 0 -1
    outer loop
      vertex 55.3453 75.4891 0
      vertex 57.5078 82.2983 0
      vertex 56.0306 75.4026 0
    endloop
  endfacet
  facet normal -0 0 -1
    outer loop
      vertex 57.5078 82.2983 0
      vertex 55.3453 75.4891 0
      vertex 56.3402 82.7606 0
    endloop
  endfacet
  facet normal 0 0 -1
    outer loop
      vertex 55.3453 75.4891 0
      vertex 55.1238 83.0729 0
      vertex 56.3402 82.7606 0
    endloop
  endfacet
  facet normal 0 0 -1
    outer loop
      vertex 55.3453 75.4891 0
      vertex 53.8779 83.2303 0
      vertex 55.1238 83.0729 0
    endloop
  endfacet
  facet normal 0 0 -1
    outer loop
      vertex 55.3453 75.4891 0
      vertex -53.8779 83.2303 0
      vertex 53.8779 83.2303 0
    endloop
  endfacet
  facet normal 0 0 -1
    outer loop
      vertex -55.3453 75.4891 0
      vertex -53.8779 83.2303 0
      vertex 55.3453 75.4891 0
    endloop
  endfacet
  facet normal 0 0 -1
    outer loop
      vertex -53.8779 83.2303 0
      vertex -55.3453 75.4891 0
      vertex -55.1238 83.0729 0
    endloop
  endfacet
  facet normal 0 0 -1
    outer loop
      vertex -57.5078 82.2983 0
      vertex -55.3453 75.4891 0
      vertex -56.0306 75.4026 0
    endloop
  endfacet
  facet normal 0 0 -1
    outer loop
      vertex -55.3453 75.4891 0
      vertex -56.3402 82.7606 0
      vertex -55.1238 83.0729 0
    endloop
  endfacet
  facet normal 0 0 -1
    outer loop
      vertex -59.6242 80.9551 0
      vertex -56.0306 75.4026 0
      vertex -56.6996 75.2308 0
    endloop
  endfacet
  facet normal 0 0 -1
    outer loop
      vertex -60.5397 80.0955 0
      vertex -56.6996 75.2308 0
      vertex -57.3418 74.9765 0
    endloop
  endfacet
  facet normal 0 0 -1
    outer loop
      vertex -55.3453 75.4891 0
      vertex -57.5078 82.2983 0
      vertex -56.3402 82.7606 0
    endloop
  endfacet
  facet normal 0 0 -1
    outer loop
      vertex -60.5397 80.0955 0
      vertex -57.3418 74.9765 0
      vertex -57.947 74.6438 0
    endloop
  endfacet
  facet normal 0 0 -1
    outer loop
      vertex -60.5397 80.0955 0
      vertex -57.947 74.6438 0
      vertex -58.5058 74.2378 0
    endloop
  endfacet
  facet normal 0 0 -1
    outer loop
      vertex -56.0306 75.4026 0
      vertex -58.6083 81.6933 0
      vertex -57.5078 82.2983 0
    endloop
  endfacet
  facet normal 0 0 -1
    outer loop
      vertex -60.5397 80.0955 0
      vertex -58.5058 74.2378 0
      vertex -59.0093 73.765 0
    endloop
  endfacet
  facet normal 0 0 -1
    outer loop
      vertex -60.5397 80.0955 0
      vertex -59.0093 73.765 0
      vertex -59.4496 73.2328 0
    endloop
  endfacet
  facet normal 0 0 -1
    outer loop
      vertex -56.0306 75.4026 0
      vertex -59.6242 80.9551 0
      vertex -58.6083 81.6933 0
    endloop
  endfacet
  facet normal 0 0 -1
    outer loop
      vertex -60.5397 80.0955 0
      vertex -59.4496 73.2328 0
      vertex -59.8197 72.6496 0
    endloop
  endfacet
  facet normal 0 0 -1
    outer loop
      vertex -60.5397 80.0955 0
      vertex -59.8197 72.6496 0
      vertex -60.1138 72.0247 0
    endloop
  endfacet
  facet normal 0 0 -1
    outer loop
      vertex -60.5397 80.0955 0
      vertex -60.1138 72.0247 0
      vertex -60.3272 71.3678 0
    endloop
  endfacet
  facet normal 0 0 -1
    outer loop
      vertex -60.5397 80.0955 0
      vertex -60.3272 71.3678 0
      vertex -60.4566 70.6893 0
    endloop
  endfacet
  facet normal 0 0 -1
    outer loop
      vertex -56.6996 75.2308 0
      vertex -60.5397 80.0955 0
      vertex -59.6242 80.9551 0
    endloop
  endfacet
  facet normal 0 0 -1
    outer loop
      vertex -60.5397 80.0955 0
      vertex -60.4566 70.6893 0
      vertex -60.5 70 0
    endloop
  endfacet
  facet normal -0.844346 0.535798 0
    outer loop
      vertex -62.0131 78.0675 0
      vertex -61.3402 79.1279 15.5
      vertex -61.3402 79.1279 0
    endloop
  endfacet
  facet normal -0.844346 0.535798 0
    outer loop
      vertex -61.3402 79.1279 15.5
      vertex -62.0131 78.0675 0
      vertex -62.0131 78.0675 15.5
    endloop
  endfacet
  facet normal 0 1 0
    outer loop
      vertex 53.8151 82.2322 18.5
      vertex 48.75 82.2322 16.5
      vertex -53.8151 82.2322 18.5
    endloop
  endfacet
  facet normal 0 1 -0
    outer loop
      vertex 53.8151 82.2322 15.5
      vertex 48.75 82.2322 16.5
      vertex 53.8151 82.2322 18.5
    endloop
  endfacet
  facet normal 0 1 0
    outer loop
      vertex 48.75 82.2322 16.5
      vertex 53.8151 82.2322 15.5
      vertex 48.75 82.2322 15.5
    endloop
  endfacet
  facet normal 0 1 -0
    outer loop
      vertex -48.75 82.2322 16.5
      vertex -53.8151 82.2322 18.5
      vertex 48.75 82.2322 16.5
    endloop
  endfacet
  facet normal 0 1 0
    outer loop
      vertex -53.8151 82.2322 15.5
      vertex -48.75 82.2322 16.5
      vertex -48.75 82.2322 15.5
    endloop
  endfacet
  facet normal 0 1 0
    outer loop
      vertex -48.75 82.2322 16.5
      vertex -53.8151 82.2322 15.5
      vertex -53.8151 82.2322 18.5
    endloop
  endfacet
  facet normal -0.998025 0.0628189 0
    outer loop
      vertex -62.25 73.25 15.5
      vertex -62.179 74.378 18.5
      vertex -62.179 74.378 15.5
    endloop
  endfacet
  facet normal -0.998025 0.0628189 0
    outer loop
      vertex -62.179 74.378 18.5
      vertex -62.25 73.25 15.5
      vertex -62.25 73.25 18.5
    endloop
  endfacet
  facet normal 1 0 0
    outer loop
      vertex 62.25 73.25 18.5
      vertex 62.25 68.75 16.5
      vertex 62.25 73.25 15.5
    endloop
  endfacet
  facet normal 1 -0 0
    outer loop
      vertex 62.25 0 18.5
      vertex 62.25 68.75 16.5
      vertex 62.25 73.25 18.5
    endloop
  endfacet
  facet normal 1 0 0
    outer loop
      vertex 62.25 68.75 16.5
      vertex 62.25 0 18.5
      vertex 62.25 0 16.5
    endloop
  endfacet
  facet normal 1 0 0
    outer loop
      vertex 62.25 73.25 15.5
      vertex 62.25 68.75 16.5
      vertex 62.25 68.75 15.5
    endloop
  endfacet
  facet normal -0.68455 0.728966 0
    outer loop
      vertex -58.9868 80.1846 15.5
      vertex -59.8107 79.4109 18.5
      vertex -58.9868 80.1846 18.5
    endloop
  endfacet
  facet normal -0.68455 0.728966 0
    outer loop
      vertex -59.8107 79.4109 18.5
      vertex -58.9868 80.1846 15.5
      vertex -59.8107 79.4109 15.5
    endloop
  endfacet
  facet normal 0.125287 0.992121 -0
    outer loop
      vertex 54.9364 82.0906 15.5
      vertex 53.8151 82.2322 18.5
      vertex 54.9364 82.0906 18.5
    endloop
  endfacet
  facet normal 0.125287 0.992121 0
    outer loop
      vertex 53.8151 82.2322 18.5
      vertex 54.9364 82.0906 15.5
      vertex 53.8151 82.2322 15.5
    endloop
  endfacet
  facet normal 0.36817 0.929759 -0
    outer loop
      vertex 57.082 81.3934 15.5
      vertex 56.0312 81.8095 18.5
      vertex 57.082 81.3934 18.5
    endloop
  endfacet
  facet normal 0.36817 0.929759 0
    outer loop
      vertex 56.0312 81.8095 18.5
      vertex 57.082 81.3934 15.5
      vertex 56.0312 81.8095 15.5
    endloop
  endfacet
  facet normal -1 0 0
    outer loop
      vertex -62.25 68.75 16.5
      vertex -62.25 73.25 15.5
      vertex -62.25 68.75 15.5
    endloop
  endfacet
  facet normal -1 0 0
    outer loop
      vertex -62.25 73.25 15.5
      vertex -62.25 68.75 16.5
      vertex -62.25 73.25 18.5
    endloop
  endfacet
  facet normal -1 0 0
    outer loop
      vertex -62.25 0 18.5
      vertex -62.25 68.75 16.5
      vertex -62.25 0 16.5
    endloop
  endfacet
  facet normal -1 0 0
    outer loop
      vertex -62.25 68.75 16.5
      vertex -62.25 0 18.5
      vertex -62.25 73.25 18.5
    endloop
  endfacet
  facet normal 0.481701 0.876335 -0
    outer loop
      vertex 58.0724 80.849 15.5
      vertex 57.082 81.3934 18.5
      vertex 58.0724 80.849 18.5
    endloop
  endfacet
  facet normal 0.481701 0.876335 0
    outer loop
      vertex 57.082 81.3934 18.5
      vertex 58.0724 80.849 15.5
      vertex 57.082 81.3934 15.5
    endloop
  endfacet
  facet normal 0.248692 0.968582 -0
    outer loop
      vertex 56.0312 81.8095 15.5
      vertex 54.9364 82.0906 18.5
      vertex 56.0312 81.8095 18.5
    endloop
  endfacet
  facet normal 0.248692 0.968582 0
    outer loop
      vertex 54.9364 82.0906 18.5
      vertex 56.0312 81.8095 15.5
      vertex 54.9364 82.0906 15.5
    endloop
  endfacet
  facet normal 0 0 1
    outer loop
      vertex 62.25 73.25 18.5
      vertex 60.4566 70.6893 18.5
      vertex 60.5 70 18.5
    endloop
  endfacet
  facet normal 0 0 1
    outer loop
      vertex 61.1368 77.5858 18.5
      vertex 60.3272 71.3678 18.5
      vertex 60.4566 70.6893 18.5
    endloop
  endfacet
  facet normal 0 0 1
    outer loop
      vertex 61.1368 77.5858 18.5
      vertex 60.1138 72.0247 18.5
      vertex 60.3272 71.3678 18.5
    endloop
  endfacet
  facet normal 0 0 1
    outer loop
      vertex 61.1368 77.5858 18.5
      vertex 59.8197 72.6496 18.5
      vertex 60.1138 72.0247 18.5
    endloop
  endfacet
  facet normal 0 0 1
    outer loop
      vertex 57.3418 74.9765 18.5
      vertex 60.5312 78.5401 18.5
      vertex 59.8107 79.4109 18.5
    endloop
  endfacet
  facet normal 0 0 1
    outer loop
      vertex 61.1368 77.5858 18.5
      vertex 59.4496 73.2328 18.5
      vertex 59.8197 72.6496 18.5
    endloop
  endfacet
  facet normal 0 0 1
    outer loop
      vertex 61.1368 77.5858 18.5
      vertex 59.0093 73.765 18.5
      vertex 59.4496 73.2328 18.5
    endloop
  endfacet
  facet normal 0 0 1
    outer loop
      vertex 56.6996 75.2308 18.5
      vertex 59.8107 79.4109 18.5
      vertex 58.9868 80.1846 18.5
    endloop
  endfacet
  facet normal 0 0 1
    outer loop
      vertex 61.1368 77.5858 18.5
      vertex 58.5058 74.2378 18.5
      vertex 59.0093 73.765 18.5
    endloop
  endfacet
  facet normal 0 0 1
    outer loop
      vertex 56.0306 75.4026 18.5
      vertex 58.9868 80.1846 18.5
      vertex 58.0724 80.849 18.5
    endloop
  endfacet
  facet normal 0 0 1
    outer loop
      vertex 61.1368 77.5858 18.5
      vertex 57.947 74.6438 18.5
      vertex 58.5058 74.2378 18.5
    endloop
  endfacet
  facet normal 0 0 1
    outer loop
      vertex 60.5312 78.5401 18.5
      vertex 57.3418 74.9765 18.5
      vertex 57.947 74.6438 18.5
    endloop
  endfacet
  facet normal 0 0 1
    outer loop
      vertex 56.0306 75.4026 18.5
      vertex 58.0724 80.849 18.5
      vertex 57.082 81.3934 18.5
    endloop
  endfacet
  facet normal 0 0 1
    outer loop
      vertex 59.8107 79.4109 18.5
      vertex 56.6996 75.2308 18.5
      vertex 57.3418 74.9765 18.5
    endloop
  endfacet
  facet normal 0 0 1
    outer loop
      vertex 55.3453 75.4891 18.5
      vertex 57.082 81.3934 18.5
      vertex 56.0312 81.8095 18.5
    endloop
  endfacet
  facet normal 0 0 1
    outer loop
      vertex 58.9868 80.1846 18.5
      vertex 56.0306 75.4026 18.5
      vertex 56.6996 75.2308 18.5
    endloop
  endfacet
  facet normal 0 0 1
    outer loop
      vertex 57.082 81.3934 18.5
      vertex 55.3453 75.4891 18.5
      vertex 56.0306 75.4026 18.5
    endloop
  endfacet
  facet normal 0 0 1
    outer loop
      vertex 54.9364 82.0906 18.5
      vertex 55.3453 75.4891 18.5
      vertex 56.0312 81.8095 18.5
    endloop
  endfacet
  facet normal 0 0 1
    outer loop
      vertex 53.8151 82.2322 18.5
      vertex 55.3453 75.4891 18.5
      vertex 54.9364 82.0906 18.5
    endloop
  endfacet
  facet normal -0 0 1
    outer loop
      vertex -53.8151 82.2322 18.5
      vertex 55.3453 75.4891 18.5
      vertex 53.8151 82.2322 18.5
    endloop
  endfacet
  facet normal 0 0 1
    outer loop
      vertex -55.3453 75.4891 18.5
      vertex -53.8151 82.2322 18.5
      vertex -54.9364 82.0906 18.5
    endloop
  endfacet
  facet normal 0 0 1
    outer loop
      vertex -53.8151 82.2322 18.5
      vertex -55.3453 75.4891 18.5
      vertex 55.3453 75.4891 18.5
    endloop
  endfacet
  facet normal -0 0 1
    outer loop
      vertex -56.0312 81.8095 18.5
      vertex -55.3453 75.4891 18.5
      vertex -54.9364 82.0906 18.5
    endloop
  endfacet
  facet normal -0 0 1
    outer loop
      vertex -57.082 81.3934 18.5
      vertex -55.3453 75.4891 18.5
      vertex -56.0312 81.8095 18.5
    endloop
  endfacet
  facet normal 0 0 1
    outer loop
      vertex -55.3453 75.4891 18.5
      vertex -57.082 81.3934 18.5
      vertex -56.0306 75.4026 18.5
    endloop
  endfacet
  facet normal -0 0 1
    outer loop
      vertex -58.0724 80.849 18.5
      vertex -56.0306 75.4026 18.5
      vertex -57.082 81.3934 18.5
    endloop
  endfacet
  facet normal -0 0 1
    outer loop
      vertex -58.9868 80.1846 18.5
      vertex -56.0306 75.4026 18.5
      vertex -58.0724 80.849 18.5
    endloop
  endfacet
  facet normal 0 0 1
    outer loop
      vertex -56.0306 75.4026 18.5
      vertex -58.9868 80.1846 18.5
      vertex -56.6996 75.2308 18.5
    endloop
  endfacet
  facet normal -0 0 1
    outer loop
      vertex -59.8107 79.4109 18.5
      vertex -56.6996 75.2308 18.5
      vertex -58.9868 80.1846 18.5
    endloop
  endfacet
  facet normal 0 0 1
    outer loop
      vertex -56.6996 75.2308 18.5
      vertex -59.8107 79.4109 18.5
      vertex -57.3418 74.9765 18.5
    endloop
  endfacet
  facet normal -0 0 1
    outer loop
      vertex -60.5312 78.5401 18.5
      vertex -57.3418 74.9765 18.5
      vertex -59.8107 79.4109 18.5
    endloop
  endfacet
  facet normal 0 0 1
    outer loop
      vertex -57.3418 74.9765 18.5
      vertex -60.5312 78.5401 18.5
      vertex -57.947 74.6438 18.5
    endloop
  endfacet
  facet normal -0 0 1
    outer loop
      vertex -61.1368 77.5858 18.5
      vertex -57.947 74.6438 18.5
      vertex -60.5312 78.5401 18.5
    endloop
  endfacet
  facet normal 0 0 1
    outer loop
      vertex -57.947 74.6438 18.5
      vertex -61.1368 77.5858 18.5
      vertex -58.5058 74.2378 18.5
    endloop
  endfacet
  facet normal -0 0 1
    outer loop
      vertex -61.618 76.5631 18.5
      vertex -58.5058 74.2378 18.5
      vertex -61.1368 77.5858 18.5
    endloop
  endfacet
  facet normal -0 0 1
    outer loop
      vertex -61.9672 75.4882 18.5
      vertex -58.5058 74.2378 18.5
      vertex -61.618 76.5631 18.5
    endloop
  endfacet
  facet normal 0 0 1
    outer loop
      vertex -58.5058 74.2378 18.5
      vertex -61.9672 75.4882 18.5
      vertex -59.0093 73.765 18.5
    endloop
  endfacet
  facet normal -0 0 1
    outer loop
      vertex -62.179 74.378 18.5
      vertex -59.0093 73.765 18.5
      vertex -61.9672 75.4882 18.5
    endloop
  endfacet
  facet normal 0 0 1
    outer loop
      vertex -59.0093 73.765 18.5
      vertex -62.179 74.378 18.5
      vertex -59.4496 73.2328 18.5
    endloop
  endfacet
  facet normal -0 0 1
    outer loop
      vertex -62.25 73.25 18.5
      vertex -59.4496 73.2328 18.5
      vertex -62.179 74.378 18.5
    endloop
  endfacet
  facet normal 0 0 1
    outer loop
      vertex -59.4496 73.2328 18.5
      vertex -62.25 73.25 18.5
      vertex -59.8197 72.6496 18.5
    endloop
  endfacet
  facet normal 0 0 1
    outer loop
      vertex -59.8197 72.6496 18.5
      vertex -62.25 73.25 18.5
      vertex -60.1138 72.0247 18.5
    endloop
  endfacet
  facet normal 0 0 1
    outer loop
      vertex -60.1138 72.0247 18.5
      vertex -62.25 73.25 18.5
      vertex -60.3272 71.3678 18.5
    endloop
  endfacet
  facet normal 0 0 1
    outer loop
      vertex -60.3272 71.3678 18.5
      vertex -62.25 73.25 18.5
      vertex -60.4566 70.6893 18.5
    endloop
  endfacet
  facet normal 0 0 1
    outer loop
      vertex -60.4566 70.6893 18.5
      vertex -62.25 73.25 18.5
      vertex -60.5 70 18.5
    endloop
  endfacet
  facet normal 0 0 1
    outer loop
      vertex -62.25 0 18.5
      vertex -60.5 70 18.5
      vertex -62.25 73.25 18.5
    endloop
  endfacet
  facet normal 0 0 1
    outer loop
      vertex -60.5 70 18.5
      vertex -62.25 0 18.5
      vertex -60.5 0 18.5
    endloop
  endfacet
  facet normal 0 0 1
    outer loop
      vertex 60.4566 70.6893 18.5
      vertex 62.25 73.25 18.5
      vertex 62.179 74.378 18.5
    endloop
  endfacet
  facet normal 0 0 1
    outer loop
      vertex 60.4566 70.6893 18.5
      vertex 62.179 74.378 18.5
      vertex 61.9672 75.4882 18.5
    endloop
  endfacet
  facet normal 0 0 1
    outer loop
      vertex 60.4566 70.6893 18.5
      vertex 61.9672 75.4882 18.5
      vertex 61.618 76.5631 18.5
    endloop
  endfacet
  facet normal 0 0 1
    outer loop
      vertex 60.4566 70.6893 18.5
      vertex 61.618 76.5631 18.5
      vertex 61.1368 77.5858 18.5
    endloop
  endfacet
  facet normal 0 0 1
    outer loop
      vertex 57.947 74.6438 18.5
      vertex 61.1368 77.5858 18.5
      vertex 60.5312 78.5401 18.5
    endloop
  endfacet
  facet normal 0 0 1
    outer loop
      vertex 62.25 73.25 18.5
      vertex 60.5 70 18.5
      vertex 62.25 0 18.5
    endloop
  endfacet
  facet normal 0 0 1
    outer loop
      vertex 62.25 0 18.5
      vertex 60.5 70 18.5
      vertex 60.5 0 18.5
    endloop
  endfacet
  facet normal -0.481701 0.876335 0
    outer loop
      vertex -57.082 81.3934 15.5
      vertex -58.0724 80.849 18.5
      vertex -57.082 81.3934 18.5
    endloop
  endfacet
  facet normal -0.481701 0.876335 0
    outer loop
      vertex -58.0724 80.849 18.5
      vertex -57.082 81.3934 15.5
      vertex -58.0724 80.849 15.5
    endloop
  endfacet
  facet normal -0.36817 0.929759 0
    outer loop
      vertex -56.0312 81.8095 15.5
      vertex -57.082 81.3934 18.5
      vertex -56.0312 81.8095 18.5
    endloop
  endfacet
  facet normal -0.36817 0.929759 0
    outer loop
      vertex -57.082 81.3934 18.5
      vertex -56.0312 81.8095 15.5
      vertex -57.082 81.3934 15.5
    endloop
  endfacet
  facet normal -0.248692 0.968582 0
    outer loop
      vertex -54.9364 82.0906 15.5
      vertex -56.0312 81.8095 18.5
      vertex -54.9364 82.0906 18.5
    endloop
  endfacet
  facet normal -0.248692 0.968582 0
    outer loop
      vertex -56.0312 81.8095 18.5
      vertex -54.9364 82.0906 15.5
      vertex -56.0312 81.8095 15.5
    endloop
  endfacet
  facet normal -0.844335 0.535816 0
    outer loop
      vertex -61.1368 77.5858 15.5
      vertex -60.5312 78.5401 18.5
      vertex -60.5312 78.5401 15.5
    endloop
  endfacet
  facet normal -0.844335 0.535816 0
    outer loop
      vertex -60.5312 78.5401 18.5
      vertex -61.1368 77.5858 15.5
      vertex -61.1368 77.5858 18.5
    endloop
  endfacet
  facet normal 0.587814 0.808996 -0
    outer loop
      vertex 58.9868 80.1846 15.5
      vertex 58.0724 80.849 18.5
      vertex 58.9868 80.1846 18.5
    endloop
  endfacet
  facet normal 0.587814 0.808996 0
    outer loop
      vertex 58.0724 80.849 18.5
      vertex 58.9868 80.1846 15.5
      vertex 58.0724 80.849 15.5
    endloop
  endfacet
  facet normal 0.68455 0.728966 -0
    outer loop
      vertex 59.8107 79.4109 15.5
      vertex 58.9868 80.1846 18.5
      vertex 59.8107 79.4109 18.5
    endloop
  endfacet
  facet normal 0.68455 0.728966 0
    outer loop
      vertex 58.9868 80.1846 18.5
      vertex 59.8107 79.4109 15.5
      vertex 58.9868 80.1846 15.5
    endloop
  endfacet
  facet normal 0.770465 0.637483 0
    outer loop
      vertex 60.5312 78.5401 18.5
      vertex 59.8107 79.4109 15.5
      vertex 59.8107 79.4109 18.5
    endloop
  endfacet
  facet normal 0.770465 0.637483 0
    outer loop
      vertex 59.8107 79.4109 15.5
      vertex 60.5312 78.5401 18.5
      vertex 60.5312 78.5401 15.5
    endloop
  endfacet
  facet normal 0.998025 0.0628189 0
    outer loop
      vertex 62.25 73.25 18.5
      vertex 62.179 74.378 15.5
      vertex 62.179 74.378 18.5
    endloop
  endfacet
  facet normal 0.998025 0.0628189 0
    outer loop
      vertex 62.179 74.378 15.5
      vertex 62.25 73.25 18.5
      vertex 62.25 73.25 15.5
    endloop
  endfacet
  facet normal 0.904843 0.425746 0
    outer loop
      vertex 61.618 76.5631 18.5
      vertex 61.1368 77.5858 15.5
      vertex 61.1368 77.5858 18.5
    endloop
  endfacet
  facet normal 0.904843 0.425746 0
    outer loop
      vertex 61.1368 77.5858 15.5
      vertex 61.618 76.5631 18.5
      vertex 61.618 76.5631 15.5
    endloop
  endfacet
  facet normal -0.587814 0.808996 0
    outer loop
      vertex -58.0724 80.849 15.5
      vertex -58.9868 80.1846 18.5
      vertex -58.0724 80.849 18.5
    endloop
  endfacet
  facet normal -0.587814 0.808996 0
    outer loop
      vertex -58.9868 80.1846 18.5
      vertex -58.0724 80.849 15.5
      vertex -58.9868 80.1846 15.5
    endloop
  endfacet
  facet normal -0.125287 0.992121 0
    outer loop
      vertex -53.8151 82.2322 15.5
      vertex -54.9364 82.0906 18.5
      vertex -53.8151 82.2322 18.5
    endloop
  endfacet
  facet normal -0.125287 0.992121 0
    outer loop
      vertex -54.9364 82.0906 18.5
      vertex -53.8151 82.2322 15.5
      vertex -54.9364 82.0906 15.5
    endloop
  endfacet
  facet normal -0.770465 0.637483 0
    outer loop
      vertex -60.5312 78.5401 15.5
      vertex -59.8107 79.4109 18.5
      vertex -59.8107 79.4109 15.5
    endloop
  endfacet
  facet normal -0.770465 0.637483 0
    outer loop
      vertex -59.8107 79.4109 18.5
      vertex -60.5312 78.5401 15.5
      vertex -60.5312 78.5401 18.5
    endloop
  endfacet
  facet normal 0.844335 0.535816 0
    outer loop
      vertex 61.1368 77.5858 18.5
      vertex 60.5312 78.5401 15.5
      vertex 60.5312 78.5401 18.5
    endloop
  endfacet
  facet normal 0.844335 0.535816 0
    outer loop
      vertex 60.5312 78.5401 15.5
      vertex 61.1368 77.5858 18.5
      vertex 61.1368 77.5858 15.5
    endloop
  endfacet
  facet normal 0.982284 0.187397 0
    outer loop
      vertex 62.179 74.378 18.5
      vertex 61.9672 75.4882 15.5
      vertex 61.9672 75.4882 18.5
    endloop
  endfacet
  facet normal 0.982284 0.187397 0
    outer loop
      vertex 61.9672 75.4882 15.5
      vertex 62.179 74.378 18.5
      vertex 62.179 74.378 15.5
    endloop
  endfacet
  facet normal 0.951071 0.308972 0
    outer loop
      vertex 61.9672 75.4882 18.5
      vertex 61.618 76.5631 15.5
      vertex 61.618 76.5631 18.5
    endloop
  endfacet
  facet normal 0.951071 0.308972 0
    outer loop
      vertex 61.618 76.5631 15.5
      vertex 61.9672 75.4882 18.5
      vertex 61.9672 75.4882 15.5
    endloop
  endfacet
  facet normal -0.982284 0.187397 0
    outer loop
      vertex -62.179 74.378 15.5
      vertex -61.9672 75.4882 18.5
      vertex -61.9672 75.4882 15.5
    endloop
  endfacet
  facet normal -0.982284 0.187397 0
    outer loop
      vertex -61.9672 75.4882 18.5
      vertex -62.179 74.378 15.5
      vertex -62.179 74.378 18.5
    endloop
  endfacet
  facet normal -0.951071 0.308972 0
    outer loop
      vertex -61.9672 75.4882 15.5
      vertex -61.618 76.5631 18.5
      vertex -61.618 76.5631 15.5
    endloop
  endfacet
  facet normal -0.951071 0.308972 0
    outer loop
      vertex -61.618 76.5631 18.5
      vertex -61.9672 75.4882 15.5
      vertex -61.9672 75.4882 18.5
    endloop
  endfacet
  facet normal -0.904843 0.425746 0
    outer loop
      vertex -61.618 76.5631 15.5
      vertex -61.1368 77.5858 18.5
      vertex -61.1368 77.5858 15.5
    endloop
  endfacet
  facet normal -0.904843 0.425746 0
    outer loop
      vertex -61.1368 77.5858 18.5
      vertex -61.618 76.5631 15.5
      vertex -61.618 76.5631 18.5
    endloop
  endfacet
  facet normal -1 0 0
    outer loop
      vertex -48.75 83.2303 15.5
      vertex -48.75 83.75 1
      vertex -48.75 83.2303 1
    endloop
  endfacet
  facet normal -1 0 0
    outer loop
      vertex -48.75 83.75 1
      vertex -48.75 83.2303 15.5
      vertex -48.75 83.75 16.5
    endloop
  endfacet
  facet normal -1 0 0
    outer loop
      vertex -48.75 82.2322 16.5
      vertex -48.75 83.2303 15.5
      vertex -48.75 82.2322 15.5
    endloop
  endfacet
  facet normal -1 0 0
    outer loop
      vertex -48.75 83.2303 15.5
      vertex -48.75 82.2322 16.5
      vertex -48.75 83.75 16.5
    endloop
  endfacet
  facet normal -0 0 1
    outer loop
      vertex -48.75 83.75 16.5
      vertex 48.75 82.2322 16.5
      vertex 48.75 83.75 16.5
    endloop
  endfacet
  facet normal 0 0 1
    outer loop
      vertex 48.75 82.2322 16.5
      vertex -48.75 83.75 16.5
      vertex -48.75 82.2322 16.5
    endloop
  endfacet
  facet normal -0 0 1
    outer loop
      vertex 62.25 68.75 16.5
      vertex 63.75 0 16.5
      vertex 63.75 68.75 16.5
    endloop
  endfacet
  facet normal 0 0 1
    outer loop
      vertex 63.75 0 16.5
      vertex 62.25 68.75 16.5
      vertex 62.25 0 16.5
    endloop
  endfacet
  facet normal -0 0 1
    outer loop
      vertex -63.75 68.75 16.5
      vertex -62.25 0 16.5
      vertex -62.25 68.75 16.5
    endloop
  endfacet
  facet normal 0 0 1
    outer loop
      vertex -62.25 0 16.5
      vertex -63.75 68.75 16.5
      vertex -63.75 0 16.5
    endloop
  endfacet
  facet normal 1 0 0
    outer loop
      vertex 48.75 83.75 16.5
      vertex 48.75 83.2303 15.5
      vertex 48.75 83.75 1
    endloop
  endfacet
  facet normal 1 -0 0
    outer loop
      vertex 48.75 82.2322 16.5
      vertex 48.75 83.2303 15.5
      vertex 48.75 83.75 16.5
    endloop
  endfacet
  facet normal 1 0 0
    outer loop
      vertex 48.75 83.2303 15.5
      vertex 48.75 82.2322 16.5
      vertex 48.75 82.2322 15.5
    endloop
  endfacet
  facet normal 1 0 0
    outer loop
      vertex 48.75 83.75 1
      vertex 48.75 83.2303 15.5
      vertex 48.75 83.2303 1
    endloop
  endfacet
  facet normal 0 0 -1
    outer loop
      vertex -48.75 83.2303 1
      vertex 48.75 83.75 1
      vertex 48.75 83.2303 1
    endloop
  endfacet
  facet normal -0 0 -1
    outer loop
      vertex 48.75 83.75 1
      vertex -48.75 83.2303 1
      vertex -48.75 83.75 1
    endloop
  endfacet
  facet normal 0 0 -1
    outer loop
      vertex 63.25 0 1
      vertex 63.75 68.75 1
      vertex 63.75 0 1
    endloop
  endfacet
  facet normal -0 0 -1
    outer loop
      vertex 63.75 68.75 1
      vertex 63.25 0 1
      vertex 63.25 68.75 1
    endloop
  endfacet
  facet normal 0 0 -1
    outer loop
      vertex -63.75 0 1
      vertex -63.25 68.75 1
      vertex -63.25 0 1
    endloop
  endfacet
  facet normal -0 0 -1
    outer loop
      vertex -63.25 68.75 1
      vertex -63.75 0 1
      vertex -63.75 68.75 1
    endloop
  endfacet
  facet normal 0 1 -0
    outer loop
      vertex 48.75 83.75 1
      vertex -48.75 83.75 16.5
      vertex 48.75 83.75 16.5
    endloop
  endfacet
  facet normal 0 1 0
    outer loop
      vertex -48.75 83.75 16.5
      vertex 48.75 83.75 1
      vertex -48.75 83.75 1
    endloop
  endfacet
  facet normal -1 0 0
    outer loop
      vertex -63.75 0 1
      vertex -63.75 68.75 16.5
      vertex -63.75 68.75 1
    endloop
  endfacet
  facet normal -1 -0 0
    outer loop
      vertex -63.75 68.75 16.5
      vertex -63.75 0 1
      vertex -63.75 0 16.5
    endloop
  endfacet
  facet normal 1 -0 0
    outer loop
      vertex 63.75 0 16.5
      vertex 63.75 68.75 1
      vertex 63.75 68.75 16.5
    endloop
  endfacet
  facet normal 1 0 0
    outer loop
      vertex 63.75 68.75 1
      vertex 63.75 0 16.5
      vertex 63.75 0 1
    endloop
  endfacet
  facet normal 0 1 0
    outer loop
      vertex 63.75 68.75 16.5
      vertex 63.25 68.75 15.5
      vertex 62.25 68.75 16.5
    endloop
  endfacet
  facet normal 0 1 -0
    outer loop
      vertex 63.75 68.75 1
      vertex 63.25 68.75 15.5
      vertex 63.75 68.75 16.5
    endloop
  endfacet
  facet normal 0 1 0
    outer loop
      vertex 63.25 68.75 15.5
      vertex 63.75 68.75 1
      vertex 63.25 68.75 1
    endloop
  endfacet
  facet normal 0 1 0
    outer loop
      vertex 62.25 68.75 16.5
      vertex 63.25 68.75 15.5
      vertex 62.25 68.75 15.5
    endloop
  endfacet
  facet normal 0 1 0
    outer loop
      vertex -63.25 68.75 15.5
      vertex -62.25 68.75 16.5
      vertex -62.25 68.75 15.5
    endloop
  endfacet
  facet normal 0 1 0
    outer loop
      vertex -62.25 68.75 16.5
      vertex -63.25 68.75 15.5
      vertex -63.75 68.75 16.5
    endloop
  endfacet
  facet normal 0 1 0
    outer loop
      vertex -63.75 68.75 1
      vertex -63.25 68.75 15.5
      vertex -63.25 68.75 1
    endloop
  endfacet
  facet normal 0 1 0
    outer loop
      vertex -63.25 68.75 15.5
      vertex -63.75 68.75 1
      vertex -63.75 68.75 16.5
    endloop
  endfacet
  facet normal 0 -1 0
    outer loop
      vertex -55.3453 75.4891 0
      vertex 55.3453 75.4891 18.5
      vertex -55.3453 75.4891 18.5
    endloop
  endfacet
  facet normal 0 -1 -0
    outer loop
      vertex 55.3453 75.4891 18.5
      vertex -55.3453 75.4891 0
      vertex 55.3453 75.4891 0
    endloop
  endfacet
  facet normal 0.684533 -0.728982 0
    outer loop
      vertex -59.0093 73.765 0
      vertex -58.5058 74.2378 18.5
      vertex -59.0093 73.765 18.5
    endloop
  endfacet
  facet normal 0.684533 -0.728982 0
    outer loop
      vertex -58.5058 74.2378 18.5
      vertex -59.0093 73.765 0
      vertex -58.5058 74.2378 0
    endloop
  endfacet
  facet normal -1 0 0
    outer loop
      vertex 60.5 0 0
      vertex 60.5 70 18.5
      vertex 60.5 70 0
    endloop
  endfacet
  facet normal -1 -0 0
    outer loop
      vertex 60.5 70 18.5
      vertex 60.5 0 0
      vertex 60.5 0 18.5
    endloop
  endfacet
  facet normal -0.770495 -0.637446 0
    outer loop
      vertex 59.4496 73.2328 0
      vertex 59.0093 73.765 18.5
      vertex 59.0093 73.765 0
    endloop
  endfacet
  facet normal -0.770495 -0.637446 0
    outer loop
      vertex 59.0093 73.765 18.5
      vertex 59.4496 73.2328 0
      vertex 59.4496 73.2328 18.5
    endloop
  endfacet
  facet normal 1 -0 0
    outer loop
      vertex -60.5 0 18.5
      vertex -60.5 70 0
      vertex -60.5 70 18.5
    endloop
  endfacet
  facet normal 1 0 0
    outer loop
      vertex -60.5 70 0
      vertex -60.5 0 18.5
      vertex -60.5 0 0
    endloop
  endfacet
  facet normal -0.368168 -0.929759 0
    outer loop
      vertex 56.6996 75.2308 0
      vertex 57.3418 74.9765 18.5
      vertex 56.6996 75.2308 18.5
    endloop
  endfacet
  facet normal -0.368168 -0.929759 -0
    outer loop
      vertex 57.3418 74.9765 18.5
      vertex 56.6996 75.2308 0
      vertex 57.3418 74.9765 0
    endloop
  endfacet
  facet normal 0.125228 -0.992128 0
    outer loop
      vertex -56.0306 75.4026 0
      vertex -55.3453 75.4891 18.5
      vertex -56.0306 75.4026 18.5
    endloop
  endfacet
  facet normal 0.125228 -0.992128 0
    outer loop
      vertex -55.3453 75.4891 18.5
      vertex -56.0306 75.4026 0
      vertex -55.3453 75.4891 0
    endloop
  endfacet
  facet normal -0.998024 -0.062838 0
    outer loop
      vertex 60.5 70 0
      vertex 60.4566 70.6893 18.5
      vertex 60.4566 70.6893 0
    endloop
  endfacet
  facet normal -0.998024 -0.062838 0
    outer loop
      vertex 60.4566 70.6893 18.5
      vertex 60.5 70 0
      vertex 60.5 70 18.5
    endloop
  endfacet
  facet normal 0.998024 -0.062838 0
    outer loop
      vertex -60.5 70 18.5
      vertex -60.4566 70.6893 0
      vertex -60.4566 70.6893 18.5
    endloop
  endfacet
  facet normal 0.998024 -0.062838 0
    outer loop
      vertex -60.4566 70.6893 0
      vertex -60.5 70 18.5
      vertex -60.5 70 0
    endloop
  endfacet
  facet normal -0.125228 -0.992128 0
    outer loop
      vertex 55.3453 75.4891 0
      vertex 56.0306 75.4026 18.5
      vertex 55.3453 75.4891 18.5
    endloop
  endfacet
  facet normal -0.125228 -0.992128 -0
    outer loop
      vertex 56.0306 75.4026 18.5
      vertex 55.3453 75.4891 0
      vertex 56.0306 75.4026 0
    endloop
  endfacet
  facet normal -0.951073 -0.308965 0
    outer loop
      vertex 60.3272 71.3678 0
      vertex 60.1138 72.0247 18.5
      vertex 60.1138 72.0247 0
    endloop
  endfacet
  facet normal -0.951073 -0.308965 0
    outer loop
      vertex 60.1138 72.0247 18.5
      vertex 60.3272 71.3678 0
      vertex 60.3272 71.3678 18.5
    endloop
  endfacet
  facet normal 0.587793 -0.809011 0
    outer loop
      vertex -58.5058 74.2378 0
      vertex -57.947 74.6438 18.5
      vertex -58.5058 74.2378 18.5
    endloop
  endfacet
  facet normal 0.587793 -0.809011 0
    outer loop
      vertex -57.947 74.6438 18.5
      vertex -58.5058 74.2378 0
      vertex -57.947 74.6438 0
    endloop
  endfacet
  facet normal 0.481741 -0.876314 0
    outer loop
      vertex -57.947 74.6438 0
      vertex -57.3418 74.9765 18.5
      vertex -57.947 74.6438 18.5
    endloop
  endfacet
  facet normal 0.481741 -0.876314 0
    outer loop
      vertex -57.3418 74.9765 18.5
      vertex -57.947 74.6438 0
      vertex -57.3418 74.9765 0
    endloop
  endfacet
  facet normal 0.368168 -0.929759 0
    outer loop
      vertex -57.3418 74.9765 0
      vertex -56.6996 75.2308 18.5
      vertex -57.3418 74.9765 18.5
    endloop
  endfacet
  facet normal 0.368168 -0.929759 0
    outer loop
      vertex -56.6996 75.2308 18.5
      vertex -57.3418 74.9765 0
      vertex -56.6996 75.2308 0
    endloop
  endfacet
  facet normal 0.770495 -0.637446 0
    outer loop
      vertex -59.4496 73.2328 18.5
      vertex -59.0093 73.765 0
      vertex -59.0093 73.765 18.5
    endloop
  endfacet
  facet normal 0.770495 -0.637446 0
    outer loop
      vertex -59.0093 73.765 0
      vertex -59.4496 73.2328 18.5
      vertex -59.4496 73.2328 0
    endloop
  endfacet
  facet normal -0.481741 -0.876314 0
    outer loop
      vertex 57.3418 74.9765 0
      vertex 57.947 74.6438 18.5
      vertex 57.3418 74.9765 18.5
    endloop
  endfacet
  facet normal -0.481741 -0.876314 -0
    outer loop
      vertex 57.947 74.6438 18.5
      vertex 57.3418 74.9765 0
      vertex 57.947 74.6438 0
    endloop
  endfacet
  facet normal -0.684533 -0.728982 0
    outer loop
      vertex 58.5058 74.2378 0
      vertex 59.0093 73.765 18.5
      vertex 58.5058 74.2378 18.5
    endloop
  endfacet
  facet normal -0.684533 -0.728982 -0
    outer loop
      vertex 59.0093 73.765 18.5
      vertex 58.5058 74.2378 0
      vertex 59.0093 73.765 0
    endloop
  endfacet
  facet normal -0.904802 -0.425832 0
    outer loop
      vertex 60.1138 72.0247 0
      vertex 59.8197 72.6496 18.5
      vertex 59.8197 72.6496 0
    endloop
  endfacet
  facet normal -0.904802 -0.425832 0
    outer loop
      vertex 59.8197 72.6496 18.5
      vertex 60.1138 72.0247 0
      vertex 60.1138 72.0247 18.5
    endloop
  endfacet
  facet normal -0.844334 -0.535817 0
    outer loop
      vertex 59.8197 72.6496 0
      vertex 59.4496 73.2328 18.5
      vertex 59.4496 73.2328 0
    endloop
  endfacet
  facet normal -0.844334 -0.535817 0
    outer loop
      vertex 59.4496 73.2328 18.5
      vertex 59.8197 72.6496 0
      vertex 59.8197 72.6496 18.5
    endloop
  endfacet
  facet normal -0.982295 -0.187338 0
    outer loop
      vertex 60.4566 70.6893 0
      vertex 60.3272 71.3678 18.5
      vertex 60.3272 71.3678 0
    endloop
  endfacet
  facet normal -0.982295 -0.187338 0
    outer loop
      vertex 60.3272 71.3678 18.5
      vertex 60.4566 70.6893 0
      vertex 60.4566 70.6893 18.5
    endloop
  endfacet
  facet normal 0.248731 -0.968573 0
    outer loop
      vertex -56.6996 75.2308 0
      vertex -56.0306 75.4026 18.5
      vertex -56.6996 75.2308 18.5
    endloop
  endfacet
  facet normal 0.248731 -0.968573 0
    outer loop
      vertex -56.0306 75.4026 18.5
      vertex -56.6996 75.2308 0
      vertex -56.0306 75.4026 0
    endloop
  endfacet
  facet normal 0.844334 -0.535817 0
    outer loop
      vertex -59.8197 72.6496 18.5
      vertex -59.4496 73.2328 0
      vertex -59.4496 73.2328 18.5
    endloop
  endfacet
  facet normal 0.844334 -0.535817 0
    outer loop
      vertex -59.4496 73.2328 0
      vertex -59.8197 72.6496 18.5
      vertex -59.8197 72.6496 0
    endloop
  endfacet
  facet normal 0.904802 -0.425832 0
    outer loop
      vertex -60.1138 72.0247 18.5
      vertex -59.8197 72.6496 0
      vertex -59.8197 72.6496 18.5
    endloop
  endfacet
  facet normal 0.904802 -0.425832 0
    outer loop
      vertex -59.8197 72.6496 0
      vertex -60.1138 72.0247 18.5
      vertex -60.1138 72.0247 0
    endloop
  endfacet
  facet normal -0.587793 -0.809011 0
    outer loop
      vertex 57.947 74.6438 0
      vertex 58.5058 74.2378 18.5
      vertex 57.947 74.6438 18.5
    endloop
  endfacet
  facet normal -0.587793 -0.809011 -0
    outer loop
      vertex 58.5058 74.2378 18.5
      vertex 57.947 74.6438 0
      vertex 58.5058 74.2378 0
    endloop
  endfacet
  facet normal -0.248731 -0.968573 0
    outer loop
      vertex 56.0306 75.4026 0
      vertex 56.6996 75.2308 18.5
      vertex 56.0306 75.4026 18.5
    endloop
  endfacet
  facet normal -0.248731 -0.968573 -0
    outer loop
      vertex 56.6996 75.2308 18.5
      vertex 56.0306 75.4026 0
      vertex 56.6996 75.2308 0
    endloop
  endfacet
  facet normal 0.982295 -0.187338 0
    outer loop
      vertex -60.4566 70.6893 18.5
      vertex -60.3272 71.3678 0
      vertex -60.3272 71.3678 18.5
    endloop
  endfacet
  facet normal 0.982295 -0.187338 0
    outer loop
      vertex -60.3272 71.3678 0
      vertex -60.4566 70.6893 18.5
      vertex -60.4566 70.6893 0
    endloop
  endfacet
  facet normal 0.951073 -0.308965 0
    outer loop
      vertex -60.3272 71.3678 18.5
      vertex -60.1138 72.0247 0
      vertex -60.1138 72.0247 18.5
    endloop
  endfacet
  facet normal 0.951073 -0.308965 0
    outer loop
      vertex -60.1138 72.0247 0
      vertex -60.3272 71.3678 18.5
      vertex -60.3272 71.3678 0
    endloop
  endfacet
  facet normal 0 -1 0
    outer loop
      vertex -63.25 0 1
      vertex -63.75 0 16.5
      vertex -63.75 0 1
    endloop
  endfacet
  facet normal 0 -1 0
    outer loop
      vertex -62.25 0 16.5
      vertex -60.5 0 18.5
      vertex -62.25 0 18.5
    endloop
  endfacet
  facet normal 0 -1 0
    outer loop
      vertex -63.75 0 16.5
      vertex -63.25 0 1
      vertex -62.25 0 16.5
    endloop
  endfacet
  facet normal 0 -1 0
    outer loop
      vertex -60.5 0 0
      vertex -62.25 0 16.5
      vertex -63.25 0 1
    endloop
  endfacet
  facet normal 0 -1 0
    outer loop
      vertex -60.5 0 0
      vertex -63.25 0 1
      vertex -63.25 0 0
    endloop
  endfacet
  facet normal 0 -1 0
    outer loop
      vertex -62.25 0 16.5
      vertex -60.5 0 0
      vertex -60.5 0 18.5
    endloop
  endfacet
  facet normal 0 -1 0
    outer loop
      vertex 60.5 0 18.5
      vertex 62.25 0 16.5
      vertex 62.25 0 18.5
    endloop
  endfacet
  facet normal 0 -1 0
    outer loop
      vertex 62.25 0 16.5
      vertex 63.25 0 1
      vertex 63.75 0 16.5
    endloop
  endfacet
  facet normal 0 -1 0
    outer loop
      vertex 60.5 0 0
      vertex 62.25 0 16.5
      vertex 60.5 0 18.5
    endloop
  endfacet
  facet normal 0 -1 -0
    outer loop
      vertex 62.25 0 16.5
      vertex 60.5 0 0
      vertex 63.25 0 1
    endloop
  endfacet
  facet normal 0 -1 -0
    outer loop
      vertex 63.25 0 1
      vertex 60.5 0 0
      vertex 63.25 0 0
    endloop
  endfacet
  facet normal 0 -1 -0
    outer loop
      vertex 63.75 0 16.5
      vertex 63.25 0 1
      vertex 63.75 0 1
    endloop
  endfacet
endsolid OpenSCAD_Model
